G04 #@! TF.FileFunction,Soldermask,Bot*
%FSLAX46Y46*%
G04 Gerber Fmt 4.6, Leading zero omitted, Abs format (unit mm)*
G04 Created by KiCad (PCBNEW 4.0.7) date 05/19/19 12:42:44*
%MOMM*%
%LPD*%
G01*
G04 APERTURE LIST*
%ADD10C,0.100000*%
%ADD11R,2.127200X2.127200*%
%ADD12O,2.127200X2.127200*%
%ADD13C,2.900000*%
%ADD14C,1.900000*%
%ADD15C,3.400000*%
%ADD16C,4.900000*%
G04 APERTURE END LIST*
D10*
D11*
X99100000Y-140000000D03*
D12*
X101100000Y-140000000D03*
X99100000Y-138000000D03*
X101100000Y-138000000D03*
X99100000Y-136000000D03*
X101100000Y-136000000D03*
X99100000Y-134000000D03*
X101100000Y-134000000D03*
X99100000Y-132000000D03*
X101100000Y-132000000D03*
X99100000Y-130000000D03*
X101100000Y-130000000D03*
X99100000Y-128000000D03*
X101100000Y-128000000D03*
X99100000Y-126000000D03*
X101100000Y-126000000D03*
X99100000Y-124000000D03*
X101100000Y-124000000D03*
X99100000Y-122000000D03*
X101100000Y-122000000D03*
X99100000Y-120000000D03*
X101100000Y-120000000D03*
X99100000Y-118000000D03*
X101100000Y-118000000D03*
X99100000Y-116000000D03*
X101100000Y-116000000D03*
X99100000Y-114000000D03*
X101100000Y-114000000D03*
X99100000Y-112000000D03*
X101100000Y-112000000D03*
X99100000Y-110000000D03*
X101100000Y-110000000D03*
X99100000Y-108000000D03*
X101100000Y-108000000D03*
X99100000Y-106000000D03*
X101100000Y-106000000D03*
X99100000Y-104000000D03*
X101100000Y-104000000D03*
X99100000Y-102000000D03*
X101100000Y-102000000D03*
D13*
X100100000Y-146000000D03*
X68600000Y-146000000D03*
X68600000Y-69000000D03*
X100100000Y-69000000D03*
D14*
X137000000Y-90890000D03*
X137000000Y-93430000D03*
X137000000Y-95460000D03*
X137000000Y-98000000D03*
D15*
X139670000Y-87840000D03*
X139670000Y-101560000D03*
D16*
X63700140Y-56500000D03*
X57700660Y-56500000D03*
X60700400Y-61199000D03*
D11*
X143460000Y-134000000D03*
D12*
X146000000Y-134000000D03*
X143460000Y-136540000D03*
X146000000Y-136540000D03*
X143460000Y-139080000D03*
X146000000Y-139080000D03*
X143460000Y-141620000D03*
X146000000Y-141620000D03*
X143460000Y-144160000D03*
X146000000Y-144160000D03*
D11*
X143460000Y-112340000D03*
D12*
X146000000Y-112340000D03*
X143460000Y-114880000D03*
X146000000Y-114880000D03*
X143460000Y-117420000D03*
X146000000Y-117420000D03*
X143460000Y-119960000D03*
X146000000Y-119960000D03*
X143460000Y-122500000D03*
X146000000Y-122500000D03*
M02*
