M48
;DRILL file {KiCad 4.0.7} date 05/19/19 10:50:30
;FORMAT={-:-/ absolute / inch / decimal}
FMAT,2
INCH,TZ
T1C0.008
T2C0.012
T3C0.039
T4C0.040
T5C0.091
T6C0.098
T7C0.118
%
G90
G05
M72
T1
X4.4843Y-2.811
X4.4843Y-2.8504
X4.4843Y-2.8898
X4.4843Y-2.9291
X4.4843Y-2.9685
X4.4843Y-3.0079
X4.4843Y-3.0472
X4.4843Y-3.0866
X4.5236Y-2.811
X4.5236Y-2.8504
X4.5236Y-2.8898
X4.5236Y-2.9291
X4.5236Y-2.9685
X4.5236Y-3.0079
X4.5236Y-3.0472
X4.5236Y-3.0866
X4.563Y-2.811
X4.563Y-2.8504
X4.563Y-2.8898
X4.563Y-2.9291
X4.563Y-2.9685
X4.563Y-3.0079
X4.563Y-3.0472
X4.563Y-3.0866
X4.6024Y-2.811
X4.6024Y-2.8504
X4.6024Y-2.8898
X4.6024Y-2.9291
X4.6024Y-2.9685
X4.6024Y-3.0079
X4.6024Y-3.0472
X4.6024Y-3.0866
X4.6417Y-2.811
X4.6417Y-2.8504
X4.6417Y-2.8898
X4.6417Y-2.9291
X4.6417Y-2.9685
X4.6417Y-3.0079
X4.6417Y-3.0472
X4.6417Y-3.0866
X4.6811Y-2.811
X4.6811Y-2.8504
X4.6811Y-2.8898
X4.6811Y-2.9291
X4.6811Y-2.9685
X4.6811Y-3.0079
X4.6811Y-3.0472
X4.6811Y-3.0866
X4.7205Y-2.811
X4.7205Y-2.8504
X4.7205Y-2.8898
X4.7205Y-2.9291
X4.7205Y-2.9685
X4.7205Y-3.0079
X4.7205Y-3.0472
X4.7205Y-3.0866
X4.7598Y-2.811
X4.7598Y-2.8504
X4.7598Y-2.8898
X4.7598Y-2.9291
X4.7598Y-2.9685
X4.7598Y-3.0079
X4.7598Y-3.0472
X4.7598Y-3.0866
T2
X2.3622Y-4.7275
X2.3622Y-4.7568
X2.4213Y-4.2224
X2.4213Y-4.3169
X2.4213Y-4.4114
X2.4213Y-4.5059
X2.4213Y-4.6004
X2.4213Y-4.6949
X2.4213Y-4.7894
X2.4213Y-4.8839
X2.5689Y-2.3425
X2.5984Y-2.4213
X2.5984Y-2.4803
X2.6378Y-2.0276
X2.6969Y-2.5394
X2.7264Y-2.5394
X2.7362Y-4.1909
X2.7362Y-4.2854
X2.7362Y-4.3799
X2.7362Y-4.4744
X2.7362Y-4.6319
X2.7362Y-4.7264
X2.7362Y-4.8209
X2.7362Y-4.9154
X2.7362Y-5.0098
X2.7523Y-2.5
X2.7559Y-2.5394
X2.7854Y-2.5
X2.7854Y-2.5394
X2.8346Y-2.2244
X2.8346Y-2.5394
X2.8937Y-2.2244
X3.1004Y-2.1358
X3.1299Y-2.1358
X3.1594Y-2.1358
X3.1988Y-2.3327
X3.2283Y-2.1358
X3.248Y-2.0866
X3.2677Y-2.2638
X3.2874Y-2.2146
X3.3268Y-3.4696
X3.3268Y-3.4989
X3.435Y-2.0571
X3.4744Y-2.0571
X3.5138Y-2.0571
X3.5335Y-4.1634
X3.5531Y-2.0571
X3.5728Y-4.1634
X3.6122Y-4.1634
X3.6614Y-4.1634
X3.6811Y-4.3504
X3.7008Y-2.0177
X3.7205Y-4.252
X3.7598Y-4.252
X3.7795Y-2.2638
X3.7992Y-4.252
X3.878Y-3.1398
X3.9173Y-2.0571
X3.9173Y-2.2343
X3.9173Y-2.313
X3.9173Y-2.4902
X3.9567Y-2.0571
X3.9567Y-2.2343
X3.9567Y-2.313
X3.9567Y-2.4902
X3.9567Y-3.1299
X3.9961Y-2.0571
X3.9961Y-2.2343
X3.9961Y-2.313
X3.9961Y-2.4902
X4.0453Y-2.5689
X4.0551Y-3.1102
X4.0748Y-2.5689
X4.0748Y-3.0709
X4.124Y-2.2638
X4.1339Y-2.7264
X4.1437Y-2.6083
X4.1713Y-2.8642
X4.2224Y-3.7795
X4.2303Y-2.8642
X4.2323Y-4.5276
X4.2323Y-4.6654
X4.2547Y-4.1705
X4.2618Y-4.6949
X4.2618Y-4.7244
X4.2717Y-2.0472
X4.2717Y-2.2047
X4.2717Y-2.4606
X4.2717Y-2.9134
X4.2717Y-2.9921
X4.2717Y-3.1496
X4.2756Y-3.2087
X4.2776Y-2.8543
X4.2776Y-3.0512
X4.2913Y-4.5276
X4.2913Y-4.6654
X4.2933Y-2.6181
X4.3012Y-2.5787
X4.3209Y-2.2835
X4.3307Y-2.815
X4.3307Y-3.248
X4.3406Y-2.2047
X4.3504Y-2.4902
X4.3504Y-4.5276
X4.3504Y-4.6654
X4.3602Y-2.2047
X4.3799Y-2.2047
X4.3819Y-2.6752
X4.3898Y-4.1437
X4.3898Y-5.5709
X4.3996Y-5.6004
X4.4094Y-4.0551
X4.4193Y-2.5984
X4.4291Y-3.2126
X4.4291Y-4.5276
X4.4291Y-5.4134
X4.439Y-4.4685
X4.4488Y-3.8906
X4.4508Y-4.9488
X4.4508Y-5.1122
X4.4508Y-5.189
X4.4508Y-5.3524
X4.4587Y-2.5925
X4.4685Y-2.2835
X4.4783Y-2.4311
X4.4783Y-3.8386
X4.4783Y-3.8681
X4.4882Y-4.3799
X4.5047Y-5.7315
X4.5079Y-2.4843
X4.5079Y-4.0256
X4.5271Y-2.6476
X4.5374Y-4.3307
X4.5472Y-2.0276
X4.5472Y-2.2244
X4.5472Y-2.5787
X4.5472Y-2.6181
X4.5472Y-5.4134
X4.5669Y-4.2717
X4.5866Y-2.3819
X4.5866Y-2.4843
X4.5925Y-2.6713
X4.6047Y-5.7299
X4.6122Y-2.6417
X4.626Y-2.185
X4.626Y-2.4803
X4.626Y-4.2126
X4.6319Y-2.6713
X4.6358Y-2.5886
X4.6555Y-4.9508
X4.6654Y-5.4134
X4.6713Y-2.6713
X4.6752Y-2.5217
X4.6752Y-4.0551
X4.7047Y-4.2717
X4.7047Y-5.7283
X4.7087Y-2.3976
X4.7343Y-2.5217
X4.7421Y-2.065
X4.7441Y-4.2815
X4.75Y-2.6614
X4.7539Y-2.2047
X4.7736Y-2.4961
X4.7736Y-3.2835
X4.7933Y-2.6181
X4.7933Y-4.5276
X4.8031Y-2.0236
X4.8327Y-3.2874
X4.8425Y-5.4134
X4.8445Y-2.3484
X4.8524Y-2.6181
X4.8524Y-3.4941
X4.8524Y-3.6417
X4.8661Y-2.4311
X4.872Y-4.252
X4.8858Y-2.5
X4.8858Y-2.5591
X4.8858Y-2.6181
X4.9094Y-2.9193
X4.9114Y-3.4941
X4.9114Y-3.6417
X4.9114Y-4.5177
X4.9181Y-5.7315
X4.9409Y-2.126
X4.9508Y-2.7461
X4.9587Y-2.3484
X4.9587Y-2.687
X4.9606Y-3.1201
X4.9606Y-3.1791
X4.9606Y-5.4134
X4.9705Y-3.4941
X4.9705Y-3.6417
X4.9744Y-4.4193
X4.9744Y-4.9469
X4.9803Y-2.6535
X5.0098Y-4.7835
X5.0177Y-2.8051
X5.0177Y-2.8642
X5.0181Y-5.7299
X5.0197Y-2.5
X5.0197Y-4.9213
X5.0197Y-5.315
X5.0295Y-3.3563
X5.0295Y-3.4941
X5.0295Y-3.6417
X5.0295Y-4.5965
X5.0492Y-4.8031
X5.0591Y-4.8819
X5.0728Y-2.124
X5.0787Y-2.9941
X5.0787Y-3.6122
X5.0787Y-5.4134
X5.0886Y-5.2953
X5.1083Y-4.7933
X5.1181Y-5.7283
X5.128Y-4.9409
X5.1378Y-2.9921
X5.1378Y-5.4035
X5.1673Y-4.498
X5.1772Y-2.7806
X5.1772Y-2.8099
X5.187Y-4.4291
X5.1969Y-4.6063
X5.1969Y-4.7638
X5.1969Y-5.1181
X5.2362Y-5.2264
X5.252Y-2.4606
X5.2559Y-4.2126
X5.2657Y-2.7806
X5.2657Y-2.8099
X5.2854Y-4.4685
X5.2854Y-4.8228
X5.3878Y-3.0354
X5.4154Y-2.9272
X5.4154Y-3.0886
X5.4291Y-3.2244
X5.4331Y-2.2638
X5.4331Y-2.3228
X5.4331Y-2.3819
X5.4365Y-2.1816
X5.5315Y-2.4213
X5.5413Y-4.7539
X5.5492Y-2.9272
X5.5492Y-3.0886
X5.5512Y-3.2579
X5.5512Y-3.2874
X5.5512Y-3.3169
X5.5709Y-2.0669
X5.5709Y-2.1555
X5.5807Y-3.2579
X5.5807Y-3.2874
X5.5807Y-3.3169
X5.6102Y-3.2579
X5.6102Y-3.2874
X5.6102Y-3.3169
X5.6298Y-2.7861
X5.6299Y-2.815
X5.6339Y-2.5295
X5.6339Y-2.5846
X5.6339Y-2.6437
X5.6339Y-2.7028
X5.6339Y-2.7618
X5.6339Y-2.8406
X5.6339Y-2.9193
X5.6339Y-2.939
X5.6339Y-2.9587
X5.6791Y-3.248
T3
X5.3937Y-3.5783
X5.3937Y-3.6783
X5.3937Y-3.7583
X5.3937Y-3.8583
T4
X3.9016Y-4.0157
X3.9016Y-4.0945
X3.9016Y-4.1732
X3.9016Y-4.252
X3.9016Y-4.3307
X3.9016Y-4.4094
X3.9016Y-4.4882
X3.9016Y-4.5669
X3.9016Y-4.6457
X3.9016Y-4.7244
X3.9016Y-4.8031
X3.9016Y-4.8819
X3.9016Y-4.9606
X3.9016Y-5.0394
X3.9016Y-5.1181
X3.9016Y-5.1969
X3.9016Y-5.2756
X3.9016Y-5.3543
X3.9016Y-5.4331
X3.9016Y-5.5118
X3.9803Y-4.0157
X3.9803Y-4.0945
X3.9803Y-4.1732
X3.9803Y-4.252
X3.9803Y-4.3307
X3.9803Y-4.4094
X3.9803Y-4.4882
X3.9803Y-4.5669
X3.9803Y-4.6457
X3.9803Y-4.7244
X3.9803Y-4.8031
X3.9803Y-4.8819
X3.9803Y-4.9606
X3.9803Y-5.0394
X3.9803Y-5.1181
X3.9803Y-5.1969
X3.9803Y-5.2756
X3.9803Y-5.3543
X3.9803Y-5.4331
X3.9803Y-5.5118
X5.648Y-4.4228
X5.648Y-4.5228
X5.648Y-4.6228
X5.648Y-4.7228
X5.648Y-4.8228
X5.648Y-5.2756
X5.648Y-5.3756
X5.648Y-5.4756
X5.648Y-5.5756
X5.648Y-5.6756
X5.748Y-4.4228
X5.748Y-4.5228
X5.748Y-4.6228
X5.748Y-4.7228
X5.748Y-4.8228
X5.748Y-5.2756
X5.748Y-5.3756
X5.748Y-5.4756
X5.748Y-5.5756
X5.748Y-5.6756
T5
X5.4988Y-3.4583
X5.4988Y-3.9984
T6
X2.7008Y-2.7165
X2.7008Y-5.748
X3.9409Y-2.7165
X3.9409Y-5.748
T7
X2.2717Y-2.2244
X2.3898Y-2.4094
X2.5079Y-2.2244
T0
M30
