G04 #@! TF.FileFunction,Copper,L3,Inr,Signal*
%FSLAX46Y46*%
G04 Gerber Fmt 4.6, Leading zero omitted, Abs format (unit mm)*
G04 Created by KiCad (PCBNEW 4.0.7) date 05/19/19 10:50:28*
%MOMM*%
%LPD*%
G01*
G04 APERTURE LIST*
%ADD10C,0.100000*%
%ADD11R,1.727200X1.727200*%
%ADD12O,1.727200X1.727200*%
%ADD13C,2.500000*%
%ADD14C,1.500000*%
%ADD15C,3.000000*%
%ADD16C,4.500000*%
%ADD17C,0.300000*%
%ADD18C,0.400000*%
%ADD19C,0.200000*%
%ADD20C,0.152400*%
%ADD21C,0.254000*%
G04 APERTURE END LIST*
D10*
D11*
X99100000Y-140000000D03*
D12*
X101100000Y-140000000D03*
X99100000Y-138000000D03*
X101100000Y-138000000D03*
X99100000Y-136000000D03*
X101100000Y-136000000D03*
X99100000Y-134000000D03*
X101100000Y-134000000D03*
X99100000Y-132000000D03*
X101100000Y-132000000D03*
X99100000Y-130000000D03*
X101100000Y-130000000D03*
X99100000Y-128000000D03*
X101100000Y-128000000D03*
X99100000Y-126000000D03*
X101100000Y-126000000D03*
X99100000Y-124000000D03*
X101100000Y-124000000D03*
X99100000Y-122000000D03*
X101100000Y-122000000D03*
X99100000Y-120000000D03*
X101100000Y-120000000D03*
X99100000Y-118000000D03*
X101100000Y-118000000D03*
X99100000Y-116000000D03*
X101100000Y-116000000D03*
X99100000Y-114000000D03*
X101100000Y-114000000D03*
X99100000Y-112000000D03*
X101100000Y-112000000D03*
X99100000Y-110000000D03*
X101100000Y-110000000D03*
X99100000Y-108000000D03*
X101100000Y-108000000D03*
X99100000Y-106000000D03*
X101100000Y-106000000D03*
X99100000Y-104000000D03*
X101100000Y-104000000D03*
X99100000Y-102000000D03*
X101100000Y-102000000D03*
D13*
X100100000Y-146000000D03*
X68600000Y-146000000D03*
X68600000Y-69000000D03*
X100100000Y-69000000D03*
D14*
X137000000Y-90890000D03*
X137000000Y-93430000D03*
X137000000Y-95460000D03*
X137000000Y-98000000D03*
D15*
X139670000Y-87840000D03*
X139670000Y-101560000D03*
D16*
X63700140Y-56500000D03*
X57700660Y-56500000D03*
X60700400Y-61199000D03*
D11*
X143460000Y-134000000D03*
D12*
X146000000Y-134000000D03*
X143460000Y-136540000D03*
X146000000Y-136540000D03*
X143460000Y-139080000D03*
X146000000Y-139080000D03*
X143460000Y-141620000D03*
X146000000Y-141620000D03*
X143460000Y-144160000D03*
X146000000Y-144160000D03*
D11*
X143460000Y-112340000D03*
D12*
X146000000Y-112340000D03*
X143460000Y-114880000D03*
X146000000Y-114880000D03*
X143460000Y-117420000D03*
X146000000Y-117420000D03*
X143460000Y-119960000D03*
X146000000Y-119960000D03*
X143460000Y-122500000D03*
X146000000Y-122500000D03*
D17*
X113900000Y-71400000D03*
X114900000Y-71400000D03*
X115900000Y-71400000D03*
X116900000Y-71400000D03*
X117900000Y-71400000D03*
X118900000Y-71400000D03*
X119900000Y-71400000D03*
X120900000Y-71400000D03*
X120900000Y-72400000D03*
X119900000Y-72400000D03*
X118900000Y-72400000D03*
X117900000Y-72400000D03*
X116900000Y-72400000D03*
X115900000Y-72400000D03*
X114900000Y-72400000D03*
X113900000Y-72400000D03*
X113900000Y-73400000D03*
X113900000Y-74400000D03*
X114900000Y-73400000D03*
X114900000Y-74400000D03*
X115900000Y-74400000D03*
X115900000Y-73400000D03*
X116900000Y-73400000D03*
X116900000Y-74400000D03*
X117900000Y-74400000D03*
X117900000Y-73400000D03*
X118900000Y-73400000D03*
X118900000Y-74400000D03*
X119900000Y-73400000D03*
X119900000Y-74400000D03*
X120900000Y-73400000D03*
X120900000Y-74400000D03*
X113900000Y-78400000D03*
X113900000Y-77400000D03*
X113900000Y-76400000D03*
X113900000Y-75400000D03*
X114900000Y-75400000D03*
X114900000Y-76400000D03*
X114900000Y-77400000D03*
X114900000Y-78400000D03*
X115900000Y-78400000D03*
X115900000Y-77400000D03*
X115900000Y-76400000D03*
X115900000Y-75400000D03*
X116900000Y-75400000D03*
X116900000Y-76400000D03*
X116900000Y-77400000D03*
X116900000Y-78400000D03*
X117900000Y-78400000D03*
X117900000Y-77400000D03*
X117900000Y-76400000D03*
X117900000Y-75400000D03*
X118900000Y-75400000D03*
X118900000Y-76400000D03*
X118900000Y-77400000D03*
X118900000Y-78400000D03*
X119900000Y-78400000D03*
X119900000Y-77400000D03*
X119900000Y-76400000D03*
X119900000Y-75400000D03*
X120900000Y-75400000D03*
X120900000Y-76400000D03*
X120900000Y-77400000D03*
X120900000Y-78400000D03*
D18*
X141000000Y-84250000D03*
X141750000Y-84250000D03*
X142500000Y-84250000D03*
X142500000Y-83500000D03*
X141750000Y-83500000D03*
X141000000Y-83500000D03*
X141000000Y-82750000D03*
X141750000Y-82750000D03*
X142500000Y-82750000D03*
X80250000Y-54250000D03*
X79500000Y-54250000D03*
X78750000Y-54250000D03*
X69908000Y-63500000D03*
X70750000Y-63500000D03*
X70750000Y-64500000D03*
X70000000Y-64500000D03*
X69250000Y-64500000D03*
X68500000Y-64500000D03*
X118250000Y-125750000D03*
X141500000Y-54750000D03*
X117500000Y-63000000D03*
X110500000Y-63250000D03*
X66000000Y-63000000D03*
X66000000Y-61500000D03*
X65250000Y-59500000D03*
X144250000Y-82500000D03*
X115500000Y-51500000D03*
X112750000Y-113500000D03*
X105250000Y-66250000D03*
X115500000Y-56500000D03*
X113500000Y-58000000D03*
X109750000Y-58000000D03*
X110500000Y-118500000D03*
X109000000Y-118500000D03*
X107500000Y-118500000D03*
X124750000Y-92500000D03*
X127750000Y-92500000D03*
X126250000Y-92500000D03*
X123250000Y-92500000D03*
X115250000Y-110000000D03*
X112000000Y-103000000D03*
X123750000Y-108000000D03*
X120500000Y-108750000D03*
X119500000Y-108500000D03*
X117500000Y-107000000D03*
X111500000Y-105250000D03*
X108500000Y-52000000D03*
X94000000Y-51250000D03*
X108500000Y-56000000D03*
X104750000Y-57500000D03*
X108500000Y-62500000D03*
X101500000Y-52250000D03*
X99500000Y-52250000D03*
X99500000Y-56750000D03*
X101500000Y-56750000D03*
X100500000Y-56750000D03*
X100500000Y-52250000D03*
X101500000Y-58750000D03*
X99500000Y-58750000D03*
X100500000Y-58750000D03*
X101500000Y-63250000D03*
X99500000Y-63250000D03*
X100500000Y-63250000D03*
X96000000Y-57500000D03*
X72000000Y-64500000D03*
X72000000Y-56500000D03*
X73500000Y-56500000D03*
X82500000Y-53000000D03*
X81250000Y-59250000D03*
X83000000Y-57500000D03*
X82000000Y-54250000D03*
X83500000Y-56250000D03*
X67000000Y-51500000D03*
X109050000Y-66500000D03*
X107450000Y-72750000D03*
X126350000Y-125650000D03*
X126350000Y-112250000D03*
X119600000Y-60900000D03*
X133400000Y-62500000D03*
X123600000Y-61750000D03*
X113050000Y-135950000D03*
X113050000Y-131800000D03*
X113050000Y-129850000D03*
X113050000Y-125700000D03*
X128850000Y-53950000D03*
X120450000Y-52450000D03*
X130000000Y-145500000D03*
X127460000Y-145540000D03*
X124920000Y-145580000D03*
X119500000Y-145500000D03*
X114420000Y-145580000D03*
X116960000Y-145540000D03*
X132000000Y-130000000D03*
X132000000Y-117000000D03*
X137550000Y-74350000D03*
X137550000Y-78450000D03*
X122000000Y-51400000D03*
X125500000Y-54000000D03*
X123050000Y-59650000D03*
X125950000Y-59650000D03*
X136850000Y-77100000D03*
X137900000Y-81900000D03*
X124100000Y-63500000D03*
X124100000Y-65000000D03*
X124100000Y-66500000D03*
X120250000Y-64050000D03*
X116500000Y-63100000D03*
X114500000Y-63100000D03*
X143100000Y-64250000D03*
X143100000Y-75150000D03*
X143100000Y-74650000D03*
X143100000Y-74150000D03*
X143100000Y-65650000D03*
X143100000Y-67150000D03*
X143100000Y-72150000D03*
X143100000Y-68650000D03*
X143100000Y-70150000D03*
X110000000Y-82500000D03*
X108500000Y-80000000D03*
X108500000Y-76000000D03*
X108500000Y-74000000D03*
X112250000Y-66000000D03*
X123250000Y-66500000D03*
X125950000Y-68250000D03*
X127450000Y-71250000D03*
X130500000Y-76000000D03*
X126000000Y-80750000D03*
X122750000Y-83500000D03*
X69500000Y-106450000D03*
X69500000Y-108850000D03*
X69500000Y-111250000D03*
X69500000Y-113650000D03*
X69500000Y-117650000D03*
X69500000Y-120050000D03*
X69500000Y-122450000D03*
X69500000Y-124850000D03*
X69500000Y-127250000D03*
X61500000Y-124050000D03*
X61500000Y-121650000D03*
X61500000Y-119250000D03*
X61500000Y-116850000D03*
X61500000Y-114450000D03*
X61500000Y-112050000D03*
X61500000Y-109650000D03*
X61500000Y-107250000D03*
X141500000Y-52500000D03*
X142997251Y-70766498D03*
X143000000Y-71500000D03*
X109250000Y-65500000D03*
X90250000Y-52250000D03*
X89250000Y-52250000D03*
X88250000Y-52250000D03*
X87250000Y-52250000D03*
X132000000Y-121000000D03*
X133000000Y-132750000D03*
X129000000Y-137500000D03*
X126000000Y-137500000D03*
X123000000Y-137500000D03*
X118500000Y-137500000D03*
X115500000Y-137500000D03*
X112500000Y-137500000D03*
X140950000Y-78450000D03*
X140950000Y-74350000D03*
X138000000Y-60500000D03*
X138086725Y-55413275D03*
X114000000Y-111250000D03*
X140750000Y-120750000D03*
X133500000Y-107000000D03*
X121250000Y-63400000D03*
X110250000Y-56000000D03*
X110750000Y-56000000D03*
X111250000Y-56000000D03*
X113750000Y-98250000D03*
X113750000Y-97500000D03*
X105000000Y-69250000D03*
X127750000Y-85250000D03*
X118750000Y-103000000D03*
X114500000Y-102250000D03*
X105950000Y-72750000D03*
X117500000Y-55500000D03*
X118750000Y-64050000D03*
X113250000Y-65850000D03*
X113750000Y-61750000D03*
X121750000Y-66500000D03*
X115500000Y-65500000D03*
X108600000Y-81500000D03*
X126000000Y-79250000D03*
X116500000Y-60500000D03*
X125750000Y-69750000D03*
X108650000Y-72500000D03*
X108650000Y-77500000D03*
X112500000Y-81600000D03*
X121250000Y-83400000D03*
X129000000Y-76050000D03*
X127450000Y-72750000D03*
X131500000Y-70627400D03*
X133750000Y-70627400D03*
X131500000Y-71372600D03*
X133750000Y-71372600D03*
X111500000Y-141500000D03*
X130250000Y-125500000D03*
X111750000Y-142250000D03*
X127500000Y-135000000D03*
X128500000Y-124000000D03*
X124750000Y-114750000D03*
X93500000Y-110500000D03*
X131250000Y-114250000D03*
X94500000Y-108000000D03*
X121750000Y-115000000D03*
X96500000Y-108000000D03*
X60000000Y-120822600D03*
X84500000Y-88127400D03*
X60000000Y-120077400D03*
X84500000Y-88872600D03*
X93000000Y-105750000D03*
X129750000Y-121750000D03*
X131750000Y-112500000D03*
X91750000Y-105750000D03*
X138000000Y-59000000D03*
X102750000Y-65250000D03*
X103500000Y-78000000D03*
X108250000Y-120000000D03*
X127250000Y-121500000D03*
X90750000Y-105750000D03*
X138000000Y-57500000D03*
X103500000Y-65250000D03*
X103000000Y-79000000D03*
X108250000Y-119250000D03*
X134250000Y-113500000D03*
X89750000Y-105750000D03*
X128250000Y-122000000D03*
X134250000Y-122500000D03*
X113000000Y-98821000D03*
X107250000Y-96000000D03*
X116000000Y-108500000D03*
X98500000Y-79750000D03*
X108069896Y-105930104D03*
X110000000Y-71500000D03*
X110500000Y-115000000D03*
X120650000Y-67600000D03*
X117750000Y-65750000D03*
X109000000Y-115000000D03*
X115500000Y-66500000D03*
X107500000Y-115000000D03*
X129000000Y-91750000D03*
X124750000Y-88750000D03*
X117150000Y-67100000D03*
X127750000Y-88750000D03*
X118650000Y-67850000D03*
X126250000Y-88750000D03*
X117650000Y-67850000D03*
X123250000Y-88750000D03*
X116650000Y-67850000D03*
X112500000Y-115000000D03*
X100500000Y-79500000D03*
X111300000Y-67950000D03*
X114989222Y-67250000D03*
X127500000Y-125000000D03*
X130500000Y-137250000D03*
X120750000Y-56000000D03*
X127500000Y-63500000D03*
X126500000Y-67400000D03*
X124700000Y-74150000D03*
X129250000Y-134500000D03*
X127750000Y-116750000D03*
X95500000Y-108000000D03*
X140500000Y-61500000D03*
D19*
X109000000Y-142250000D02*
X127250000Y-124000000D01*
X127250000Y-124000000D02*
X128500000Y-124000000D01*
X98000000Y-142250000D02*
X109000000Y-142250000D01*
X95500000Y-139750000D02*
X98000000Y-142250000D01*
X95500000Y-138712202D02*
X95500000Y-139750000D01*
X95500000Y-132378686D02*
X95500000Y-138712202D01*
X99100000Y-130000000D02*
X97878686Y-130000000D01*
X97878686Y-130000000D02*
X95500000Y-132378686D01*
X121998383Y-112750000D02*
X122750000Y-112750000D01*
X122750000Y-112750000D02*
X124750000Y-114750000D01*
X116250000Y-108000000D02*
X117248383Y-108000000D01*
X117248383Y-108000000D02*
X121998383Y-112750000D01*
X115250000Y-108000000D02*
X116250000Y-108000000D01*
X113500000Y-105277002D02*
X113500000Y-106250000D01*
X113500000Y-106250000D02*
X115250000Y-108000000D01*
X105250000Y-97750000D02*
X105972998Y-97750000D01*
X105972998Y-97750000D02*
X113500000Y-105277002D01*
X97250000Y-97750000D02*
X105250000Y-97750000D01*
X93750000Y-101250000D02*
X97250000Y-97750000D01*
X93750000Y-106250000D02*
X93750000Y-101250000D01*
X93500000Y-106500000D02*
X93750000Y-106250000D01*
X93500000Y-106750000D02*
X93500000Y-106500000D01*
X93500000Y-110500000D02*
X93500000Y-106750000D01*
X124750000Y-116000000D02*
X129500000Y-116000000D01*
X129500000Y-116000000D02*
X131250000Y-114250000D01*
X122250000Y-113500000D02*
X124750000Y-116000000D01*
X120000000Y-113500000D02*
X122250000Y-113500000D01*
X115974999Y-109474999D02*
X120000000Y-113500000D01*
X113000000Y-107250000D02*
X115224999Y-109474999D01*
X115224999Y-109474999D02*
X115974999Y-109474999D01*
X113000000Y-106000000D02*
X113000000Y-107250000D01*
X110525001Y-103525001D02*
X113000000Y-106000000D01*
X104750000Y-98500000D02*
X109775001Y-103525001D01*
X109775001Y-103525001D02*
X110525001Y-103525001D01*
X97750000Y-98500000D02*
X104750000Y-98500000D01*
X94500000Y-101750000D02*
X97750000Y-98500000D01*
X94500000Y-108000000D02*
X94500000Y-101750000D01*
X112500000Y-109000000D02*
X118500000Y-115000000D01*
X118500000Y-115000000D02*
X121750000Y-115000000D01*
X110500000Y-109000000D02*
X112500000Y-109000000D01*
X101750000Y-100250000D02*
X110500000Y-109000000D01*
X98250000Y-100250000D02*
X101750000Y-100250000D01*
X96500000Y-102000000D02*
X98250000Y-100250000D01*
X96500000Y-108000000D02*
X96500000Y-102000000D01*
X96000000Y-97500000D02*
X96500000Y-97000000D01*
X96000000Y-97500000D02*
X93000000Y-100500000D01*
X93000000Y-100500000D02*
X93000000Y-105750000D01*
X113974999Y-101275001D02*
X114000000Y-101250000D01*
X113974999Y-105805445D02*
X113974999Y-101275001D01*
X115750000Y-106500000D02*
X114669554Y-106500000D01*
X121275001Y-107525001D02*
X116775001Y-107525001D01*
X122750000Y-109000000D02*
X121275001Y-107525001D01*
X122750000Y-111000000D02*
X122750000Y-109000000D01*
X116775001Y-107525001D02*
X115750000Y-106500000D01*
X114000000Y-101250000D02*
X110250000Y-97500000D01*
X129750000Y-111500000D02*
X123250000Y-111500000D01*
X131750000Y-113500000D02*
X129750000Y-111500000D01*
X123250000Y-111500000D02*
X122750000Y-111000000D01*
X114669554Y-106500000D02*
X113974999Y-105805445D01*
X131750000Y-115000000D02*
X131750000Y-113500000D01*
X129750000Y-117000000D02*
X131750000Y-115000000D01*
X129750000Y-117000000D02*
X129750000Y-121750000D01*
X110000000Y-97250000D02*
X110250000Y-97500000D01*
X106000000Y-97250000D02*
X110000000Y-97250000D01*
X105750000Y-97000000D02*
X106000000Y-97250000D01*
X96500000Y-97000000D02*
X105750000Y-97000000D01*
X129750000Y-121580446D02*
X129750000Y-121750000D01*
X95297599Y-96452401D02*
X95750000Y-96000000D01*
X114750000Y-97722998D02*
X116972998Y-97722998D01*
X116972998Y-97722998D02*
X131750000Y-112500000D01*
X113479403Y-96452401D02*
X114750000Y-97722998D01*
X91750000Y-100000000D02*
X95297599Y-96452401D01*
X91750000Y-105750000D02*
X91750000Y-100000000D01*
X113277002Y-96250000D02*
X113479403Y-96452401D01*
X108500000Y-96250000D02*
X113277002Y-96250000D01*
X108250000Y-96500000D02*
X108500000Y-96250000D01*
X106250000Y-96500000D02*
X108250000Y-96500000D01*
X105750000Y-96000000D02*
X106250000Y-96500000D01*
X95750000Y-96000000D02*
X105750000Y-96000000D01*
D20*
X138750000Y-56750000D02*
X138750000Y-58250000D01*
X138750000Y-58250000D02*
X138000000Y-59000000D01*
X136500000Y-54500000D02*
X138750000Y-56750000D01*
X125750000Y-54500000D02*
X136500000Y-54500000D01*
X125748799Y-54501201D02*
X125750000Y-54500000D01*
X116500000Y-51250000D02*
X121108222Y-51250000D01*
X121108222Y-51250000D02*
X124359423Y-54501201D01*
X124359423Y-54501201D02*
X125748799Y-54501201D01*
X116304810Y-51445190D02*
X116500000Y-51250000D01*
X115554810Y-52195190D02*
X116304810Y-51445190D01*
X112500000Y-54250000D02*
X114554810Y-52195190D01*
X114554810Y-52195190D02*
X115554810Y-52195190D01*
X112500000Y-54500000D02*
X112500000Y-54250000D01*
X112500000Y-58000000D02*
X112500000Y-54500000D01*
X111998799Y-58501201D02*
X112500000Y-58000000D01*
X107750000Y-58500000D02*
X109508222Y-58500000D01*
X109508222Y-58500000D02*
X109509423Y-58501201D01*
X109509423Y-58501201D02*
X111998799Y-58501201D01*
X102750000Y-63500000D02*
X107750000Y-58500000D01*
X102750000Y-65250000D02*
X102750000Y-63500000D01*
D19*
X130750000Y-122000000D02*
X130547599Y-122202401D01*
X130547599Y-122202401D02*
X129121955Y-122202401D01*
X129121955Y-122202401D02*
X128419554Y-121500000D01*
X128419554Y-121500000D02*
X127250000Y-121500000D01*
X130750000Y-117000000D02*
X130750000Y-122000000D01*
X133250000Y-114500000D02*
X130750000Y-117000000D01*
X133250000Y-112000000D02*
X133250000Y-114500000D01*
X116500000Y-95250000D02*
X133250000Y-112000000D01*
X94500000Y-95250000D02*
X116500000Y-95250000D01*
X90750000Y-99000000D02*
X94500000Y-95250000D01*
X90750000Y-105750000D02*
X90750000Y-99000000D01*
D20*
X124250000Y-55250000D02*
X135750000Y-55250000D01*
X135750000Y-55250000D02*
X138000000Y-57500000D01*
X120750000Y-51750000D02*
X124250000Y-55250000D01*
X116750000Y-51750000D02*
X120750000Y-51750000D01*
X116000000Y-52500000D02*
X116750000Y-51750000D01*
X115000000Y-52500000D02*
X116000000Y-52500000D01*
X112998799Y-54501201D02*
X115000000Y-52500000D01*
X112998799Y-54751201D02*
X112998799Y-54501201D01*
X112500000Y-59000000D02*
X112998799Y-58501201D01*
X112998799Y-58501201D02*
X112998799Y-54751201D01*
X108000000Y-59000000D02*
X112500000Y-59000000D01*
X103500000Y-63500000D02*
X108000000Y-59000000D01*
X103500000Y-65250000D02*
X103500000Y-63500000D01*
D19*
X118250000Y-94500000D02*
X134250000Y-110500000D01*
X134250000Y-110500000D02*
X134250000Y-113500000D01*
X108750000Y-94500000D02*
X118250000Y-94500000D01*
X93750000Y-94500000D02*
X108750000Y-94500000D01*
X89750000Y-98500000D02*
X93750000Y-94500000D01*
X89750000Y-105750000D02*
X89750000Y-98500000D01*
X130500000Y-137250000D02*
X130500000Y-128000000D01*
X130500000Y-128000000D02*
X127500000Y-125000000D01*
X99100000Y-128000000D02*
X97878686Y-128000000D01*
X97878686Y-128000000D02*
X94000000Y-131878686D01*
X94000000Y-131878686D02*
X94000000Y-140250000D01*
X94000000Y-140250000D02*
X96500000Y-142750000D01*
X96500000Y-142750000D02*
X116972998Y-142750000D01*
X116972998Y-142750000D02*
X125222998Y-134500000D01*
X125222998Y-134500000D02*
X129250000Y-134500000D01*
X122500000Y-116000000D02*
X123250000Y-116750000D01*
X123250000Y-116750000D02*
X127750000Y-116750000D01*
X122500000Y-115080446D02*
X122500000Y-116000000D01*
X118722998Y-114250000D02*
X121669554Y-114250000D01*
X121669554Y-114250000D02*
X122500000Y-115080446D01*
X103000000Y-99250000D02*
X103722998Y-99250000D01*
X103722998Y-99250000D02*
X118722998Y-114250000D01*
X98000000Y-99250000D02*
X103000000Y-99250000D01*
X95500000Y-101750000D02*
X98000000Y-99250000D01*
X95500000Y-104500000D02*
X95500000Y-101750000D01*
X95500000Y-108000000D02*
X95500000Y-104500000D01*
X92500000Y-147500000D02*
X92500000Y-124600000D01*
X92500000Y-124600000D02*
X99100000Y-118000000D01*
X93750000Y-148750000D02*
X92500000Y-147500000D01*
X146750000Y-148750000D02*
X93750000Y-148750000D01*
X148750000Y-146750000D02*
X146750000Y-148750000D01*
X148750000Y-62250000D02*
X148750000Y-146750000D01*
X148000000Y-61500000D02*
X148750000Y-62250000D01*
X140500000Y-61500000D02*
X148000000Y-61500000D01*
D21*
G36*
X118623000Y-55302606D02*
X118623000Y-61000000D01*
X118633006Y-61049410D01*
X118660197Y-61089803D01*
X119123000Y-61552606D01*
X119123000Y-64197394D01*
X118947394Y-64373000D01*
X114000000Y-64373000D01*
X113950590Y-64383006D01*
X113910197Y-64410197D01*
X113660197Y-64660197D01*
X113632334Y-64702211D01*
X113623000Y-64750000D01*
X113623000Y-65947394D01*
X113447394Y-66123000D01*
X113302606Y-66123000D01*
X113127000Y-65947394D01*
X113127000Y-64052606D01*
X113302606Y-63877000D01*
X117250000Y-63877000D01*
X117299410Y-63866994D01*
X117339803Y-63839803D01*
X117598520Y-63581086D01*
X117615061Y-63581100D01*
X117828680Y-63492835D01*
X117992260Y-63329540D01*
X118080898Y-63116075D01*
X118081100Y-62884939D01*
X117992835Y-62671320D01*
X117877000Y-62555283D01*
X117877000Y-59750000D01*
X117866994Y-59700590D01*
X117839803Y-59660197D01*
X117127000Y-58947394D01*
X117127000Y-55302606D01*
X117302606Y-55127000D01*
X118447394Y-55127000D01*
X118623000Y-55302606D01*
X118623000Y-55302606D01*
G37*
X118623000Y-55302606D02*
X118623000Y-61000000D01*
X118633006Y-61049410D01*
X118660197Y-61089803D01*
X119123000Y-61552606D01*
X119123000Y-64197394D01*
X118947394Y-64373000D01*
X114000000Y-64373000D01*
X113950590Y-64383006D01*
X113910197Y-64410197D01*
X113660197Y-64660197D01*
X113632334Y-64702211D01*
X113623000Y-64750000D01*
X113623000Y-65947394D01*
X113447394Y-66123000D01*
X113302606Y-66123000D01*
X113127000Y-65947394D01*
X113127000Y-64052606D01*
X113302606Y-63877000D01*
X117250000Y-63877000D01*
X117299410Y-63866994D01*
X117339803Y-63839803D01*
X117598520Y-63581086D01*
X117615061Y-63581100D01*
X117828680Y-63492835D01*
X117992260Y-63329540D01*
X118080898Y-63116075D01*
X118081100Y-62884939D01*
X117992835Y-62671320D01*
X117877000Y-62555283D01*
X117877000Y-59750000D01*
X117866994Y-59700590D01*
X117839803Y-59660197D01*
X117127000Y-58947394D01*
X117127000Y-55302606D01*
X117302606Y-55127000D01*
X118447394Y-55127000D01*
X118623000Y-55302606D01*
G36*
X119869102Y-52333925D02*
X119868900Y-52565061D01*
X119957165Y-52778680D01*
X120120460Y-52942260D01*
X120333925Y-53030898D01*
X120565061Y-53031100D01*
X120778680Y-52942835D01*
X120942260Y-52779540D01*
X120998213Y-52644791D01*
X123926710Y-55573289D01*
X123990744Y-55616075D01*
X124075037Y-55672398D01*
X124250000Y-55707200D01*
X125277594Y-55707200D01*
X129123000Y-59552606D01*
X129123000Y-76197394D01*
X128697394Y-76623000D01*
X125500000Y-76623000D01*
X125450590Y-76633006D01*
X125410197Y-76660197D01*
X122160197Y-79910197D01*
X122132334Y-79952211D01*
X122123000Y-80000000D01*
X122123000Y-82947394D01*
X121197394Y-83873000D01*
X112802606Y-83873000D01*
X111877000Y-82947394D01*
X111877000Y-80500000D01*
X111866994Y-80450590D01*
X111839803Y-80410197D01*
X110339803Y-78910197D01*
X110297789Y-78882334D01*
X110250000Y-78873000D01*
X108802606Y-78873000D01*
X108127000Y-78197394D01*
X108127000Y-76448724D01*
X108170460Y-76492260D01*
X108383925Y-76580898D01*
X108615061Y-76581100D01*
X108828680Y-76492835D01*
X108992260Y-76329540D01*
X109080898Y-76116075D01*
X109081100Y-75884939D01*
X108992835Y-75671320D01*
X108829540Y-75507740D01*
X108616075Y-75419102D01*
X108384939Y-75418900D01*
X108171320Y-75507165D01*
X108127000Y-75551408D01*
X108127000Y-74448724D01*
X108170460Y-74492260D01*
X108383925Y-74580898D01*
X108615061Y-74581100D01*
X108828680Y-74492835D01*
X108992260Y-74329540D01*
X109080898Y-74116075D01*
X109081100Y-73884939D01*
X108992835Y-73671320D01*
X108829540Y-73507740D01*
X108616075Y-73419102D01*
X108384939Y-73418900D01*
X108171320Y-73507165D01*
X108127000Y-73551408D01*
X108127000Y-71615061D01*
X109418900Y-71615061D01*
X109507165Y-71828680D01*
X109670460Y-71992260D01*
X109883925Y-72080898D01*
X110115061Y-72081100D01*
X110328680Y-71992835D01*
X110492260Y-71829540D01*
X110580898Y-71616075D01*
X110580994Y-71505159D01*
X113368908Y-71505159D01*
X113449578Y-71700394D01*
X113598820Y-71849897D01*
X113719536Y-71900023D01*
X113599606Y-71949578D01*
X113450103Y-72098820D01*
X113369092Y-72293914D01*
X113368908Y-72505159D01*
X113449578Y-72700394D01*
X113598820Y-72849897D01*
X113719536Y-72900023D01*
X113599606Y-72949578D01*
X113450103Y-73098820D01*
X113369092Y-73293914D01*
X113368908Y-73505159D01*
X113449578Y-73700394D01*
X113598820Y-73849897D01*
X113719536Y-73900023D01*
X113599606Y-73949578D01*
X113450103Y-74098820D01*
X113369092Y-74293914D01*
X113368908Y-74505159D01*
X113449578Y-74700394D01*
X113598820Y-74849897D01*
X113719536Y-74900023D01*
X113599606Y-74949578D01*
X113450103Y-75098820D01*
X113369092Y-75293914D01*
X113368908Y-75505159D01*
X113449578Y-75700394D01*
X113598820Y-75849897D01*
X113719536Y-75900023D01*
X113599606Y-75949578D01*
X113450103Y-76098820D01*
X113369092Y-76293914D01*
X113368908Y-76505159D01*
X113449578Y-76700394D01*
X113598820Y-76849897D01*
X113719536Y-76900023D01*
X113599606Y-76949578D01*
X113450103Y-77098820D01*
X113369092Y-77293914D01*
X113368908Y-77505159D01*
X113449578Y-77700394D01*
X113598820Y-77849897D01*
X113719536Y-77900023D01*
X113599606Y-77949578D01*
X113450103Y-78098820D01*
X113369092Y-78293914D01*
X113368908Y-78505159D01*
X113449578Y-78700394D01*
X113598820Y-78849897D01*
X113793914Y-78930908D01*
X114005159Y-78931092D01*
X114200394Y-78850422D01*
X114349897Y-78701180D01*
X114400023Y-78580464D01*
X114449578Y-78700394D01*
X114598820Y-78849897D01*
X114793914Y-78930908D01*
X115005159Y-78931092D01*
X115200394Y-78850422D01*
X115349897Y-78701180D01*
X115400023Y-78580464D01*
X115449578Y-78700394D01*
X115598820Y-78849897D01*
X115793914Y-78930908D01*
X116005159Y-78931092D01*
X116200394Y-78850422D01*
X116349897Y-78701180D01*
X116400023Y-78580464D01*
X116449578Y-78700394D01*
X116598820Y-78849897D01*
X116793914Y-78930908D01*
X117005159Y-78931092D01*
X117200394Y-78850422D01*
X117349897Y-78701180D01*
X117400023Y-78580464D01*
X117449578Y-78700394D01*
X117598820Y-78849897D01*
X117793914Y-78930908D01*
X118005159Y-78931092D01*
X118200394Y-78850422D01*
X118349897Y-78701180D01*
X118400023Y-78580464D01*
X118449578Y-78700394D01*
X118598820Y-78849897D01*
X118793914Y-78930908D01*
X119005159Y-78931092D01*
X119200394Y-78850422D01*
X119349897Y-78701180D01*
X119400023Y-78580464D01*
X119449578Y-78700394D01*
X119598820Y-78849897D01*
X119793914Y-78930908D01*
X120005159Y-78931092D01*
X120200394Y-78850422D01*
X120349897Y-78701180D01*
X120400023Y-78580464D01*
X120449578Y-78700394D01*
X120598820Y-78849897D01*
X120793914Y-78930908D01*
X121005159Y-78931092D01*
X121200394Y-78850422D01*
X121349897Y-78701180D01*
X121430908Y-78506086D01*
X121431092Y-78294841D01*
X121350422Y-78099606D01*
X121201180Y-77950103D01*
X121080464Y-77899977D01*
X121200394Y-77850422D01*
X121349897Y-77701180D01*
X121430908Y-77506086D01*
X121431092Y-77294841D01*
X121350422Y-77099606D01*
X121201180Y-76950103D01*
X121080464Y-76899977D01*
X121200394Y-76850422D01*
X121349897Y-76701180D01*
X121430908Y-76506086D01*
X121431092Y-76294841D01*
X121350422Y-76099606D01*
X121201180Y-75950103D01*
X121080464Y-75899977D01*
X121200394Y-75850422D01*
X121349897Y-75701180D01*
X121430908Y-75506086D01*
X121431092Y-75294841D01*
X121350422Y-75099606D01*
X121201180Y-74950103D01*
X121080464Y-74899977D01*
X121200394Y-74850422D01*
X121349897Y-74701180D01*
X121430908Y-74506086D01*
X121431092Y-74294841D01*
X121418788Y-74265061D01*
X124118900Y-74265061D01*
X124207165Y-74478680D01*
X124370460Y-74642260D01*
X124583925Y-74730898D01*
X124815061Y-74731100D01*
X125028680Y-74642835D01*
X125192260Y-74479540D01*
X125280898Y-74266075D01*
X125281100Y-74034939D01*
X125192835Y-73821320D01*
X125029540Y-73657740D01*
X124816075Y-73569102D01*
X124584939Y-73568900D01*
X124371320Y-73657165D01*
X124207740Y-73820460D01*
X124119102Y-74033925D01*
X124118900Y-74265061D01*
X121418788Y-74265061D01*
X121350422Y-74099606D01*
X121201180Y-73950103D01*
X121080464Y-73899977D01*
X121200394Y-73850422D01*
X121349897Y-73701180D01*
X121430908Y-73506086D01*
X121431092Y-73294841D01*
X121350422Y-73099606D01*
X121201180Y-72950103D01*
X121080464Y-72899977D01*
X121200394Y-72850422D01*
X121349897Y-72701180D01*
X121430908Y-72506086D01*
X121431092Y-72294841D01*
X121350422Y-72099606D01*
X121201180Y-71950103D01*
X121080464Y-71899977D01*
X121200394Y-71850422D01*
X121349897Y-71701180D01*
X121430908Y-71506086D01*
X121431030Y-71365061D01*
X126868900Y-71365061D01*
X126957165Y-71578680D01*
X127120460Y-71742260D01*
X127333925Y-71830898D01*
X127565061Y-71831100D01*
X127778680Y-71742835D01*
X127942260Y-71579540D01*
X128030898Y-71366075D01*
X128031100Y-71134939D01*
X127942835Y-70921320D01*
X127779540Y-70757740D01*
X127566075Y-70669102D01*
X127334939Y-70668900D01*
X127121320Y-70757165D01*
X126957740Y-70920460D01*
X126869102Y-71133925D01*
X126868900Y-71365061D01*
X121431030Y-71365061D01*
X121431092Y-71294841D01*
X121350422Y-71099606D01*
X121201180Y-70950103D01*
X121006086Y-70869092D01*
X120794841Y-70868908D01*
X120599606Y-70949578D01*
X120450103Y-71098820D01*
X120399977Y-71219536D01*
X120350422Y-71099606D01*
X120201180Y-70950103D01*
X120006086Y-70869092D01*
X119794841Y-70868908D01*
X119599606Y-70949578D01*
X119450103Y-71098820D01*
X119399977Y-71219536D01*
X119350422Y-71099606D01*
X119201180Y-70950103D01*
X119006086Y-70869092D01*
X118794841Y-70868908D01*
X118599606Y-70949578D01*
X118450103Y-71098820D01*
X118399977Y-71219536D01*
X118350422Y-71099606D01*
X118201180Y-70950103D01*
X118006086Y-70869092D01*
X117794841Y-70868908D01*
X117599606Y-70949578D01*
X117450103Y-71098820D01*
X117399977Y-71219536D01*
X117350422Y-71099606D01*
X117201180Y-70950103D01*
X117006086Y-70869092D01*
X116794841Y-70868908D01*
X116599606Y-70949578D01*
X116450103Y-71098820D01*
X116399977Y-71219536D01*
X116350422Y-71099606D01*
X116201180Y-70950103D01*
X116006086Y-70869092D01*
X115794841Y-70868908D01*
X115599606Y-70949578D01*
X115450103Y-71098820D01*
X115399977Y-71219536D01*
X115350422Y-71099606D01*
X115201180Y-70950103D01*
X115006086Y-70869092D01*
X114794841Y-70868908D01*
X114599606Y-70949578D01*
X114450103Y-71098820D01*
X114399977Y-71219536D01*
X114350422Y-71099606D01*
X114201180Y-70950103D01*
X114006086Y-70869092D01*
X113794841Y-70868908D01*
X113599606Y-70949578D01*
X113450103Y-71098820D01*
X113369092Y-71293914D01*
X113368908Y-71505159D01*
X110580994Y-71505159D01*
X110581100Y-71384939D01*
X110492835Y-71171320D01*
X110329540Y-71007740D01*
X110116075Y-70919102D01*
X109884939Y-70918900D01*
X109671320Y-71007165D01*
X109507740Y-71170460D01*
X109419102Y-71383925D01*
X109418900Y-71615061D01*
X108127000Y-71615061D01*
X108127000Y-68065061D01*
X110718900Y-68065061D01*
X110807165Y-68278680D01*
X110970460Y-68442260D01*
X111183925Y-68530898D01*
X111415061Y-68531100D01*
X111628680Y-68442835D01*
X111792260Y-68279540D01*
X111880898Y-68066075D01*
X111880986Y-67965061D01*
X116068900Y-67965061D01*
X116157165Y-68178680D01*
X116320460Y-68342260D01*
X116533925Y-68430898D01*
X116765061Y-68431100D01*
X116978680Y-68342835D01*
X117142260Y-68179540D01*
X117149909Y-68161119D01*
X117157165Y-68178680D01*
X117320460Y-68342260D01*
X117533925Y-68430898D01*
X117765061Y-68431100D01*
X117978680Y-68342835D01*
X118142260Y-68179540D01*
X118149909Y-68161119D01*
X118157165Y-68178680D01*
X118320460Y-68342260D01*
X118533925Y-68430898D01*
X118765061Y-68431100D01*
X118924888Y-68365061D01*
X125368900Y-68365061D01*
X125457165Y-68578680D01*
X125620460Y-68742260D01*
X125833925Y-68830898D01*
X126065061Y-68831100D01*
X126278680Y-68742835D01*
X126442260Y-68579540D01*
X126530898Y-68366075D01*
X126531100Y-68134939D01*
X126467482Y-67980971D01*
X126615061Y-67981100D01*
X126828680Y-67892835D01*
X126992260Y-67729540D01*
X127080898Y-67516075D01*
X127081100Y-67284939D01*
X126992835Y-67071320D01*
X126829540Y-66907740D01*
X126616075Y-66819102D01*
X126384939Y-66818900D01*
X126171320Y-66907165D01*
X126007740Y-67070460D01*
X125919102Y-67283925D01*
X125918900Y-67515061D01*
X125982518Y-67669029D01*
X125834939Y-67668900D01*
X125621320Y-67757165D01*
X125457740Y-67920460D01*
X125369102Y-68133925D01*
X125368900Y-68365061D01*
X118924888Y-68365061D01*
X118978680Y-68342835D01*
X119142260Y-68179540D01*
X119230898Y-67966075D01*
X119231100Y-67734939D01*
X119222887Y-67715061D01*
X120068900Y-67715061D01*
X120157165Y-67928680D01*
X120320460Y-68092260D01*
X120533925Y-68180898D01*
X120765061Y-68181100D01*
X120978680Y-68092835D01*
X121142260Y-67929540D01*
X121230898Y-67716075D01*
X121231100Y-67484939D01*
X121142835Y-67271320D01*
X120979540Y-67107740D01*
X120766075Y-67019102D01*
X120534939Y-67018900D01*
X120321320Y-67107165D01*
X120157740Y-67270460D01*
X120069102Y-67483925D01*
X120068900Y-67715061D01*
X119222887Y-67715061D01*
X119142835Y-67521320D01*
X118979540Y-67357740D01*
X118766075Y-67269102D01*
X118534939Y-67268900D01*
X118321320Y-67357165D01*
X118157740Y-67520460D01*
X118150091Y-67538881D01*
X118142835Y-67521320D01*
X117979540Y-67357740D01*
X117766075Y-67269102D01*
X117708900Y-67269052D01*
X117730898Y-67216075D01*
X117731100Y-66984939D01*
X117642835Y-66771320D01*
X117486849Y-66615061D01*
X121168900Y-66615061D01*
X121257165Y-66828680D01*
X121420460Y-66992260D01*
X121633925Y-67080898D01*
X121865061Y-67081100D01*
X122078680Y-66992835D01*
X122242260Y-66829540D01*
X122330898Y-66616075D01*
X122330898Y-66615061D01*
X122668900Y-66615061D01*
X122757165Y-66828680D01*
X122920460Y-66992260D01*
X123133925Y-67080898D01*
X123365061Y-67081100D01*
X123578680Y-66992835D01*
X123675025Y-66896658D01*
X123770460Y-66992260D01*
X123983925Y-67080898D01*
X124215061Y-67081100D01*
X124428680Y-66992835D01*
X124592260Y-66829540D01*
X124680898Y-66616075D01*
X124681100Y-66384939D01*
X124592835Y-66171320D01*
X124429540Y-66007740D01*
X124216075Y-65919102D01*
X123984939Y-65918900D01*
X123771320Y-66007165D01*
X123674975Y-66103342D01*
X123579540Y-66007740D01*
X123366075Y-65919102D01*
X123134939Y-65918900D01*
X122921320Y-66007165D01*
X122757740Y-66170460D01*
X122669102Y-66383925D01*
X122668900Y-66615061D01*
X122330898Y-66615061D01*
X122331100Y-66384939D01*
X122242835Y-66171320D01*
X122079540Y-66007740D01*
X121866075Y-65919102D01*
X121634939Y-65918900D01*
X121421320Y-66007165D01*
X121257740Y-66170460D01*
X121169102Y-66383925D01*
X121168900Y-66615061D01*
X117486849Y-66615061D01*
X117479540Y-66607740D01*
X117266075Y-66519102D01*
X117034939Y-66518900D01*
X116821320Y-66607165D01*
X116657740Y-66770460D01*
X116569102Y-66983925D01*
X116568900Y-67215061D01*
X116591166Y-67268949D01*
X116534939Y-67268900D01*
X116321320Y-67357165D01*
X116157740Y-67520460D01*
X116069102Y-67733925D01*
X116068900Y-67965061D01*
X111880986Y-67965061D01*
X111881100Y-67834939D01*
X111792835Y-67621320D01*
X111629540Y-67457740D01*
X111416075Y-67369102D01*
X111184939Y-67368900D01*
X110971320Y-67457165D01*
X110807740Y-67620460D01*
X110719102Y-67833925D01*
X110718900Y-68065061D01*
X108127000Y-68065061D01*
X108127000Y-67802606D01*
X108873711Y-67055895D01*
X108933925Y-67080898D01*
X109165061Y-67081100D01*
X109378680Y-66992835D01*
X109542260Y-66829540D01*
X109630898Y-66616075D01*
X109631100Y-66384939D01*
X109605829Y-66323777D01*
X109814545Y-66115061D01*
X111668900Y-66115061D01*
X111757165Y-66328680D01*
X111920460Y-66492260D01*
X112133925Y-66580898D01*
X112365061Y-66581100D01*
X112578680Y-66492835D01*
X112696057Y-66375663D01*
X113160197Y-66839803D01*
X113202211Y-66867666D01*
X113250000Y-66877000D01*
X113500000Y-66877000D01*
X113549410Y-66866994D01*
X113589803Y-66839803D01*
X114339803Y-66089803D01*
X114367666Y-66047789D01*
X114377000Y-66000000D01*
X114377000Y-65302606D01*
X114552606Y-65127000D01*
X115051276Y-65127000D01*
X115007740Y-65170460D01*
X114919102Y-65383925D01*
X114918900Y-65615061D01*
X115007165Y-65828680D01*
X115170460Y-65992260D01*
X115188881Y-65999909D01*
X115171320Y-66007165D01*
X115007740Y-66170460D01*
X114919102Y-66383925D01*
X114918900Y-66615061D01*
X114941170Y-66668959D01*
X114874161Y-66668900D01*
X114660542Y-66757165D01*
X114496962Y-66920460D01*
X114408324Y-67133925D01*
X114408122Y-67365061D01*
X114496387Y-67578680D01*
X114659682Y-67742260D01*
X114873147Y-67830898D01*
X115104283Y-67831100D01*
X115317902Y-67742835D01*
X115481482Y-67579540D01*
X115570120Y-67366075D01*
X115570322Y-67134939D01*
X115548052Y-67081041D01*
X115615061Y-67081100D01*
X115828680Y-66992835D01*
X115992260Y-66829540D01*
X116080898Y-66616075D01*
X116081100Y-66384939D01*
X115992835Y-66171320D01*
X115829540Y-66007740D01*
X115811119Y-66000091D01*
X115828680Y-65992835D01*
X115956677Y-65865061D01*
X117168900Y-65865061D01*
X117257165Y-66078680D01*
X117420460Y-66242260D01*
X117633925Y-66330898D01*
X117865061Y-66331100D01*
X118078680Y-66242835D01*
X118242260Y-66079540D01*
X118330898Y-65866075D01*
X118331100Y-65634939D01*
X118242835Y-65421320D01*
X118079540Y-65257740D01*
X117866075Y-65169102D01*
X117634939Y-65168900D01*
X117421320Y-65257165D01*
X117257740Y-65420460D01*
X117169102Y-65633925D01*
X117168900Y-65865061D01*
X115956677Y-65865061D01*
X115992260Y-65829540D01*
X116080898Y-65616075D01*
X116081100Y-65384939D01*
X115992835Y-65171320D01*
X115948592Y-65127000D01*
X119000000Y-65127000D01*
X119049410Y-65116994D01*
X119052281Y-65115061D01*
X123518900Y-65115061D01*
X123607165Y-65328680D01*
X123770460Y-65492260D01*
X123983925Y-65580898D01*
X124215061Y-65581100D01*
X124428680Y-65492835D01*
X124592260Y-65329540D01*
X124680898Y-65116075D01*
X124681100Y-64884939D01*
X124592835Y-64671320D01*
X124429540Y-64507740D01*
X124216075Y-64419102D01*
X123984939Y-64418900D01*
X123771320Y-64507165D01*
X123607740Y-64670460D01*
X123519102Y-64883925D01*
X123518900Y-65115061D01*
X119052281Y-65115061D01*
X119089803Y-65089803D01*
X119779026Y-64400580D01*
X119920460Y-64542260D01*
X120133925Y-64630898D01*
X120365061Y-64631100D01*
X120578680Y-64542835D01*
X120742260Y-64379540D01*
X120830898Y-64166075D01*
X120831100Y-63934939D01*
X120742835Y-63721320D01*
X120579540Y-63557740D01*
X120476758Y-63515061D01*
X120668900Y-63515061D01*
X120757165Y-63728680D01*
X120920460Y-63892260D01*
X121133925Y-63980898D01*
X121365061Y-63981100D01*
X121578680Y-63892835D01*
X121742260Y-63729540D01*
X121789795Y-63615061D01*
X123518900Y-63615061D01*
X123607165Y-63828680D01*
X123770460Y-63992260D01*
X123983925Y-64080898D01*
X124215061Y-64081100D01*
X124428680Y-63992835D01*
X124592260Y-63829540D01*
X124680898Y-63616075D01*
X124680898Y-63615061D01*
X126918900Y-63615061D01*
X127007165Y-63828680D01*
X127170460Y-63992260D01*
X127383925Y-64080898D01*
X127615061Y-64081100D01*
X127828680Y-63992835D01*
X127992260Y-63829540D01*
X128080898Y-63616075D01*
X128081100Y-63384939D01*
X127992835Y-63171320D01*
X127829540Y-63007740D01*
X127616075Y-62919102D01*
X127384939Y-62918900D01*
X127171320Y-63007165D01*
X127007740Y-63170460D01*
X126919102Y-63383925D01*
X126918900Y-63615061D01*
X124680898Y-63615061D01*
X124681100Y-63384939D01*
X124592835Y-63171320D01*
X124429540Y-63007740D01*
X124216075Y-62919102D01*
X123984939Y-62918900D01*
X123771320Y-63007165D01*
X123607740Y-63170460D01*
X123519102Y-63383925D01*
X123518900Y-63615061D01*
X121789795Y-63615061D01*
X121830898Y-63516075D01*
X121831100Y-63284939D01*
X121742835Y-63071320D01*
X121579540Y-62907740D01*
X121366075Y-62819102D01*
X121134939Y-62818900D01*
X120921320Y-62907165D01*
X120757740Y-63070460D01*
X120669102Y-63283925D01*
X120668900Y-63515061D01*
X120476758Y-63515061D01*
X120366075Y-63469102D01*
X120134939Y-63468900D01*
X119921320Y-63557165D01*
X119877000Y-63601408D01*
X119877000Y-61865061D01*
X123018900Y-61865061D01*
X123107165Y-62078680D01*
X123270460Y-62242260D01*
X123483925Y-62330898D01*
X123715061Y-62331100D01*
X123928680Y-62242835D01*
X124092260Y-62079540D01*
X124180898Y-61866075D01*
X124181100Y-61634939D01*
X124092835Y-61421320D01*
X123929540Y-61257740D01*
X123716075Y-61169102D01*
X123484939Y-61168900D01*
X123271320Y-61257165D01*
X123107740Y-61420460D01*
X123019102Y-61633925D01*
X123018900Y-61865061D01*
X119877000Y-61865061D01*
X119877000Y-61414189D01*
X119928680Y-61392835D01*
X120092260Y-61229540D01*
X120180898Y-61016075D01*
X120181100Y-60784939D01*
X120092835Y-60571320D01*
X119929540Y-60407740D01*
X119716075Y-60319102D01*
X119484939Y-60318900D01*
X119377000Y-60363499D01*
X119377000Y-59765061D01*
X122468900Y-59765061D01*
X122557165Y-59978680D01*
X122720460Y-60142260D01*
X122933925Y-60230898D01*
X123165061Y-60231100D01*
X123378680Y-60142835D01*
X123542260Y-59979540D01*
X123630898Y-59766075D01*
X123630898Y-59765061D01*
X125368900Y-59765061D01*
X125457165Y-59978680D01*
X125620460Y-60142260D01*
X125833925Y-60230898D01*
X126065061Y-60231100D01*
X126278680Y-60142835D01*
X126442260Y-59979540D01*
X126530898Y-59766075D01*
X126531100Y-59534939D01*
X126442835Y-59321320D01*
X126279540Y-59157740D01*
X126066075Y-59069102D01*
X125834939Y-59068900D01*
X125621320Y-59157165D01*
X125457740Y-59320460D01*
X125369102Y-59533925D01*
X125368900Y-59765061D01*
X123630898Y-59765061D01*
X123631100Y-59534939D01*
X123542835Y-59321320D01*
X123379540Y-59157740D01*
X123166075Y-59069102D01*
X122934939Y-59068900D01*
X122721320Y-59157165D01*
X122557740Y-59320460D01*
X122469102Y-59533925D01*
X122468900Y-59765061D01*
X119377000Y-59765061D01*
X119377000Y-56115061D01*
X120168900Y-56115061D01*
X120257165Y-56328680D01*
X120420460Y-56492260D01*
X120633925Y-56580898D01*
X120865061Y-56581100D01*
X121078680Y-56492835D01*
X121242260Y-56329540D01*
X121330898Y-56116075D01*
X121331100Y-55884939D01*
X121242835Y-55671320D01*
X121079540Y-55507740D01*
X120866075Y-55419102D01*
X120634939Y-55418900D01*
X120421320Y-55507165D01*
X120257740Y-55670460D01*
X120169102Y-55883925D01*
X120168900Y-56115061D01*
X119377000Y-56115061D01*
X119377000Y-55250000D01*
X119366994Y-55200590D01*
X119339803Y-55160197D01*
X118589803Y-54410197D01*
X118547789Y-54382334D01*
X118500000Y-54373000D01*
X117000000Y-54373000D01*
X116950590Y-54383006D01*
X116910197Y-54410197D01*
X116410197Y-54910197D01*
X116382334Y-54952211D01*
X116373000Y-55000000D01*
X116373000Y-59250000D01*
X116383006Y-59299410D01*
X116410197Y-59339803D01*
X117123000Y-60052606D01*
X117123000Y-62555401D01*
X117007740Y-62670460D01*
X116973784Y-62752236D01*
X116829540Y-62607740D01*
X116616075Y-62519102D01*
X116384939Y-62518900D01*
X116171320Y-62607165D01*
X116007740Y-62770460D01*
X115919102Y-62983925D01*
X115918980Y-63123000D01*
X115080979Y-63123000D01*
X115081100Y-62984939D01*
X114992835Y-62771320D01*
X114829540Y-62607740D01*
X114616075Y-62519102D01*
X114384939Y-62518900D01*
X114171320Y-62607165D01*
X114007740Y-62770460D01*
X113919102Y-62983925D01*
X113918980Y-63123000D01*
X113250000Y-63123000D01*
X113200590Y-63133006D01*
X113160197Y-63160197D01*
X112410197Y-63910197D01*
X112382334Y-63952211D01*
X112373000Y-64000000D01*
X112373000Y-65421977D01*
X112366075Y-65419102D01*
X112134939Y-65418900D01*
X111921320Y-65507165D01*
X111757740Y-65670460D01*
X111669102Y-65883925D01*
X111668900Y-66115061D01*
X109814545Y-66115061D01*
X110089803Y-65839803D01*
X110117666Y-65797789D01*
X110127000Y-65750000D01*
X110127000Y-64052606D01*
X110359041Y-63820565D01*
X110383925Y-63830898D01*
X110615061Y-63831100D01*
X110828680Y-63742835D01*
X110992260Y-63579540D01*
X111080898Y-63366075D01*
X111081100Y-63134939D01*
X111070448Y-63109158D01*
X111802606Y-62377000D01*
X114750000Y-62377000D01*
X114799410Y-62366994D01*
X114839803Y-62339803D01*
X115839803Y-61339803D01*
X115867666Y-61297789D01*
X115877000Y-61250000D01*
X115877000Y-60750000D01*
X115866994Y-60700590D01*
X115839803Y-60660197D01*
X114377000Y-59197394D01*
X114377000Y-56615061D01*
X114918900Y-56615061D01*
X115007165Y-56828680D01*
X115170460Y-56992260D01*
X115383925Y-57080898D01*
X115615061Y-57081100D01*
X115828680Y-56992835D01*
X115992260Y-56829540D01*
X116080898Y-56616075D01*
X116081100Y-56384939D01*
X115992835Y-56171320D01*
X115829540Y-56007740D01*
X115616075Y-55919102D01*
X115384939Y-55918900D01*
X115171320Y-56007165D01*
X115007740Y-56170460D01*
X114919102Y-56383925D01*
X114918900Y-56615061D01*
X114377000Y-56615061D01*
X114377000Y-53769579D01*
X115189379Y-52957200D01*
X116000000Y-52957200D01*
X116174963Y-52922398D01*
X116323289Y-52823289D01*
X116939378Y-52207200D01*
X119921723Y-52207200D01*
X119869102Y-52333925D01*
X119869102Y-52333925D01*
G37*
X119869102Y-52333925D02*
X119868900Y-52565061D01*
X119957165Y-52778680D01*
X120120460Y-52942260D01*
X120333925Y-53030898D01*
X120565061Y-53031100D01*
X120778680Y-52942835D01*
X120942260Y-52779540D01*
X120998213Y-52644791D01*
X123926710Y-55573289D01*
X123990744Y-55616075D01*
X124075037Y-55672398D01*
X124250000Y-55707200D01*
X125277594Y-55707200D01*
X129123000Y-59552606D01*
X129123000Y-76197394D01*
X128697394Y-76623000D01*
X125500000Y-76623000D01*
X125450590Y-76633006D01*
X125410197Y-76660197D01*
X122160197Y-79910197D01*
X122132334Y-79952211D01*
X122123000Y-80000000D01*
X122123000Y-82947394D01*
X121197394Y-83873000D01*
X112802606Y-83873000D01*
X111877000Y-82947394D01*
X111877000Y-80500000D01*
X111866994Y-80450590D01*
X111839803Y-80410197D01*
X110339803Y-78910197D01*
X110297789Y-78882334D01*
X110250000Y-78873000D01*
X108802606Y-78873000D01*
X108127000Y-78197394D01*
X108127000Y-76448724D01*
X108170460Y-76492260D01*
X108383925Y-76580898D01*
X108615061Y-76581100D01*
X108828680Y-76492835D01*
X108992260Y-76329540D01*
X109080898Y-76116075D01*
X109081100Y-75884939D01*
X108992835Y-75671320D01*
X108829540Y-75507740D01*
X108616075Y-75419102D01*
X108384939Y-75418900D01*
X108171320Y-75507165D01*
X108127000Y-75551408D01*
X108127000Y-74448724D01*
X108170460Y-74492260D01*
X108383925Y-74580898D01*
X108615061Y-74581100D01*
X108828680Y-74492835D01*
X108992260Y-74329540D01*
X109080898Y-74116075D01*
X109081100Y-73884939D01*
X108992835Y-73671320D01*
X108829540Y-73507740D01*
X108616075Y-73419102D01*
X108384939Y-73418900D01*
X108171320Y-73507165D01*
X108127000Y-73551408D01*
X108127000Y-71615061D01*
X109418900Y-71615061D01*
X109507165Y-71828680D01*
X109670460Y-71992260D01*
X109883925Y-72080898D01*
X110115061Y-72081100D01*
X110328680Y-71992835D01*
X110492260Y-71829540D01*
X110580898Y-71616075D01*
X110580994Y-71505159D01*
X113368908Y-71505159D01*
X113449578Y-71700394D01*
X113598820Y-71849897D01*
X113719536Y-71900023D01*
X113599606Y-71949578D01*
X113450103Y-72098820D01*
X113369092Y-72293914D01*
X113368908Y-72505159D01*
X113449578Y-72700394D01*
X113598820Y-72849897D01*
X113719536Y-72900023D01*
X113599606Y-72949578D01*
X113450103Y-73098820D01*
X113369092Y-73293914D01*
X113368908Y-73505159D01*
X113449578Y-73700394D01*
X113598820Y-73849897D01*
X113719536Y-73900023D01*
X113599606Y-73949578D01*
X113450103Y-74098820D01*
X113369092Y-74293914D01*
X113368908Y-74505159D01*
X113449578Y-74700394D01*
X113598820Y-74849897D01*
X113719536Y-74900023D01*
X113599606Y-74949578D01*
X113450103Y-75098820D01*
X113369092Y-75293914D01*
X113368908Y-75505159D01*
X113449578Y-75700394D01*
X113598820Y-75849897D01*
X113719536Y-75900023D01*
X113599606Y-75949578D01*
X113450103Y-76098820D01*
X113369092Y-76293914D01*
X113368908Y-76505159D01*
X113449578Y-76700394D01*
X113598820Y-76849897D01*
X113719536Y-76900023D01*
X113599606Y-76949578D01*
X113450103Y-77098820D01*
X113369092Y-77293914D01*
X113368908Y-77505159D01*
X113449578Y-77700394D01*
X113598820Y-77849897D01*
X113719536Y-77900023D01*
X113599606Y-77949578D01*
X113450103Y-78098820D01*
X113369092Y-78293914D01*
X113368908Y-78505159D01*
X113449578Y-78700394D01*
X113598820Y-78849897D01*
X113793914Y-78930908D01*
X114005159Y-78931092D01*
X114200394Y-78850422D01*
X114349897Y-78701180D01*
X114400023Y-78580464D01*
X114449578Y-78700394D01*
X114598820Y-78849897D01*
X114793914Y-78930908D01*
X115005159Y-78931092D01*
X115200394Y-78850422D01*
X115349897Y-78701180D01*
X115400023Y-78580464D01*
X115449578Y-78700394D01*
X115598820Y-78849897D01*
X115793914Y-78930908D01*
X116005159Y-78931092D01*
X116200394Y-78850422D01*
X116349897Y-78701180D01*
X116400023Y-78580464D01*
X116449578Y-78700394D01*
X116598820Y-78849897D01*
X116793914Y-78930908D01*
X117005159Y-78931092D01*
X117200394Y-78850422D01*
X117349897Y-78701180D01*
X117400023Y-78580464D01*
X117449578Y-78700394D01*
X117598820Y-78849897D01*
X117793914Y-78930908D01*
X118005159Y-78931092D01*
X118200394Y-78850422D01*
X118349897Y-78701180D01*
X118400023Y-78580464D01*
X118449578Y-78700394D01*
X118598820Y-78849897D01*
X118793914Y-78930908D01*
X119005159Y-78931092D01*
X119200394Y-78850422D01*
X119349897Y-78701180D01*
X119400023Y-78580464D01*
X119449578Y-78700394D01*
X119598820Y-78849897D01*
X119793914Y-78930908D01*
X120005159Y-78931092D01*
X120200394Y-78850422D01*
X120349897Y-78701180D01*
X120400023Y-78580464D01*
X120449578Y-78700394D01*
X120598820Y-78849897D01*
X120793914Y-78930908D01*
X121005159Y-78931092D01*
X121200394Y-78850422D01*
X121349897Y-78701180D01*
X121430908Y-78506086D01*
X121431092Y-78294841D01*
X121350422Y-78099606D01*
X121201180Y-77950103D01*
X121080464Y-77899977D01*
X121200394Y-77850422D01*
X121349897Y-77701180D01*
X121430908Y-77506086D01*
X121431092Y-77294841D01*
X121350422Y-77099606D01*
X121201180Y-76950103D01*
X121080464Y-76899977D01*
X121200394Y-76850422D01*
X121349897Y-76701180D01*
X121430908Y-76506086D01*
X121431092Y-76294841D01*
X121350422Y-76099606D01*
X121201180Y-75950103D01*
X121080464Y-75899977D01*
X121200394Y-75850422D01*
X121349897Y-75701180D01*
X121430908Y-75506086D01*
X121431092Y-75294841D01*
X121350422Y-75099606D01*
X121201180Y-74950103D01*
X121080464Y-74899977D01*
X121200394Y-74850422D01*
X121349897Y-74701180D01*
X121430908Y-74506086D01*
X121431092Y-74294841D01*
X121418788Y-74265061D01*
X124118900Y-74265061D01*
X124207165Y-74478680D01*
X124370460Y-74642260D01*
X124583925Y-74730898D01*
X124815061Y-74731100D01*
X125028680Y-74642835D01*
X125192260Y-74479540D01*
X125280898Y-74266075D01*
X125281100Y-74034939D01*
X125192835Y-73821320D01*
X125029540Y-73657740D01*
X124816075Y-73569102D01*
X124584939Y-73568900D01*
X124371320Y-73657165D01*
X124207740Y-73820460D01*
X124119102Y-74033925D01*
X124118900Y-74265061D01*
X121418788Y-74265061D01*
X121350422Y-74099606D01*
X121201180Y-73950103D01*
X121080464Y-73899977D01*
X121200394Y-73850422D01*
X121349897Y-73701180D01*
X121430908Y-73506086D01*
X121431092Y-73294841D01*
X121350422Y-73099606D01*
X121201180Y-72950103D01*
X121080464Y-72899977D01*
X121200394Y-72850422D01*
X121349897Y-72701180D01*
X121430908Y-72506086D01*
X121431092Y-72294841D01*
X121350422Y-72099606D01*
X121201180Y-71950103D01*
X121080464Y-71899977D01*
X121200394Y-71850422D01*
X121349897Y-71701180D01*
X121430908Y-71506086D01*
X121431030Y-71365061D01*
X126868900Y-71365061D01*
X126957165Y-71578680D01*
X127120460Y-71742260D01*
X127333925Y-71830898D01*
X127565061Y-71831100D01*
X127778680Y-71742835D01*
X127942260Y-71579540D01*
X128030898Y-71366075D01*
X128031100Y-71134939D01*
X127942835Y-70921320D01*
X127779540Y-70757740D01*
X127566075Y-70669102D01*
X127334939Y-70668900D01*
X127121320Y-70757165D01*
X126957740Y-70920460D01*
X126869102Y-71133925D01*
X126868900Y-71365061D01*
X121431030Y-71365061D01*
X121431092Y-71294841D01*
X121350422Y-71099606D01*
X121201180Y-70950103D01*
X121006086Y-70869092D01*
X120794841Y-70868908D01*
X120599606Y-70949578D01*
X120450103Y-71098820D01*
X120399977Y-71219536D01*
X120350422Y-71099606D01*
X120201180Y-70950103D01*
X120006086Y-70869092D01*
X119794841Y-70868908D01*
X119599606Y-70949578D01*
X119450103Y-71098820D01*
X119399977Y-71219536D01*
X119350422Y-71099606D01*
X119201180Y-70950103D01*
X119006086Y-70869092D01*
X118794841Y-70868908D01*
X118599606Y-70949578D01*
X118450103Y-71098820D01*
X118399977Y-71219536D01*
X118350422Y-71099606D01*
X118201180Y-70950103D01*
X118006086Y-70869092D01*
X117794841Y-70868908D01*
X117599606Y-70949578D01*
X117450103Y-71098820D01*
X117399977Y-71219536D01*
X117350422Y-71099606D01*
X117201180Y-70950103D01*
X117006086Y-70869092D01*
X116794841Y-70868908D01*
X116599606Y-70949578D01*
X116450103Y-71098820D01*
X116399977Y-71219536D01*
X116350422Y-71099606D01*
X116201180Y-70950103D01*
X116006086Y-70869092D01*
X115794841Y-70868908D01*
X115599606Y-70949578D01*
X115450103Y-71098820D01*
X115399977Y-71219536D01*
X115350422Y-71099606D01*
X115201180Y-70950103D01*
X115006086Y-70869092D01*
X114794841Y-70868908D01*
X114599606Y-70949578D01*
X114450103Y-71098820D01*
X114399977Y-71219536D01*
X114350422Y-71099606D01*
X114201180Y-70950103D01*
X114006086Y-70869092D01*
X113794841Y-70868908D01*
X113599606Y-70949578D01*
X113450103Y-71098820D01*
X113369092Y-71293914D01*
X113368908Y-71505159D01*
X110580994Y-71505159D01*
X110581100Y-71384939D01*
X110492835Y-71171320D01*
X110329540Y-71007740D01*
X110116075Y-70919102D01*
X109884939Y-70918900D01*
X109671320Y-71007165D01*
X109507740Y-71170460D01*
X109419102Y-71383925D01*
X109418900Y-71615061D01*
X108127000Y-71615061D01*
X108127000Y-68065061D01*
X110718900Y-68065061D01*
X110807165Y-68278680D01*
X110970460Y-68442260D01*
X111183925Y-68530898D01*
X111415061Y-68531100D01*
X111628680Y-68442835D01*
X111792260Y-68279540D01*
X111880898Y-68066075D01*
X111880986Y-67965061D01*
X116068900Y-67965061D01*
X116157165Y-68178680D01*
X116320460Y-68342260D01*
X116533925Y-68430898D01*
X116765061Y-68431100D01*
X116978680Y-68342835D01*
X117142260Y-68179540D01*
X117149909Y-68161119D01*
X117157165Y-68178680D01*
X117320460Y-68342260D01*
X117533925Y-68430898D01*
X117765061Y-68431100D01*
X117978680Y-68342835D01*
X118142260Y-68179540D01*
X118149909Y-68161119D01*
X118157165Y-68178680D01*
X118320460Y-68342260D01*
X118533925Y-68430898D01*
X118765061Y-68431100D01*
X118924888Y-68365061D01*
X125368900Y-68365061D01*
X125457165Y-68578680D01*
X125620460Y-68742260D01*
X125833925Y-68830898D01*
X126065061Y-68831100D01*
X126278680Y-68742835D01*
X126442260Y-68579540D01*
X126530898Y-68366075D01*
X126531100Y-68134939D01*
X126467482Y-67980971D01*
X126615061Y-67981100D01*
X126828680Y-67892835D01*
X126992260Y-67729540D01*
X127080898Y-67516075D01*
X127081100Y-67284939D01*
X126992835Y-67071320D01*
X126829540Y-66907740D01*
X126616075Y-66819102D01*
X126384939Y-66818900D01*
X126171320Y-66907165D01*
X126007740Y-67070460D01*
X125919102Y-67283925D01*
X125918900Y-67515061D01*
X125982518Y-67669029D01*
X125834939Y-67668900D01*
X125621320Y-67757165D01*
X125457740Y-67920460D01*
X125369102Y-68133925D01*
X125368900Y-68365061D01*
X118924888Y-68365061D01*
X118978680Y-68342835D01*
X119142260Y-68179540D01*
X119230898Y-67966075D01*
X119231100Y-67734939D01*
X119222887Y-67715061D01*
X120068900Y-67715061D01*
X120157165Y-67928680D01*
X120320460Y-68092260D01*
X120533925Y-68180898D01*
X120765061Y-68181100D01*
X120978680Y-68092835D01*
X121142260Y-67929540D01*
X121230898Y-67716075D01*
X121231100Y-67484939D01*
X121142835Y-67271320D01*
X120979540Y-67107740D01*
X120766075Y-67019102D01*
X120534939Y-67018900D01*
X120321320Y-67107165D01*
X120157740Y-67270460D01*
X120069102Y-67483925D01*
X120068900Y-67715061D01*
X119222887Y-67715061D01*
X119142835Y-67521320D01*
X118979540Y-67357740D01*
X118766075Y-67269102D01*
X118534939Y-67268900D01*
X118321320Y-67357165D01*
X118157740Y-67520460D01*
X118150091Y-67538881D01*
X118142835Y-67521320D01*
X117979540Y-67357740D01*
X117766075Y-67269102D01*
X117708900Y-67269052D01*
X117730898Y-67216075D01*
X117731100Y-66984939D01*
X117642835Y-66771320D01*
X117486849Y-66615061D01*
X121168900Y-66615061D01*
X121257165Y-66828680D01*
X121420460Y-66992260D01*
X121633925Y-67080898D01*
X121865061Y-67081100D01*
X122078680Y-66992835D01*
X122242260Y-66829540D01*
X122330898Y-66616075D01*
X122330898Y-66615061D01*
X122668900Y-66615061D01*
X122757165Y-66828680D01*
X122920460Y-66992260D01*
X123133925Y-67080898D01*
X123365061Y-67081100D01*
X123578680Y-66992835D01*
X123675025Y-66896658D01*
X123770460Y-66992260D01*
X123983925Y-67080898D01*
X124215061Y-67081100D01*
X124428680Y-66992835D01*
X124592260Y-66829540D01*
X124680898Y-66616075D01*
X124681100Y-66384939D01*
X124592835Y-66171320D01*
X124429540Y-66007740D01*
X124216075Y-65919102D01*
X123984939Y-65918900D01*
X123771320Y-66007165D01*
X123674975Y-66103342D01*
X123579540Y-66007740D01*
X123366075Y-65919102D01*
X123134939Y-65918900D01*
X122921320Y-66007165D01*
X122757740Y-66170460D01*
X122669102Y-66383925D01*
X122668900Y-66615061D01*
X122330898Y-66615061D01*
X122331100Y-66384939D01*
X122242835Y-66171320D01*
X122079540Y-66007740D01*
X121866075Y-65919102D01*
X121634939Y-65918900D01*
X121421320Y-66007165D01*
X121257740Y-66170460D01*
X121169102Y-66383925D01*
X121168900Y-66615061D01*
X117486849Y-66615061D01*
X117479540Y-66607740D01*
X117266075Y-66519102D01*
X117034939Y-66518900D01*
X116821320Y-66607165D01*
X116657740Y-66770460D01*
X116569102Y-66983925D01*
X116568900Y-67215061D01*
X116591166Y-67268949D01*
X116534939Y-67268900D01*
X116321320Y-67357165D01*
X116157740Y-67520460D01*
X116069102Y-67733925D01*
X116068900Y-67965061D01*
X111880986Y-67965061D01*
X111881100Y-67834939D01*
X111792835Y-67621320D01*
X111629540Y-67457740D01*
X111416075Y-67369102D01*
X111184939Y-67368900D01*
X110971320Y-67457165D01*
X110807740Y-67620460D01*
X110719102Y-67833925D01*
X110718900Y-68065061D01*
X108127000Y-68065061D01*
X108127000Y-67802606D01*
X108873711Y-67055895D01*
X108933925Y-67080898D01*
X109165061Y-67081100D01*
X109378680Y-66992835D01*
X109542260Y-66829540D01*
X109630898Y-66616075D01*
X109631100Y-66384939D01*
X109605829Y-66323777D01*
X109814545Y-66115061D01*
X111668900Y-66115061D01*
X111757165Y-66328680D01*
X111920460Y-66492260D01*
X112133925Y-66580898D01*
X112365061Y-66581100D01*
X112578680Y-66492835D01*
X112696057Y-66375663D01*
X113160197Y-66839803D01*
X113202211Y-66867666D01*
X113250000Y-66877000D01*
X113500000Y-66877000D01*
X113549410Y-66866994D01*
X113589803Y-66839803D01*
X114339803Y-66089803D01*
X114367666Y-66047789D01*
X114377000Y-66000000D01*
X114377000Y-65302606D01*
X114552606Y-65127000D01*
X115051276Y-65127000D01*
X115007740Y-65170460D01*
X114919102Y-65383925D01*
X114918900Y-65615061D01*
X115007165Y-65828680D01*
X115170460Y-65992260D01*
X115188881Y-65999909D01*
X115171320Y-66007165D01*
X115007740Y-66170460D01*
X114919102Y-66383925D01*
X114918900Y-66615061D01*
X114941170Y-66668959D01*
X114874161Y-66668900D01*
X114660542Y-66757165D01*
X114496962Y-66920460D01*
X114408324Y-67133925D01*
X114408122Y-67365061D01*
X114496387Y-67578680D01*
X114659682Y-67742260D01*
X114873147Y-67830898D01*
X115104283Y-67831100D01*
X115317902Y-67742835D01*
X115481482Y-67579540D01*
X115570120Y-67366075D01*
X115570322Y-67134939D01*
X115548052Y-67081041D01*
X115615061Y-67081100D01*
X115828680Y-66992835D01*
X115992260Y-66829540D01*
X116080898Y-66616075D01*
X116081100Y-66384939D01*
X115992835Y-66171320D01*
X115829540Y-66007740D01*
X115811119Y-66000091D01*
X115828680Y-65992835D01*
X115956677Y-65865061D01*
X117168900Y-65865061D01*
X117257165Y-66078680D01*
X117420460Y-66242260D01*
X117633925Y-66330898D01*
X117865061Y-66331100D01*
X118078680Y-66242835D01*
X118242260Y-66079540D01*
X118330898Y-65866075D01*
X118331100Y-65634939D01*
X118242835Y-65421320D01*
X118079540Y-65257740D01*
X117866075Y-65169102D01*
X117634939Y-65168900D01*
X117421320Y-65257165D01*
X117257740Y-65420460D01*
X117169102Y-65633925D01*
X117168900Y-65865061D01*
X115956677Y-65865061D01*
X115992260Y-65829540D01*
X116080898Y-65616075D01*
X116081100Y-65384939D01*
X115992835Y-65171320D01*
X115948592Y-65127000D01*
X119000000Y-65127000D01*
X119049410Y-65116994D01*
X119052281Y-65115061D01*
X123518900Y-65115061D01*
X123607165Y-65328680D01*
X123770460Y-65492260D01*
X123983925Y-65580898D01*
X124215061Y-65581100D01*
X124428680Y-65492835D01*
X124592260Y-65329540D01*
X124680898Y-65116075D01*
X124681100Y-64884939D01*
X124592835Y-64671320D01*
X124429540Y-64507740D01*
X124216075Y-64419102D01*
X123984939Y-64418900D01*
X123771320Y-64507165D01*
X123607740Y-64670460D01*
X123519102Y-64883925D01*
X123518900Y-65115061D01*
X119052281Y-65115061D01*
X119089803Y-65089803D01*
X119779026Y-64400580D01*
X119920460Y-64542260D01*
X120133925Y-64630898D01*
X120365061Y-64631100D01*
X120578680Y-64542835D01*
X120742260Y-64379540D01*
X120830898Y-64166075D01*
X120831100Y-63934939D01*
X120742835Y-63721320D01*
X120579540Y-63557740D01*
X120476758Y-63515061D01*
X120668900Y-63515061D01*
X120757165Y-63728680D01*
X120920460Y-63892260D01*
X121133925Y-63980898D01*
X121365061Y-63981100D01*
X121578680Y-63892835D01*
X121742260Y-63729540D01*
X121789795Y-63615061D01*
X123518900Y-63615061D01*
X123607165Y-63828680D01*
X123770460Y-63992260D01*
X123983925Y-64080898D01*
X124215061Y-64081100D01*
X124428680Y-63992835D01*
X124592260Y-63829540D01*
X124680898Y-63616075D01*
X124680898Y-63615061D01*
X126918900Y-63615061D01*
X127007165Y-63828680D01*
X127170460Y-63992260D01*
X127383925Y-64080898D01*
X127615061Y-64081100D01*
X127828680Y-63992835D01*
X127992260Y-63829540D01*
X128080898Y-63616075D01*
X128081100Y-63384939D01*
X127992835Y-63171320D01*
X127829540Y-63007740D01*
X127616075Y-62919102D01*
X127384939Y-62918900D01*
X127171320Y-63007165D01*
X127007740Y-63170460D01*
X126919102Y-63383925D01*
X126918900Y-63615061D01*
X124680898Y-63615061D01*
X124681100Y-63384939D01*
X124592835Y-63171320D01*
X124429540Y-63007740D01*
X124216075Y-62919102D01*
X123984939Y-62918900D01*
X123771320Y-63007165D01*
X123607740Y-63170460D01*
X123519102Y-63383925D01*
X123518900Y-63615061D01*
X121789795Y-63615061D01*
X121830898Y-63516075D01*
X121831100Y-63284939D01*
X121742835Y-63071320D01*
X121579540Y-62907740D01*
X121366075Y-62819102D01*
X121134939Y-62818900D01*
X120921320Y-62907165D01*
X120757740Y-63070460D01*
X120669102Y-63283925D01*
X120668900Y-63515061D01*
X120476758Y-63515061D01*
X120366075Y-63469102D01*
X120134939Y-63468900D01*
X119921320Y-63557165D01*
X119877000Y-63601408D01*
X119877000Y-61865061D01*
X123018900Y-61865061D01*
X123107165Y-62078680D01*
X123270460Y-62242260D01*
X123483925Y-62330898D01*
X123715061Y-62331100D01*
X123928680Y-62242835D01*
X124092260Y-62079540D01*
X124180898Y-61866075D01*
X124181100Y-61634939D01*
X124092835Y-61421320D01*
X123929540Y-61257740D01*
X123716075Y-61169102D01*
X123484939Y-61168900D01*
X123271320Y-61257165D01*
X123107740Y-61420460D01*
X123019102Y-61633925D01*
X123018900Y-61865061D01*
X119877000Y-61865061D01*
X119877000Y-61414189D01*
X119928680Y-61392835D01*
X120092260Y-61229540D01*
X120180898Y-61016075D01*
X120181100Y-60784939D01*
X120092835Y-60571320D01*
X119929540Y-60407740D01*
X119716075Y-60319102D01*
X119484939Y-60318900D01*
X119377000Y-60363499D01*
X119377000Y-59765061D01*
X122468900Y-59765061D01*
X122557165Y-59978680D01*
X122720460Y-60142260D01*
X122933925Y-60230898D01*
X123165061Y-60231100D01*
X123378680Y-60142835D01*
X123542260Y-59979540D01*
X123630898Y-59766075D01*
X123630898Y-59765061D01*
X125368900Y-59765061D01*
X125457165Y-59978680D01*
X125620460Y-60142260D01*
X125833925Y-60230898D01*
X126065061Y-60231100D01*
X126278680Y-60142835D01*
X126442260Y-59979540D01*
X126530898Y-59766075D01*
X126531100Y-59534939D01*
X126442835Y-59321320D01*
X126279540Y-59157740D01*
X126066075Y-59069102D01*
X125834939Y-59068900D01*
X125621320Y-59157165D01*
X125457740Y-59320460D01*
X125369102Y-59533925D01*
X125368900Y-59765061D01*
X123630898Y-59765061D01*
X123631100Y-59534939D01*
X123542835Y-59321320D01*
X123379540Y-59157740D01*
X123166075Y-59069102D01*
X122934939Y-59068900D01*
X122721320Y-59157165D01*
X122557740Y-59320460D01*
X122469102Y-59533925D01*
X122468900Y-59765061D01*
X119377000Y-59765061D01*
X119377000Y-56115061D01*
X120168900Y-56115061D01*
X120257165Y-56328680D01*
X120420460Y-56492260D01*
X120633925Y-56580898D01*
X120865061Y-56581100D01*
X121078680Y-56492835D01*
X121242260Y-56329540D01*
X121330898Y-56116075D01*
X121331100Y-55884939D01*
X121242835Y-55671320D01*
X121079540Y-55507740D01*
X120866075Y-55419102D01*
X120634939Y-55418900D01*
X120421320Y-55507165D01*
X120257740Y-55670460D01*
X120169102Y-55883925D01*
X120168900Y-56115061D01*
X119377000Y-56115061D01*
X119377000Y-55250000D01*
X119366994Y-55200590D01*
X119339803Y-55160197D01*
X118589803Y-54410197D01*
X118547789Y-54382334D01*
X118500000Y-54373000D01*
X117000000Y-54373000D01*
X116950590Y-54383006D01*
X116910197Y-54410197D01*
X116410197Y-54910197D01*
X116382334Y-54952211D01*
X116373000Y-55000000D01*
X116373000Y-59250000D01*
X116383006Y-59299410D01*
X116410197Y-59339803D01*
X117123000Y-60052606D01*
X117123000Y-62555401D01*
X117007740Y-62670460D01*
X116973784Y-62752236D01*
X116829540Y-62607740D01*
X116616075Y-62519102D01*
X116384939Y-62518900D01*
X116171320Y-62607165D01*
X116007740Y-62770460D01*
X115919102Y-62983925D01*
X115918980Y-63123000D01*
X115080979Y-63123000D01*
X115081100Y-62984939D01*
X114992835Y-62771320D01*
X114829540Y-62607740D01*
X114616075Y-62519102D01*
X114384939Y-62518900D01*
X114171320Y-62607165D01*
X114007740Y-62770460D01*
X113919102Y-62983925D01*
X113918980Y-63123000D01*
X113250000Y-63123000D01*
X113200590Y-63133006D01*
X113160197Y-63160197D01*
X112410197Y-63910197D01*
X112382334Y-63952211D01*
X112373000Y-64000000D01*
X112373000Y-65421977D01*
X112366075Y-65419102D01*
X112134939Y-65418900D01*
X111921320Y-65507165D01*
X111757740Y-65670460D01*
X111669102Y-65883925D01*
X111668900Y-66115061D01*
X109814545Y-66115061D01*
X110089803Y-65839803D01*
X110117666Y-65797789D01*
X110127000Y-65750000D01*
X110127000Y-64052606D01*
X110359041Y-63820565D01*
X110383925Y-63830898D01*
X110615061Y-63831100D01*
X110828680Y-63742835D01*
X110992260Y-63579540D01*
X111080898Y-63366075D01*
X111081100Y-63134939D01*
X111070448Y-63109158D01*
X111802606Y-62377000D01*
X114750000Y-62377000D01*
X114799410Y-62366994D01*
X114839803Y-62339803D01*
X115839803Y-61339803D01*
X115867666Y-61297789D01*
X115877000Y-61250000D01*
X115877000Y-60750000D01*
X115866994Y-60700590D01*
X115839803Y-60660197D01*
X114377000Y-59197394D01*
X114377000Y-56615061D01*
X114918900Y-56615061D01*
X115007165Y-56828680D01*
X115170460Y-56992260D01*
X115383925Y-57080898D01*
X115615061Y-57081100D01*
X115828680Y-56992835D01*
X115992260Y-56829540D01*
X116080898Y-56616075D01*
X116081100Y-56384939D01*
X115992835Y-56171320D01*
X115829540Y-56007740D01*
X115616075Y-55919102D01*
X115384939Y-55918900D01*
X115171320Y-56007165D01*
X115007740Y-56170460D01*
X114919102Y-56383925D01*
X114918900Y-56615061D01*
X114377000Y-56615061D01*
X114377000Y-53769579D01*
X115189379Y-52957200D01*
X116000000Y-52957200D01*
X116174963Y-52922398D01*
X116323289Y-52823289D01*
X116939378Y-52207200D01*
X119921723Y-52207200D01*
X119869102Y-52333925D01*
G36*
X114123000Y-60052606D02*
X114123000Y-61697394D01*
X114047394Y-61773000D01*
X111350000Y-61773000D01*
X111300590Y-61783006D01*
X111260197Y-61810197D01*
X110401480Y-62668914D01*
X110384939Y-62668900D01*
X110171320Y-62757165D01*
X110007740Y-62920460D01*
X109919102Y-63133925D01*
X109919087Y-63151307D01*
X109410197Y-63660197D01*
X109382334Y-63702211D01*
X109373000Y-63750000D01*
X109373000Y-64921977D01*
X109366075Y-64919102D01*
X109134939Y-64918900D01*
X108921320Y-65007165D01*
X108757740Y-65170460D01*
X108669102Y-65383925D01*
X108668900Y-65615061D01*
X108757165Y-65828680D01*
X108872841Y-65944558D01*
X108721320Y-66007165D01*
X108557740Y-66170460D01*
X108492274Y-66328120D01*
X107410197Y-67410197D01*
X107382334Y-67452211D01*
X107373000Y-67500000D01*
X107373000Y-72168933D01*
X107334939Y-72168900D01*
X107121320Y-72257165D01*
X106957740Y-72420460D01*
X106869102Y-72633925D01*
X106868900Y-72865061D01*
X106957165Y-73078680D01*
X107120460Y-73242260D01*
X107333925Y-73330898D01*
X107373000Y-73330932D01*
X107373000Y-78500000D01*
X107383006Y-78549410D01*
X107410197Y-78589803D01*
X108281878Y-79461484D01*
X108171320Y-79507165D01*
X108007740Y-79670460D01*
X107919102Y-79883925D01*
X107918900Y-80115061D01*
X108007165Y-80328680D01*
X108170460Y-80492260D01*
X108383925Y-80580898D01*
X108615061Y-80581100D01*
X108828680Y-80492835D01*
X108992260Y-80329540D01*
X109080898Y-80116075D01*
X109081100Y-79884939D01*
X108992835Y-79671320D01*
X108948592Y-79627000D01*
X109947394Y-79627000D01*
X111123000Y-80802606D01*
X111123000Y-83500000D01*
X111133006Y-83549410D01*
X111160197Y-83589803D01*
X112160197Y-84589803D01*
X112202211Y-84617666D01*
X112250000Y-84627000D01*
X121500000Y-84627000D01*
X121549410Y-84616994D01*
X121589803Y-84589803D01*
X122304005Y-83875601D01*
X122420460Y-83992260D01*
X122633925Y-84080898D01*
X122865061Y-84081100D01*
X123078680Y-83992835D01*
X123242260Y-83829540D01*
X123330898Y-83616075D01*
X123331100Y-83384939D01*
X123242835Y-83171320D01*
X123117969Y-83046236D01*
X123127000Y-83000000D01*
X123127000Y-80865061D01*
X125418900Y-80865061D01*
X125507165Y-81078680D01*
X125670460Y-81242260D01*
X125883925Y-81330898D01*
X126115061Y-81331100D01*
X126328680Y-81242835D01*
X126492260Y-81079540D01*
X126580898Y-80866075D01*
X126581100Y-80634939D01*
X126492835Y-80421320D01*
X126329540Y-80257740D01*
X126116075Y-80169102D01*
X125884939Y-80168900D01*
X125671320Y-80257165D01*
X125507740Y-80420460D01*
X125419102Y-80633925D01*
X125418900Y-80865061D01*
X123127000Y-80865061D01*
X123127000Y-80302606D01*
X124802606Y-78627000D01*
X126697394Y-78627000D01*
X127123000Y-79052606D01*
X127123000Y-83697394D01*
X124447394Y-86373000D01*
X113802606Y-86373000D01*
X112589803Y-85160197D01*
X112547789Y-85132334D01*
X112500000Y-85123000D01*
X111552606Y-85123000D01*
X109044667Y-82615061D01*
X109418900Y-82615061D01*
X109507165Y-82828680D01*
X109670460Y-82992260D01*
X109883925Y-83080898D01*
X110115061Y-83081100D01*
X110328680Y-82992835D01*
X110492260Y-82829540D01*
X110580898Y-82616075D01*
X110581100Y-82384939D01*
X110492835Y-82171320D01*
X110329540Y-82007740D01*
X110116075Y-81919102D01*
X109884939Y-81918900D01*
X109671320Y-82007165D01*
X109507740Y-82170460D01*
X109419102Y-82383925D01*
X109418900Y-82615061D01*
X109044667Y-82615061D01*
X106127000Y-79697394D01*
X106127000Y-78750000D01*
X106116994Y-78700590D01*
X106089803Y-78660197D01*
X104627000Y-77197394D01*
X104627000Y-72865061D01*
X105368900Y-72865061D01*
X105457165Y-73078680D01*
X105620460Y-73242260D01*
X105833925Y-73330898D01*
X106065061Y-73331100D01*
X106278680Y-73242835D01*
X106442260Y-73079540D01*
X106530898Y-72866075D01*
X106531100Y-72634939D01*
X106442835Y-72421320D01*
X106279540Y-72257740D01*
X106066075Y-72169102D01*
X105834939Y-72168900D01*
X105621320Y-72257165D01*
X105457740Y-72420460D01*
X105369102Y-72633925D01*
X105368900Y-72865061D01*
X104627000Y-72865061D01*
X104627000Y-69698724D01*
X104670460Y-69742260D01*
X104883925Y-69830898D01*
X105115061Y-69831100D01*
X105328680Y-69742835D01*
X105492260Y-69579540D01*
X105580898Y-69366075D01*
X105581100Y-69134939D01*
X105492835Y-68921320D01*
X105329540Y-68757740D01*
X105116075Y-68669102D01*
X104884939Y-68668900D01*
X104671320Y-68757165D01*
X104627000Y-68801408D01*
X104627000Y-66365061D01*
X104668900Y-66365061D01*
X104757165Y-66578680D01*
X104920460Y-66742260D01*
X105133925Y-66830898D01*
X105365061Y-66831100D01*
X105578680Y-66742835D01*
X105742260Y-66579540D01*
X105830898Y-66366075D01*
X105831100Y-66134939D01*
X105742835Y-65921320D01*
X105579540Y-65757740D01*
X105366075Y-65669102D01*
X105134939Y-65668900D01*
X104921320Y-65757165D01*
X104757740Y-65920460D01*
X104669102Y-66133925D01*
X104668900Y-66365061D01*
X104627000Y-66365061D01*
X104627000Y-63802606D01*
X105814545Y-62615061D01*
X107918900Y-62615061D01*
X108007165Y-62828680D01*
X108170460Y-62992260D01*
X108383925Y-63080898D01*
X108615061Y-63081100D01*
X108828680Y-62992835D01*
X108992260Y-62829540D01*
X109080898Y-62616075D01*
X109081100Y-62384939D01*
X108992835Y-62171320D01*
X108829540Y-62007740D01*
X108616075Y-61919102D01*
X108384939Y-61918900D01*
X108171320Y-62007165D01*
X108007740Y-62170460D01*
X107919102Y-62383925D01*
X107918900Y-62615061D01*
X105814545Y-62615061D01*
X108552606Y-59877000D01*
X113947394Y-59877000D01*
X114123000Y-60052606D01*
X114123000Y-60052606D01*
G37*
X114123000Y-60052606D02*
X114123000Y-61697394D01*
X114047394Y-61773000D01*
X111350000Y-61773000D01*
X111300590Y-61783006D01*
X111260197Y-61810197D01*
X110401480Y-62668914D01*
X110384939Y-62668900D01*
X110171320Y-62757165D01*
X110007740Y-62920460D01*
X109919102Y-63133925D01*
X109919087Y-63151307D01*
X109410197Y-63660197D01*
X109382334Y-63702211D01*
X109373000Y-63750000D01*
X109373000Y-64921977D01*
X109366075Y-64919102D01*
X109134939Y-64918900D01*
X108921320Y-65007165D01*
X108757740Y-65170460D01*
X108669102Y-65383925D01*
X108668900Y-65615061D01*
X108757165Y-65828680D01*
X108872841Y-65944558D01*
X108721320Y-66007165D01*
X108557740Y-66170460D01*
X108492274Y-66328120D01*
X107410197Y-67410197D01*
X107382334Y-67452211D01*
X107373000Y-67500000D01*
X107373000Y-72168933D01*
X107334939Y-72168900D01*
X107121320Y-72257165D01*
X106957740Y-72420460D01*
X106869102Y-72633925D01*
X106868900Y-72865061D01*
X106957165Y-73078680D01*
X107120460Y-73242260D01*
X107333925Y-73330898D01*
X107373000Y-73330932D01*
X107373000Y-78500000D01*
X107383006Y-78549410D01*
X107410197Y-78589803D01*
X108281878Y-79461484D01*
X108171320Y-79507165D01*
X108007740Y-79670460D01*
X107919102Y-79883925D01*
X107918900Y-80115061D01*
X108007165Y-80328680D01*
X108170460Y-80492260D01*
X108383925Y-80580898D01*
X108615061Y-80581100D01*
X108828680Y-80492835D01*
X108992260Y-80329540D01*
X109080898Y-80116075D01*
X109081100Y-79884939D01*
X108992835Y-79671320D01*
X108948592Y-79627000D01*
X109947394Y-79627000D01*
X111123000Y-80802606D01*
X111123000Y-83500000D01*
X111133006Y-83549410D01*
X111160197Y-83589803D01*
X112160197Y-84589803D01*
X112202211Y-84617666D01*
X112250000Y-84627000D01*
X121500000Y-84627000D01*
X121549410Y-84616994D01*
X121589803Y-84589803D01*
X122304005Y-83875601D01*
X122420460Y-83992260D01*
X122633925Y-84080898D01*
X122865061Y-84081100D01*
X123078680Y-83992835D01*
X123242260Y-83829540D01*
X123330898Y-83616075D01*
X123331100Y-83384939D01*
X123242835Y-83171320D01*
X123117969Y-83046236D01*
X123127000Y-83000000D01*
X123127000Y-80865061D01*
X125418900Y-80865061D01*
X125507165Y-81078680D01*
X125670460Y-81242260D01*
X125883925Y-81330898D01*
X126115061Y-81331100D01*
X126328680Y-81242835D01*
X126492260Y-81079540D01*
X126580898Y-80866075D01*
X126581100Y-80634939D01*
X126492835Y-80421320D01*
X126329540Y-80257740D01*
X126116075Y-80169102D01*
X125884939Y-80168900D01*
X125671320Y-80257165D01*
X125507740Y-80420460D01*
X125419102Y-80633925D01*
X125418900Y-80865061D01*
X123127000Y-80865061D01*
X123127000Y-80302606D01*
X124802606Y-78627000D01*
X126697394Y-78627000D01*
X127123000Y-79052606D01*
X127123000Y-83697394D01*
X124447394Y-86373000D01*
X113802606Y-86373000D01*
X112589803Y-85160197D01*
X112547789Y-85132334D01*
X112500000Y-85123000D01*
X111552606Y-85123000D01*
X109044667Y-82615061D01*
X109418900Y-82615061D01*
X109507165Y-82828680D01*
X109670460Y-82992260D01*
X109883925Y-83080898D01*
X110115061Y-83081100D01*
X110328680Y-82992835D01*
X110492260Y-82829540D01*
X110580898Y-82616075D01*
X110581100Y-82384939D01*
X110492835Y-82171320D01*
X110329540Y-82007740D01*
X110116075Y-81919102D01*
X109884939Y-81918900D01*
X109671320Y-82007165D01*
X109507740Y-82170460D01*
X109419102Y-82383925D01*
X109418900Y-82615061D01*
X109044667Y-82615061D01*
X106127000Y-79697394D01*
X106127000Y-78750000D01*
X106116994Y-78700590D01*
X106089803Y-78660197D01*
X104627000Y-77197394D01*
X104627000Y-72865061D01*
X105368900Y-72865061D01*
X105457165Y-73078680D01*
X105620460Y-73242260D01*
X105833925Y-73330898D01*
X106065061Y-73331100D01*
X106278680Y-73242835D01*
X106442260Y-73079540D01*
X106530898Y-72866075D01*
X106531100Y-72634939D01*
X106442835Y-72421320D01*
X106279540Y-72257740D01*
X106066075Y-72169102D01*
X105834939Y-72168900D01*
X105621320Y-72257165D01*
X105457740Y-72420460D01*
X105369102Y-72633925D01*
X105368900Y-72865061D01*
X104627000Y-72865061D01*
X104627000Y-69698724D01*
X104670460Y-69742260D01*
X104883925Y-69830898D01*
X105115061Y-69831100D01*
X105328680Y-69742835D01*
X105492260Y-69579540D01*
X105580898Y-69366075D01*
X105581100Y-69134939D01*
X105492835Y-68921320D01*
X105329540Y-68757740D01*
X105116075Y-68669102D01*
X104884939Y-68668900D01*
X104671320Y-68757165D01*
X104627000Y-68801408D01*
X104627000Y-66365061D01*
X104668900Y-66365061D01*
X104757165Y-66578680D01*
X104920460Y-66742260D01*
X105133925Y-66830898D01*
X105365061Y-66831100D01*
X105578680Y-66742835D01*
X105742260Y-66579540D01*
X105830898Y-66366075D01*
X105831100Y-66134939D01*
X105742835Y-65921320D01*
X105579540Y-65757740D01*
X105366075Y-65669102D01*
X105134939Y-65668900D01*
X104921320Y-65757165D01*
X104757740Y-65920460D01*
X104669102Y-66133925D01*
X104668900Y-66365061D01*
X104627000Y-66365061D01*
X104627000Y-63802606D01*
X105814545Y-62615061D01*
X107918900Y-62615061D01*
X108007165Y-62828680D01*
X108170460Y-62992260D01*
X108383925Y-63080898D01*
X108615061Y-63081100D01*
X108828680Y-62992835D01*
X108992260Y-62829540D01*
X109080898Y-62616075D01*
X109081100Y-62384939D01*
X108992835Y-62171320D01*
X108829540Y-62007740D01*
X108616075Y-61919102D01*
X108384939Y-61918900D01*
X108171320Y-62007165D01*
X108007740Y-62170460D01*
X107919102Y-62383925D01*
X107918900Y-62615061D01*
X105814545Y-62615061D01*
X108552606Y-59877000D01*
X113947394Y-59877000D01*
X114123000Y-60052606D01*
G36*
X112873000Y-51802606D02*
X112873000Y-53230422D01*
X112176711Y-53926711D01*
X112077602Y-54075037D01*
X112042800Y-54250000D01*
X112042800Y-57810622D01*
X111809421Y-58044001D01*
X109514260Y-58044001D01*
X109508222Y-58042800D01*
X107750000Y-58042800D01*
X107575037Y-58077602D01*
X107426711Y-58176711D01*
X102426711Y-63176711D01*
X102327602Y-63325037D01*
X102292800Y-63500000D01*
X102292800Y-64885461D01*
X102257740Y-64920460D01*
X102169102Y-65133925D01*
X102168900Y-65365061D01*
X102257165Y-65578680D01*
X102420460Y-65742260D01*
X102633925Y-65830898D01*
X102865061Y-65831100D01*
X103078680Y-65742835D01*
X103124938Y-65696658D01*
X103170460Y-65742260D01*
X103383925Y-65830898D01*
X103615061Y-65831100D01*
X103828680Y-65742835D01*
X103873000Y-65698592D01*
X103873000Y-77551276D01*
X103829540Y-77507740D01*
X103616075Y-77419102D01*
X103384939Y-77418900D01*
X103171320Y-77507165D01*
X103007740Y-77670460D01*
X102919102Y-77883925D01*
X102918900Y-78115061D01*
X103007165Y-78328680D01*
X103097413Y-78419086D01*
X102884939Y-78418900D01*
X102671320Y-78507165D01*
X102507740Y-78670460D01*
X102419102Y-78883925D01*
X102418900Y-79115061D01*
X102507165Y-79328680D01*
X102670460Y-79492260D01*
X102883925Y-79580898D01*
X103115061Y-79581100D01*
X103328680Y-79492835D01*
X103492260Y-79329540D01*
X103580898Y-79116075D01*
X103581100Y-78884939D01*
X103492835Y-78671320D01*
X103402587Y-78580914D01*
X103615061Y-78581100D01*
X103828680Y-78492835D01*
X103992260Y-78329540D01*
X104080898Y-78116075D01*
X104080990Y-78010596D01*
X105373000Y-79302606D01*
X105373000Y-80250000D01*
X105383006Y-80299410D01*
X105410197Y-80339803D01*
X110910197Y-85839803D01*
X110952211Y-85867666D01*
X111000000Y-85877000D01*
X112197394Y-85877000D01*
X113410197Y-87089803D01*
X113452211Y-87117666D01*
X113500000Y-87127000D01*
X124750000Y-87127000D01*
X124799410Y-87116994D01*
X124839803Y-87089803D01*
X126564545Y-85365061D01*
X127168900Y-85365061D01*
X127257165Y-85578680D01*
X127420460Y-85742260D01*
X127633925Y-85830898D01*
X127865061Y-85831100D01*
X128078680Y-85742835D01*
X128242260Y-85579540D01*
X128330898Y-85366075D01*
X128331100Y-85134939D01*
X128242835Y-84921320D01*
X128079540Y-84757740D01*
X127866075Y-84669102D01*
X127634939Y-84668900D01*
X127421320Y-84757165D01*
X127257740Y-84920460D01*
X127169102Y-85133925D01*
X127168900Y-85365061D01*
X126564545Y-85365061D01*
X127839803Y-84089803D01*
X127867666Y-84047789D01*
X127877000Y-84000000D01*
X127877000Y-82865061D01*
X140418900Y-82865061D01*
X140507165Y-83078680D01*
X140553342Y-83124938D01*
X140507740Y-83170460D01*
X140419102Y-83383925D01*
X140418900Y-83615061D01*
X140507165Y-83828680D01*
X140553342Y-83874938D01*
X140507740Y-83920460D01*
X140419102Y-84133925D01*
X140418900Y-84365061D01*
X140507165Y-84578680D01*
X140670460Y-84742260D01*
X140883925Y-84830898D01*
X141115061Y-84831100D01*
X141328680Y-84742835D01*
X141374938Y-84696658D01*
X141420460Y-84742260D01*
X141633925Y-84830898D01*
X141865061Y-84831100D01*
X142078680Y-84742835D01*
X142124938Y-84696658D01*
X142170460Y-84742260D01*
X142383925Y-84830898D01*
X142615061Y-84831100D01*
X142828680Y-84742835D01*
X142992260Y-84579540D01*
X143080898Y-84366075D01*
X143081100Y-84134939D01*
X142992835Y-83921320D01*
X142946658Y-83875062D01*
X142992260Y-83829540D01*
X143080898Y-83616075D01*
X143081100Y-83384939D01*
X142992835Y-83171320D01*
X142946658Y-83125062D01*
X142992260Y-83079540D01*
X143080898Y-82866075D01*
X143081100Y-82634939D01*
X142992835Y-82421320D01*
X142829540Y-82257740D01*
X142616075Y-82169102D01*
X142384939Y-82168900D01*
X142171320Y-82257165D01*
X142125062Y-82303342D01*
X142079540Y-82257740D01*
X141866075Y-82169102D01*
X141634939Y-82168900D01*
X141421320Y-82257165D01*
X141375062Y-82303342D01*
X141329540Y-82257740D01*
X141116075Y-82169102D01*
X140884939Y-82168900D01*
X140671320Y-82257165D01*
X140507740Y-82420460D01*
X140419102Y-82633925D01*
X140418900Y-82865061D01*
X127877000Y-82865061D01*
X127877000Y-78565061D01*
X140368900Y-78565061D01*
X140457165Y-78778680D01*
X140620460Y-78942260D01*
X140833925Y-79030898D01*
X141065061Y-79031100D01*
X141278680Y-78942835D01*
X141442260Y-78779540D01*
X141530898Y-78566075D01*
X141531100Y-78334939D01*
X141442835Y-78121320D01*
X141279540Y-77957740D01*
X141066075Y-77869102D01*
X140834939Y-77868900D01*
X140621320Y-77957165D01*
X140457740Y-78120460D01*
X140369102Y-78333925D01*
X140368900Y-78565061D01*
X127877000Y-78565061D01*
X127877000Y-78302606D01*
X129839803Y-76339803D01*
X129867666Y-76297789D01*
X129877000Y-76250000D01*
X129877000Y-74465061D01*
X140368900Y-74465061D01*
X140457165Y-74678680D01*
X140620460Y-74842260D01*
X140833925Y-74930898D01*
X141065061Y-74931100D01*
X141278680Y-74842835D01*
X141442260Y-74679540D01*
X141530898Y-74466075D01*
X141531100Y-74234939D01*
X141442835Y-74021320D01*
X141279540Y-73857740D01*
X141066075Y-73769102D01*
X140834939Y-73768900D01*
X140621320Y-73857165D01*
X140457740Y-74020460D01*
X140369102Y-74233925D01*
X140368900Y-74465061D01*
X129877000Y-74465061D01*
X129877000Y-70500000D01*
X130873000Y-70500000D01*
X130873000Y-71500000D01*
X130883006Y-71549410D01*
X130910197Y-71589803D01*
X130996949Y-71676555D01*
X131007165Y-71701280D01*
X131170460Y-71864860D01*
X131195759Y-71875365D01*
X131410197Y-72089803D01*
X131452211Y-72117666D01*
X131501754Y-72126988D01*
X131551022Y-72116300D01*
X131589803Y-72089803D01*
X131803955Y-71875651D01*
X131828680Y-71865435D01*
X131992260Y-71702140D01*
X132002765Y-71676841D01*
X132089803Y-71589803D01*
X132117666Y-71547789D01*
X132127000Y-71500000D01*
X132127000Y-70500000D01*
X133123000Y-70500000D01*
X133123000Y-71500000D01*
X133133006Y-71549410D01*
X133160197Y-71589803D01*
X133246949Y-71676555D01*
X133257165Y-71701280D01*
X133420460Y-71864860D01*
X133445759Y-71875365D01*
X133660197Y-72089803D01*
X133702211Y-72117666D01*
X133751754Y-72126988D01*
X133801022Y-72116300D01*
X133839803Y-72089803D01*
X134053955Y-71875651D01*
X134078680Y-71865435D01*
X134242260Y-71702140D01*
X134252765Y-71676841D01*
X134339803Y-71589803D01*
X134367666Y-71547789D01*
X134377000Y-71500000D01*
X134377000Y-70881559D01*
X142416151Y-70881559D01*
X142504416Y-71095178D01*
X142543716Y-71134547D01*
X142507740Y-71170460D01*
X142419102Y-71383925D01*
X142418900Y-71615061D01*
X142507165Y-71828680D01*
X142670460Y-71992260D01*
X142883925Y-72080898D01*
X143115061Y-72081100D01*
X143328680Y-71992835D01*
X143492260Y-71829540D01*
X143580898Y-71616075D01*
X143581100Y-71384939D01*
X143492835Y-71171320D01*
X143453535Y-71131951D01*
X143489511Y-71096038D01*
X143578149Y-70882573D01*
X143578351Y-70651437D01*
X143490086Y-70437818D01*
X143326791Y-70274238D01*
X143113326Y-70185600D01*
X142882190Y-70185398D01*
X142668571Y-70273663D01*
X142504991Y-70436958D01*
X142416353Y-70650423D01*
X142416151Y-70881559D01*
X134377000Y-70881559D01*
X134377000Y-70500000D01*
X134366994Y-70450590D01*
X134339803Y-70410197D01*
X134253051Y-70323445D01*
X134242835Y-70298720D01*
X134079540Y-70135140D01*
X134054241Y-70124635D01*
X133839803Y-69910197D01*
X133797789Y-69882334D01*
X133748246Y-69873012D01*
X133698978Y-69883700D01*
X133660197Y-69910197D01*
X133446045Y-70124349D01*
X133421320Y-70134565D01*
X133257740Y-70297860D01*
X133247235Y-70323159D01*
X133160197Y-70410197D01*
X133132334Y-70452211D01*
X133123000Y-70500000D01*
X132127000Y-70500000D01*
X132116994Y-70450590D01*
X132089803Y-70410197D01*
X132003051Y-70323445D01*
X131992835Y-70298720D01*
X131829540Y-70135140D01*
X131804241Y-70124635D01*
X131589803Y-69910197D01*
X131547789Y-69882334D01*
X131498246Y-69873012D01*
X131448978Y-69883700D01*
X131410197Y-69910197D01*
X131196045Y-70124349D01*
X131171320Y-70134565D01*
X131007740Y-70297860D01*
X130997235Y-70323159D01*
X130910197Y-70410197D01*
X130882334Y-70452211D01*
X130873000Y-70500000D01*
X129877000Y-70500000D01*
X129877000Y-60615061D01*
X137418900Y-60615061D01*
X137507165Y-60828680D01*
X137670460Y-60992260D01*
X137883925Y-61080898D01*
X138115061Y-61081100D01*
X138328680Y-60992835D01*
X138492260Y-60829540D01*
X138580898Y-60616075D01*
X138581100Y-60384939D01*
X138492835Y-60171320D01*
X138329540Y-60007740D01*
X138116075Y-59919102D01*
X137884939Y-59918900D01*
X137671320Y-60007165D01*
X137507740Y-60170460D01*
X137419102Y-60383925D01*
X137418900Y-60615061D01*
X129877000Y-60615061D01*
X129877000Y-55707200D01*
X135560622Y-55707200D01*
X137418943Y-57565522D01*
X137418900Y-57615061D01*
X137507165Y-57828680D01*
X137670460Y-57992260D01*
X137883925Y-58080898D01*
X138115061Y-58081100D01*
X138292800Y-58007660D01*
X138292800Y-58060622D01*
X137934479Y-58418943D01*
X137884939Y-58418900D01*
X137671320Y-58507165D01*
X137507740Y-58670460D01*
X137419102Y-58883925D01*
X137418900Y-59115061D01*
X137507165Y-59328680D01*
X137670460Y-59492260D01*
X137883925Y-59580898D01*
X138115061Y-59581100D01*
X138328680Y-59492835D01*
X138492260Y-59329540D01*
X138580898Y-59116075D01*
X138580942Y-59065636D01*
X139073289Y-58573289D01*
X139172398Y-58424963D01*
X139207200Y-58250000D01*
X139207200Y-56750000D01*
X139172398Y-56575037D01*
X139073290Y-56426711D01*
X138484107Y-55837528D01*
X138578985Y-55742815D01*
X138667623Y-55529350D01*
X138667825Y-55298214D01*
X138579560Y-55084595D01*
X138416265Y-54921015D01*
X138202800Y-54832377D01*
X137971664Y-54832175D01*
X137758045Y-54920440D01*
X137662448Y-55015870D01*
X136823289Y-54176711D01*
X136674963Y-54077602D01*
X136500000Y-54042800D01*
X129877000Y-54042800D01*
X129877000Y-52615061D01*
X140918900Y-52615061D01*
X141007165Y-52828680D01*
X141170460Y-52992260D01*
X141383925Y-53080898D01*
X141615061Y-53081100D01*
X141828680Y-52992835D01*
X141992260Y-52829540D01*
X142080898Y-52616075D01*
X142081100Y-52384939D01*
X141992835Y-52171320D01*
X141829540Y-52007740D01*
X141616075Y-51919102D01*
X141384939Y-51918900D01*
X141171320Y-52007165D01*
X141007740Y-52170460D01*
X140919102Y-52383925D01*
X140918900Y-52615061D01*
X129877000Y-52615061D01*
X129877000Y-51802606D01*
X130552606Y-51127000D01*
X148873000Y-51127000D01*
X148873000Y-61692764D01*
X148340118Y-61159882D01*
X148184071Y-61055614D01*
X148000000Y-61019000D01*
X140840780Y-61019000D01*
X140829540Y-61007740D01*
X140616075Y-60919102D01*
X140384939Y-60918900D01*
X140171320Y-61007165D01*
X140007740Y-61170460D01*
X139919102Y-61383925D01*
X139918900Y-61615061D01*
X140007165Y-61828680D01*
X140170460Y-61992260D01*
X140383925Y-62080898D01*
X140615061Y-62081100D01*
X140828680Y-61992835D01*
X140840536Y-61981000D01*
X147800764Y-61981000D01*
X148269000Y-62449236D01*
X148269000Y-146550764D01*
X146550764Y-148269000D01*
X93949236Y-148269000D01*
X92981000Y-147300764D01*
X92981000Y-146323003D01*
X98468718Y-146323003D01*
X98716499Y-146922680D01*
X99174907Y-147381888D01*
X99774151Y-147630716D01*
X100423003Y-147631282D01*
X101022680Y-147383501D01*
X101481888Y-146925093D01*
X101730716Y-146325849D01*
X101731282Y-145676997D01*
X101483501Y-145077320D01*
X101025093Y-144618112D01*
X100425849Y-144369284D01*
X99776997Y-144368718D01*
X99177320Y-144616499D01*
X98718112Y-145074907D01*
X98469284Y-145674151D01*
X98468718Y-146323003D01*
X92981000Y-146323003D01*
X92981000Y-144160000D01*
X142191017Y-144160000D01*
X142285757Y-144636288D01*
X142555552Y-145040065D01*
X142959329Y-145309860D01*
X143435617Y-145404600D01*
X143484383Y-145404600D01*
X143960671Y-145309860D01*
X144364448Y-145040065D01*
X144634243Y-144636288D01*
X144728983Y-144160000D01*
X144731017Y-144160000D01*
X144825757Y-144636288D01*
X145095552Y-145040065D01*
X145499329Y-145309860D01*
X145975617Y-145404600D01*
X146024383Y-145404600D01*
X146500671Y-145309860D01*
X146904448Y-145040065D01*
X147174243Y-144636288D01*
X147268983Y-144160000D01*
X147174243Y-143683712D01*
X146904448Y-143279935D01*
X146500671Y-143010140D01*
X146024383Y-142915400D01*
X145975617Y-142915400D01*
X145499329Y-143010140D01*
X145095552Y-143279935D01*
X144825757Y-143683712D01*
X144731017Y-144160000D01*
X144728983Y-144160000D01*
X144634243Y-143683712D01*
X144364448Y-143279935D01*
X143960671Y-143010140D01*
X143484383Y-142915400D01*
X143435617Y-142915400D01*
X142959329Y-143010140D01*
X142555552Y-143279935D01*
X142285757Y-143683712D01*
X142191017Y-144160000D01*
X92981000Y-144160000D01*
X92981000Y-124799236D01*
X97868009Y-119912228D01*
X97855400Y-119975617D01*
X97855400Y-120024383D01*
X97950140Y-120500671D01*
X98219935Y-120904448D01*
X98362939Y-121000000D01*
X98219935Y-121095552D01*
X97950140Y-121499329D01*
X97855400Y-121975617D01*
X97855400Y-122024383D01*
X97950140Y-122500671D01*
X98219935Y-122904448D01*
X98362939Y-123000000D01*
X98219935Y-123095552D01*
X97950140Y-123499329D01*
X97855400Y-123975617D01*
X97855400Y-124024383D01*
X97950140Y-124500671D01*
X98219935Y-124904448D01*
X98362939Y-125000000D01*
X98219935Y-125095552D01*
X97950140Y-125499329D01*
X97855400Y-125975617D01*
X97855400Y-126024383D01*
X97950140Y-126500671D01*
X98219935Y-126904448D01*
X98362939Y-127000000D01*
X98219935Y-127095552D01*
X97950140Y-127499329D01*
X97946227Y-127519000D01*
X97878686Y-127519000D01*
X97694615Y-127555614D01*
X97538567Y-127659882D01*
X93659882Y-131538568D01*
X93555614Y-131694615D01*
X93519000Y-131878686D01*
X93519000Y-140250000D01*
X93533839Y-140324600D01*
X93555614Y-140434071D01*
X93659882Y-140590118D01*
X96159882Y-143090118D01*
X96315929Y-143194386D01*
X96500000Y-143231000D01*
X116972998Y-143231000D01*
X117157069Y-143194386D01*
X117313116Y-143090118D01*
X118783234Y-141620000D01*
X142191017Y-141620000D01*
X142285757Y-142096288D01*
X142555552Y-142500065D01*
X142959329Y-142769860D01*
X143435617Y-142864600D01*
X143484383Y-142864600D01*
X143960671Y-142769860D01*
X144364448Y-142500065D01*
X144634243Y-142096288D01*
X144728983Y-141620000D01*
X144731017Y-141620000D01*
X144825757Y-142096288D01*
X145095552Y-142500065D01*
X145499329Y-142769860D01*
X145975617Y-142864600D01*
X146024383Y-142864600D01*
X146500671Y-142769860D01*
X146904448Y-142500065D01*
X147174243Y-142096288D01*
X147268983Y-141620000D01*
X147174243Y-141143712D01*
X146904448Y-140739935D01*
X146500671Y-140470140D01*
X146024383Y-140375400D01*
X145975617Y-140375400D01*
X145499329Y-140470140D01*
X145095552Y-140739935D01*
X144825757Y-141143712D01*
X144731017Y-141620000D01*
X144728983Y-141620000D01*
X144634243Y-141143712D01*
X144364448Y-140739935D01*
X143960671Y-140470140D01*
X143484383Y-140375400D01*
X143435617Y-140375400D01*
X142959329Y-140470140D01*
X142555552Y-140739935D01*
X142285757Y-141143712D01*
X142191017Y-141620000D01*
X118783234Y-141620000D01*
X121323234Y-139080000D01*
X142191017Y-139080000D01*
X142285757Y-139556288D01*
X142555552Y-139960065D01*
X142959329Y-140229860D01*
X143435617Y-140324600D01*
X143484383Y-140324600D01*
X143960671Y-140229860D01*
X144364448Y-139960065D01*
X144634243Y-139556288D01*
X144728983Y-139080000D01*
X144731017Y-139080000D01*
X144825757Y-139556288D01*
X145095552Y-139960065D01*
X145499329Y-140229860D01*
X145975617Y-140324600D01*
X146024383Y-140324600D01*
X146500671Y-140229860D01*
X146904448Y-139960065D01*
X147174243Y-139556288D01*
X147268983Y-139080000D01*
X147174243Y-138603712D01*
X146904448Y-138199935D01*
X146500671Y-137930140D01*
X146024383Y-137835400D01*
X145975617Y-137835400D01*
X145499329Y-137930140D01*
X145095552Y-138199935D01*
X144825757Y-138603712D01*
X144731017Y-139080000D01*
X144728983Y-139080000D01*
X144634243Y-138603712D01*
X144364448Y-138199935D01*
X143960671Y-137930140D01*
X143484383Y-137835400D01*
X143435617Y-137835400D01*
X142959329Y-137930140D01*
X142555552Y-138199935D01*
X142285757Y-138603712D01*
X142191017Y-139080000D01*
X121323234Y-139080000D01*
X122540830Y-137862404D01*
X122670460Y-137992260D01*
X122883925Y-138080898D01*
X123115061Y-138081100D01*
X123328680Y-137992835D01*
X123492260Y-137829540D01*
X123580898Y-137616075D01*
X123580898Y-137615061D01*
X125418900Y-137615061D01*
X125507165Y-137828680D01*
X125670460Y-137992260D01*
X125883925Y-138080898D01*
X126115061Y-138081100D01*
X126328680Y-137992835D01*
X126492260Y-137829540D01*
X126580898Y-137616075D01*
X126580898Y-137615061D01*
X128418900Y-137615061D01*
X128507165Y-137828680D01*
X128670460Y-137992260D01*
X128883925Y-138080898D01*
X129115061Y-138081100D01*
X129328680Y-137992835D01*
X129492260Y-137829540D01*
X129580898Y-137616075D01*
X129581100Y-137384939D01*
X129492835Y-137171320D01*
X129329540Y-137007740D01*
X129116075Y-136919102D01*
X128884939Y-136918900D01*
X128671320Y-137007165D01*
X128507740Y-137170460D01*
X128419102Y-137383925D01*
X128418900Y-137615061D01*
X126580898Y-137615061D01*
X126581100Y-137384939D01*
X126492835Y-137171320D01*
X126329540Y-137007740D01*
X126116075Y-136919102D01*
X125884939Y-136918900D01*
X125671320Y-137007165D01*
X125507740Y-137170460D01*
X125419102Y-137383925D01*
X125418900Y-137615061D01*
X123580898Y-137615061D01*
X123581100Y-137384939D01*
X123492835Y-137171320D01*
X123362488Y-137040746D01*
X125422234Y-134981000D01*
X126919017Y-134981000D01*
X126918900Y-135115061D01*
X127007165Y-135328680D01*
X127170460Y-135492260D01*
X127383925Y-135580898D01*
X127615061Y-135581100D01*
X127828680Y-135492835D01*
X127992260Y-135329540D01*
X128080898Y-135116075D01*
X128081016Y-134981000D01*
X128909220Y-134981000D01*
X128920460Y-134992260D01*
X129133925Y-135080898D01*
X129365061Y-135081100D01*
X129578680Y-134992835D01*
X129742260Y-134829540D01*
X129830898Y-134616075D01*
X129831100Y-134384939D01*
X129742835Y-134171320D01*
X129579540Y-134007740D01*
X129366075Y-133919102D01*
X129134939Y-133918900D01*
X128921320Y-134007165D01*
X128909464Y-134019000D01*
X125222998Y-134019000D01*
X125038927Y-134055614D01*
X124882880Y-134159882D01*
X116773762Y-142269000D01*
X112330983Y-142269000D01*
X112331100Y-142134939D01*
X112242835Y-141921320D01*
X112079540Y-141757740D01*
X112030525Y-141737387D01*
X112080898Y-141616075D01*
X112081100Y-141384939D01*
X111992835Y-141171320D01*
X111829540Y-141007740D01*
X111616075Y-140919102D01*
X111384939Y-140918900D01*
X111171320Y-141007165D01*
X111007740Y-141170460D01*
X110919102Y-141383925D01*
X110918900Y-141615061D01*
X111007165Y-141828680D01*
X111170460Y-141992260D01*
X111219475Y-142012613D01*
X111169102Y-142133925D01*
X111168984Y-142269000D01*
X109661236Y-142269000D01*
X114315175Y-137615061D01*
X114918900Y-137615061D01*
X115007165Y-137828680D01*
X115170460Y-137992260D01*
X115383925Y-138080898D01*
X115615061Y-138081100D01*
X115828680Y-137992835D01*
X115992260Y-137829540D01*
X116080898Y-137616075D01*
X116080898Y-137615061D01*
X117918900Y-137615061D01*
X118007165Y-137828680D01*
X118170460Y-137992260D01*
X118383925Y-138080898D01*
X118615061Y-138081100D01*
X118828680Y-137992835D01*
X118992260Y-137829540D01*
X119080898Y-137616075D01*
X119081100Y-137384939D01*
X118992835Y-137171320D01*
X118829540Y-137007740D01*
X118616075Y-136919102D01*
X118384939Y-136918900D01*
X118171320Y-137007165D01*
X118007740Y-137170460D01*
X117919102Y-137383925D01*
X117918900Y-137615061D01*
X116080898Y-137615061D01*
X116081100Y-137384939D01*
X115992835Y-137171320D01*
X115829540Y-137007740D01*
X115616075Y-136919102D01*
X115384939Y-136918900D01*
X115171320Y-137007165D01*
X115007740Y-137170460D01*
X114919102Y-137383925D01*
X114918900Y-137615061D01*
X114315175Y-137615061D01*
X126918991Y-125011246D01*
X126918900Y-125115061D01*
X127007165Y-125328680D01*
X127170460Y-125492260D01*
X127383925Y-125580898D01*
X127400677Y-125580913D01*
X130019000Y-128199237D01*
X130019000Y-136909220D01*
X130007740Y-136920460D01*
X129919102Y-137133925D01*
X129918900Y-137365061D01*
X130007165Y-137578680D01*
X130170460Y-137742260D01*
X130383925Y-137830898D01*
X130615061Y-137831100D01*
X130828680Y-137742835D01*
X130992260Y-137579540D01*
X131080898Y-137366075D01*
X131081100Y-137134939D01*
X130992835Y-136921320D01*
X130981000Y-136909464D01*
X130981000Y-136540000D01*
X142191017Y-136540000D01*
X142285757Y-137016288D01*
X142555552Y-137420065D01*
X142959329Y-137689860D01*
X143435617Y-137784600D01*
X143484383Y-137784600D01*
X143960671Y-137689860D01*
X144364448Y-137420065D01*
X144634243Y-137016288D01*
X144728983Y-136540000D01*
X144731017Y-136540000D01*
X144825757Y-137016288D01*
X145095552Y-137420065D01*
X145499329Y-137689860D01*
X145975617Y-137784600D01*
X146024383Y-137784600D01*
X146500671Y-137689860D01*
X146904448Y-137420065D01*
X147174243Y-137016288D01*
X147268983Y-136540000D01*
X147174243Y-136063712D01*
X146904448Y-135659935D01*
X146500671Y-135390140D01*
X146024383Y-135295400D01*
X145975617Y-135295400D01*
X145499329Y-135390140D01*
X145095552Y-135659935D01*
X144825757Y-136063712D01*
X144731017Y-136540000D01*
X144728983Y-136540000D01*
X144634243Y-136063712D01*
X144364448Y-135659935D01*
X143960671Y-135390140D01*
X143484383Y-135295400D01*
X143435617Y-135295400D01*
X142959329Y-135390140D01*
X142555552Y-135659935D01*
X142285757Y-136063712D01*
X142191017Y-136540000D01*
X130981000Y-136540000D01*
X130981000Y-134000000D01*
X144731017Y-134000000D01*
X144825757Y-134476288D01*
X145095552Y-134880065D01*
X145499329Y-135149860D01*
X145975617Y-135244600D01*
X146024383Y-135244600D01*
X146500671Y-135149860D01*
X146904448Y-134880065D01*
X147174243Y-134476288D01*
X147268983Y-134000000D01*
X147174243Y-133523712D01*
X146904448Y-133119935D01*
X146500671Y-132850140D01*
X146024383Y-132755400D01*
X145975617Y-132755400D01*
X145499329Y-132850140D01*
X145095552Y-133119935D01*
X144825757Y-133523712D01*
X144731017Y-134000000D01*
X130981000Y-134000000D01*
X130981000Y-132865061D01*
X132418900Y-132865061D01*
X132507165Y-133078680D01*
X132670460Y-133242260D01*
X132883925Y-133330898D01*
X133115061Y-133331100D01*
X133328680Y-133242835D01*
X133492260Y-133079540D01*
X133580898Y-132866075D01*
X133581100Y-132634939D01*
X133492835Y-132421320D01*
X133329540Y-132257740D01*
X133116075Y-132169102D01*
X132884939Y-132168900D01*
X132671320Y-132257165D01*
X132507740Y-132420460D01*
X132419102Y-132633925D01*
X132418900Y-132865061D01*
X130981000Y-132865061D01*
X130981000Y-128000000D01*
X130944386Y-127815929D01*
X130902622Y-127753426D01*
X130840119Y-127659882D01*
X128795298Y-125615061D01*
X129668900Y-125615061D01*
X129757165Y-125828680D01*
X129920460Y-125992260D01*
X130133925Y-126080898D01*
X130365061Y-126081100D01*
X130578680Y-125992835D01*
X130742260Y-125829540D01*
X130830898Y-125616075D01*
X130831100Y-125384939D01*
X130742835Y-125171320D01*
X130579540Y-125007740D01*
X130366075Y-124919102D01*
X130134939Y-124918900D01*
X129921320Y-125007165D01*
X129757740Y-125170460D01*
X129669102Y-125383925D01*
X129668900Y-125615061D01*
X128795298Y-125615061D01*
X128081086Y-124900850D01*
X128081100Y-124884939D01*
X127992835Y-124671320D01*
X127829540Y-124507740D01*
X127765143Y-124481000D01*
X128159220Y-124481000D01*
X128170460Y-124492260D01*
X128383925Y-124580898D01*
X128615061Y-124581100D01*
X128828680Y-124492835D01*
X128992260Y-124329540D01*
X129080898Y-124116075D01*
X129081100Y-123884939D01*
X128992835Y-123671320D01*
X128829540Y-123507740D01*
X128616075Y-123419102D01*
X128384939Y-123418900D01*
X128171320Y-123507165D01*
X128159464Y-123519000D01*
X127250000Y-123519000D01*
X127065930Y-123555613D01*
X126909882Y-123659881D01*
X113081009Y-137488754D01*
X113081100Y-137384939D01*
X112992835Y-137171320D01*
X112829540Y-137007740D01*
X112616075Y-136919102D01*
X112384939Y-136918900D01*
X112171320Y-137007165D01*
X112007740Y-137170460D01*
X111919102Y-137383925D01*
X111918900Y-137615061D01*
X112007165Y-137828680D01*
X112170460Y-137992260D01*
X112383925Y-138080898D01*
X112488774Y-138080990D01*
X108800764Y-141769000D01*
X98199236Y-141769000D01*
X95981000Y-139550764D01*
X95981000Y-132577922D01*
X97993443Y-130565479D01*
X98219935Y-130904448D01*
X98362939Y-131000000D01*
X98219935Y-131095552D01*
X97950140Y-131499329D01*
X97855400Y-131975617D01*
X97855400Y-132024383D01*
X97950140Y-132500671D01*
X98219935Y-132904448D01*
X98362939Y-133000000D01*
X98219935Y-133095552D01*
X97950140Y-133499329D01*
X97855400Y-133975617D01*
X97855400Y-134024383D01*
X97950140Y-134500671D01*
X98219935Y-134904448D01*
X98362939Y-135000000D01*
X98219935Y-135095552D01*
X97950140Y-135499329D01*
X97855400Y-135975617D01*
X97855400Y-136024383D01*
X97950140Y-136500671D01*
X98219935Y-136904448D01*
X98362939Y-137000000D01*
X98219935Y-137095552D01*
X97950140Y-137499329D01*
X97855400Y-137975617D01*
X97855400Y-138024383D01*
X97950140Y-138500671D01*
X98219935Y-138904448D01*
X98623712Y-139174243D01*
X99100000Y-139268983D01*
X99576288Y-139174243D01*
X99980065Y-138904448D01*
X100100000Y-138724952D01*
X100219935Y-138904448D01*
X100623712Y-139174243D01*
X101100000Y-139268983D01*
X101576288Y-139174243D01*
X101980065Y-138904448D01*
X102249860Y-138500671D01*
X102344600Y-138024383D01*
X102344600Y-137975617D01*
X102249860Y-137499329D01*
X101980065Y-137095552D01*
X101837061Y-137000000D01*
X101980065Y-136904448D01*
X102249860Y-136500671D01*
X102344600Y-136024383D01*
X102344600Y-135975617D01*
X102249860Y-135499329D01*
X101980065Y-135095552D01*
X101837061Y-135000000D01*
X101980065Y-134904448D01*
X102249860Y-134500671D01*
X102344600Y-134024383D01*
X102344600Y-133975617D01*
X102249860Y-133499329D01*
X101980065Y-133095552D01*
X101837061Y-133000000D01*
X101980065Y-132904448D01*
X102249860Y-132500671D01*
X102344600Y-132024383D01*
X102344600Y-131975617D01*
X102249860Y-131499329D01*
X101980065Y-131095552D01*
X101837061Y-131000000D01*
X101980065Y-130904448D01*
X102249860Y-130500671D01*
X102344600Y-130024383D01*
X102344600Y-129975617D01*
X102249860Y-129499329D01*
X101980065Y-129095552D01*
X101837061Y-129000000D01*
X101980065Y-128904448D01*
X102249860Y-128500671D01*
X102344600Y-128024383D01*
X102344600Y-127975617D01*
X102249860Y-127499329D01*
X101980065Y-127095552D01*
X101837061Y-127000000D01*
X101980065Y-126904448D01*
X102249860Y-126500671D01*
X102344600Y-126024383D01*
X102344600Y-125975617D01*
X102249860Y-125499329D01*
X101980065Y-125095552D01*
X101837061Y-125000000D01*
X101980065Y-124904448D01*
X102249860Y-124500671D01*
X102344600Y-124024383D01*
X102344600Y-123975617D01*
X102249860Y-123499329D01*
X101980065Y-123095552D01*
X101837061Y-123000000D01*
X101980065Y-122904448D01*
X102249860Y-122500671D01*
X102344600Y-122024383D01*
X102344600Y-121975617D01*
X102249860Y-121499329D01*
X101980065Y-121095552D01*
X101837061Y-121000000D01*
X101980065Y-120904448D01*
X102249860Y-120500671D01*
X102344600Y-120024383D01*
X102344600Y-119975617D01*
X102249860Y-119499329D01*
X102160146Y-119365061D01*
X107668900Y-119365061D01*
X107757165Y-119578680D01*
X107803342Y-119624938D01*
X107757740Y-119670460D01*
X107669102Y-119883925D01*
X107668900Y-120115061D01*
X107757165Y-120328680D01*
X107920460Y-120492260D01*
X108133925Y-120580898D01*
X108365061Y-120581100D01*
X108578680Y-120492835D01*
X108742260Y-120329540D01*
X108830898Y-120116075D01*
X108831100Y-119884939D01*
X108742835Y-119671320D01*
X108696658Y-119625062D01*
X108742260Y-119579540D01*
X108830898Y-119366075D01*
X108831100Y-119134939D01*
X108742835Y-118921320D01*
X108579540Y-118757740D01*
X108366075Y-118669102D01*
X108134939Y-118668900D01*
X107921320Y-118757165D01*
X107757740Y-118920460D01*
X107669102Y-119133925D01*
X107668900Y-119365061D01*
X102160146Y-119365061D01*
X101980065Y-119095552D01*
X101837061Y-119000000D01*
X101980065Y-118904448D01*
X102249860Y-118500671D01*
X102344600Y-118024383D01*
X102344600Y-117975617D01*
X102249860Y-117499329D01*
X101980065Y-117095552D01*
X101837061Y-117000000D01*
X101980065Y-116904448D01*
X102249860Y-116500671D01*
X102344600Y-116024383D01*
X102344600Y-115975617D01*
X102249860Y-115499329D01*
X101993101Y-115115061D01*
X106918900Y-115115061D01*
X107007165Y-115328680D01*
X107170460Y-115492260D01*
X107383925Y-115580898D01*
X107615061Y-115581100D01*
X107828680Y-115492835D01*
X107992260Y-115329540D01*
X108080898Y-115116075D01*
X108080898Y-115115061D01*
X108418900Y-115115061D01*
X108507165Y-115328680D01*
X108670460Y-115492260D01*
X108883925Y-115580898D01*
X109115061Y-115581100D01*
X109328680Y-115492835D01*
X109492260Y-115329540D01*
X109580898Y-115116075D01*
X109580898Y-115115061D01*
X109918900Y-115115061D01*
X110007165Y-115328680D01*
X110170460Y-115492260D01*
X110383925Y-115580898D01*
X110615061Y-115581100D01*
X110828680Y-115492835D01*
X110992260Y-115329540D01*
X111080898Y-115116075D01*
X111080898Y-115115061D01*
X111918900Y-115115061D01*
X112007165Y-115328680D01*
X112170460Y-115492260D01*
X112383925Y-115580898D01*
X112615061Y-115581100D01*
X112828680Y-115492835D01*
X112992260Y-115329540D01*
X113080898Y-115116075D01*
X113081100Y-114884939D01*
X112992835Y-114671320D01*
X112829540Y-114507740D01*
X112616075Y-114419102D01*
X112384939Y-114418900D01*
X112171320Y-114507165D01*
X112007740Y-114670460D01*
X111919102Y-114883925D01*
X111918900Y-115115061D01*
X111080898Y-115115061D01*
X111081100Y-114884939D01*
X110992835Y-114671320D01*
X110829540Y-114507740D01*
X110616075Y-114419102D01*
X110384939Y-114418900D01*
X110171320Y-114507165D01*
X110007740Y-114670460D01*
X109919102Y-114883925D01*
X109918900Y-115115061D01*
X109580898Y-115115061D01*
X109581100Y-114884939D01*
X109492835Y-114671320D01*
X109329540Y-114507740D01*
X109116075Y-114419102D01*
X108884939Y-114418900D01*
X108671320Y-114507165D01*
X108507740Y-114670460D01*
X108419102Y-114883925D01*
X108418900Y-115115061D01*
X108080898Y-115115061D01*
X108081100Y-114884939D01*
X107992835Y-114671320D01*
X107829540Y-114507740D01*
X107616075Y-114419102D01*
X107384939Y-114418900D01*
X107171320Y-114507165D01*
X107007740Y-114670460D01*
X106919102Y-114883925D01*
X106918900Y-115115061D01*
X101993101Y-115115061D01*
X101980065Y-115095552D01*
X101837061Y-115000000D01*
X101980065Y-114904448D01*
X102249860Y-114500671D01*
X102344600Y-114024383D01*
X102344600Y-113975617D01*
X102249860Y-113499329D01*
X101980065Y-113095552D01*
X101837061Y-113000000D01*
X101980065Y-112904448D01*
X102249860Y-112500671D01*
X102344600Y-112024383D01*
X102344600Y-111975617D01*
X102249860Y-111499329D01*
X101980065Y-111095552D01*
X101837061Y-111000000D01*
X101980065Y-110904448D01*
X102249860Y-110500671D01*
X102344600Y-110024383D01*
X102344600Y-109975617D01*
X102249860Y-109499329D01*
X101980065Y-109095552D01*
X101837061Y-109000000D01*
X101980065Y-108904448D01*
X102249860Y-108500671D01*
X102344600Y-108024383D01*
X102344600Y-107975617D01*
X102249860Y-107499329D01*
X101980065Y-107095552D01*
X101837061Y-107000000D01*
X101980065Y-106904448D01*
X102249860Y-106500671D01*
X102344600Y-106024383D01*
X102344600Y-105975617D01*
X102249860Y-105499329D01*
X101980065Y-105095552D01*
X101837061Y-105000000D01*
X101980065Y-104904448D01*
X102249860Y-104500671D01*
X102344600Y-104024383D01*
X102344600Y-103975617D01*
X102249860Y-103499329D01*
X101980065Y-103095552D01*
X101576288Y-102825757D01*
X101100000Y-102731017D01*
X100623712Y-102825757D01*
X100219935Y-103095552D01*
X100100000Y-103275048D01*
X99980065Y-103095552D01*
X99576288Y-102825757D01*
X99100000Y-102731017D01*
X98623712Y-102825757D01*
X98219935Y-103095552D01*
X97950140Y-103499329D01*
X97855400Y-103975617D01*
X97855400Y-104024383D01*
X97950140Y-104500671D01*
X98219935Y-104904448D01*
X98362939Y-105000000D01*
X98219935Y-105095552D01*
X97950140Y-105499329D01*
X97855400Y-105975617D01*
X97855400Y-106024383D01*
X97950140Y-106500671D01*
X98219935Y-106904448D01*
X98362939Y-107000000D01*
X98219935Y-107095552D01*
X97950140Y-107499329D01*
X97855400Y-107975617D01*
X97855400Y-108024383D01*
X97950140Y-108500671D01*
X98219935Y-108904448D01*
X98362939Y-109000000D01*
X98219935Y-109095552D01*
X97950140Y-109499329D01*
X97855400Y-109975617D01*
X97855400Y-110024383D01*
X97950140Y-110500671D01*
X98219935Y-110904448D01*
X98362939Y-111000000D01*
X98219935Y-111095552D01*
X97950140Y-111499329D01*
X97855400Y-111975617D01*
X97855400Y-112024383D01*
X97950140Y-112500671D01*
X98219935Y-112904448D01*
X98362939Y-113000000D01*
X98219935Y-113095552D01*
X97950140Y-113499329D01*
X97855400Y-113975617D01*
X97855400Y-114024383D01*
X97950140Y-114500671D01*
X98219935Y-114904448D01*
X98362939Y-115000000D01*
X98219935Y-115095552D01*
X97950140Y-115499329D01*
X97855400Y-115975617D01*
X97855400Y-116024383D01*
X97950140Y-116500671D01*
X98219935Y-116904448D01*
X98362939Y-117000000D01*
X98219935Y-117095552D01*
X97950140Y-117499329D01*
X97855400Y-117975617D01*
X97855400Y-118024383D01*
X97944989Y-118474774D01*
X92159882Y-124259882D01*
X92055614Y-124415929D01*
X92019000Y-124600000D01*
X92019000Y-147500000D01*
X92045001Y-147630716D01*
X92055614Y-147684071D01*
X92159882Y-147840118D01*
X93192764Y-148873000D01*
X51127000Y-148873000D01*
X51127000Y-146323003D01*
X66968718Y-146323003D01*
X67216499Y-146922680D01*
X67674907Y-147381888D01*
X68274151Y-147630716D01*
X68923003Y-147631282D01*
X69522680Y-147383501D01*
X69981888Y-146925093D01*
X70230716Y-146325849D01*
X70231282Y-145676997D01*
X69983501Y-145077320D01*
X69525093Y-144618112D01*
X68925849Y-144369284D01*
X68276997Y-144368718D01*
X67677320Y-144616499D01*
X67218112Y-145074907D01*
X66969284Y-145674151D01*
X66968718Y-146323003D01*
X51127000Y-146323003D01*
X51127000Y-120000000D01*
X59373000Y-120000000D01*
X59373000Y-121000000D01*
X59383006Y-121049410D01*
X59410197Y-121089803D01*
X59910197Y-121589803D01*
X59952211Y-121617666D01*
X60001754Y-121626988D01*
X60051022Y-121616300D01*
X60089803Y-121589803D01*
X60589803Y-121089803D01*
X60617666Y-121047789D01*
X60627000Y-121000000D01*
X60627000Y-120000000D01*
X60616994Y-119950590D01*
X60589803Y-119910197D01*
X60538257Y-119858651D01*
X60492835Y-119748720D01*
X60329540Y-119585140D01*
X60218737Y-119539131D01*
X60089803Y-119410197D01*
X60047789Y-119382334D01*
X59998246Y-119373012D01*
X59948978Y-119383700D01*
X59910197Y-119410197D01*
X59781251Y-119539143D01*
X59671320Y-119584565D01*
X59507740Y-119747860D01*
X59461731Y-119858663D01*
X59410197Y-119910197D01*
X59382334Y-119952211D01*
X59373000Y-120000000D01*
X51127000Y-120000000D01*
X51127000Y-105865061D01*
X89168900Y-105865061D01*
X89257165Y-106078680D01*
X89420460Y-106242260D01*
X89633925Y-106330898D01*
X89865061Y-106331100D01*
X90078680Y-106242835D01*
X90242260Y-106079540D01*
X90249909Y-106061119D01*
X90257165Y-106078680D01*
X90420460Y-106242260D01*
X90633925Y-106330898D01*
X90865061Y-106331100D01*
X91078680Y-106242835D01*
X91242260Y-106079540D01*
X91249909Y-106061119D01*
X91257165Y-106078680D01*
X91420460Y-106242260D01*
X91633925Y-106330898D01*
X91865061Y-106331100D01*
X92078680Y-106242835D01*
X92242260Y-106079540D01*
X92330898Y-105866075D01*
X92331100Y-105634939D01*
X92242835Y-105421320D01*
X92231000Y-105409464D01*
X92231000Y-100199236D01*
X95637718Y-96792519D01*
X95637720Y-96792516D01*
X95949237Y-96481000D01*
X105550764Y-96481000D01*
X105588764Y-96519000D01*
X96500000Y-96519000D01*
X96315929Y-96555614D01*
X96264289Y-96590119D01*
X96159882Y-96659881D01*
X95659885Y-97159879D01*
X95659882Y-97159881D01*
X92659882Y-100159882D01*
X92555614Y-100315929D01*
X92519000Y-100500000D01*
X92519000Y-105409220D01*
X92507740Y-105420460D01*
X92419102Y-105633925D01*
X92418900Y-105865061D01*
X92507165Y-106078680D01*
X92670460Y-106242260D01*
X92883925Y-106330898D01*
X93052607Y-106331045D01*
X93019000Y-106500000D01*
X93019000Y-110159220D01*
X93007740Y-110170460D01*
X92919102Y-110383925D01*
X92918900Y-110615061D01*
X93007165Y-110828680D01*
X93170460Y-110992260D01*
X93383925Y-111080898D01*
X93615061Y-111081100D01*
X93828680Y-110992835D01*
X93992260Y-110829540D01*
X94080898Y-110616075D01*
X94081100Y-110384939D01*
X93992835Y-110171320D01*
X93981000Y-110159464D01*
X93981000Y-108265355D01*
X94007165Y-108328680D01*
X94170460Y-108492260D01*
X94383925Y-108580898D01*
X94615061Y-108581100D01*
X94828680Y-108492835D01*
X94992260Y-108329540D01*
X94999909Y-108311119D01*
X95007165Y-108328680D01*
X95170460Y-108492260D01*
X95383925Y-108580898D01*
X95615061Y-108581100D01*
X95828680Y-108492835D01*
X95992260Y-108329540D01*
X95999909Y-108311119D01*
X96007165Y-108328680D01*
X96170460Y-108492260D01*
X96383925Y-108580898D01*
X96615061Y-108581100D01*
X96828680Y-108492835D01*
X96992260Y-108329540D01*
X97080898Y-108116075D01*
X97081100Y-107884939D01*
X96992835Y-107671320D01*
X96981000Y-107659464D01*
X96981000Y-102199236D01*
X98449237Y-100731000D01*
X101550764Y-100731000D01*
X110159882Y-109340119D01*
X110253426Y-109402622D01*
X110315929Y-109444386D01*
X110500000Y-109481000D01*
X112300764Y-109481000D01*
X113624083Y-110804319D01*
X113507740Y-110920460D01*
X113419102Y-111133925D01*
X113418900Y-111365061D01*
X113507165Y-111578680D01*
X113670460Y-111742260D01*
X113883925Y-111830898D01*
X114115061Y-111831100D01*
X114328680Y-111742835D01*
X114445741Y-111625978D01*
X118159881Y-115340118D01*
X118280277Y-115420564D01*
X118315929Y-115444386D01*
X118500000Y-115481000D01*
X121409220Y-115481000D01*
X121420460Y-115492260D01*
X121633925Y-115580898D01*
X121865061Y-115581100D01*
X122019000Y-115517494D01*
X122019000Y-116000000D01*
X122053889Y-116175400D01*
X122055614Y-116184071D01*
X122159882Y-116340118D01*
X122909882Y-117090118D01*
X123065929Y-117194386D01*
X123250000Y-117231000D01*
X127409220Y-117231000D01*
X127420460Y-117242260D01*
X127633925Y-117330898D01*
X127865061Y-117331100D01*
X128078680Y-117242835D01*
X128242260Y-117079540D01*
X128330898Y-116866075D01*
X128331100Y-116634939D01*
X128267494Y-116481000D01*
X129500000Y-116481000D01*
X129610804Y-116458960D01*
X129409882Y-116659882D01*
X129305614Y-116815929D01*
X129269000Y-117000000D01*
X129269000Y-121409220D01*
X129257740Y-121420460D01*
X129188060Y-121588270D01*
X128759672Y-121159882D01*
X128603625Y-121055614D01*
X128419554Y-121019000D01*
X127590780Y-121019000D01*
X127579540Y-121007740D01*
X127366075Y-120919102D01*
X127134939Y-120918900D01*
X126921320Y-121007165D01*
X126757740Y-121170460D01*
X126669102Y-121383925D01*
X126668900Y-121615061D01*
X126757165Y-121828680D01*
X126920460Y-121992260D01*
X127133925Y-122080898D01*
X127365061Y-122081100D01*
X127578680Y-121992835D01*
X127590536Y-121981000D01*
X127669017Y-121981000D01*
X127668900Y-122115061D01*
X127757165Y-122328680D01*
X127920460Y-122492260D01*
X128133925Y-122580898D01*
X128365061Y-122581100D01*
X128578680Y-122492835D01*
X128655483Y-122416165D01*
X128781837Y-122542519D01*
X128937884Y-122646787D01*
X129121955Y-122683401D01*
X130547599Y-122683401D01*
X130731670Y-122646787D01*
X130779150Y-122615061D01*
X133668900Y-122615061D01*
X133757165Y-122828680D01*
X133920460Y-122992260D01*
X134133925Y-123080898D01*
X134365061Y-123081100D01*
X134578680Y-122992835D01*
X134742260Y-122829540D01*
X134830898Y-122616075D01*
X134830999Y-122500000D01*
X142191017Y-122500000D01*
X142285757Y-122976288D01*
X142555552Y-123380065D01*
X142959329Y-123649860D01*
X143435617Y-123744600D01*
X143484383Y-123744600D01*
X143960671Y-123649860D01*
X144364448Y-123380065D01*
X144634243Y-122976288D01*
X144728983Y-122500000D01*
X144731017Y-122500000D01*
X144825757Y-122976288D01*
X145095552Y-123380065D01*
X145499329Y-123649860D01*
X145975617Y-123744600D01*
X146024383Y-123744600D01*
X146500671Y-123649860D01*
X146904448Y-123380065D01*
X147174243Y-122976288D01*
X147268983Y-122500000D01*
X147174243Y-122023712D01*
X146904448Y-121619935D01*
X146500671Y-121350140D01*
X146024383Y-121255400D01*
X145975617Y-121255400D01*
X145499329Y-121350140D01*
X145095552Y-121619935D01*
X144825757Y-122023712D01*
X144731017Y-122500000D01*
X144728983Y-122500000D01*
X144634243Y-122023712D01*
X144364448Y-121619935D01*
X143960671Y-121350140D01*
X143484383Y-121255400D01*
X143435617Y-121255400D01*
X142959329Y-121350140D01*
X142555552Y-121619935D01*
X142285757Y-122023712D01*
X142191017Y-122500000D01*
X134830999Y-122500000D01*
X134831100Y-122384939D01*
X134742835Y-122171320D01*
X134579540Y-122007740D01*
X134366075Y-121919102D01*
X134134939Y-121918900D01*
X133921320Y-122007165D01*
X133757740Y-122170460D01*
X133669102Y-122383925D01*
X133668900Y-122615061D01*
X130779150Y-122615061D01*
X130887717Y-122542519D01*
X131090118Y-122340119D01*
X131194386Y-122184071D01*
X131214908Y-122080898D01*
X131231000Y-122000000D01*
X131231000Y-121115061D01*
X131418900Y-121115061D01*
X131507165Y-121328680D01*
X131670460Y-121492260D01*
X131883925Y-121580898D01*
X132115061Y-121581100D01*
X132328680Y-121492835D01*
X132492260Y-121329540D01*
X132580898Y-121116075D01*
X132581100Y-120884939D01*
X132572887Y-120865061D01*
X140168900Y-120865061D01*
X140257165Y-121078680D01*
X140420460Y-121242260D01*
X140633925Y-121330898D01*
X140865061Y-121331100D01*
X141078680Y-121242835D01*
X141242260Y-121079540D01*
X141330898Y-120866075D01*
X141331100Y-120634939D01*
X141242835Y-120421320D01*
X141079540Y-120257740D01*
X140866075Y-120169102D01*
X140634939Y-120168900D01*
X140421320Y-120257165D01*
X140257740Y-120420460D01*
X140169102Y-120633925D01*
X140168900Y-120865061D01*
X132572887Y-120865061D01*
X132492835Y-120671320D01*
X132329540Y-120507740D01*
X132116075Y-120419102D01*
X131884939Y-120418900D01*
X131671320Y-120507165D01*
X131507740Y-120670460D01*
X131419102Y-120883925D01*
X131418900Y-121115061D01*
X131231000Y-121115061D01*
X131231000Y-119960000D01*
X142191017Y-119960000D01*
X142285757Y-120436288D01*
X142555552Y-120840065D01*
X142959329Y-121109860D01*
X143435617Y-121204600D01*
X143484383Y-121204600D01*
X143960671Y-121109860D01*
X144364448Y-120840065D01*
X144634243Y-120436288D01*
X144728983Y-119960000D01*
X144731017Y-119960000D01*
X144825757Y-120436288D01*
X145095552Y-120840065D01*
X145499329Y-121109860D01*
X145975617Y-121204600D01*
X146024383Y-121204600D01*
X146500671Y-121109860D01*
X146904448Y-120840065D01*
X147174243Y-120436288D01*
X147268983Y-119960000D01*
X147174243Y-119483712D01*
X146904448Y-119079935D01*
X146500671Y-118810140D01*
X146024383Y-118715400D01*
X145975617Y-118715400D01*
X145499329Y-118810140D01*
X145095552Y-119079935D01*
X144825757Y-119483712D01*
X144731017Y-119960000D01*
X144728983Y-119960000D01*
X144634243Y-119483712D01*
X144364448Y-119079935D01*
X143960671Y-118810140D01*
X143484383Y-118715400D01*
X143435617Y-118715400D01*
X142959329Y-118810140D01*
X142555552Y-119079935D01*
X142285757Y-119483712D01*
X142191017Y-119960000D01*
X131231000Y-119960000D01*
X131231000Y-117420000D01*
X142191017Y-117420000D01*
X142285757Y-117896288D01*
X142555552Y-118300065D01*
X142959329Y-118569860D01*
X143435617Y-118664600D01*
X143484383Y-118664600D01*
X143960671Y-118569860D01*
X144364448Y-118300065D01*
X144634243Y-117896288D01*
X144728983Y-117420000D01*
X144731017Y-117420000D01*
X144825757Y-117896288D01*
X145095552Y-118300065D01*
X145499329Y-118569860D01*
X145975617Y-118664600D01*
X146024383Y-118664600D01*
X146500671Y-118569860D01*
X146904448Y-118300065D01*
X147174243Y-117896288D01*
X147268983Y-117420000D01*
X147174243Y-116943712D01*
X146904448Y-116539935D01*
X146500671Y-116270140D01*
X146024383Y-116175400D01*
X145975617Y-116175400D01*
X145499329Y-116270140D01*
X145095552Y-116539935D01*
X144825757Y-116943712D01*
X144731017Y-117420000D01*
X144728983Y-117420000D01*
X144634243Y-116943712D01*
X144364448Y-116539935D01*
X143960671Y-116270140D01*
X143484383Y-116175400D01*
X143435617Y-116175400D01*
X142959329Y-116270140D01*
X142555552Y-116539935D01*
X142285757Y-116943712D01*
X142191017Y-117420000D01*
X131231000Y-117420000D01*
X131231000Y-117199236D01*
X133550236Y-114880000D01*
X142191017Y-114880000D01*
X142285757Y-115356288D01*
X142555552Y-115760065D01*
X142959329Y-116029860D01*
X143435617Y-116124600D01*
X143484383Y-116124600D01*
X143960671Y-116029860D01*
X144364448Y-115760065D01*
X144634243Y-115356288D01*
X144728983Y-114880000D01*
X144731017Y-114880000D01*
X144825757Y-115356288D01*
X145095552Y-115760065D01*
X145499329Y-116029860D01*
X145975617Y-116124600D01*
X146024383Y-116124600D01*
X146500671Y-116029860D01*
X146904448Y-115760065D01*
X147174243Y-115356288D01*
X147268983Y-114880000D01*
X147174243Y-114403712D01*
X146904448Y-113999935D01*
X146500671Y-113730140D01*
X146024383Y-113635400D01*
X145975617Y-113635400D01*
X145499329Y-113730140D01*
X145095552Y-113999935D01*
X144825757Y-114403712D01*
X144731017Y-114880000D01*
X144728983Y-114880000D01*
X144634243Y-114403712D01*
X144364448Y-113999935D01*
X143960671Y-113730140D01*
X143484383Y-113635400D01*
X143435617Y-113635400D01*
X142959329Y-113730140D01*
X142555552Y-113999935D01*
X142285757Y-114403712D01*
X142191017Y-114880000D01*
X133550236Y-114880000D01*
X133590118Y-114840118D01*
X133650333Y-114750000D01*
X133694386Y-114684071D01*
X133731000Y-114500000D01*
X133731000Y-113765355D01*
X133757165Y-113828680D01*
X133920460Y-113992260D01*
X134133925Y-114080898D01*
X134365061Y-114081100D01*
X134578680Y-113992835D01*
X134742260Y-113829540D01*
X134830898Y-113616075D01*
X134831100Y-113384939D01*
X134742835Y-113171320D01*
X134731000Y-113159464D01*
X134731000Y-112340000D01*
X144731017Y-112340000D01*
X144825757Y-112816288D01*
X145095552Y-113220065D01*
X145499329Y-113489860D01*
X145975617Y-113584600D01*
X146024383Y-113584600D01*
X146500671Y-113489860D01*
X146904448Y-113220065D01*
X147174243Y-112816288D01*
X147268983Y-112340000D01*
X147174243Y-111863712D01*
X146904448Y-111459935D01*
X146500671Y-111190140D01*
X146024383Y-111095400D01*
X145975617Y-111095400D01*
X145499329Y-111190140D01*
X145095552Y-111459935D01*
X144825757Y-111863712D01*
X144731017Y-112340000D01*
X134731000Y-112340000D01*
X134731000Y-110500000D01*
X134694386Y-110315929D01*
X134590118Y-110159882D01*
X131545297Y-107115061D01*
X132918900Y-107115061D01*
X133007165Y-107328680D01*
X133170460Y-107492260D01*
X133383925Y-107580898D01*
X133615061Y-107581100D01*
X133828680Y-107492835D01*
X133992260Y-107329540D01*
X134080898Y-107116075D01*
X134081100Y-106884939D01*
X133992835Y-106671320D01*
X133829540Y-106507740D01*
X133616075Y-106419102D01*
X133384939Y-106418900D01*
X133171320Y-106507165D01*
X133007740Y-106670460D01*
X132919102Y-106883925D01*
X132918900Y-107115061D01*
X131545297Y-107115061D01*
X122654219Y-98223983D01*
X135868804Y-98223983D01*
X136040625Y-98639823D01*
X136358503Y-98958256D01*
X136774043Y-99130804D01*
X137223983Y-99131196D01*
X137639823Y-98959375D01*
X137958256Y-98641497D01*
X138130804Y-98225957D01*
X138131196Y-97776017D01*
X137959375Y-97360177D01*
X137641497Y-97041744D01*
X137225957Y-96869196D01*
X136776017Y-96868804D01*
X136360177Y-97040625D01*
X136041744Y-97358503D01*
X135869196Y-97774043D01*
X135868804Y-98223983D01*
X122654219Y-98223983D01*
X118590118Y-94159882D01*
X118434071Y-94055614D01*
X118250000Y-94019000D01*
X93750000Y-94019000D01*
X93565929Y-94055614D01*
X93409881Y-94159882D01*
X89409882Y-98159882D01*
X89305614Y-98315929D01*
X89269000Y-98500000D01*
X89269000Y-105409220D01*
X89257740Y-105420460D01*
X89169102Y-105633925D01*
X89168900Y-105865061D01*
X51127000Y-105865061D01*
X51127000Y-93653983D01*
X135868804Y-93653983D01*
X136040625Y-94069823D01*
X136358503Y-94388256D01*
X136494979Y-94444926D01*
X136360177Y-94500625D01*
X136041744Y-94818503D01*
X135869196Y-95234043D01*
X135868804Y-95683983D01*
X136040625Y-96099823D01*
X136358503Y-96418256D01*
X136774043Y-96590804D01*
X137223983Y-96591196D01*
X137639823Y-96419375D01*
X137958256Y-96101497D01*
X138130804Y-95685957D01*
X138131196Y-95236017D01*
X137959375Y-94820177D01*
X137641497Y-94501744D01*
X137505021Y-94445074D01*
X137639823Y-94389375D01*
X137958256Y-94071497D01*
X138130804Y-93655957D01*
X138131196Y-93206017D01*
X137959375Y-92790177D01*
X137641497Y-92471744D01*
X137225957Y-92299196D01*
X136776017Y-92298804D01*
X136360177Y-92470625D01*
X136041744Y-92788503D01*
X135869196Y-93204043D01*
X135868804Y-93653983D01*
X51127000Y-93653983D01*
X51127000Y-91865061D01*
X128418900Y-91865061D01*
X128507165Y-92078680D01*
X128670460Y-92242260D01*
X128883925Y-92330898D01*
X129115061Y-92331100D01*
X129328680Y-92242835D01*
X129492260Y-92079540D01*
X129580898Y-91866075D01*
X129581100Y-91634939D01*
X129492835Y-91421320D01*
X129329540Y-91257740D01*
X129116075Y-91169102D01*
X128884939Y-91168900D01*
X128671320Y-91257165D01*
X128507740Y-91420460D01*
X128419102Y-91633925D01*
X128418900Y-91865061D01*
X51127000Y-91865061D01*
X51127000Y-88000000D01*
X83873000Y-88000000D01*
X83873000Y-89000000D01*
X83883006Y-89049410D01*
X83910197Y-89089803D01*
X83996949Y-89176555D01*
X84007165Y-89201280D01*
X84170460Y-89364860D01*
X84195759Y-89375365D01*
X84410197Y-89589803D01*
X84452211Y-89617666D01*
X84501754Y-89626988D01*
X84551022Y-89616300D01*
X84589803Y-89589803D01*
X84803955Y-89375651D01*
X84828680Y-89365435D01*
X84992260Y-89202140D01*
X85002765Y-89176841D01*
X85089803Y-89089803D01*
X85117666Y-89047789D01*
X85127000Y-89000000D01*
X85127000Y-88865061D01*
X122668900Y-88865061D01*
X122757165Y-89078680D01*
X122920460Y-89242260D01*
X123133925Y-89330898D01*
X123365061Y-89331100D01*
X123578680Y-89242835D01*
X123742260Y-89079540D01*
X123830898Y-88866075D01*
X123830898Y-88865061D01*
X124168900Y-88865061D01*
X124257165Y-89078680D01*
X124420460Y-89242260D01*
X124633925Y-89330898D01*
X124865061Y-89331100D01*
X125078680Y-89242835D01*
X125242260Y-89079540D01*
X125330898Y-88866075D01*
X125330898Y-88865061D01*
X125668900Y-88865061D01*
X125757165Y-89078680D01*
X125920460Y-89242260D01*
X126133925Y-89330898D01*
X126365061Y-89331100D01*
X126578680Y-89242835D01*
X126742260Y-89079540D01*
X126830898Y-88866075D01*
X126830898Y-88865061D01*
X127168900Y-88865061D01*
X127257165Y-89078680D01*
X127420460Y-89242260D01*
X127633925Y-89330898D01*
X127865061Y-89331100D01*
X128078680Y-89242835D01*
X128242260Y-89079540D01*
X128330898Y-88866075D01*
X128331100Y-88634939D01*
X128242835Y-88421320D01*
X128079540Y-88257740D01*
X127866075Y-88169102D01*
X127634939Y-88168900D01*
X127421320Y-88257165D01*
X127257740Y-88420460D01*
X127169102Y-88633925D01*
X127168900Y-88865061D01*
X126830898Y-88865061D01*
X126831100Y-88634939D01*
X126742835Y-88421320D01*
X126579540Y-88257740D01*
X126366075Y-88169102D01*
X126134939Y-88168900D01*
X125921320Y-88257165D01*
X125757740Y-88420460D01*
X125669102Y-88633925D01*
X125668900Y-88865061D01*
X125330898Y-88865061D01*
X125331100Y-88634939D01*
X125242835Y-88421320D01*
X125079540Y-88257740D01*
X124866075Y-88169102D01*
X124634939Y-88168900D01*
X124421320Y-88257165D01*
X124257740Y-88420460D01*
X124169102Y-88633925D01*
X124168900Y-88865061D01*
X123830898Y-88865061D01*
X123831100Y-88634939D01*
X123742835Y-88421320D01*
X123579540Y-88257740D01*
X123366075Y-88169102D01*
X123134939Y-88168900D01*
X122921320Y-88257165D01*
X122757740Y-88420460D01*
X122669102Y-88633925D01*
X122668900Y-88865061D01*
X85127000Y-88865061D01*
X85127000Y-88000000D01*
X85116994Y-87950590D01*
X85089803Y-87910197D01*
X85003051Y-87823445D01*
X84992835Y-87798720D01*
X84829540Y-87635140D01*
X84804241Y-87624635D01*
X84589803Y-87410197D01*
X84547789Y-87382334D01*
X84498246Y-87373012D01*
X84448978Y-87383700D01*
X84410197Y-87410197D01*
X84196045Y-87624349D01*
X84171320Y-87634565D01*
X84007740Y-87797860D01*
X83997235Y-87823159D01*
X83910197Y-87910197D01*
X83882334Y-87952211D01*
X83873000Y-88000000D01*
X51127000Y-88000000D01*
X51127000Y-79865061D01*
X97918900Y-79865061D01*
X98007165Y-80078680D01*
X98170460Y-80242260D01*
X98383925Y-80330898D01*
X98615061Y-80331100D01*
X98828680Y-80242835D01*
X98992260Y-80079540D01*
X99080898Y-79866075D01*
X99081100Y-79634939D01*
X99072887Y-79615061D01*
X99918900Y-79615061D01*
X100007165Y-79828680D01*
X100170460Y-79992260D01*
X100383925Y-80080898D01*
X100615061Y-80081100D01*
X100828680Y-79992835D01*
X100992260Y-79829540D01*
X101080898Y-79616075D01*
X101081100Y-79384939D01*
X100992835Y-79171320D01*
X100829540Y-79007740D01*
X100616075Y-78919102D01*
X100384939Y-78918900D01*
X100171320Y-79007165D01*
X100007740Y-79170460D01*
X99919102Y-79383925D01*
X99918900Y-79615061D01*
X99072887Y-79615061D01*
X98992835Y-79421320D01*
X98829540Y-79257740D01*
X98616075Y-79169102D01*
X98384939Y-79168900D01*
X98171320Y-79257165D01*
X98007740Y-79420460D01*
X97919102Y-79633925D01*
X97918900Y-79865061D01*
X51127000Y-79865061D01*
X51127000Y-69323003D01*
X66968718Y-69323003D01*
X67216499Y-69922680D01*
X67674907Y-70381888D01*
X68274151Y-70630716D01*
X68923003Y-70631282D01*
X69522680Y-70383501D01*
X69981888Y-69925093D01*
X70230716Y-69325849D01*
X70230718Y-69323003D01*
X98468718Y-69323003D01*
X98716499Y-69922680D01*
X99174907Y-70381888D01*
X99774151Y-70630716D01*
X100423003Y-70631282D01*
X101022680Y-70383501D01*
X101481888Y-69925093D01*
X101730716Y-69325849D01*
X101731282Y-68676997D01*
X101483501Y-68077320D01*
X101025093Y-67618112D01*
X100425849Y-67369284D01*
X99776997Y-67368718D01*
X99177320Y-67616499D01*
X98718112Y-68074907D01*
X98469284Y-68674151D01*
X98468718Y-69323003D01*
X70230718Y-69323003D01*
X70231282Y-68676997D01*
X69983501Y-68077320D01*
X69525093Y-67618112D01*
X68925849Y-67369284D01*
X68276997Y-67368718D01*
X67677320Y-67616499D01*
X67218112Y-68074907D01*
X66969284Y-68674151D01*
X66968718Y-69323003D01*
X51127000Y-69323003D01*
X51127000Y-64615061D01*
X67918900Y-64615061D01*
X68007165Y-64828680D01*
X68170460Y-64992260D01*
X68383925Y-65080898D01*
X68615061Y-65081100D01*
X68828680Y-64992835D01*
X68874938Y-64946658D01*
X68920460Y-64992260D01*
X69133925Y-65080898D01*
X69365061Y-65081100D01*
X69578680Y-64992835D01*
X69624938Y-64946658D01*
X69670460Y-64992260D01*
X69883925Y-65080898D01*
X70115061Y-65081100D01*
X70328680Y-64992835D01*
X70374938Y-64946658D01*
X70420460Y-64992260D01*
X70633925Y-65080898D01*
X70865061Y-65081100D01*
X71078680Y-64992835D01*
X71242260Y-64829540D01*
X71330898Y-64616075D01*
X71331100Y-64384939D01*
X71242835Y-64171320D01*
X71079540Y-64007740D01*
X71061119Y-64000091D01*
X71078680Y-63992835D01*
X71242260Y-63829540D01*
X71330898Y-63616075D01*
X71331100Y-63384939D01*
X71242835Y-63171320D01*
X71079540Y-63007740D01*
X70866075Y-62919102D01*
X70634939Y-62918900D01*
X70421320Y-63007165D01*
X70328982Y-63099342D01*
X70237540Y-63007740D01*
X70024075Y-62919102D01*
X69792939Y-62918900D01*
X69579320Y-63007165D01*
X69415740Y-63170460D01*
X69327102Y-63383925D01*
X69326900Y-63615061D01*
X69415165Y-63828680D01*
X69578460Y-63992260D01*
X69654586Y-64023870D01*
X69625062Y-64053342D01*
X69579540Y-64007740D01*
X69366075Y-63919102D01*
X69134939Y-63918900D01*
X68921320Y-64007165D01*
X68875062Y-64053342D01*
X68829540Y-64007740D01*
X68616075Y-63919102D01*
X68384939Y-63918900D01*
X68171320Y-64007165D01*
X68007740Y-64170460D01*
X67919102Y-64383925D01*
X67918900Y-64615061D01*
X51127000Y-64615061D01*
X51127000Y-57021042D01*
X61068685Y-57021042D01*
X61468386Y-57988395D01*
X62207853Y-58729152D01*
X63174506Y-59130542D01*
X64221182Y-59131455D01*
X65188535Y-58731754D01*
X65929292Y-57992287D01*
X66330682Y-57025634D01*
X66331476Y-56115061D01*
X109668900Y-56115061D01*
X109757165Y-56328680D01*
X109920460Y-56492260D01*
X110133925Y-56580898D01*
X110365061Y-56581100D01*
X110500069Y-56525316D01*
X110633925Y-56580898D01*
X110865061Y-56581100D01*
X111000069Y-56525316D01*
X111133925Y-56580898D01*
X111365061Y-56581100D01*
X111578680Y-56492835D01*
X111742260Y-56329540D01*
X111830898Y-56116075D01*
X111831100Y-55884939D01*
X111742835Y-55671320D01*
X111579540Y-55507740D01*
X111366075Y-55419102D01*
X111134939Y-55418900D01*
X110999931Y-55474684D01*
X110866075Y-55419102D01*
X110634939Y-55418900D01*
X110499931Y-55474684D01*
X110366075Y-55419102D01*
X110134939Y-55418900D01*
X109921320Y-55507165D01*
X109757740Y-55670460D01*
X109669102Y-55883925D01*
X109668900Y-56115061D01*
X66331476Y-56115061D01*
X66331595Y-55978958D01*
X65931894Y-55011605D01*
X65286476Y-54365061D01*
X78168900Y-54365061D01*
X78257165Y-54578680D01*
X78420460Y-54742260D01*
X78633925Y-54830898D01*
X78865061Y-54831100D01*
X79078680Y-54742835D01*
X79124938Y-54696658D01*
X79170460Y-54742260D01*
X79383925Y-54830898D01*
X79615061Y-54831100D01*
X79828680Y-54742835D01*
X79874938Y-54696658D01*
X79920460Y-54742260D01*
X80133925Y-54830898D01*
X80365061Y-54831100D01*
X80578680Y-54742835D01*
X80742260Y-54579540D01*
X80830898Y-54366075D01*
X80831100Y-54134939D01*
X80742835Y-53921320D01*
X80579540Y-53757740D01*
X80366075Y-53669102D01*
X80134939Y-53668900D01*
X79921320Y-53757165D01*
X79875062Y-53803342D01*
X79829540Y-53757740D01*
X79616075Y-53669102D01*
X79384939Y-53668900D01*
X79171320Y-53757165D01*
X79125062Y-53803342D01*
X79079540Y-53757740D01*
X78866075Y-53669102D01*
X78634939Y-53668900D01*
X78421320Y-53757165D01*
X78257740Y-53920460D01*
X78169102Y-54133925D01*
X78168900Y-54365061D01*
X65286476Y-54365061D01*
X65192427Y-54270848D01*
X64225774Y-53869458D01*
X63179098Y-53868545D01*
X62211745Y-54268246D01*
X61470988Y-55007713D01*
X61069598Y-55974366D01*
X61068685Y-57021042D01*
X51127000Y-57021042D01*
X51127000Y-52365061D01*
X86668900Y-52365061D01*
X86757165Y-52578680D01*
X86920460Y-52742260D01*
X87133925Y-52830898D01*
X87365061Y-52831100D01*
X87578680Y-52742835D01*
X87742260Y-52579540D01*
X87749909Y-52561119D01*
X87757165Y-52578680D01*
X87920460Y-52742260D01*
X88133925Y-52830898D01*
X88365061Y-52831100D01*
X88578680Y-52742835D01*
X88742260Y-52579540D01*
X88749909Y-52561119D01*
X88757165Y-52578680D01*
X88920460Y-52742260D01*
X89133925Y-52830898D01*
X89365061Y-52831100D01*
X89578680Y-52742835D01*
X89742260Y-52579540D01*
X89749909Y-52561119D01*
X89757165Y-52578680D01*
X89920460Y-52742260D01*
X90133925Y-52830898D01*
X90365061Y-52831100D01*
X90578680Y-52742835D01*
X90742260Y-52579540D01*
X90830898Y-52366075D01*
X90831100Y-52134939D01*
X90742835Y-51921320D01*
X90579540Y-51757740D01*
X90366075Y-51669102D01*
X90134939Y-51668900D01*
X89921320Y-51757165D01*
X89757740Y-51920460D01*
X89750091Y-51938881D01*
X89742835Y-51921320D01*
X89579540Y-51757740D01*
X89366075Y-51669102D01*
X89134939Y-51668900D01*
X88921320Y-51757165D01*
X88757740Y-51920460D01*
X88750091Y-51938881D01*
X88742835Y-51921320D01*
X88579540Y-51757740D01*
X88366075Y-51669102D01*
X88134939Y-51668900D01*
X87921320Y-51757165D01*
X87757740Y-51920460D01*
X87750091Y-51938881D01*
X87742835Y-51921320D01*
X87579540Y-51757740D01*
X87366075Y-51669102D01*
X87134939Y-51668900D01*
X86921320Y-51757165D01*
X86757740Y-51920460D01*
X86669102Y-52133925D01*
X86668900Y-52365061D01*
X51127000Y-52365061D01*
X51127000Y-51127000D01*
X112197394Y-51127000D01*
X112873000Y-51802606D01*
X112873000Y-51802606D01*
G37*
X112873000Y-51802606D02*
X112873000Y-53230422D01*
X112176711Y-53926711D01*
X112077602Y-54075037D01*
X112042800Y-54250000D01*
X112042800Y-57810622D01*
X111809421Y-58044001D01*
X109514260Y-58044001D01*
X109508222Y-58042800D01*
X107750000Y-58042800D01*
X107575037Y-58077602D01*
X107426711Y-58176711D01*
X102426711Y-63176711D01*
X102327602Y-63325037D01*
X102292800Y-63500000D01*
X102292800Y-64885461D01*
X102257740Y-64920460D01*
X102169102Y-65133925D01*
X102168900Y-65365061D01*
X102257165Y-65578680D01*
X102420460Y-65742260D01*
X102633925Y-65830898D01*
X102865061Y-65831100D01*
X103078680Y-65742835D01*
X103124938Y-65696658D01*
X103170460Y-65742260D01*
X103383925Y-65830898D01*
X103615061Y-65831100D01*
X103828680Y-65742835D01*
X103873000Y-65698592D01*
X103873000Y-77551276D01*
X103829540Y-77507740D01*
X103616075Y-77419102D01*
X103384939Y-77418900D01*
X103171320Y-77507165D01*
X103007740Y-77670460D01*
X102919102Y-77883925D01*
X102918900Y-78115061D01*
X103007165Y-78328680D01*
X103097413Y-78419086D01*
X102884939Y-78418900D01*
X102671320Y-78507165D01*
X102507740Y-78670460D01*
X102419102Y-78883925D01*
X102418900Y-79115061D01*
X102507165Y-79328680D01*
X102670460Y-79492260D01*
X102883925Y-79580898D01*
X103115061Y-79581100D01*
X103328680Y-79492835D01*
X103492260Y-79329540D01*
X103580898Y-79116075D01*
X103581100Y-78884939D01*
X103492835Y-78671320D01*
X103402587Y-78580914D01*
X103615061Y-78581100D01*
X103828680Y-78492835D01*
X103992260Y-78329540D01*
X104080898Y-78116075D01*
X104080990Y-78010596D01*
X105373000Y-79302606D01*
X105373000Y-80250000D01*
X105383006Y-80299410D01*
X105410197Y-80339803D01*
X110910197Y-85839803D01*
X110952211Y-85867666D01*
X111000000Y-85877000D01*
X112197394Y-85877000D01*
X113410197Y-87089803D01*
X113452211Y-87117666D01*
X113500000Y-87127000D01*
X124750000Y-87127000D01*
X124799410Y-87116994D01*
X124839803Y-87089803D01*
X126564545Y-85365061D01*
X127168900Y-85365061D01*
X127257165Y-85578680D01*
X127420460Y-85742260D01*
X127633925Y-85830898D01*
X127865061Y-85831100D01*
X128078680Y-85742835D01*
X128242260Y-85579540D01*
X128330898Y-85366075D01*
X128331100Y-85134939D01*
X128242835Y-84921320D01*
X128079540Y-84757740D01*
X127866075Y-84669102D01*
X127634939Y-84668900D01*
X127421320Y-84757165D01*
X127257740Y-84920460D01*
X127169102Y-85133925D01*
X127168900Y-85365061D01*
X126564545Y-85365061D01*
X127839803Y-84089803D01*
X127867666Y-84047789D01*
X127877000Y-84000000D01*
X127877000Y-82865061D01*
X140418900Y-82865061D01*
X140507165Y-83078680D01*
X140553342Y-83124938D01*
X140507740Y-83170460D01*
X140419102Y-83383925D01*
X140418900Y-83615061D01*
X140507165Y-83828680D01*
X140553342Y-83874938D01*
X140507740Y-83920460D01*
X140419102Y-84133925D01*
X140418900Y-84365061D01*
X140507165Y-84578680D01*
X140670460Y-84742260D01*
X140883925Y-84830898D01*
X141115061Y-84831100D01*
X141328680Y-84742835D01*
X141374938Y-84696658D01*
X141420460Y-84742260D01*
X141633925Y-84830898D01*
X141865061Y-84831100D01*
X142078680Y-84742835D01*
X142124938Y-84696658D01*
X142170460Y-84742260D01*
X142383925Y-84830898D01*
X142615061Y-84831100D01*
X142828680Y-84742835D01*
X142992260Y-84579540D01*
X143080898Y-84366075D01*
X143081100Y-84134939D01*
X142992835Y-83921320D01*
X142946658Y-83875062D01*
X142992260Y-83829540D01*
X143080898Y-83616075D01*
X143081100Y-83384939D01*
X142992835Y-83171320D01*
X142946658Y-83125062D01*
X142992260Y-83079540D01*
X143080898Y-82866075D01*
X143081100Y-82634939D01*
X142992835Y-82421320D01*
X142829540Y-82257740D01*
X142616075Y-82169102D01*
X142384939Y-82168900D01*
X142171320Y-82257165D01*
X142125062Y-82303342D01*
X142079540Y-82257740D01*
X141866075Y-82169102D01*
X141634939Y-82168900D01*
X141421320Y-82257165D01*
X141375062Y-82303342D01*
X141329540Y-82257740D01*
X141116075Y-82169102D01*
X140884939Y-82168900D01*
X140671320Y-82257165D01*
X140507740Y-82420460D01*
X140419102Y-82633925D01*
X140418900Y-82865061D01*
X127877000Y-82865061D01*
X127877000Y-78565061D01*
X140368900Y-78565061D01*
X140457165Y-78778680D01*
X140620460Y-78942260D01*
X140833925Y-79030898D01*
X141065061Y-79031100D01*
X141278680Y-78942835D01*
X141442260Y-78779540D01*
X141530898Y-78566075D01*
X141531100Y-78334939D01*
X141442835Y-78121320D01*
X141279540Y-77957740D01*
X141066075Y-77869102D01*
X140834939Y-77868900D01*
X140621320Y-77957165D01*
X140457740Y-78120460D01*
X140369102Y-78333925D01*
X140368900Y-78565061D01*
X127877000Y-78565061D01*
X127877000Y-78302606D01*
X129839803Y-76339803D01*
X129867666Y-76297789D01*
X129877000Y-76250000D01*
X129877000Y-74465061D01*
X140368900Y-74465061D01*
X140457165Y-74678680D01*
X140620460Y-74842260D01*
X140833925Y-74930898D01*
X141065061Y-74931100D01*
X141278680Y-74842835D01*
X141442260Y-74679540D01*
X141530898Y-74466075D01*
X141531100Y-74234939D01*
X141442835Y-74021320D01*
X141279540Y-73857740D01*
X141066075Y-73769102D01*
X140834939Y-73768900D01*
X140621320Y-73857165D01*
X140457740Y-74020460D01*
X140369102Y-74233925D01*
X140368900Y-74465061D01*
X129877000Y-74465061D01*
X129877000Y-70500000D01*
X130873000Y-70500000D01*
X130873000Y-71500000D01*
X130883006Y-71549410D01*
X130910197Y-71589803D01*
X130996949Y-71676555D01*
X131007165Y-71701280D01*
X131170460Y-71864860D01*
X131195759Y-71875365D01*
X131410197Y-72089803D01*
X131452211Y-72117666D01*
X131501754Y-72126988D01*
X131551022Y-72116300D01*
X131589803Y-72089803D01*
X131803955Y-71875651D01*
X131828680Y-71865435D01*
X131992260Y-71702140D01*
X132002765Y-71676841D01*
X132089803Y-71589803D01*
X132117666Y-71547789D01*
X132127000Y-71500000D01*
X132127000Y-70500000D01*
X133123000Y-70500000D01*
X133123000Y-71500000D01*
X133133006Y-71549410D01*
X133160197Y-71589803D01*
X133246949Y-71676555D01*
X133257165Y-71701280D01*
X133420460Y-71864860D01*
X133445759Y-71875365D01*
X133660197Y-72089803D01*
X133702211Y-72117666D01*
X133751754Y-72126988D01*
X133801022Y-72116300D01*
X133839803Y-72089803D01*
X134053955Y-71875651D01*
X134078680Y-71865435D01*
X134242260Y-71702140D01*
X134252765Y-71676841D01*
X134339803Y-71589803D01*
X134367666Y-71547789D01*
X134377000Y-71500000D01*
X134377000Y-70881559D01*
X142416151Y-70881559D01*
X142504416Y-71095178D01*
X142543716Y-71134547D01*
X142507740Y-71170460D01*
X142419102Y-71383925D01*
X142418900Y-71615061D01*
X142507165Y-71828680D01*
X142670460Y-71992260D01*
X142883925Y-72080898D01*
X143115061Y-72081100D01*
X143328680Y-71992835D01*
X143492260Y-71829540D01*
X143580898Y-71616075D01*
X143581100Y-71384939D01*
X143492835Y-71171320D01*
X143453535Y-71131951D01*
X143489511Y-71096038D01*
X143578149Y-70882573D01*
X143578351Y-70651437D01*
X143490086Y-70437818D01*
X143326791Y-70274238D01*
X143113326Y-70185600D01*
X142882190Y-70185398D01*
X142668571Y-70273663D01*
X142504991Y-70436958D01*
X142416353Y-70650423D01*
X142416151Y-70881559D01*
X134377000Y-70881559D01*
X134377000Y-70500000D01*
X134366994Y-70450590D01*
X134339803Y-70410197D01*
X134253051Y-70323445D01*
X134242835Y-70298720D01*
X134079540Y-70135140D01*
X134054241Y-70124635D01*
X133839803Y-69910197D01*
X133797789Y-69882334D01*
X133748246Y-69873012D01*
X133698978Y-69883700D01*
X133660197Y-69910197D01*
X133446045Y-70124349D01*
X133421320Y-70134565D01*
X133257740Y-70297860D01*
X133247235Y-70323159D01*
X133160197Y-70410197D01*
X133132334Y-70452211D01*
X133123000Y-70500000D01*
X132127000Y-70500000D01*
X132116994Y-70450590D01*
X132089803Y-70410197D01*
X132003051Y-70323445D01*
X131992835Y-70298720D01*
X131829540Y-70135140D01*
X131804241Y-70124635D01*
X131589803Y-69910197D01*
X131547789Y-69882334D01*
X131498246Y-69873012D01*
X131448978Y-69883700D01*
X131410197Y-69910197D01*
X131196045Y-70124349D01*
X131171320Y-70134565D01*
X131007740Y-70297860D01*
X130997235Y-70323159D01*
X130910197Y-70410197D01*
X130882334Y-70452211D01*
X130873000Y-70500000D01*
X129877000Y-70500000D01*
X129877000Y-60615061D01*
X137418900Y-60615061D01*
X137507165Y-60828680D01*
X137670460Y-60992260D01*
X137883925Y-61080898D01*
X138115061Y-61081100D01*
X138328680Y-60992835D01*
X138492260Y-60829540D01*
X138580898Y-60616075D01*
X138581100Y-60384939D01*
X138492835Y-60171320D01*
X138329540Y-60007740D01*
X138116075Y-59919102D01*
X137884939Y-59918900D01*
X137671320Y-60007165D01*
X137507740Y-60170460D01*
X137419102Y-60383925D01*
X137418900Y-60615061D01*
X129877000Y-60615061D01*
X129877000Y-55707200D01*
X135560622Y-55707200D01*
X137418943Y-57565522D01*
X137418900Y-57615061D01*
X137507165Y-57828680D01*
X137670460Y-57992260D01*
X137883925Y-58080898D01*
X138115061Y-58081100D01*
X138292800Y-58007660D01*
X138292800Y-58060622D01*
X137934479Y-58418943D01*
X137884939Y-58418900D01*
X137671320Y-58507165D01*
X137507740Y-58670460D01*
X137419102Y-58883925D01*
X137418900Y-59115061D01*
X137507165Y-59328680D01*
X137670460Y-59492260D01*
X137883925Y-59580898D01*
X138115061Y-59581100D01*
X138328680Y-59492835D01*
X138492260Y-59329540D01*
X138580898Y-59116075D01*
X138580942Y-59065636D01*
X139073289Y-58573289D01*
X139172398Y-58424963D01*
X139207200Y-58250000D01*
X139207200Y-56750000D01*
X139172398Y-56575037D01*
X139073290Y-56426711D01*
X138484107Y-55837528D01*
X138578985Y-55742815D01*
X138667623Y-55529350D01*
X138667825Y-55298214D01*
X138579560Y-55084595D01*
X138416265Y-54921015D01*
X138202800Y-54832377D01*
X137971664Y-54832175D01*
X137758045Y-54920440D01*
X137662448Y-55015870D01*
X136823289Y-54176711D01*
X136674963Y-54077602D01*
X136500000Y-54042800D01*
X129877000Y-54042800D01*
X129877000Y-52615061D01*
X140918900Y-52615061D01*
X141007165Y-52828680D01*
X141170460Y-52992260D01*
X141383925Y-53080898D01*
X141615061Y-53081100D01*
X141828680Y-52992835D01*
X141992260Y-52829540D01*
X142080898Y-52616075D01*
X142081100Y-52384939D01*
X141992835Y-52171320D01*
X141829540Y-52007740D01*
X141616075Y-51919102D01*
X141384939Y-51918900D01*
X141171320Y-52007165D01*
X141007740Y-52170460D01*
X140919102Y-52383925D01*
X140918900Y-52615061D01*
X129877000Y-52615061D01*
X129877000Y-51802606D01*
X130552606Y-51127000D01*
X148873000Y-51127000D01*
X148873000Y-61692764D01*
X148340118Y-61159882D01*
X148184071Y-61055614D01*
X148000000Y-61019000D01*
X140840780Y-61019000D01*
X140829540Y-61007740D01*
X140616075Y-60919102D01*
X140384939Y-60918900D01*
X140171320Y-61007165D01*
X140007740Y-61170460D01*
X139919102Y-61383925D01*
X139918900Y-61615061D01*
X140007165Y-61828680D01*
X140170460Y-61992260D01*
X140383925Y-62080898D01*
X140615061Y-62081100D01*
X140828680Y-61992835D01*
X140840536Y-61981000D01*
X147800764Y-61981000D01*
X148269000Y-62449236D01*
X148269000Y-146550764D01*
X146550764Y-148269000D01*
X93949236Y-148269000D01*
X92981000Y-147300764D01*
X92981000Y-146323003D01*
X98468718Y-146323003D01*
X98716499Y-146922680D01*
X99174907Y-147381888D01*
X99774151Y-147630716D01*
X100423003Y-147631282D01*
X101022680Y-147383501D01*
X101481888Y-146925093D01*
X101730716Y-146325849D01*
X101731282Y-145676997D01*
X101483501Y-145077320D01*
X101025093Y-144618112D01*
X100425849Y-144369284D01*
X99776997Y-144368718D01*
X99177320Y-144616499D01*
X98718112Y-145074907D01*
X98469284Y-145674151D01*
X98468718Y-146323003D01*
X92981000Y-146323003D01*
X92981000Y-144160000D01*
X142191017Y-144160000D01*
X142285757Y-144636288D01*
X142555552Y-145040065D01*
X142959329Y-145309860D01*
X143435617Y-145404600D01*
X143484383Y-145404600D01*
X143960671Y-145309860D01*
X144364448Y-145040065D01*
X144634243Y-144636288D01*
X144728983Y-144160000D01*
X144731017Y-144160000D01*
X144825757Y-144636288D01*
X145095552Y-145040065D01*
X145499329Y-145309860D01*
X145975617Y-145404600D01*
X146024383Y-145404600D01*
X146500671Y-145309860D01*
X146904448Y-145040065D01*
X147174243Y-144636288D01*
X147268983Y-144160000D01*
X147174243Y-143683712D01*
X146904448Y-143279935D01*
X146500671Y-143010140D01*
X146024383Y-142915400D01*
X145975617Y-142915400D01*
X145499329Y-143010140D01*
X145095552Y-143279935D01*
X144825757Y-143683712D01*
X144731017Y-144160000D01*
X144728983Y-144160000D01*
X144634243Y-143683712D01*
X144364448Y-143279935D01*
X143960671Y-143010140D01*
X143484383Y-142915400D01*
X143435617Y-142915400D01*
X142959329Y-143010140D01*
X142555552Y-143279935D01*
X142285757Y-143683712D01*
X142191017Y-144160000D01*
X92981000Y-144160000D01*
X92981000Y-124799236D01*
X97868009Y-119912228D01*
X97855400Y-119975617D01*
X97855400Y-120024383D01*
X97950140Y-120500671D01*
X98219935Y-120904448D01*
X98362939Y-121000000D01*
X98219935Y-121095552D01*
X97950140Y-121499329D01*
X97855400Y-121975617D01*
X97855400Y-122024383D01*
X97950140Y-122500671D01*
X98219935Y-122904448D01*
X98362939Y-123000000D01*
X98219935Y-123095552D01*
X97950140Y-123499329D01*
X97855400Y-123975617D01*
X97855400Y-124024383D01*
X97950140Y-124500671D01*
X98219935Y-124904448D01*
X98362939Y-125000000D01*
X98219935Y-125095552D01*
X97950140Y-125499329D01*
X97855400Y-125975617D01*
X97855400Y-126024383D01*
X97950140Y-126500671D01*
X98219935Y-126904448D01*
X98362939Y-127000000D01*
X98219935Y-127095552D01*
X97950140Y-127499329D01*
X97946227Y-127519000D01*
X97878686Y-127519000D01*
X97694615Y-127555614D01*
X97538567Y-127659882D01*
X93659882Y-131538568D01*
X93555614Y-131694615D01*
X93519000Y-131878686D01*
X93519000Y-140250000D01*
X93533839Y-140324600D01*
X93555614Y-140434071D01*
X93659882Y-140590118D01*
X96159882Y-143090118D01*
X96315929Y-143194386D01*
X96500000Y-143231000D01*
X116972998Y-143231000D01*
X117157069Y-143194386D01*
X117313116Y-143090118D01*
X118783234Y-141620000D01*
X142191017Y-141620000D01*
X142285757Y-142096288D01*
X142555552Y-142500065D01*
X142959329Y-142769860D01*
X143435617Y-142864600D01*
X143484383Y-142864600D01*
X143960671Y-142769860D01*
X144364448Y-142500065D01*
X144634243Y-142096288D01*
X144728983Y-141620000D01*
X144731017Y-141620000D01*
X144825757Y-142096288D01*
X145095552Y-142500065D01*
X145499329Y-142769860D01*
X145975617Y-142864600D01*
X146024383Y-142864600D01*
X146500671Y-142769860D01*
X146904448Y-142500065D01*
X147174243Y-142096288D01*
X147268983Y-141620000D01*
X147174243Y-141143712D01*
X146904448Y-140739935D01*
X146500671Y-140470140D01*
X146024383Y-140375400D01*
X145975617Y-140375400D01*
X145499329Y-140470140D01*
X145095552Y-140739935D01*
X144825757Y-141143712D01*
X144731017Y-141620000D01*
X144728983Y-141620000D01*
X144634243Y-141143712D01*
X144364448Y-140739935D01*
X143960671Y-140470140D01*
X143484383Y-140375400D01*
X143435617Y-140375400D01*
X142959329Y-140470140D01*
X142555552Y-140739935D01*
X142285757Y-141143712D01*
X142191017Y-141620000D01*
X118783234Y-141620000D01*
X121323234Y-139080000D01*
X142191017Y-139080000D01*
X142285757Y-139556288D01*
X142555552Y-139960065D01*
X142959329Y-140229860D01*
X143435617Y-140324600D01*
X143484383Y-140324600D01*
X143960671Y-140229860D01*
X144364448Y-139960065D01*
X144634243Y-139556288D01*
X144728983Y-139080000D01*
X144731017Y-139080000D01*
X144825757Y-139556288D01*
X145095552Y-139960065D01*
X145499329Y-140229860D01*
X145975617Y-140324600D01*
X146024383Y-140324600D01*
X146500671Y-140229860D01*
X146904448Y-139960065D01*
X147174243Y-139556288D01*
X147268983Y-139080000D01*
X147174243Y-138603712D01*
X146904448Y-138199935D01*
X146500671Y-137930140D01*
X146024383Y-137835400D01*
X145975617Y-137835400D01*
X145499329Y-137930140D01*
X145095552Y-138199935D01*
X144825757Y-138603712D01*
X144731017Y-139080000D01*
X144728983Y-139080000D01*
X144634243Y-138603712D01*
X144364448Y-138199935D01*
X143960671Y-137930140D01*
X143484383Y-137835400D01*
X143435617Y-137835400D01*
X142959329Y-137930140D01*
X142555552Y-138199935D01*
X142285757Y-138603712D01*
X142191017Y-139080000D01*
X121323234Y-139080000D01*
X122540830Y-137862404D01*
X122670460Y-137992260D01*
X122883925Y-138080898D01*
X123115061Y-138081100D01*
X123328680Y-137992835D01*
X123492260Y-137829540D01*
X123580898Y-137616075D01*
X123580898Y-137615061D01*
X125418900Y-137615061D01*
X125507165Y-137828680D01*
X125670460Y-137992260D01*
X125883925Y-138080898D01*
X126115061Y-138081100D01*
X126328680Y-137992835D01*
X126492260Y-137829540D01*
X126580898Y-137616075D01*
X126580898Y-137615061D01*
X128418900Y-137615061D01*
X128507165Y-137828680D01*
X128670460Y-137992260D01*
X128883925Y-138080898D01*
X129115061Y-138081100D01*
X129328680Y-137992835D01*
X129492260Y-137829540D01*
X129580898Y-137616075D01*
X129581100Y-137384939D01*
X129492835Y-137171320D01*
X129329540Y-137007740D01*
X129116075Y-136919102D01*
X128884939Y-136918900D01*
X128671320Y-137007165D01*
X128507740Y-137170460D01*
X128419102Y-137383925D01*
X128418900Y-137615061D01*
X126580898Y-137615061D01*
X126581100Y-137384939D01*
X126492835Y-137171320D01*
X126329540Y-137007740D01*
X126116075Y-136919102D01*
X125884939Y-136918900D01*
X125671320Y-137007165D01*
X125507740Y-137170460D01*
X125419102Y-137383925D01*
X125418900Y-137615061D01*
X123580898Y-137615061D01*
X123581100Y-137384939D01*
X123492835Y-137171320D01*
X123362488Y-137040746D01*
X125422234Y-134981000D01*
X126919017Y-134981000D01*
X126918900Y-135115061D01*
X127007165Y-135328680D01*
X127170460Y-135492260D01*
X127383925Y-135580898D01*
X127615061Y-135581100D01*
X127828680Y-135492835D01*
X127992260Y-135329540D01*
X128080898Y-135116075D01*
X128081016Y-134981000D01*
X128909220Y-134981000D01*
X128920460Y-134992260D01*
X129133925Y-135080898D01*
X129365061Y-135081100D01*
X129578680Y-134992835D01*
X129742260Y-134829540D01*
X129830898Y-134616075D01*
X129831100Y-134384939D01*
X129742835Y-134171320D01*
X129579540Y-134007740D01*
X129366075Y-133919102D01*
X129134939Y-133918900D01*
X128921320Y-134007165D01*
X128909464Y-134019000D01*
X125222998Y-134019000D01*
X125038927Y-134055614D01*
X124882880Y-134159882D01*
X116773762Y-142269000D01*
X112330983Y-142269000D01*
X112331100Y-142134939D01*
X112242835Y-141921320D01*
X112079540Y-141757740D01*
X112030525Y-141737387D01*
X112080898Y-141616075D01*
X112081100Y-141384939D01*
X111992835Y-141171320D01*
X111829540Y-141007740D01*
X111616075Y-140919102D01*
X111384939Y-140918900D01*
X111171320Y-141007165D01*
X111007740Y-141170460D01*
X110919102Y-141383925D01*
X110918900Y-141615061D01*
X111007165Y-141828680D01*
X111170460Y-141992260D01*
X111219475Y-142012613D01*
X111169102Y-142133925D01*
X111168984Y-142269000D01*
X109661236Y-142269000D01*
X114315175Y-137615061D01*
X114918900Y-137615061D01*
X115007165Y-137828680D01*
X115170460Y-137992260D01*
X115383925Y-138080898D01*
X115615061Y-138081100D01*
X115828680Y-137992835D01*
X115992260Y-137829540D01*
X116080898Y-137616075D01*
X116080898Y-137615061D01*
X117918900Y-137615061D01*
X118007165Y-137828680D01*
X118170460Y-137992260D01*
X118383925Y-138080898D01*
X118615061Y-138081100D01*
X118828680Y-137992835D01*
X118992260Y-137829540D01*
X119080898Y-137616075D01*
X119081100Y-137384939D01*
X118992835Y-137171320D01*
X118829540Y-137007740D01*
X118616075Y-136919102D01*
X118384939Y-136918900D01*
X118171320Y-137007165D01*
X118007740Y-137170460D01*
X117919102Y-137383925D01*
X117918900Y-137615061D01*
X116080898Y-137615061D01*
X116081100Y-137384939D01*
X115992835Y-137171320D01*
X115829540Y-137007740D01*
X115616075Y-136919102D01*
X115384939Y-136918900D01*
X115171320Y-137007165D01*
X115007740Y-137170460D01*
X114919102Y-137383925D01*
X114918900Y-137615061D01*
X114315175Y-137615061D01*
X126918991Y-125011246D01*
X126918900Y-125115061D01*
X127007165Y-125328680D01*
X127170460Y-125492260D01*
X127383925Y-125580898D01*
X127400677Y-125580913D01*
X130019000Y-128199237D01*
X130019000Y-136909220D01*
X130007740Y-136920460D01*
X129919102Y-137133925D01*
X129918900Y-137365061D01*
X130007165Y-137578680D01*
X130170460Y-137742260D01*
X130383925Y-137830898D01*
X130615061Y-137831100D01*
X130828680Y-137742835D01*
X130992260Y-137579540D01*
X131080898Y-137366075D01*
X131081100Y-137134939D01*
X130992835Y-136921320D01*
X130981000Y-136909464D01*
X130981000Y-136540000D01*
X142191017Y-136540000D01*
X142285757Y-137016288D01*
X142555552Y-137420065D01*
X142959329Y-137689860D01*
X143435617Y-137784600D01*
X143484383Y-137784600D01*
X143960671Y-137689860D01*
X144364448Y-137420065D01*
X144634243Y-137016288D01*
X144728983Y-136540000D01*
X144731017Y-136540000D01*
X144825757Y-137016288D01*
X145095552Y-137420065D01*
X145499329Y-137689860D01*
X145975617Y-137784600D01*
X146024383Y-137784600D01*
X146500671Y-137689860D01*
X146904448Y-137420065D01*
X147174243Y-137016288D01*
X147268983Y-136540000D01*
X147174243Y-136063712D01*
X146904448Y-135659935D01*
X146500671Y-135390140D01*
X146024383Y-135295400D01*
X145975617Y-135295400D01*
X145499329Y-135390140D01*
X145095552Y-135659935D01*
X144825757Y-136063712D01*
X144731017Y-136540000D01*
X144728983Y-136540000D01*
X144634243Y-136063712D01*
X144364448Y-135659935D01*
X143960671Y-135390140D01*
X143484383Y-135295400D01*
X143435617Y-135295400D01*
X142959329Y-135390140D01*
X142555552Y-135659935D01*
X142285757Y-136063712D01*
X142191017Y-136540000D01*
X130981000Y-136540000D01*
X130981000Y-134000000D01*
X144731017Y-134000000D01*
X144825757Y-134476288D01*
X145095552Y-134880065D01*
X145499329Y-135149860D01*
X145975617Y-135244600D01*
X146024383Y-135244600D01*
X146500671Y-135149860D01*
X146904448Y-134880065D01*
X147174243Y-134476288D01*
X147268983Y-134000000D01*
X147174243Y-133523712D01*
X146904448Y-133119935D01*
X146500671Y-132850140D01*
X146024383Y-132755400D01*
X145975617Y-132755400D01*
X145499329Y-132850140D01*
X145095552Y-133119935D01*
X144825757Y-133523712D01*
X144731017Y-134000000D01*
X130981000Y-134000000D01*
X130981000Y-132865061D01*
X132418900Y-132865061D01*
X132507165Y-133078680D01*
X132670460Y-133242260D01*
X132883925Y-133330898D01*
X133115061Y-133331100D01*
X133328680Y-133242835D01*
X133492260Y-133079540D01*
X133580898Y-132866075D01*
X133581100Y-132634939D01*
X133492835Y-132421320D01*
X133329540Y-132257740D01*
X133116075Y-132169102D01*
X132884939Y-132168900D01*
X132671320Y-132257165D01*
X132507740Y-132420460D01*
X132419102Y-132633925D01*
X132418900Y-132865061D01*
X130981000Y-132865061D01*
X130981000Y-128000000D01*
X130944386Y-127815929D01*
X130902622Y-127753426D01*
X130840119Y-127659882D01*
X128795298Y-125615061D01*
X129668900Y-125615061D01*
X129757165Y-125828680D01*
X129920460Y-125992260D01*
X130133925Y-126080898D01*
X130365061Y-126081100D01*
X130578680Y-125992835D01*
X130742260Y-125829540D01*
X130830898Y-125616075D01*
X130831100Y-125384939D01*
X130742835Y-125171320D01*
X130579540Y-125007740D01*
X130366075Y-124919102D01*
X130134939Y-124918900D01*
X129921320Y-125007165D01*
X129757740Y-125170460D01*
X129669102Y-125383925D01*
X129668900Y-125615061D01*
X128795298Y-125615061D01*
X128081086Y-124900850D01*
X128081100Y-124884939D01*
X127992835Y-124671320D01*
X127829540Y-124507740D01*
X127765143Y-124481000D01*
X128159220Y-124481000D01*
X128170460Y-124492260D01*
X128383925Y-124580898D01*
X128615061Y-124581100D01*
X128828680Y-124492835D01*
X128992260Y-124329540D01*
X129080898Y-124116075D01*
X129081100Y-123884939D01*
X128992835Y-123671320D01*
X128829540Y-123507740D01*
X128616075Y-123419102D01*
X128384939Y-123418900D01*
X128171320Y-123507165D01*
X128159464Y-123519000D01*
X127250000Y-123519000D01*
X127065930Y-123555613D01*
X126909882Y-123659881D01*
X113081009Y-137488754D01*
X113081100Y-137384939D01*
X112992835Y-137171320D01*
X112829540Y-137007740D01*
X112616075Y-136919102D01*
X112384939Y-136918900D01*
X112171320Y-137007165D01*
X112007740Y-137170460D01*
X111919102Y-137383925D01*
X111918900Y-137615061D01*
X112007165Y-137828680D01*
X112170460Y-137992260D01*
X112383925Y-138080898D01*
X112488774Y-138080990D01*
X108800764Y-141769000D01*
X98199236Y-141769000D01*
X95981000Y-139550764D01*
X95981000Y-132577922D01*
X97993443Y-130565479D01*
X98219935Y-130904448D01*
X98362939Y-131000000D01*
X98219935Y-131095552D01*
X97950140Y-131499329D01*
X97855400Y-131975617D01*
X97855400Y-132024383D01*
X97950140Y-132500671D01*
X98219935Y-132904448D01*
X98362939Y-133000000D01*
X98219935Y-133095552D01*
X97950140Y-133499329D01*
X97855400Y-133975617D01*
X97855400Y-134024383D01*
X97950140Y-134500671D01*
X98219935Y-134904448D01*
X98362939Y-135000000D01*
X98219935Y-135095552D01*
X97950140Y-135499329D01*
X97855400Y-135975617D01*
X97855400Y-136024383D01*
X97950140Y-136500671D01*
X98219935Y-136904448D01*
X98362939Y-137000000D01*
X98219935Y-137095552D01*
X97950140Y-137499329D01*
X97855400Y-137975617D01*
X97855400Y-138024383D01*
X97950140Y-138500671D01*
X98219935Y-138904448D01*
X98623712Y-139174243D01*
X99100000Y-139268983D01*
X99576288Y-139174243D01*
X99980065Y-138904448D01*
X100100000Y-138724952D01*
X100219935Y-138904448D01*
X100623712Y-139174243D01*
X101100000Y-139268983D01*
X101576288Y-139174243D01*
X101980065Y-138904448D01*
X102249860Y-138500671D01*
X102344600Y-138024383D01*
X102344600Y-137975617D01*
X102249860Y-137499329D01*
X101980065Y-137095552D01*
X101837061Y-137000000D01*
X101980065Y-136904448D01*
X102249860Y-136500671D01*
X102344600Y-136024383D01*
X102344600Y-135975617D01*
X102249860Y-135499329D01*
X101980065Y-135095552D01*
X101837061Y-135000000D01*
X101980065Y-134904448D01*
X102249860Y-134500671D01*
X102344600Y-134024383D01*
X102344600Y-133975617D01*
X102249860Y-133499329D01*
X101980065Y-133095552D01*
X101837061Y-133000000D01*
X101980065Y-132904448D01*
X102249860Y-132500671D01*
X102344600Y-132024383D01*
X102344600Y-131975617D01*
X102249860Y-131499329D01*
X101980065Y-131095552D01*
X101837061Y-131000000D01*
X101980065Y-130904448D01*
X102249860Y-130500671D01*
X102344600Y-130024383D01*
X102344600Y-129975617D01*
X102249860Y-129499329D01*
X101980065Y-129095552D01*
X101837061Y-129000000D01*
X101980065Y-128904448D01*
X102249860Y-128500671D01*
X102344600Y-128024383D01*
X102344600Y-127975617D01*
X102249860Y-127499329D01*
X101980065Y-127095552D01*
X101837061Y-127000000D01*
X101980065Y-126904448D01*
X102249860Y-126500671D01*
X102344600Y-126024383D01*
X102344600Y-125975617D01*
X102249860Y-125499329D01*
X101980065Y-125095552D01*
X101837061Y-125000000D01*
X101980065Y-124904448D01*
X102249860Y-124500671D01*
X102344600Y-124024383D01*
X102344600Y-123975617D01*
X102249860Y-123499329D01*
X101980065Y-123095552D01*
X101837061Y-123000000D01*
X101980065Y-122904448D01*
X102249860Y-122500671D01*
X102344600Y-122024383D01*
X102344600Y-121975617D01*
X102249860Y-121499329D01*
X101980065Y-121095552D01*
X101837061Y-121000000D01*
X101980065Y-120904448D01*
X102249860Y-120500671D01*
X102344600Y-120024383D01*
X102344600Y-119975617D01*
X102249860Y-119499329D01*
X102160146Y-119365061D01*
X107668900Y-119365061D01*
X107757165Y-119578680D01*
X107803342Y-119624938D01*
X107757740Y-119670460D01*
X107669102Y-119883925D01*
X107668900Y-120115061D01*
X107757165Y-120328680D01*
X107920460Y-120492260D01*
X108133925Y-120580898D01*
X108365061Y-120581100D01*
X108578680Y-120492835D01*
X108742260Y-120329540D01*
X108830898Y-120116075D01*
X108831100Y-119884939D01*
X108742835Y-119671320D01*
X108696658Y-119625062D01*
X108742260Y-119579540D01*
X108830898Y-119366075D01*
X108831100Y-119134939D01*
X108742835Y-118921320D01*
X108579540Y-118757740D01*
X108366075Y-118669102D01*
X108134939Y-118668900D01*
X107921320Y-118757165D01*
X107757740Y-118920460D01*
X107669102Y-119133925D01*
X107668900Y-119365061D01*
X102160146Y-119365061D01*
X101980065Y-119095552D01*
X101837061Y-119000000D01*
X101980065Y-118904448D01*
X102249860Y-118500671D01*
X102344600Y-118024383D01*
X102344600Y-117975617D01*
X102249860Y-117499329D01*
X101980065Y-117095552D01*
X101837061Y-117000000D01*
X101980065Y-116904448D01*
X102249860Y-116500671D01*
X102344600Y-116024383D01*
X102344600Y-115975617D01*
X102249860Y-115499329D01*
X101993101Y-115115061D01*
X106918900Y-115115061D01*
X107007165Y-115328680D01*
X107170460Y-115492260D01*
X107383925Y-115580898D01*
X107615061Y-115581100D01*
X107828680Y-115492835D01*
X107992260Y-115329540D01*
X108080898Y-115116075D01*
X108080898Y-115115061D01*
X108418900Y-115115061D01*
X108507165Y-115328680D01*
X108670460Y-115492260D01*
X108883925Y-115580898D01*
X109115061Y-115581100D01*
X109328680Y-115492835D01*
X109492260Y-115329540D01*
X109580898Y-115116075D01*
X109580898Y-115115061D01*
X109918900Y-115115061D01*
X110007165Y-115328680D01*
X110170460Y-115492260D01*
X110383925Y-115580898D01*
X110615061Y-115581100D01*
X110828680Y-115492835D01*
X110992260Y-115329540D01*
X111080898Y-115116075D01*
X111080898Y-115115061D01*
X111918900Y-115115061D01*
X112007165Y-115328680D01*
X112170460Y-115492260D01*
X112383925Y-115580898D01*
X112615061Y-115581100D01*
X112828680Y-115492835D01*
X112992260Y-115329540D01*
X113080898Y-115116075D01*
X113081100Y-114884939D01*
X112992835Y-114671320D01*
X112829540Y-114507740D01*
X112616075Y-114419102D01*
X112384939Y-114418900D01*
X112171320Y-114507165D01*
X112007740Y-114670460D01*
X111919102Y-114883925D01*
X111918900Y-115115061D01*
X111080898Y-115115061D01*
X111081100Y-114884939D01*
X110992835Y-114671320D01*
X110829540Y-114507740D01*
X110616075Y-114419102D01*
X110384939Y-114418900D01*
X110171320Y-114507165D01*
X110007740Y-114670460D01*
X109919102Y-114883925D01*
X109918900Y-115115061D01*
X109580898Y-115115061D01*
X109581100Y-114884939D01*
X109492835Y-114671320D01*
X109329540Y-114507740D01*
X109116075Y-114419102D01*
X108884939Y-114418900D01*
X108671320Y-114507165D01*
X108507740Y-114670460D01*
X108419102Y-114883925D01*
X108418900Y-115115061D01*
X108080898Y-115115061D01*
X108081100Y-114884939D01*
X107992835Y-114671320D01*
X107829540Y-114507740D01*
X107616075Y-114419102D01*
X107384939Y-114418900D01*
X107171320Y-114507165D01*
X107007740Y-114670460D01*
X106919102Y-114883925D01*
X106918900Y-115115061D01*
X101993101Y-115115061D01*
X101980065Y-115095552D01*
X101837061Y-115000000D01*
X101980065Y-114904448D01*
X102249860Y-114500671D01*
X102344600Y-114024383D01*
X102344600Y-113975617D01*
X102249860Y-113499329D01*
X101980065Y-113095552D01*
X101837061Y-113000000D01*
X101980065Y-112904448D01*
X102249860Y-112500671D01*
X102344600Y-112024383D01*
X102344600Y-111975617D01*
X102249860Y-111499329D01*
X101980065Y-111095552D01*
X101837061Y-111000000D01*
X101980065Y-110904448D01*
X102249860Y-110500671D01*
X102344600Y-110024383D01*
X102344600Y-109975617D01*
X102249860Y-109499329D01*
X101980065Y-109095552D01*
X101837061Y-109000000D01*
X101980065Y-108904448D01*
X102249860Y-108500671D01*
X102344600Y-108024383D01*
X102344600Y-107975617D01*
X102249860Y-107499329D01*
X101980065Y-107095552D01*
X101837061Y-107000000D01*
X101980065Y-106904448D01*
X102249860Y-106500671D01*
X102344600Y-106024383D01*
X102344600Y-105975617D01*
X102249860Y-105499329D01*
X101980065Y-105095552D01*
X101837061Y-105000000D01*
X101980065Y-104904448D01*
X102249860Y-104500671D01*
X102344600Y-104024383D01*
X102344600Y-103975617D01*
X102249860Y-103499329D01*
X101980065Y-103095552D01*
X101576288Y-102825757D01*
X101100000Y-102731017D01*
X100623712Y-102825757D01*
X100219935Y-103095552D01*
X100100000Y-103275048D01*
X99980065Y-103095552D01*
X99576288Y-102825757D01*
X99100000Y-102731017D01*
X98623712Y-102825757D01*
X98219935Y-103095552D01*
X97950140Y-103499329D01*
X97855400Y-103975617D01*
X97855400Y-104024383D01*
X97950140Y-104500671D01*
X98219935Y-104904448D01*
X98362939Y-105000000D01*
X98219935Y-105095552D01*
X97950140Y-105499329D01*
X97855400Y-105975617D01*
X97855400Y-106024383D01*
X97950140Y-106500671D01*
X98219935Y-106904448D01*
X98362939Y-107000000D01*
X98219935Y-107095552D01*
X97950140Y-107499329D01*
X97855400Y-107975617D01*
X97855400Y-108024383D01*
X97950140Y-108500671D01*
X98219935Y-108904448D01*
X98362939Y-109000000D01*
X98219935Y-109095552D01*
X97950140Y-109499329D01*
X97855400Y-109975617D01*
X97855400Y-110024383D01*
X97950140Y-110500671D01*
X98219935Y-110904448D01*
X98362939Y-111000000D01*
X98219935Y-111095552D01*
X97950140Y-111499329D01*
X97855400Y-111975617D01*
X97855400Y-112024383D01*
X97950140Y-112500671D01*
X98219935Y-112904448D01*
X98362939Y-113000000D01*
X98219935Y-113095552D01*
X97950140Y-113499329D01*
X97855400Y-113975617D01*
X97855400Y-114024383D01*
X97950140Y-114500671D01*
X98219935Y-114904448D01*
X98362939Y-115000000D01*
X98219935Y-115095552D01*
X97950140Y-115499329D01*
X97855400Y-115975617D01*
X97855400Y-116024383D01*
X97950140Y-116500671D01*
X98219935Y-116904448D01*
X98362939Y-117000000D01*
X98219935Y-117095552D01*
X97950140Y-117499329D01*
X97855400Y-117975617D01*
X97855400Y-118024383D01*
X97944989Y-118474774D01*
X92159882Y-124259882D01*
X92055614Y-124415929D01*
X92019000Y-124600000D01*
X92019000Y-147500000D01*
X92045001Y-147630716D01*
X92055614Y-147684071D01*
X92159882Y-147840118D01*
X93192764Y-148873000D01*
X51127000Y-148873000D01*
X51127000Y-146323003D01*
X66968718Y-146323003D01*
X67216499Y-146922680D01*
X67674907Y-147381888D01*
X68274151Y-147630716D01*
X68923003Y-147631282D01*
X69522680Y-147383501D01*
X69981888Y-146925093D01*
X70230716Y-146325849D01*
X70231282Y-145676997D01*
X69983501Y-145077320D01*
X69525093Y-144618112D01*
X68925849Y-144369284D01*
X68276997Y-144368718D01*
X67677320Y-144616499D01*
X67218112Y-145074907D01*
X66969284Y-145674151D01*
X66968718Y-146323003D01*
X51127000Y-146323003D01*
X51127000Y-120000000D01*
X59373000Y-120000000D01*
X59373000Y-121000000D01*
X59383006Y-121049410D01*
X59410197Y-121089803D01*
X59910197Y-121589803D01*
X59952211Y-121617666D01*
X60001754Y-121626988D01*
X60051022Y-121616300D01*
X60089803Y-121589803D01*
X60589803Y-121089803D01*
X60617666Y-121047789D01*
X60627000Y-121000000D01*
X60627000Y-120000000D01*
X60616994Y-119950590D01*
X60589803Y-119910197D01*
X60538257Y-119858651D01*
X60492835Y-119748720D01*
X60329540Y-119585140D01*
X60218737Y-119539131D01*
X60089803Y-119410197D01*
X60047789Y-119382334D01*
X59998246Y-119373012D01*
X59948978Y-119383700D01*
X59910197Y-119410197D01*
X59781251Y-119539143D01*
X59671320Y-119584565D01*
X59507740Y-119747860D01*
X59461731Y-119858663D01*
X59410197Y-119910197D01*
X59382334Y-119952211D01*
X59373000Y-120000000D01*
X51127000Y-120000000D01*
X51127000Y-105865061D01*
X89168900Y-105865061D01*
X89257165Y-106078680D01*
X89420460Y-106242260D01*
X89633925Y-106330898D01*
X89865061Y-106331100D01*
X90078680Y-106242835D01*
X90242260Y-106079540D01*
X90249909Y-106061119D01*
X90257165Y-106078680D01*
X90420460Y-106242260D01*
X90633925Y-106330898D01*
X90865061Y-106331100D01*
X91078680Y-106242835D01*
X91242260Y-106079540D01*
X91249909Y-106061119D01*
X91257165Y-106078680D01*
X91420460Y-106242260D01*
X91633925Y-106330898D01*
X91865061Y-106331100D01*
X92078680Y-106242835D01*
X92242260Y-106079540D01*
X92330898Y-105866075D01*
X92331100Y-105634939D01*
X92242835Y-105421320D01*
X92231000Y-105409464D01*
X92231000Y-100199236D01*
X95637718Y-96792519D01*
X95637720Y-96792516D01*
X95949237Y-96481000D01*
X105550764Y-96481000D01*
X105588764Y-96519000D01*
X96500000Y-96519000D01*
X96315929Y-96555614D01*
X96264289Y-96590119D01*
X96159882Y-96659881D01*
X95659885Y-97159879D01*
X95659882Y-97159881D01*
X92659882Y-100159882D01*
X92555614Y-100315929D01*
X92519000Y-100500000D01*
X92519000Y-105409220D01*
X92507740Y-105420460D01*
X92419102Y-105633925D01*
X92418900Y-105865061D01*
X92507165Y-106078680D01*
X92670460Y-106242260D01*
X92883925Y-106330898D01*
X93052607Y-106331045D01*
X93019000Y-106500000D01*
X93019000Y-110159220D01*
X93007740Y-110170460D01*
X92919102Y-110383925D01*
X92918900Y-110615061D01*
X93007165Y-110828680D01*
X93170460Y-110992260D01*
X93383925Y-111080898D01*
X93615061Y-111081100D01*
X93828680Y-110992835D01*
X93992260Y-110829540D01*
X94080898Y-110616075D01*
X94081100Y-110384939D01*
X93992835Y-110171320D01*
X93981000Y-110159464D01*
X93981000Y-108265355D01*
X94007165Y-108328680D01*
X94170460Y-108492260D01*
X94383925Y-108580898D01*
X94615061Y-108581100D01*
X94828680Y-108492835D01*
X94992260Y-108329540D01*
X94999909Y-108311119D01*
X95007165Y-108328680D01*
X95170460Y-108492260D01*
X95383925Y-108580898D01*
X95615061Y-108581100D01*
X95828680Y-108492835D01*
X95992260Y-108329540D01*
X95999909Y-108311119D01*
X96007165Y-108328680D01*
X96170460Y-108492260D01*
X96383925Y-108580898D01*
X96615061Y-108581100D01*
X96828680Y-108492835D01*
X96992260Y-108329540D01*
X97080898Y-108116075D01*
X97081100Y-107884939D01*
X96992835Y-107671320D01*
X96981000Y-107659464D01*
X96981000Y-102199236D01*
X98449237Y-100731000D01*
X101550764Y-100731000D01*
X110159882Y-109340119D01*
X110253426Y-109402622D01*
X110315929Y-109444386D01*
X110500000Y-109481000D01*
X112300764Y-109481000D01*
X113624083Y-110804319D01*
X113507740Y-110920460D01*
X113419102Y-111133925D01*
X113418900Y-111365061D01*
X113507165Y-111578680D01*
X113670460Y-111742260D01*
X113883925Y-111830898D01*
X114115061Y-111831100D01*
X114328680Y-111742835D01*
X114445741Y-111625978D01*
X118159881Y-115340118D01*
X118280277Y-115420564D01*
X118315929Y-115444386D01*
X118500000Y-115481000D01*
X121409220Y-115481000D01*
X121420460Y-115492260D01*
X121633925Y-115580898D01*
X121865061Y-115581100D01*
X122019000Y-115517494D01*
X122019000Y-116000000D01*
X122053889Y-116175400D01*
X122055614Y-116184071D01*
X122159882Y-116340118D01*
X122909882Y-117090118D01*
X123065929Y-117194386D01*
X123250000Y-117231000D01*
X127409220Y-117231000D01*
X127420460Y-117242260D01*
X127633925Y-117330898D01*
X127865061Y-117331100D01*
X128078680Y-117242835D01*
X128242260Y-117079540D01*
X128330898Y-116866075D01*
X128331100Y-116634939D01*
X128267494Y-116481000D01*
X129500000Y-116481000D01*
X129610804Y-116458960D01*
X129409882Y-116659882D01*
X129305614Y-116815929D01*
X129269000Y-117000000D01*
X129269000Y-121409220D01*
X129257740Y-121420460D01*
X129188060Y-121588270D01*
X128759672Y-121159882D01*
X128603625Y-121055614D01*
X128419554Y-121019000D01*
X127590780Y-121019000D01*
X127579540Y-121007740D01*
X127366075Y-120919102D01*
X127134939Y-120918900D01*
X126921320Y-121007165D01*
X126757740Y-121170460D01*
X126669102Y-121383925D01*
X126668900Y-121615061D01*
X126757165Y-121828680D01*
X126920460Y-121992260D01*
X127133925Y-122080898D01*
X127365061Y-122081100D01*
X127578680Y-121992835D01*
X127590536Y-121981000D01*
X127669017Y-121981000D01*
X127668900Y-122115061D01*
X127757165Y-122328680D01*
X127920460Y-122492260D01*
X128133925Y-122580898D01*
X128365061Y-122581100D01*
X128578680Y-122492835D01*
X128655483Y-122416165D01*
X128781837Y-122542519D01*
X128937884Y-122646787D01*
X129121955Y-122683401D01*
X130547599Y-122683401D01*
X130731670Y-122646787D01*
X130779150Y-122615061D01*
X133668900Y-122615061D01*
X133757165Y-122828680D01*
X133920460Y-122992260D01*
X134133925Y-123080898D01*
X134365061Y-123081100D01*
X134578680Y-122992835D01*
X134742260Y-122829540D01*
X134830898Y-122616075D01*
X134830999Y-122500000D01*
X142191017Y-122500000D01*
X142285757Y-122976288D01*
X142555552Y-123380065D01*
X142959329Y-123649860D01*
X143435617Y-123744600D01*
X143484383Y-123744600D01*
X143960671Y-123649860D01*
X144364448Y-123380065D01*
X144634243Y-122976288D01*
X144728983Y-122500000D01*
X144731017Y-122500000D01*
X144825757Y-122976288D01*
X145095552Y-123380065D01*
X145499329Y-123649860D01*
X145975617Y-123744600D01*
X146024383Y-123744600D01*
X146500671Y-123649860D01*
X146904448Y-123380065D01*
X147174243Y-122976288D01*
X147268983Y-122500000D01*
X147174243Y-122023712D01*
X146904448Y-121619935D01*
X146500671Y-121350140D01*
X146024383Y-121255400D01*
X145975617Y-121255400D01*
X145499329Y-121350140D01*
X145095552Y-121619935D01*
X144825757Y-122023712D01*
X144731017Y-122500000D01*
X144728983Y-122500000D01*
X144634243Y-122023712D01*
X144364448Y-121619935D01*
X143960671Y-121350140D01*
X143484383Y-121255400D01*
X143435617Y-121255400D01*
X142959329Y-121350140D01*
X142555552Y-121619935D01*
X142285757Y-122023712D01*
X142191017Y-122500000D01*
X134830999Y-122500000D01*
X134831100Y-122384939D01*
X134742835Y-122171320D01*
X134579540Y-122007740D01*
X134366075Y-121919102D01*
X134134939Y-121918900D01*
X133921320Y-122007165D01*
X133757740Y-122170460D01*
X133669102Y-122383925D01*
X133668900Y-122615061D01*
X130779150Y-122615061D01*
X130887717Y-122542519D01*
X131090118Y-122340119D01*
X131194386Y-122184071D01*
X131214908Y-122080898D01*
X131231000Y-122000000D01*
X131231000Y-121115061D01*
X131418900Y-121115061D01*
X131507165Y-121328680D01*
X131670460Y-121492260D01*
X131883925Y-121580898D01*
X132115061Y-121581100D01*
X132328680Y-121492835D01*
X132492260Y-121329540D01*
X132580898Y-121116075D01*
X132581100Y-120884939D01*
X132572887Y-120865061D01*
X140168900Y-120865061D01*
X140257165Y-121078680D01*
X140420460Y-121242260D01*
X140633925Y-121330898D01*
X140865061Y-121331100D01*
X141078680Y-121242835D01*
X141242260Y-121079540D01*
X141330898Y-120866075D01*
X141331100Y-120634939D01*
X141242835Y-120421320D01*
X141079540Y-120257740D01*
X140866075Y-120169102D01*
X140634939Y-120168900D01*
X140421320Y-120257165D01*
X140257740Y-120420460D01*
X140169102Y-120633925D01*
X140168900Y-120865061D01*
X132572887Y-120865061D01*
X132492835Y-120671320D01*
X132329540Y-120507740D01*
X132116075Y-120419102D01*
X131884939Y-120418900D01*
X131671320Y-120507165D01*
X131507740Y-120670460D01*
X131419102Y-120883925D01*
X131418900Y-121115061D01*
X131231000Y-121115061D01*
X131231000Y-119960000D01*
X142191017Y-119960000D01*
X142285757Y-120436288D01*
X142555552Y-120840065D01*
X142959329Y-121109860D01*
X143435617Y-121204600D01*
X143484383Y-121204600D01*
X143960671Y-121109860D01*
X144364448Y-120840065D01*
X144634243Y-120436288D01*
X144728983Y-119960000D01*
X144731017Y-119960000D01*
X144825757Y-120436288D01*
X145095552Y-120840065D01*
X145499329Y-121109860D01*
X145975617Y-121204600D01*
X146024383Y-121204600D01*
X146500671Y-121109860D01*
X146904448Y-120840065D01*
X147174243Y-120436288D01*
X147268983Y-119960000D01*
X147174243Y-119483712D01*
X146904448Y-119079935D01*
X146500671Y-118810140D01*
X146024383Y-118715400D01*
X145975617Y-118715400D01*
X145499329Y-118810140D01*
X145095552Y-119079935D01*
X144825757Y-119483712D01*
X144731017Y-119960000D01*
X144728983Y-119960000D01*
X144634243Y-119483712D01*
X144364448Y-119079935D01*
X143960671Y-118810140D01*
X143484383Y-118715400D01*
X143435617Y-118715400D01*
X142959329Y-118810140D01*
X142555552Y-119079935D01*
X142285757Y-119483712D01*
X142191017Y-119960000D01*
X131231000Y-119960000D01*
X131231000Y-117420000D01*
X142191017Y-117420000D01*
X142285757Y-117896288D01*
X142555552Y-118300065D01*
X142959329Y-118569860D01*
X143435617Y-118664600D01*
X143484383Y-118664600D01*
X143960671Y-118569860D01*
X144364448Y-118300065D01*
X144634243Y-117896288D01*
X144728983Y-117420000D01*
X144731017Y-117420000D01*
X144825757Y-117896288D01*
X145095552Y-118300065D01*
X145499329Y-118569860D01*
X145975617Y-118664600D01*
X146024383Y-118664600D01*
X146500671Y-118569860D01*
X146904448Y-118300065D01*
X147174243Y-117896288D01*
X147268983Y-117420000D01*
X147174243Y-116943712D01*
X146904448Y-116539935D01*
X146500671Y-116270140D01*
X146024383Y-116175400D01*
X145975617Y-116175400D01*
X145499329Y-116270140D01*
X145095552Y-116539935D01*
X144825757Y-116943712D01*
X144731017Y-117420000D01*
X144728983Y-117420000D01*
X144634243Y-116943712D01*
X144364448Y-116539935D01*
X143960671Y-116270140D01*
X143484383Y-116175400D01*
X143435617Y-116175400D01*
X142959329Y-116270140D01*
X142555552Y-116539935D01*
X142285757Y-116943712D01*
X142191017Y-117420000D01*
X131231000Y-117420000D01*
X131231000Y-117199236D01*
X133550236Y-114880000D01*
X142191017Y-114880000D01*
X142285757Y-115356288D01*
X142555552Y-115760065D01*
X142959329Y-116029860D01*
X143435617Y-116124600D01*
X143484383Y-116124600D01*
X143960671Y-116029860D01*
X144364448Y-115760065D01*
X144634243Y-115356288D01*
X144728983Y-114880000D01*
X144731017Y-114880000D01*
X144825757Y-115356288D01*
X145095552Y-115760065D01*
X145499329Y-116029860D01*
X145975617Y-116124600D01*
X146024383Y-116124600D01*
X146500671Y-116029860D01*
X146904448Y-115760065D01*
X147174243Y-115356288D01*
X147268983Y-114880000D01*
X147174243Y-114403712D01*
X146904448Y-113999935D01*
X146500671Y-113730140D01*
X146024383Y-113635400D01*
X145975617Y-113635400D01*
X145499329Y-113730140D01*
X145095552Y-113999935D01*
X144825757Y-114403712D01*
X144731017Y-114880000D01*
X144728983Y-114880000D01*
X144634243Y-114403712D01*
X144364448Y-113999935D01*
X143960671Y-113730140D01*
X143484383Y-113635400D01*
X143435617Y-113635400D01*
X142959329Y-113730140D01*
X142555552Y-113999935D01*
X142285757Y-114403712D01*
X142191017Y-114880000D01*
X133550236Y-114880000D01*
X133590118Y-114840118D01*
X133650333Y-114750000D01*
X133694386Y-114684071D01*
X133731000Y-114500000D01*
X133731000Y-113765355D01*
X133757165Y-113828680D01*
X133920460Y-113992260D01*
X134133925Y-114080898D01*
X134365061Y-114081100D01*
X134578680Y-113992835D01*
X134742260Y-113829540D01*
X134830898Y-113616075D01*
X134831100Y-113384939D01*
X134742835Y-113171320D01*
X134731000Y-113159464D01*
X134731000Y-112340000D01*
X144731017Y-112340000D01*
X144825757Y-112816288D01*
X145095552Y-113220065D01*
X145499329Y-113489860D01*
X145975617Y-113584600D01*
X146024383Y-113584600D01*
X146500671Y-113489860D01*
X146904448Y-113220065D01*
X147174243Y-112816288D01*
X147268983Y-112340000D01*
X147174243Y-111863712D01*
X146904448Y-111459935D01*
X146500671Y-111190140D01*
X146024383Y-111095400D01*
X145975617Y-111095400D01*
X145499329Y-111190140D01*
X145095552Y-111459935D01*
X144825757Y-111863712D01*
X144731017Y-112340000D01*
X134731000Y-112340000D01*
X134731000Y-110500000D01*
X134694386Y-110315929D01*
X134590118Y-110159882D01*
X131545297Y-107115061D01*
X132918900Y-107115061D01*
X133007165Y-107328680D01*
X133170460Y-107492260D01*
X133383925Y-107580898D01*
X133615061Y-107581100D01*
X133828680Y-107492835D01*
X133992260Y-107329540D01*
X134080898Y-107116075D01*
X134081100Y-106884939D01*
X133992835Y-106671320D01*
X133829540Y-106507740D01*
X133616075Y-106419102D01*
X133384939Y-106418900D01*
X133171320Y-106507165D01*
X133007740Y-106670460D01*
X132919102Y-106883925D01*
X132918900Y-107115061D01*
X131545297Y-107115061D01*
X122654219Y-98223983D01*
X135868804Y-98223983D01*
X136040625Y-98639823D01*
X136358503Y-98958256D01*
X136774043Y-99130804D01*
X137223983Y-99131196D01*
X137639823Y-98959375D01*
X137958256Y-98641497D01*
X138130804Y-98225957D01*
X138131196Y-97776017D01*
X137959375Y-97360177D01*
X137641497Y-97041744D01*
X137225957Y-96869196D01*
X136776017Y-96868804D01*
X136360177Y-97040625D01*
X136041744Y-97358503D01*
X135869196Y-97774043D01*
X135868804Y-98223983D01*
X122654219Y-98223983D01*
X118590118Y-94159882D01*
X118434071Y-94055614D01*
X118250000Y-94019000D01*
X93750000Y-94019000D01*
X93565929Y-94055614D01*
X93409881Y-94159882D01*
X89409882Y-98159882D01*
X89305614Y-98315929D01*
X89269000Y-98500000D01*
X89269000Y-105409220D01*
X89257740Y-105420460D01*
X89169102Y-105633925D01*
X89168900Y-105865061D01*
X51127000Y-105865061D01*
X51127000Y-93653983D01*
X135868804Y-93653983D01*
X136040625Y-94069823D01*
X136358503Y-94388256D01*
X136494979Y-94444926D01*
X136360177Y-94500625D01*
X136041744Y-94818503D01*
X135869196Y-95234043D01*
X135868804Y-95683983D01*
X136040625Y-96099823D01*
X136358503Y-96418256D01*
X136774043Y-96590804D01*
X137223983Y-96591196D01*
X137639823Y-96419375D01*
X137958256Y-96101497D01*
X138130804Y-95685957D01*
X138131196Y-95236017D01*
X137959375Y-94820177D01*
X137641497Y-94501744D01*
X137505021Y-94445074D01*
X137639823Y-94389375D01*
X137958256Y-94071497D01*
X138130804Y-93655957D01*
X138131196Y-93206017D01*
X137959375Y-92790177D01*
X137641497Y-92471744D01*
X137225957Y-92299196D01*
X136776017Y-92298804D01*
X136360177Y-92470625D01*
X136041744Y-92788503D01*
X135869196Y-93204043D01*
X135868804Y-93653983D01*
X51127000Y-93653983D01*
X51127000Y-91865061D01*
X128418900Y-91865061D01*
X128507165Y-92078680D01*
X128670460Y-92242260D01*
X128883925Y-92330898D01*
X129115061Y-92331100D01*
X129328680Y-92242835D01*
X129492260Y-92079540D01*
X129580898Y-91866075D01*
X129581100Y-91634939D01*
X129492835Y-91421320D01*
X129329540Y-91257740D01*
X129116075Y-91169102D01*
X128884939Y-91168900D01*
X128671320Y-91257165D01*
X128507740Y-91420460D01*
X128419102Y-91633925D01*
X128418900Y-91865061D01*
X51127000Y-91865061D01*
X51127000Y-88000000D01*
X83873000Y-88000000D01*
X83873000Y-89000000D01*
X83883006Y-89049410D01*
X83910197Y-89089803D01*
X83996949Y-89176555D01*
X84007165Y-89201280D01*
X84170460Y-89364860D01*
X84195759Y-89375365D01*
X84410197Y-89589803D01*
X84452211Y-89617666D01*
X84501754Y-89626988D01*
X84551022Y-89616300D01*
X84589803Y-89589803D01*
X84803955Y-89375651D01*
X84828680Y-89365435D01*
X84992260Y-89202140D01*
X85002765Y-89176841D01*
X85089803Y-89089803D01*
X85117666Y-89047789D01*
X85127000Y-89000000D01*
X85127000Y-88865061D01*
X122668900Y-88865061D01*
X122757165Y-89078680D01*
X122920460Y-89242260D01*
X123133925Y-89330898D01*
X123365061Y-89331100D01*
X123578680Y-89242835D01*
X123742260Y-89079540D01*
X123830898Y-88866075D01*
X123830898Y-88865061D01*
X124168900Y-88865061D01*
X124257165Y-89078680D01*
X124420460Y-89242260D01*
X124633925Y-89330898D01*
X124865061Y-89331100D01*
X125078680Y-89242835D01*
X125242260Y-89079540D01*
X125330898Y-88866075D01*
X125330898Y-88865061D01*
X125668900Y-88865061D01*
X125757165Y-89078680D01*
X125920460Y-89242260D01*
X126133925Y-89330898D01*
X126365061Y-89331100D01*
X126578680Y-89242835D01*
X126742260Y-89079540D01*
X126830898Y-88866075D01*
X126830898Y-88865061D01*
X127168900Y-88865061D01*
X127257165Y-89078680D01*
X127420460Y-89242260D01*
X127633925Y-89330898D01*
X127865061Y-89331100D01*
X128078680Y-89242835D01*
X128242260Y-89079540D01*
X128330898Y-88866075D01*
X128331100Y-88634939D01*
X128242835Y-88421320D01*
X128079540Y-88257740D01*
X127866075Y-88169102D01*
X127634939Y-88168900D01*
X127421320Y-88257165D01*
X127257740Y-88420460D01*
X127169102Y-88633925D01*
X127168900Y-88865061D01*
X126830898Y-88865061D01*
X126831100Y-88634939D01*
X126742835Y-88421320D01*
X126579540Y-88257740D01*
X126366075Y-88169102D01*
X126134939Y-88168900D01*
X125921320Y-88257165D01*
X125757740Y-88420460D01*
X125669102Y-88633925D01*
X125668900Y-88865061D01*
X125330898Y-88865061D01*
X125331100Y-88634939D01*
X125242835Y-88421320D01*
X125079540Y-88257740D01*
X124866075Y-88169102D01*
X124634939Y-88168900D01*
X124421320Y-88257165D01*
X124257740Y-88420460D01*
X124169102Y-88633925D01*
X124168900Y-88865061D01*
X123830898Y-88865061D01*
X123831100Y-88634939D01*
X123742835Y-88421320D01*
X123579540Y-88257740D01*
X123366075Y-88169102D01*
X123134939Y-88168900D01*
X122921320Y-88257165D01*
X122757740Y-88420460D01*
X122669102Y-88633925D01*
X122668900Y-88865061D01*
X85127000Y-88865061D01*
X85127000Y-88000000D01*
X85116994Y-87950590D01*
X85089803Y-87910197D01*
X85003051Y-87823445D01*
X84992835Y-87798720D01*
X84829540Y-87635140D01*
X84804241Y-87624635D01*
X84589803Y-87410197D01*
X84547789Y-87382334D01*
X84498246Y-87373012D01*
X84448978Y-87383700D01*
X84410197Y-87410197D01*
X84196045Y-87624349D01*
X84171320Y-87634565D01*
X84007740Y-87797860D01*
X83997235Y-87823159D01*
X83910197Y-87910197D01*
X83882334Y-87952211D01*
X83873000Y-88000000D01*
X51127000Y-88000000D01*
X51127000Y-79865061D01*
X97918900Y-79865061D01*
X98007165Y-80078680D01*
X98170460Y-80242260D01*
X98383925Y-80330898D01*
X98615061Y-80331100D01*
X98828680Y-80242835D01*
X98992260Y-80079540D01*
X99080898Y-79866075D01*
X99081100Y-79634939D01*
X99072887Y-79615061D01*
X99918900Y-79615061D01*
X100007165Y-79828680D01*
X100170460Y-79992260D01*
X100383925Y-80080898D01*
X100615061Y-80081100D01*
X100828680Y-79992835D01*
X100992260Y-79829540D01*
X101080898Y-79616075D01*
X101081100Y-79384939D01*
X100992835Y-79171320D01*
X100829540Y-79007740D01*
X100616075Y-78919102D01*
X100384939Y-78918900D01*
X100171320Y-79007165D01*
X100007740Y-79170460D01*
X99919102Y-79383925D01*
X99918900Y-79615061D01*
X99072887Y-79615061D01*
X98992835Y-79421320D01*
X98829540Y-79257740D01*
X98616075Y-79169102D01*
X98384939Y-79168900D01*
X98171320Y-79257165D01*
X98007740Y-79420460D01*
X97919102Y-79633925D01*
X97918900Y-79865061D01*
X51127000Y-79865061D01*
X51127000Y-69323003D01*
X66968718Y-69323003D01*
X67216499Y-69922680D01*
X67674907Y-70381888D01*
X68274151Y-70630716D01*
X68923003Y-70631282D01*
X69522680Y-70383501D01*
X69981888Y-69925093D01*
X70230716Y-69325849D01*
X70230718Y-69323003D01*
X98468718Y-69323003D01*
X98716499Y-69922680D01*
X99174907Y-70381888D01*
X99774151Y-70630716D01*
X100423003Y-70631282D01*
X101022680Y-70383501D01*
X101481888Y-69925093D01*
X101730716Y-69325849D01*
X101731282Y-68676997D01*
X101483501Y-68077320D01*
X101025093Y-67618112D01*
X100425849Y-67369284D01*
X99776997Y-67368718D01*
X99177320Y-67616499D01*
X98718112Y-68074907D01*
X98469284Y-68674151D01*
X98468718Y-69323003D01*
X70230718Y-69323003D01*
X70231282Y-68676997D01*
X69983501Y-68077320D01*
X69525093Y-67618112D01*
X68925849Y-67369284D01*
X68276997Y-67368718D01*
X67677320Y-67616499D01*
X67218112Y-68074907D01*
X66969284Y-68674151D01*
X66968718Y-69323003D01*
X51127000Y-69323003D01*
X51127000Y-64615061D01*
X67918900Y-64615061D01*
X68007165Y-64828680D01*
X68170460Y-64992260D01*
X68383925Y-65080898D01*
X68615061Y-65081100D01*
X68828680Y-64992835D01*
X68874938Y-64946658D01*
X68920460Y-64992260D01*
X69133925Y-65080898D01*
X69365061Y-65081100D01*
X69578680Y-64992835D01*
X69624938Y-64946658D01*
X69670460Y-64992260D01*
X69883925Y-65080898D01*
X70115061Y-65081100D01*
X70328680Y-64992835D01*
X70374938Y-64946658D01*
X70420460Y-64992260D01*
X70633925Y-65080898D01*
X70865061Y-65081100D01*
X71078680Y-64992835D01*
X71242260Y-64829540D01*
X71330898Y-64616075D01*
X71331100Y-64384939D01*
X71242835Y-64171320D01*
X71079540Y-64007740D01*
X71061119Y-64000091D01*
X71078680Y-63992835D01*
X71242260Y-63829540D01*
X71330898Y-63616075D01*
X71331100Y-63384939D01*
X71242835Y-63171320D01*
X71079540Y-63007740D01*
X70866075Y-62919102D01*
X70634939Y-62918900D01*
X70421320Y-63007165D01*
X70328982Y-63099342D01*
X70237540Y-63007740D01*
X70024075Y-62919102D01*
X69792939Y-62918900D01*
X69579320Y-63007165D01*
X69415740Y-63170460D01*
X69327102Y-63383925D01*
X69326900Y-63615061D01*
X69415165Y-63828680D01*
X69578460Y-63992260D01*
X69654586Y-64023870D01*
X69625062Y-64053342D01*
X69579540Y-64007740D01*
X69366075Y-63919102D01*
X69134939Y-63918900D01*
X68921320Y-64007165D01*
X68875062Y-64053342D01*
X68829540Y-64007740D01*
X68616075Y-63919102D01*
X68384939Y-63918900D01*
X68171320Y-64007165D01*
X68007740Y-64170460D01*
X67919102Y-64383925D01*
X67918900Y-64615061D01*
X51127000Y-64615061D01*
X51127000Y-57021042D01*
X61068685Y-57021042D01*
X61468386Y-57988395D01*
X62207853Y-58729152D01*
X63174506Y-59130542D01*
X64221182Y-59131455D01*
X65188535Y-58731754D01*
X65929292Y-57992287D01*
X66330682Y-57025634D01*
X66331476Y-56115061D01*
X109668900Y-56115061D01*
X109757165Y-56328680D01*
X109920460Y-56492260D01*
X110133925Y-56580898D01*
X110365061Y-56581100D01*
X110500069Y-56525316D01*
X110633925Y-56580898D01*
X110865061Y-56581100D01*
X111000069Y-56525316D01*
X111133925Y-56580898D01*
X111365061Y-56581100D01*
X111578680Y-56492835D01*
X111742260Y-56329540D01*
X111830898Y-56116075D01*
X111831100Y-55884939D01*
X111742835Y-55671320D01*
X111579540Y-55507740D01*
X111366075Y-55419102D01*
X111134939Y-55418900D01*
X110999931Y-55474684D01*
X110866075Y-55419102D01*
X110634939Y-55418900D01*
X110499931Y-55474684D01*
X110366075Y-55419102D01*
X110134939Y-55418900D01*
X109921320Y-55507165D01*
X109757740Y-55670460D01*
X109669102Y-55883925D01*
X109668900Y-56115061D01*
X66331476Y-56115061D01*
X66331595Y-55978958D01*
X65931894Y-55011605D01*
X65286476Y-54365061D01*
X78168900Y-54365061D01*
X78257165Y-54578680D01*
X78420460Y-54742260D01*
X78633925Y-54830898D01*
X78865061Y-54831100D01*
X79078680Y-54742835D01*
X79124938Y-54696658D01*
X79170460Y-54742260D01*
X79383925Y-54830898D01*
X79615061Y-54831100D01*
X79828680Y-54742835D01*
X79874938Y-54696658D01*
X79920460Y-54742260D01*
X80133925Y-54830898D01*
X80365061Y-54831100D01*
X80578680Y-54742835D01*
X80742260Y-54579540D01*
X80830898Y-54366075D01*
X80831100Y-54134939D01*
X80742835Y-53921320D01*
X80579540Y-53757740D01*
X80366075Y-53669102D01*
X80134939Y-53668900D01*
X79921320Y-53757165D01*
X79875062Y-53803342D01*
X79829540Y-53757740D01*
X79616075Y-53669102D01*
X79384939Y-53668900D01*
X79171320Y-53757165D01*
X79125062Y-53803342D01*
X79079540Y-53757740D01*
X78866075Y-53669102D01*
X78634939Y-53668900D01*
X78421320Y-53757165D01*
X78257740Y-53920460D01*
X78169102Y-54133925D01*
X78168900Y-54365061D01*
X65286476Y-54365061D01*
X65192427Y-54270848D01*
X64225774Y-53869458D01*
X63179098Y-53868545D01*
X62211745Y-54268246D01*
X61470988Y-55007713D01*
X61069598Y-55974366D01*
X61068685Y-57021042D01*
X51127000Y-57021042D01*
X51127000Y-52365061D01*
X86668900Y-52365061D01*
X86757165Y-52578680D01*
X86920460Y-52742260D01*
X87133925Y-52830898D01*
X87365061Y-52831100D01*
X87578680Y-52742835D01*
X87742260Y-52579540D01*
X87749909Y-52561119D01*
X87757165Y-52578680D01*
X87920460Y-52742260D01*
X88133925Y-52830898D01*
X88365061Y-52831100D01*
X88578680Y-52742835D01*
X88742260Y-52579540D01*
X88749909Y-52561119D01*
X88757165Y-52578680D01*
X88920460Y-52742260D01*
X89133925Y-52830898D01*
X89365061Y-52831100D01*
X89578680Y-52742835D01*
X89742260Y-52579540D01*
X89749909Y-52561119D01*
X89757165Y-52578680D01*
X89920460Y-52742260D01*
X90133925Y-52830898D01*
X90365061Y-52831100D01*
X90578680Y-52742835D01*
X90742260Y-52579540D01*
X90830898Y-52366075D01*
X90831100Y-52134939D01*
X90742835Y-51921320D01*
X90579540Y-51757740D01*
X90366075Y-51669102D01*
X90134939Y-51668900D01*
X89921320Y-51757165D01*
X89757740Y-51920460D01*
X89750091Y-51938881D01*
X89742835Y-51921320D01*
X89579540Y-51757740D01*
X89366075Y-51669102D01*
X89134939Y-51668900D01*
X88921320Y-51757165D01*
X88757740Y-51920460D01*
X88750091Y-51938881D01*
X88742835Y-51921320D01*
X88579540Y-51757740D01*
X88366075Y-51669102D01*
X88134939Y-51668900D01*
X87921320Y-51757165D01*
X87757740Y-51920460D01*
X87750091Y-51938881D01*
X87742835Y-51921320D01*
X87579540Y-51757740D01*
X87366075Y-51669102D01*
X87134939Y-51668900D01*
X86921320Y-51757165D01*
X86757740Y-51920460D01*
X86669102Y-52133925D01*
X86668900Y-52365061D01*
X51127000Y-52365061D01*
X51127000Y-51127000D01*
X112197394Y-51127000D01*
X112873000Y-51802606D01*
G36*
X122269000Y-109199237D02*
X122269000Y-111000000D01*
X122295841Y-111134939D01*
X122305614Y-111184071D01*
X122409882Y-111340118D01*
X122909882Y-111840119D01*
X123003426Y-111902622D01*
X123065929Y-111944386D01*
X123250000Y-111981000D01*
X129550764Y-111981000D01*
X131238755Y-113668991D01*
X131134939Y-113668900D01*
X130921320Y-113757165D01*
X130757740Y-113920460D01*
X130669102Y-114133925D01*
X130669087Y-114150676D01*
X129300764Y-115519000D01*
X124949236Y-115519000D01*
X124761245Y-115331009D01*
X124865061Y-115331100D01*
X125078680Y-115242835D01*
X125242260Y-115079540D01*
X125330898Y-114866075D01*
X125331100Y-114634939D01*
X125242835Y-114421320D01*
X125079540Y-114257740D01*
X124866075Y-114169102D01*
X124849323Y-114169087D01*
X123090118Y-112409882D01*
X122934071Y-112305614D01*
X122750000Y-112269000D01*
X122197620Y-112269000D01*
X117934620Y-108006001D01*
X121075765Y-108006001D01*
X122269000Y-109199237D01*
X122269000Y-109199237D01*
G37*
X122269000Y-109199237D02*
X122269000Y-111000000D01*
X122295841Y-111134939D01*
X122305614Y-111184071D01*
X122409882Y-111340118D01*
X122909882Y-111840119D01*
X123003426Y-111902622D01*
X123065929Y-111944386D01*
X123250000Y-111981000D01*
X129550764Y-111981000D01*
X131238755Y-113668991D01*
X131134939Y-113668900D01*
X130921320Y-113757165D01*
X130757740Y-113920460D01*
X130669102Y-114133925D01*
X130669087Y-114150676D01*
X129300764Y-115519000D01*
X124949236Y-115519000D01*
X124761245Y-115331009D01*
X124865061Y-115331100D01*
X125078680Y-115242835D01*
X125242260Y-115079540D01*
X125330898Y-114866075D01*
X125331100Y-114634939D01*
X125242835Y-114421320D01*
X125079540Y-114257740D01*
X124866075Y-114169102D01*
X124849323Y-114169087D01*
X123090118Y-112409882D01*
X122934071Y-112305614D01*
X122750000Y-112269000D01*
X122197620Y-112269000D01*
X117934620Y-108006001D01*
X121075765Y-108006001D01*
X122269000Y-109199237D01*
G36*
X115224999Y-109955999D02*
X115775763Y-109955999D01*
X119588764Y-113769000D01*
X118922235Y-113769000D01*
X115080489Y-109927254D01*
X115224999Y-109955999D01*
X115224999Y-109955999D01*
G37*
X115224999Y-109955999D02*
X115775763Y-109955999D01*
X119588764Y-113769000D01*
X118922235Y-113769000D01*
X115080489Y-109927254D01*
X115224999Y-109955999D01*
G36*
X114409882Y-98063117D02*
X114565930Y-98167385D01*
X114750000Y-98203998D01*
X116773762Y-98203998D01*
X129588763Y-111019000D01*
X123449237Y-111019000D01*
X123231000Y-110800764D01*
X123231000Y-109000000D01*
X123194386Y-108815929D01*
X123137649Y-108731017D01*
X123090119Y-108659882D01*
X121615119Y-107184883D01*
X121459072Y-107080615D01*
X121275001Y-107044001D01*
X116974238Y-107044001D01*
X116090118Y-106159882D01*
X115934071Y-106055614D01*
X115750000Y-106019000D01*
X114868790Y-106019000D01*
X114455999Y-105606209D01*
X114455999Y-103115061D01*
X118168900Y-103115061D01*
X118257165Y-103328680D01*
X118420460Y-103492260D01*
X118633925Y-103580898D01*
X118865061Y-103581100D01*
X119078680Y-103492835D01*
X119242260Y-103329540D01*
X119330898Y-103116075D01*
X119331100Y-102884939D01*
X119242835Y-102671320D01*
X119079540Y-102507740D01*
X118866075Y-102419102D01*
X118634939Y-102418900D01*
X118421320Y-102507165D01*
X118257740Y-102670460D01*
X118169102Y-102883925D01*
X118168900Y-103115061D01*
X114455999Y-103115061D01*
X114455999Y-102830961D01*
X114615061Y-102831100D01*
X114828680Y-102742835D01*
X114992260Y-102579540D01*
X115080898Y-102366075D01*
X115081100Y-102134939D01*
X114992835Y-101921320D01*
X114829540Y-101757740D01*
X114616075Y-101669102D01*
X114455999Y-101668962D01*
X114455999Y-101375689D01*
X114481000Y-101250000D01*
X114444386Y-101065930D01*
X114444386Y-101065929D01*
X114340119Y-100909881D01*
X114340113Y-100909877D01*
X112795358Y-99365122D01*
X112883925Y-99401898D01*
X113115061Y-99402100D01*
X113328680Y-99313835D01*
X113492260Y-99150540D01*
X113580898Y-98937075D01*
X113581010Y-98808926D01*
X113633925Y-98830898D01*
X113865061Y-98831100D01*
X114078680Y-98742835D01*
X114242260Y-98579540D01*
X114330898Y-98366075D01*
X114331100Y-98134939D01*
X114242835Y-97921320D01*
X114196658Y-97875062D01*
X114209254Y-97862489D01*
X114409882Y-98063117D01*
X114409882Y-98063117D01*
G37*
X114409882Y-98063117D02*
X114565930Y-98167385D01*
X114750000Y-98203998D01*
X116773762Y-98203998D01*
X129588763Y-111019000D01*
X123449237Y-111019000D01*
X123231000Y-110800764D01*
X123231000Y-109000000D01*
X123194386Y-108815929D01*
X123137649Y-108731017D01*
X123090119Y-108659882D01*
X121615119Y-107184883D01*
X121459072Y-107080615D01*
X121275001Y-107044001D01*
X116974238Y-107044001D01*
X116090118Y-106159882D01*
X115934071Y-106055614D01*
X115750000Y-106019000D01*
X114868790Y-106019000D01*
X114455999Y-105606209D01*
X114455999Y-103115061D01*
X118168900Y-103115061D01*
X118257165Y-103328680D01*
X118420460Y-103492260D01*
X118633925Y-103580898D01*
X118865061Y-103581100D01*
X119078680Y-103492835D01*
X119242260Y-103329540D01*
X119330898Y-103116075D01*
X119331100Y-102884939D01*
X119242835Y-102671320D01*
X119079540Y-102507740D01*
X118866075Y-102419102D01*
X118634939Y-102418900D01*
X118421320Y-102507165D01*
X118257740Y-102670460D01*
X118169102Y-102883925D01*
X118168900Y-103115061D01*
X114455999Y-103115061D01*
X114455999Y-102830961D01*
X114615061Y-102831100D01*
X114828680Y-102742835D01*
X114992260Y-102579540D01*
X115080898Y-102366075D01*
X115081100Y-102134939D01*
X114992835Y-101921320D01*
X114829540Y-101757740D01*
X114616075Y-101669102D01*
X114455999Y-101668962D01*
X114455999Y-101375689D01*
X114481000Y-101250000D01*
X114444386Y-101065930D01*
X114444386Y-101065929D01*
X114340119Y-100909881D01*
X114340113Y-100909877D01*
X112795358Y-99365122D01*
X112883925Y-99401898D01*
X113115061Y-99402100D01*
X113328680Y-99313835D01*
X113492260Y-99150540D01*
X113580898Y-98937075D01*
X113581010Y-98808926D01*
X113633925Y-98830898D01*
X113865061Y-98831100D01*
X114078680Y-98742835D01*
X114242260Y-98579540D01*
X114330898Y-98366075D01*
X114331100Y-98134939D01*
X114242835Y-97921320D01*
X114196658Y-97875062D01*
X114209254Y-97862489D01*
X114409882Y-98063117D01*
G36*
X109434883Y-103865120D02*
X109590931Y-103969388D01*
X109775001Y-104006001D01*
X110325765Y-104006001D01*
X112519000Y-106199236D01*
X112519000Y-107250000D01*
X112547745Y-107394510D01*
X104134234Y-98981000D01*
X104550764Y-98981000D01*
X109434883Y-103865120D01*
X109434883Y-103865120D01*
G37*
X109434883Y-103865120D02*
X109590931Y-103969388D01*
X109775001Y-104006001D01*
X110325765Y-104006001D01*
X112519000Y-106199236D01*
X112519000Y-107250000D01*
X112547745Y-107394510D01*
X104134234Y-98981000D01*
X104550764Y-98981000D01*
X109434883Y-103865120D01*
G36*
X109909881Y-97840118D02*
X109909884Y-97840120D01*
X113493999Y-101424235D01*
X113493999Y-104590764D01*
X106634234Y-97731000D01*
X109800763Y-97731000D01*
X109909881Y-97840118D01*
X109909881Y-97840118D01*
G37*
X109909881Y-97840118D02*
X109909884Y-97840120D01*
X113493999Y-101424235D01*
X113493999Y-104590764D01*
X106634234Y-97731000D01*
X109800763Y-97731000D01*
X109909881Y-97840118D01*
M02*
