G04 #@! TF.FileFunction,Paste,Top*
%FSLAX46Y46*%
G04 Gerber Fmt 4.6, Leading zero omitted, Abs format (unit mm)*
G04 Created by KiCad (PCBNEW 4.0.7) date 05/19/19 12:52:10*
%MOMM*%
%LPD*%
G01*
G04 APERTURE LIST*
%ADD10C,0.100000*%
%ADD11R,2.000000X0.500000*%
%ADD12R,1.050000X0.650000*%
%ADD13R,1.000000X1.250000*%
%ADD14R,0.800000X0.750000*%
%ADD15R,0.750000X0.800000*%
%ADD16R,1.250000X1.000000*%
%ADD17R,0.650000X1.050000*%
%ADD18R,0.900000X0.250000*%
%ADD19R,0.900000X0.550000*%
%ADD20R,1.900000X1.400000*%
%ADD21R,1.130000X2.440000*%
%ADD22R,1.143000X0.508000*%
%ADD23R,2.613000X3.502000*%
%ADD24R,1.500000X0.300000*%
%ADD25R,0.300000X1.500000*%
%ADD26R,5.200000X5.200000*%
%ADD27R,4.700000X1.250000*%
%ADD28R,0.900000X0.400000*%
%ADD29R,1.600000X0.350000*%
%ADD30R,0.350000X1.600000*%
%ADD31R,1.400000X1.000000*%
%ADD32R,1.550000X0.600000*%
%ADD33R,1.800000X1.200000*%
%ADD34R,0.600000X1.550000*%
%ADD35R,1.200000X1.800000*%
G04 APERTURE END LIST*
D10*
D11*
X63350000Y-128850000D03*
X67750000Y-128850000D03*
X63350000Y-128050000D03*
X67750000Y-128050000D03*
X63350000Y-127250000D03*
X67750000Y-127250000D03*
X63350000Y-126450000D03*
X67750000Y-126450000D03*
X63350000Y-125650000D03*
X67750000Y-125650000D03*
X63350000Y-124850000D03*
X67750000Y-124850000D03*
X63350000Y-124050000D03*
X67750000Y-124050000D03*
X63350000Y-123250000D03*
X67750000Y-123250000D03*
X63350000Y-122450000D03*
X67750000Y-122450000D03*
X63350000Y-121650000D03*
X67750000Y-121650000D03*
X63350000Y-120850000D03*
X67750000Y-120850000D03*
X63350000Y-120050000D03*
X67750000Y-120050000D03*
X63350000Y-119250000D03*
X67750000Y-119250000D03*
X63350000Y-118450000D03*
X67750000Y-118450000D03*
X63350000Y-117650000D03*
X67750000Y-117650000D03*
X63350000Y-116850000D03*
X67750000Y-116850000D03*
X63350000Y-116050000D03*
X67750000Y-116050000D03*
X63350000Y-115250000D03*
X67750000Y-115250000D03*
X63350000Y-114450000D03*
X67750000Y-114450000D03*
X63350000Y-113650000D03*
X67750000Y-113650000D03*
X63350000Y-112850000D03*
X67750000Y-112850000D03*
X63350000Y-112050000D03*
X67750000Y-112050000D03*
X63350000Y-111250000D03*
X67750000Y-111250000D03*
X63350000Y-110450000D03*
X67750000Y-110450000D03*
X63350000Y-109650000D03*
X67750000Y-109650000D03*
X63350000Y-108850000D03*
X67750000Y-108850000D03*
X63350000Y-108050000D03*
X67750000Y-108050000D03*
X63350000Y-107250000D03*
X67750000Y-107250000D03*
X63350000Y-106450000D03*
X67750000Y-106450000D03*
X63350000Y-105650000D03*
X67750000Y-105650000D03*
D12*
X124750000Y-107850000D03*
X120600000Y-107850000D03*
X124750000Y-105700000D03*
X120600000Y-105700000D03*
D13*
X80000000Y-57500000D03*
X82000000Y-57500000D03*
X80000000Y-55500000D03*
X82000000Y-55500000D03*
D14*
X73500000Y-63500000D03*
X72000000Y-63500000D03*
X73500000Y-60500000D03*
X72000000Y-60500000D03*
D15*
X95000000Y-52750000D03*
X95000000Y-51250000D03*
X95000000Y-59000000D03*
X95000000Y-57500000D03*
X118700000Y-106950000D03*
X118700000Y-108450000D03*
D14*
X86000000Y-63000000D03*
X84500000Y-63000000D03*
D15*
X116500000Y-105500000D03*
X116500000Y-107000000D03*
D13*
X85500000Y-55000000D03*
X83500000Y-55000000D03*
X85500000Y-53000000D03*
X83500000Y-53000000D03*
X105500000Y-52000000D03*
X107500000Y-52000000D03*
D16*
X106000000Y-59500000D03*
X106000000Y-57500000D03*
D14*
X114500000Y-103000000D03*
X113000000Y-103000000D03*
D16*
X115500000Y-54500000D03*
X115500000Y-52500000D03*
D14*
X118750000Y-65000000D03*
X120250000Y-65000000D03*
X126500000Y-63500000D03*
X125000000Y-63500000D03*
X113750000Y-67000000D03*
X112250000Y-67000000D03*
X126500000Y-65000000D03*
X125000000Y-65000000D03*
X126500000Y-66500000D03*
X125000000Y-66500000D03*
D15*
X110500000Y-61000000D03*
X110500000Y-62500000D03*
X110500000Y-59500000D03*
X110500000Y-58000000D03*
X109500000Y-81500000D03*
X109500000Y-80000000D03*
D16*
X115500000Y-59500000D03*
X115500000Y-57500000D03*
D15*
X125000000Y-79250000D03*
X125000000Y-80750000D03*
X125000000Y-69750000D03*
X125000000Y-68250000D03*
D14*
X121750000Y-67500000D03*
X123250000Y-67500000D03*
D15*
X109500000Y-72500000D03*
X109500000Y-74000000D03*
X116500000Y-65500000D03*
X116500000Y-64000000D03*
X109500000Y-77500000D03*
X109500000Y-76000000D03*
D14*
X137350000Y-65650000D03*
X135850000Y-65650000D03*
X112500000Y-82500000D03*
X111000000Y-82500000D03*
X137350000Y-64150000D03*
X135850000Y-64150000D03*
X137350000Y-68650000D03*
X135850000Y-68650000D03*
X121250000Y-82500000D03*
X122750000Y-82500000D03*
X137350000Y-67150000D03*
X135850000Y-67150000D03*
X137350000Y-70150000D03*
X135850000Y-70150000D03*
X137350000Y-71650000D03*
X135850000Y-71650000D03*
D15*
X121400000Y-53950000D03*
X121400000Y-52450000D03*
X105100000Y-68450000D03*
X105100000Y-66950000D03*
D14*
X127350000Y-53050000D03*
X128850000Y-53050000D03*
X140050000Y-78450000D03*
X138550000Y-78450000D03*
X140050000Y-74350000D03*
X138550000Y-74350000D03*
D15*
X119600000Y-58550000D03*
X119600000Y-60050000D03*
D14*
X121250000Y-62600000D03*
X122750000Y-62600000D03*
X119850000Y-63000000D03*
X118350000Y-63000000D03*
D16*
X112400000Y-56000000D03*
X112400000Y-58000000D03*
D14*
X131000000Y-62500000D03*
X132500000Y-62500000D03*
D15*
X132000000Y-132750000D03*
X132000000Y-131250000D03*
X132000000Y-119750000D03*
X132000000Y-118250000D03*
D14*
X113750000Y-113500000D03*
X115250000Y-113500000D03*
X73500000Y-62000000D03*
X72000000Y-62000000D03*
D15*
X72000000Y-57500000D03*
X72000000Y-59000000D03*
X118700000Y-105550000D03*
X118700000Y-104050000D03*
D14*
X95000000Y-56000000D03*
X93500000Y-56000000D03*
X95000000Y-62500000D03*
X93500000Y-62500000D03*
D15*
X73500000Y-57500000D03*
X73500000Y-59000000D03*
D14*
X77500000Y-57500000D03*
X76000000Y-57500000D03*
X135000000Y-57500000D03*
X136500000Y-57500000D03*
X107500000Y-54500000D03*
X106000000Y-54500000D03*
X107500000Y-56000000D03*
X106000000Y-56000000D03*
X107500000Y-61000000D03*
X106000000Y-61000000D03*
X107500000Y-62500000D03*
X106000000Y-62500000D03*
X93500000Y-54500000D03*
X95000000Y-54500000D03*
X93500000Y-61000000D03*
X95000000Y-61000000D03*
X108250000Y-104600000D03*
X109750000Y-104600000D03*
D15*
X108250000Y-103050000D03*
X108250000Y-101550000D03*
X110500000Y-114000000D03*
X110500000Y-112500000D03*
X110500000Y-117500000D03*
X110500000Y-116000000D03*
X109000000Y-114000000D03*
X109000000Y-112500000D03*
X109000000Y-117500000D03*
X109000000Y-116000000D03*
X107500000Y-114000000D03*
X107500000Y-112500000D03*
X107500000Y-117500000D03*
X107500000Y-116000000D03*
D14*
X113750000Y-54500000D03*
X112250000Y-54500000D03*
D15*
X105950000Y-70350000D03*
X105950000Y-71850000D03*
X107450000Y-71850000D03*
X107450000Y-70350000D03*
D14*
X117250000Y-54500000D03*
X118750000Y-54500000D03*
X113750000Y-61000000D03*
X112250000Y-61000000D03*
X113750000Y-59500000D03*
X112250000Y-59500000D03*
X105250000Y-78000000D03*
X106750000Y-78000000D03*
X126500000Y-82500000D03*
X125000000Y-82500000D03*
X105250000Y-79500000D03*
X106750000Y-79500000D03*
D15*
X124750000Y-87750000D03*
X124750000Y-86250000D03*
X124750000Y-91500000D03*
X124750000Y-90000000D03*
X127750000Y-87750000D03*
X127750000Y-86250000D03*
X127750000Y-91500000D03*
X127750000Y-90000000D03*
X126250000Y-87750000D03*
X126250000Y-86250000D03*
X126250000Y-91500000D03*
X126250000Y-90000000D03*
X123250000Y-87750000D03*
X123250000Y-86250000D03*
X123250000Y-91500000D03*
X123250000Y-90000000D03*
D14*
X119600000Y-57050000D03*
X118100000Y-57050000D03*
X106850000Y-65600000D03*
X108350000Y-65600000D03*
X115250000Y-115000000D03*
X113750000Y-115000000D03*
X125250000Y-55250000D03*
X123750000Y-55250000D03*
X105500000Y-97500000D03*
X107000000Y-97500000D03*
D15*
X131100000Y-60800000D03*
X131100000Y-59300000D03*
D14*
X124500000Y-138500000D03*
X123000000Y-138500000D03*
X114000000Y-138500000D03*
X112500000Y-138500000D03*
X127500000Y-138500000D03*
X126000000Y-138500000D03*
X117000000Y-138500000D03*
X115500000Y-138500000D03*
X130500000Y-138500000D03*
X129000000Y-138500000D03*
X120000000Y-138500000D03*
X118500000Y-138500000D03*
D17*
X109800000Y-135950000D03*
X109800000Y-131800000D03*
X111950000Y-135950000D03*
X111950000Y-131800000D03*
X109800000Y-129850000D03*
X109800000Y-125700000D03*
X111950000Y-129850000D03*
X111950000Y-125700000D03*
D15*
X67000000Y-54100000D03*
X67000000Y-52600000D03*
D13*
X68500000Y-59500000D03*
X66500000Y-59500000D03*
D14*
X68500000Y-61500000D03*
X67000000Y-61500000D03*
X68500000Y-63000000D03*
X67000000Y-63000000D03*
D18*
X144280000Y-65150000D03*
X144280000Y-65650000D03*
X144280000Y-66150000D03*
X144280000Y-66650000D03*
X144280000Y-67150000D03*
X144280000Y-67650000D03*
X144280000Y-68150000D03*
X144280000Y-68650000D03*
X144280000Y-69150000D03*
X144280000Y-69650000D03*
X144280000Y-70150000D03*
X144280000Y-70650000D03*
X144280000Y-71150000D03*
X144280000Y-71650000D03*
X144280000Y-72150000D03*
X144280000Y-72650000D03*
X144280000Y-73150000D03*
X144280000Y-73650000D03*
X144280000Y-74150000D03*
X144280000Y-74650000D03*
X144280000Y-75153000D03*
X144280000Y-75650000D03*
X144280000Y-76150000D03*
X144280000Y-76650000D03*
X144280000Y-77150000D03*
X144280000Y-77650000D03*
X144280000Y-78150000D03*
X144280000Y-78650000D03*
X144280000Y-79150000D03*
X144280000Y-79650000D03*
D19*
X144280000Y-64250000D03*
X144280000Y-80550000D03*
D20*
X147100000Y-62050000D03*
X147100000Y-82750000D03*
D21*
X124920000Y-147670000D03*
X124920000Y-141500000D03*
X127460000Y-147670000D03*
X127460000Y-141500000D03*
X130000000Y-147670000D03*
X130000000Y-141500000D03*
X114420000Y-147670000D03*
X114420000Y-141500000D03*
X116960000Y-147670000D03*
X116960000Y-141500000D03*
X119500000Y-147670000D03*
X119500000Y-141500000D03*
D22*
X76000000Y-63040000D03*
X76000000Y-61770000D03*
X76000000Y-60500000D03*
X76000000Y-59230000D03*
X82350000Y-59230000D03*
X82350000Y-60500000D03*
X82350000Y-61770000D03*
X82350000Y-63040000D03*
X103675000Y-52690000D03*
X103675000Y-53960000D03*
X103675000Y-55230000D03*
X103675000Y-56500000D03*
X97325000Y-56500000D03*
X97325000Y-55230000D03*
X97325000Y-53960000D03*
X97325000Y-52690000D03*
D23*
X100500000Y-54595000D03*
D22*
X103675000Y-59095000D03*
X103675000Y-60365000D03*
X103675000Y-61635000D03*
X103675000Y-62905000D03*
X97325000Y-62905000D03*
X97325000Y-61635000D03*
X97325000Y-60365000D03*
X97325000Y-59095000D03*
D23*
X100500000Y-61000000D03*
D24*
X111700000Y-71150000D03*
X111700000Y-71650000D03*
X111700000Y-72150000D03*
X111700000Y-72650000D03*
X111700000Y-73150000D03*
X111700000Y-73650000D03*
X111700000Y-74150000D03*
X111700000Y-74650000D03*
X111700000Y-75150000D03*
X111700000Y-75650000D03*
X111700000Y-76150000D03*
X111700000Y-76650000D03*
X111700000Y-77150000D03*
X111700000Y-77650000D03*
X111700000Y-78150000D03*
X111700000Y-78650000D03*
D25*
X113650000Y-80600000D03*
X114150000Y-80600000D03*
X114650000Y-80600000D03*
X115150000Y-80600000D03*
X115650000Y-80600000D03*
X116150000Y-80600000D03*
X116650000Y-80600000D03*
X117150000Y-80600000D03*
X117650000Y-80600000D03*
X118150000Y-80600000D03*
X118650000Y-80600000D03*
X119150000Y-80600000D03*
X119650000Y-80600000D03*
X120150000Y-80600000D03*
X120650000Y-80600000D03*
X121150000Y-80600000D03*
D24*
X123100000Y-78650000D03*
X123100000Y-78150000D03*
X123100000Y-77650000D03*
X123100000Y-77150000D03*
X123100000Y-76650000D03*
X123100000Y-76150000D03*
X123100000Y-75650000D03*
X123100000Y-75150000D03*
X123100000Y-74650000D03*
X123100000Y-74150000D03*
X123100000Y-73650000D03*
X123100000Y-73150000D03*
X123100000Y-72650000D03*
X123100000Y-72150000D03*
X123100000Y-71650000D03*
X123100000Y-71150000D03*
D25*
X121150000Y-69200000D03*
X120650000Y-69200000D03*
X120150000Y-69200000D03*
X119650000Y-69200000D03*
X119150000Y-69200000D03*
X118650000Y-69200000D03*
X118150000Y-69200000D03*
X117650000Y-69200000D03*
X117150000Y-69200000D03*
X116650000Y-69200000D03*
X116150000Y-69200000D03*
X115650000Y-69200000D03*
X115150000Y-69200000D03*
X114650000Y-69200000D03*
X114150000Y-69200000D03*
X113650000Y-69200000D03*
D26*
X117400000Y-74900000D03*
D15*
X68500000Y-57750000D03*
X68500000Y-56250000D03*
X118100000Y-58550000D03*
X118100000Y-60050000D03*
D27*
X87000000Y-60625000D03*
X87000000Y-57375000D03*
D28*
X114750000Y-108550000D03*
X114750000Y-107900000D03*
X114750000Y-107250000D03*
X112550000Y-108550000D03*
X112550000Y-107250000D03*
X112550000Y-104600000D03*
X112550000Y-105250000D03*
X112550000Y-105900000D03*
X114750000Y-105250000D03*
X114750000Y-105900000D03*
X114750000Y-104600000D03*
X109050000Y-68600000D03*
X109050000Y-67950000D03*
X109050000Y-67300000D03*
X106850000Y-68600000D03*
X106850000Y-67300000D03*
X137900000Y-75750000D03*
X137900000Y-76400000D03*
X137900000Y-77050000D03*
X140100000Y-75750000D03*
X140100000Y-77050000D03*
X137900000Y-79850000D03*
X137900000Y-80500000D03*
X137900000Y-81150000D03*
X140100000Y-79850000D03*
X140100000Y-81150000D03*
D29*
X121700000Y-57050000D03*
X121700000Y-57700000D03*
X121700000Y-58350000D03*
X121700000Y-59000000D03*
X121700000Y-59650000D03*
X121700000Y-60300000D03*
X121700000Y-60950000D03*
X127300000Y-60950000D03*
X127300000Y-60300000D03*
X127300000Y-59650000D03*
X127300000Y-59000000D03*
X127300000Y-58350000D03*
X127300000Y-57700000D03*
X127300000Y-57050000D03*
D30*
X130275000Y-127200000D03*
X129625000Y-127200000D03*
X128975000Y-127200000D03*
X128325000Y-127200000D03*
X127675000Y-127200000D03*
X127025000Y-127200000D03*
X126375000Y-127200000D03*
X125725000Y-127200000D03*
X130275000Y-132800000D03*
X129625000Y-132800000D03*
X128975000Y-132800000D03*
X128325000Y-132800000D03*
X127675000Y-132800000D03*
X127025000Y-132800000D03*
X126375000Y-132800000D03*
X125725000Y-132800000D03*
X130275000Y-114200000D03*
X129625000Y-114200000D03*
X128975000Y-114200000D03*
X128325000Y-114200000D03*
X127675000Y-114200000D03*
X127025000Y-114200000D03*
X126375000Y-114200000D03*
X125725000Y-114200000D03*
X130275000Y-119800000D03*
X129625000Y-119800000D03*
X128975000Y-119800000D03*
X128325000Y-119800000D03*
X127675000Y-119800000D03*
X127025000Y-119800000D03*
X126375000Y-119800000D03*
X125725000Y-119800000D03*
D31*
X123300000Y-53000000D03*
X125500000Y-53000000D03*
X123300000Y-51400000D03*
X125500000Y-51400000D03*
D14*
X135000000Y-59000000D03*
X136500000Y-59000000D03*
D15*
X114500000Y-65500000D03*
X114500000Y-64000000D03*
D14*
X129000000Y-77000000D03*
X130500000Y-77000000D03*
D15*
X125000000Y-72750000D03*
X125000000Y-71250000D03*
X126500000Y-72750000D03*
X126500000Y-71250000D03*
D14*
X113000000Y-110000000D03*
X114500000Y-110000000D03*
D32*
X142975000Y-52700000D03*
X142975000Y-53700000D03*
X142975000Y-54700000D03*
X142975000Y-55700000D03*
X142975000Y-56700000D03*
X142975000Y-57700000D03*
D33*
X145500000Y-51400000D03*
X145500000Y-59000000D03*
D14*
X140500000Y-57500000D03*
X139000000Y-57500000D03*
X140500000Y-59000000D03*
X139000000Y-59000000D03*
X140500000Y-60500000D03*
X139000000Y-60500000D03*
D34*
X116200000Y-124525000D03*
X117200000Y-124525000D03*
X118200000Y-124525000D03*
D35*
X114900000Y-122000000D03*
X119500000Y-122000000D03*
M02*
