G04 #@! TF.FileFunction,Legend,Top*
%FSLAX46Y46*%
G04 Gerber Fmt 4.6, Leading zero omitted, Abs format (unit mm)*
G04 Created by KiCad (PCBNEW 4.0.7) date 05/19/19 12:52:10*
%MOMM*%
%LPD*%
G01*
G04 APERTURE LIST*
%ADD10C,0.100000*%
%ADD11C,0.200000*%
%ADD12C,0.300000*%
%ADD13C,0.127000*%
%ADD14C,0.400000*%
%ADD15C,0.150000*%
%ADD16C,0.120000*%
%ADD17C,0.500000*%
%ADD18C,0.250000*%
G04 APERTURE END LIST*
D10*
D11*
X141500000Y-59000000D02*
X141250000Y-59000000D01*
X141500000Y-59250000D02*
X141500000Y-59000000D01*
X115700000Y-112200000D02*
X115700000Y-112100000D01*
X115700000Y-112200000D02*
X115800000Y-112200000D01*
X115900000Y-112000000D02*
X115700000Y-112200000D01*
X116100000Y-112400000D02*
X116200000Y-112400000D01*
X116100000Y-112300000D02*
X116100000Y-112400000D01*
X116100000Y-112400000D02*
X116100000Y-112300000D01*
X116300000Y-112200000D02*
X116100000Y-112400000D01*
X116200000Y-111700000D02*
X115900000Y-111700000D01*
X116700000Y-111300000D02*
X116700000Y-111700000D01*
X116200000Y-111700000D02*
X116700000Y-111300000D01*
X116700000Y-112100000D02*
X116200000Y-111700000D01*
X116700000Y-111700000D02*
X116700000Y-112100000D01*
X117000000Y-111700000D02*
X116700000Y-111700000D01*
D12*
X116764286Y-115178571D02*
X116764286Y-113678571D01*
X118335715Y-115178571D02*
X117835715Y-114464286D01*
X117478572Y-115178571D02*
X117478572Y-113678571D01*
X118050000Y-113678571D01*
X118192858Y-113750000D01*
X118264286Y-113821429D01*
X118335715Y-113964286D01*
X118335715Y-114178571D01*
X118264286Y-114321429D01*
X118192858Y-114392857D01*
X118050000Y-114464286D01*
X117478572Y-114464286D01*
X119978572Y-115321429D02*
X119835715Y-115250000D01*
X119692858Y-115107143D01*
X119478572Y-114892857D01*
X119335715Y-114821429D01*
X119192858Y-114821429D01*
X119264286Y-115178571D02*
X119121429Y-115107143D01*
X118978572Y-114964286D01*
X118907143Y-114678571D01*
X118907143Y-114178571D01*
X118978572Y-113892857D01*
X119121429Y-113750000D01*
X119264286Y-113678571D01*
X119550000Y-113678571D01*
X119692858Y-113750000D01*
X119835715Y-113892857D01*
X119907143Y-114178571D01*
X119907143Y-114678571D01*
X119835715Y-114964286D01*
X119692858Y-115107143D01*
X119550000Y-115178571D01*
X119264286Y-115178571D01*
X125100001Y-103492857D02*
X125314287Y-103564286D01*
X125385715Y-103635714D01*
X125457144Y-103778571D01*
X125457144Y-103992857D01*
X125385715Y-104135714D01*
X125314287Y-104207143D01*
X125171429Y-104278571D01*
X124600001Y-104278571D01*
X124600001Y-102778571D01*
X125100001Y-102778571D01*
X125242858Y-102850000D01*
X125314287Y-102921429D01*
X125385715Y-103064286D01*
X125385715Y-103207143D01*
X125314287Y-103350000D01*
X125242858Y-103421429D01*
X125100001Y-103492857D01*
X124600001Y-103492857D01*
X126957144Y-104278571D02*
X126457144Y-103564286D01*
X126100001Y-104278571D02*
X126100001Y-102778571D01*
X126671429Y-102778571D01*
X126814287Y-102850000D01*
X126885715Y-102921429D01*
X126957144Y-103064286D01*
X126957144Y-103278571D01*
X126885715Y-103421429D01*
X126814287Y-103492857D01*
X126671429Y-103564286D01*
X126100001Y-103564286D01*
X127600001Y-104278571D02*
X127600001Y-102778571D01*
X127957144Y-102778571D01*
X128171429Y-102850000D01*
X128314287Y-102992857D01*
X128385715Y-103135714D01*
X128457144Y-103421429D01*
X128457144Y-103635714D01*
X128385715Y-103921429D01*
X128314287Y-104064286D01*
X128171429Y-104207143D01*
X127957144Y-104278571D01*
X127600001Y-104278571D01*
X128742858Y-104421429D02*
X129885715Y-104421429D01*
X131100001Y-104278571D02*
X130600001Y-103564286D01*
X130242858Y-104278571D02*
X130242858Y-102778571D01*
X130814286Y-102778571D01*
X130957144Y-102850000D01*
X131028572Y-102921429D01*
X131100001Y-103064286D01*
X131100001Y-103278571D01*
X131028572Y-103421429D01*
X130957144Y-103492857D01*
X130814286Y-103564286D01*
X130242858Y-103564286D01*
X131671429Y-104207143D02*
X131885715Y-104278571D01*
X132242858Y-104278571D01*
X132385715Y-104207143D01*
X132457144Y-104135714D01*
X132528572Y-103992857D01*
X132528572Y-103850000D01*
X132457144Y-103707143D01*
X132385715Y-103635714D01*
X132242858Y-103564286D01*
X131957144Y-103492857D01*
X131814286Y-103421429D01*
X131742858Y-103350000D01*
X131671429Y-103207143D01*
X131671429Y-103064286D01*
X131742858Y-102921429D01*
X131814286Y-102850000D01*
X131957144Y-102778571D01*
X132314286Y-102778571D01*
X132528572Y-102850000D01*
X132957143Y-102778571D02*
X133814286Y-102778571D01*
X133385715Y-104278571D02*
X133385715Y-102778571D01*
X114928572Y-127678571D02*
X114428572Y-126964286D01*
X114071429Y-127678571D02*
X114071429Y-126178571D01*
X114642857Y-126178571D01*
X114785715Y-126250000D01*
X114857143Y-126321429D01*
X114928572Y-126464286D01*
X114928572Y-126678571D01*
X114857143Y-126821429D01*
X114785715Y-126892857D01*
X114642857Y-126964286D01*
X114071429Y-126964286D01*
X115500000Y-127607143D02*
X115714286Y-127678571D01*
X116071429Y-127678571D01*
X116214286Y-127607143D01*
X116285715Y-127535714D01*
X116357143Y-127392857D01*
X116357143Y-127250000D01*
X116285715Y-127107143D01*
X116214286Y-127035714D01*
X116071429Y-126964286D01*
X115785715Y-126892857D01*
X115642857Y-126821429D01*
X115571429Y-126750000D01*
X115500000Y-126607143D01*
X115500000Y-126464286D01*
X115571429Y-126321429D01*
X115642857Y-126250000D01*
X115785715Y-126178571D01*
X116142857Y-126178571D01*
X116357143Y-126250000D01*
X116785714Y-126178571D02*
X117642857Y-126178571D01*
X117214286Y-127678571D02*
X117214286Y-126178571D01*
X114000000Y-132978571D02*
X114000000Y-131478571D01*
X114571428Y-131478571D01*
X114714286Y-131550000D01*
X114785714Y-131621429D01*
X114857143Y-131764286D01*
X114857143Y-131978571D01*
X114785714Y-132121429D01*
X114714286Y-132192857D01*
X114571428Y-132264286D01*
X114000000Y-132264286D01*
X115357143Y-131478571D02*
X115714286Y-132978571D01*
X116000000Y-131907143D01*
X116285714Y-132978571D01*
X116642857Y-131478571D01*
X118071429Y-132978571D02*
X117571429Y-132264286D01*
X117214286Y-132978571D02*
X117214286Y-131478571D01*
X117785714Y-131478571D01*
X117928572Y-131550000D01*
X118000000Y-131621429D01*
X118071429Y-131764286D01*
X118071429Y-131978571D01*
X118000000Y-132121429D01*
X117928572Y-132192857D01*
X117785714Y-132264286D01*
X117214286Y-132264286D01*
X117935714Y-135350000D02*
X118650000Y-135350000D01*
X117792857Y-135778571D02*
X118292857Y-134278571D01*
X118792857Y-135778571D01*
X119650000Y-136278571D02*
X119650000Y-134135714D01*
X121221428Y-134992857D02*
X121435714Y-135064286D01*
X121507142Y-135135714D01*
X121578571Y-135278571D01*
X121578571Y-135492857D01*
X121507142Y-135635714D01*
X121435714Y-135707143D01*
X121292856Y-135778571D01*
X120721428Y-135778571D01*
X120721428Y-134278571D01*
X121221428Y-134278571D01*
X121364285Y-134350000D01*
X121435714Y-134421429D01*
X121507142Y-134564286D01*
X121507142Y-134707143D01*
X121435714Y-134850000D01*
X121364285Y-134921429D01*
X121221428Y-134992857D01*
X120721428Y-134992857D01*
X122578571Y-136278571D02*
X122578571Y-134135714D01*
X123649999Y-135778571D02*
X123649999Y-134278571D01*
X124364285Y-135778571D02*
X124364285Y-134278571D01*
X125221428Y-135778571D01*
X125221428Y-134278571D01*
X125935714Y-135778571D02*
X125935714Y-134278571D01*
X125935714Y-134992857D02*
X126792857Y-134992857D01*
X126792857Y-135778571D02*
X126792857Y-134278571D01*
X136635715Y-117178571D02*
X136635715Y-115678571D01*
X137278572Y-115821429D02*
X137350001Y-115750000D01*
X137492858Y-115678571D01*
X137850001Y-115678571D01*
X137992858Y-115750000D01*
X138064287Y-115821429D01*
X138135715Y-115964286D01*
X138135715Y-116107143D01*
X138064287Y-116321429D01*
X137207144Y-117178571D01*
X138135715Y-117178571D01*
X139635715Y-117035714D02*
X139564286Y-117107143D01*
X139350000Y-117178571D01*
X139207143Y-117178571D01*
X138992858Y-117107143D01*
X138850000Y-116964286D01*
X138778572Y-116821429D01*
X138707143Y-116535714D01*
X138707143Y-116321429D01*
X138778572Y-116035714D01*
X138850000Y-115892857D01*
X138992858Y-115750000D01*
X139207143Y-115678571D01*
X139350000Y-115678571D01*
X139564286Y-115750000D01*
X139635715Y-115821429D01*
X134607143Y-135078571D02*
X134607143Y-136292857D01*
X134678571Y-136435714D01*
X134750000Y-136507143D01*
X134892857Y-136578571D01*
X135178571Y-136578571D01*
X135321429Y-136507143D01*
X135392857Y-136435714D01*
X135464286Y-136292857D01*
X135464286Y-135078571D01*
X136107143Y-136150000D02*
X136821429Y-136150000D01*
X135964286Y-136578571D02*
X136464286Y-135078571D01*
X136964286Y-136578571D01*
X138321429Y-136578571D02*
X137821429Y-135864286D01*
X137464286Y-136578571D02*
X137464286Y-135078571D01*
X138035714Y-135078571D01*
X138178572Y-135150000D01*
X138250000Y-135221429D01*
X138321429Y-135364286D01*
X138321429Y-135578571D01*
X138250000Y-135721429D01*
X138178572Y-135792857D01*
X138035714Y-135864286D01*
X137464286Y-135864286D01*
X138750000Y-135078571D02*
X139607143Y-135078571D01*
X139178572Y-136578571D02*
X139178572Y-135078571D01*
D11*
X125750000Y-70500000D02*
X126000000Y-70250000D01*
D13*
X62550000Y-102350000D02*
X62550000Y-104650000D01*
X68550000Y-102350000D02*
X68550000Y-104650000D01*
X103250000Y-142325000D02*
X96950000Y-142325000D01*
X96950000Y-142325000D02*
X96950000Y-99675000D01*
X96950000Y-99675000D02*
X103250000Y-99675000D01*
X103250000Y-99675000D02*
X103250000Y-142325000D01*
X68550000Y-132150000D02*
X62550000Y-132150000D01*
X62550000Y-132150000D02*
X62550000Y-129850000D01*
X62550000Y-102350000D02*
X68550000Y-102350000D01*
X68550000Y-129850000D02*
X68550000Y-132150000D01*
X103635534Y-69000000D02*
G75*
G03X103635534Y-69000000I-3535534J0D01*
G01*
X72135534Y-69000000D02*
G75*
G03X72135534Y-69000000I-3535534J0D01*
G01*
X72135534Y-146000000D02*
G75*
G03X72135534Y-146000000I-3535534J0D01*
G01*
X103635534Y-146000000D02*
G75*
G03X103635534Y-146000000I-3535534J0D01*
G01*
X104100000Y-150000000D02*
X50100000Y-150000000D01*
X50100000Y-150000000D02*
X50100000Y-65000000D01*
X50100000Y-65000000D02*
X104100000Y-65000000D01*
X104100000Y-65000000D02*
X104100000Y-150000000D01*
D14*
X125375000Y-108975000D02*
G75*
G03X125375000Y-108975000I-200000J0D01*
G01*
D15*
X124775000Y-108375000D02*
X120575000Y-108375000D01*
X120575000Y-108375000D02*
X120575000Y-105175000D01*
X120575000Y-105175000D02*
X124775000Y-105175000D01*
X124775000Y-105175000D02*
X124775000Y-108375000D01*
D16*
X135860000Y-86950000D02*
X138190000Y-86950000D01*
X135860000Y-101940000D02*
X137980000Y-101940000D01*
X135860000Y-86950000D02*
X135860000Y-101940000D01*
X149950000Y-86950000D02*
X149950000Y-101940000D01*
X141150000Y-86950000D02*
X149950000Y-86950000D01*
X141350000Y-101940000D02*
X149950000Y-101940000D01*
X81500000Y-56650000D02*
X80500000Y-56650000D01*
X80500000Y-58350000D02*
X81500000Y-58350000D01*
X81500000Y-54650000D02*
X80500000Y-54650000D01*
X80500000Y-56350000D02*
X81500000Y-56350000D01*
D15*
X73100000Y-64100000D02*
X72400000Y-64100000D01*
X72400000Y-62900000D02*
X73100000Y-62900000D01*
X73100000Y-61100000D02*
X72400000Y-61100000D01*
X72400000Y-59900000D02*
X73100000Y-59900000D01*
X94400000Y-52350000D02*
X94400000Y-51650000D01*
X95600000Y-51650000D02*
X95600000Y-52350000D01*
X94400000Y-58600000D02*
X94400000Y-57900000D01*
X95600000Y-57900000D02*
X95600000Y-58600000D01*
X119300000Y-107350000D02*
X119300000Y-108050000D01*
X118100000Y-108050000D02*
X118100000Y-107350000D01*
X85600000Y-63600000D02*
X84900000Y-63600000D01*
X84900000Y-62400000D02*
X85600000Y-62400000D01*
X117100000Y-105900000D02*
X117100000Y-106600000D01*
X115900000Y-106600000D02*
X115900000Y-105900000D01*
D16*
X84000000Y-55850000D02*
X85000000Y-55850000D01*
X85000000Y-54150000D02*
X84000000Y-54150000D01*
X84000000Y-53850000D02*
X85000000Y-53850000D01*
X85000000Y-52150000D02*
X84000000Y-52150000D01*
X107000000Y-51150000D02*
X106000000Y-51150000D01*
X106000000Y-52850000D02*
X107000000Y-52850000D01*
X105150000Y-58000000D02*
X105150000Y-59000000D01*
X106850000Y-59000000D02*
X106850000Y-58000000D01*
D15*
X114100000Y-103600000D02*
X113400000Y-103600000D01*
X113400000Y-102400000D02*
X114100000Y-102400000D01*
D16*
X114650000Y-53000000D02*
X114650000Y-54000000D01*
X116350000Y-54000000D02*
X116350000Y-53000000D01*
D15*
X119150000Y-64400000D02*
X119850000Y-64400000D01*
X119850000Y-65600000D02*
X119150000Y-65600000D01*
X126100000Y-64100000D02*
X125400000Y-64100000D01*
X125400000Y-62900000D02*
X126100000Y-62900000D01*
X113350000Y-67600000D02*
X112650000Y-67600000D01*
X112650000Y-66400000D02*
X113350000Y-66400000D01*
X126100000Y-65600000D02*
X125400000Y-65600000D01*
X125400000Y-64400000D02*
X126100000Y-64400000D01*
X126100000Y-67100000D02*
X125400000Y-67100000D01*
X125400000Y-65900000D02*
X126100000Y-65900000D01*
X111100000Y-61400000D02*
X111100000Y-62100000D01*
X109900000Y-62100000D02*
X109900000Y-61400000D01*
X109900000Y-59100000D02*
X109900000Y-58400000D01*
X111100000Y-58400000D02*
X111100000Y-59100000D01*
X108900000Y-81100000D02*
X108900000Y-80400000D01*
X110100000Y-80400000D02*
X110100000Y-81100000D01*
D16*
X114650000Y-58000000D02*
X114650000Y-59000000D01*
X116350000Y-59000000D02*
X116350000Y-58000000D01*
D15*
X125600000Y-79650000D02*
X125600000Y-80350000D01*
X124400000Y-80350000D02*
X124400000Y-79650000D01*
X124400000Y-69350000D02*
X124400000Y-68650000D01*
X125600000Y-68650000D02*
X125600000Y-69350000D01*
X122150000Y-66900000D02*
X122850000Y-66900000D01*
X122850000Y-68100000D02*
X122150000Y-68100000D01*
X110100000Y-72900000D02*
X110100000Y-73600000D01*
X108900000Y-73600000D02*
X108900000Y-72900000D01*
X115900000Y-65100000D02*
X115900000Y-64400000D01*
X117100000Y-64400000D02*
X117100000Y-65100000D01*
X108900000Y-77100000D02*
X108900000Y-76400000D01*
X110100000Y-76400000D02*
X110100000Y-77100000D01*
X136950000Y-66250000D02*
X136250000Y-66250000D01*
X136250000Y-65050000D02*
X136950000Y-65050000D01*
X112100000Y-83100000D02*
X111400000Y-83100000D01*
X111400000Y-81900000D02*
X112100000Y-81900000D01*
X136950000Y-64750000D02*
X136250000Y-64750000D01*
X136250000Y-63550000D02*
X136950000Y-63550000D01*
X136950000Y-69250000D02*
X136250000Y-69250000D01*
X136250000Y-68050000D02*
X136950000Y-68050000D01*
X121650000Y-81900000D02*
X122350000Y-81900000D01*
X122350000Y-83100000D02*
X121650000Y-83100000D01*
X136950000Y-67750000D02*
X136250000Y-67750000D01*
X136250000Y-66550000D02*
X136950000Y-66550000D01*
X136950000Y-70750000D02*
X136250000Y-70750000D01*
X136250000Y-69550000D02*
X136950000Y-69550000D01*
X136950000Y-72250000D02*
X136250000Y-72250000D01*
X136250000Y-71050000D02*
X136950000Y-71050000D01*
X120800000Y-53550000D02*
X120800000Y-52850000D01*
X122000000Y-52850000D02*
X122000000Y-53550000D01*
X104500000Y-68050000D02*
X104500000Y-67350000D01*
X105700000Y-67350000D02*
X105700000Y-68050000D01*
X127750000Y-52450000D02*
X128450000Y-52450000D01*
X128450000Y-53650000D02*
X127750000Y-53650000D01*
X139650000Y-79050000D02*
X138950000Y-79050000D01*
X138950000Y-77850000D02*
X139650000Y-77850000D01*
X139650000Y-74950000D02*
X138950000Y-74950000D01*
X138950000Y-73750000D02*
X139650000Y-73750000D01*
X120200000Y-58950000D02*
X120200000Y-59650000D01*
X119000000Y-59650000D02*
X119000000Y-58950000D01*
X121650000Y-62000000D02*
X122350000Y-62000000D01*
X122350000Y-63200000D02*
X121650000Y-63200000D01*
X119450000Y-63600000D02*
X118750000Y-63600000D01*
X118750000Y-62400000D02*
X119450000Y-62400000D01*
D16*
X113250000Y-57500000D02*
X113250000Y-56500000D01*
X111550000Y-56500000D02*
X111550000Y-57500000D01*
D15*
X131400000Y-61900000D02*
X132100000Y-61900000D01*
X132100000Y-63100000D02*
X131400000Y-63100000D01*
X131400000Y-132350000D02*
X131400000Y-131650000D01*
X132600000Y-131650000D02*
X132600000Y-132350000D01*
X131400000Y-119350000D02*
X131400000Y-118650000D01*
X132600000Y-118650000D02*
X132600000Y-119350000D01*
X53499500Y-51999120D02*
X53499500Y-61000880D01*
X49999380Y-51999120D02*
X49999380Y-61000880D01*
X49999380Y-61000880D02*
X64500240Y-61000880D01*
X64500240Y-61000880D02*
X64500240Y-51999120D01*
X64500240Y-51999120D02*
X49999380Y-51999120D01*
X114150000Y-112900000D02*
X114850000Y-112900000D01*
X114850000Y-114100000D02*
X114150000Y-114100000D01*
D16*
X149405000Y-128650000D02*
X149405000Y-149510000D01*
X149405000Y-149510000D02*
X140055000Y-149510000D01*
X140055000Y-149510000D02*
X140055000Y-128650000D01*
X140055000Y-128650000D02*
X149405000Y-128650000D01*
X139805000Y-128400000D02*
X139805000Y-130940000D01*
X139805000Y-128400000D02*
X142345000Y-128400000D01*
X149405000Y-106990000D02*
X149405000Y-127850000D01*
X149405000Y-127850000D02*
X140055000Y-127850000D01*
X140055000Y-127850000D02*
X140055000Y-106990000D01*
X140055000Y-106990000D02*
X149405000Y-106990000D01*
X139805000Y-106740000D02*
X139805000Y-109280000D01*
X139805000Y-106740000D02*
X142345000Y-106740000D01*
D15*
X73100000Y-62600000D02*
X72400000Y-62600000D01*
X72400000Y-61400000D02*
X73100000Y-61400000D01*
X72600000Y-57900000D02*
X72600000Y-58600000D01*
X71400000Y-58600000D02*
X71400000Y-57900000D01*
X118100000Y-105150000D02*
X118100000Y-104450000D01*
X119300000Y-104450000D02*
X119300000Y-105150000D01*
X94600000Y-56600000D02*
X93900000Y-56600000D01*
X93900000Y-55400000D02*
X94600000Y-55400000D01*
X94600000Y-63100000D02*
X93900000Y-63100000D01*
X93900000Y-61900000D02*
X94600000Y-61900000D01*
X74100000Y-57900000D02*
X74100000Y-58600000D01*
X72900000Y-58600000D02*
X72900000Y-57900000D01*
X77100000Y-58100000D02*
X76400000Y-58100000D01*
X76400000Y-56900000D02*
X77100000Y-56900000D01*
X135400000Y-56900000D02*
X136100000Y-56900000D01*
X136100000Y-58100000D02*
X135400000Y-58100000D01*
X107100000Y-55100000D02*
X106400000Y-55100000D01*
X106400000Y-53900000D02*
X107100000Y-53900000D01*
X107100000Y-56600000D02*
X106400000Y-56600000D01*
X106400000Y-55400000D02*
X107100000Y-55400000D01*
X107100000Y-61600000D02*
X106400000Y-61600000D01*
X106400000Y-60400000D02*
X107100000Y-60400000D01*
X107100000Y-63100000D02*
X106400000Y-63100000D01*
X106400000Y-61900000D02*
X107100000Y-61900000D01*
X93900000Y-53900000D02*
X94600000Y-53900000D01*
X94600000Y-55100000D02*
X93900000Y-55100000D01*
X93900000Y-60400000D02*
X94600000Y-60400000D01*
X94600000Y-61600000D02*
X93900000Y-61600000D01*
X108650000Y-104000000D02*
X109350000Y-104000000D01*
X109350000Y-105200000D02*
X108650000Y-105200000D01*
X107650000Y-102650000D02*
X107650000Y-101950000D01*
X108850000Y-101950000D02*
X108850000Y-102650000D01*
X109900000Y-113600000D02*
X109900000Y-112900000D01*
X111100000Y-112900000D02*
X111100000Y-113600000D01*
X109900000Y-117100000D02*
X109900000Y-116400000D01*
X111100000Y-116400000D02*
X111100000Y-117100000D01*
X108400000Y-113600000D02*
X108400000Y-112900000D01*
X109600000Y-112900000D02*
X109600000Y-113600000D01*
X108400000Y-117100000D02*
X108400000Y-116400000D01*
X109600000Y-116400000D02*
X109600000Y-117100000D01*
X106900000Y-113600000D02*
X106900000Y-112900000D01*
X108100000Y-112900000D02*
X108100000Y-113600000D01*
X106900000Y-117100000D02*
X106900000Y-116400000D01*
X108100000Y-116400000D02*
X108100000Y-117100000D01*
X113350000Y-55100000D02*
X112650000Y-55100000D01*
X112650000Y-53900000D02*
X113350000Y-53900000D01*
X106550000Y-70750000D02*
X106550000Y-71450000D01*
X105350000Y-71450000D02*
X105350000Y-70750000D01*
X106850000Y-71450000D02*
X106850000Y-70750000D01*
X108050000Y-70750000D02*
X108050000Y-71450000D01*
X117650000Y-53900000D02*
X118350000Y-53900000D01*
X118350000Y-55100000D02*
X117650000Y-55100000D01*
X113350000Y-61600000D02*
X112650000Y-61600000D01*
X112650000Y-60400000D02*
X113350000Y-60400000D01*
X113350000Y-60100000D02*
X112650000Y-60100000D01*
X112650000Y-58900000D02*
X113350000Y-58900000D01*
X105650000Y-77400000D02*
X106350000Y-77400000D01*
X106350000Y-78600000D02*
X105650000Y-78600000D01*
X126100000Y-83100000D02*
X125400000Y-83100000D01*
X125400000Y-81900000D02*
X126100000Y-81900000D01*
X105650000Y-78900000D02*
X106350000Y-78900000D01*
X106350000Y-80100000D02*
X105650000Y-80100000D01*
X124150000Y-87350000D02*
X124150000Y-86650000D01*
X125350000Y-86650000D02*
X125350000Y-87350000D01*
X124150000Y-91100000D02*
X124150000Y-90400000D01*
X125350000Y-90400000D02*
X125350000Y-91100000D01*
X127150000Y-87350000D02*
X127150000Y-86650000D01*
X128350000Y-86650000D02*
X128350000Y-87350000D01*
X127150000Y-91100000D02*
X127150000Y-90400000D01*
X128350000Y-90400000D02*
X128350000Y-91100000D01*
X125650000Y-87350000D02*
X125650000Y-86650000D01*
X126850000Y-86650000D02*
X126850000Y-87350000D01*
X125650000Y-91100000D02*
X125650000Y-90400000D01*
X126850000Y-90400000D02*
X126850000Y-91100000D01*
X122650000Y-87350000D02*
X122650000Y-86650000D01*
X123850000Y-86650000D02*
X123850000Y-87350000D01*
X122650000Y-91100000D02*
X122650000Y-90400000D01*
X123850000Y-90400000D02*
X123850000Y-91100000D01*
X119200000Y-57650000D02*
X118500000Y-57650000D01*
X118500000Y-56450000D02*
X119200000Y-56450000D01*
X107250000Y-65000000D02*
X107950000Y-65000000D01*
X107950000Y-66200000D02*
X107250000Y-66200000D01*
X114850000Y-115600000D02*
X114150000Y-115600000D01*
X114150000Y-114400000D02*
X114850000Y-114400000D01*
X124850000Y-55850000D02*
X124150000Y-55850000D01*
X124150000Y-54650000D02*
X124850000Y-54650000D01*
X105900000Y-96900000D02*
X106600000Y-96900000D01*
X106600000Y-98100000D02*
X105900000Y-98100000D01*
X130500000Y-60400000D02*
X130500000Y-59700000D01*
X131700000Y-59700000D02*
X131700000Y-60400000D01*
X124100000Y-139100000D02*
X123400000Y-139100000D01*
X123400000Y-137900000D02*
X124100000Y-137900000D01*
X113600000Y-139100000D02*
X112900000Y-139100000D01*
X112900000Y-137900000D02*
X113600000Y-137900000D01*
X127100000Y-139100000D02*
X126400000Y-139100000D01*
X126400000Y-137900000D02*
X127100000Y-137900000D01*
X116600000Y-139100000D02*
X115900000Y-139100000D01*
X115900000Y-137900000D02*
X116600000Y-137900000D01*
X130100000Y-139100000D02*
X129400000Y-139100000D01*
X129400000Y-137900000D02*
X130100000Y-137900000D01*
X119600000Y-139100000D02*
X118900000Y-139100000D01*
X118900000Y-137900000D02*
X119600000Y-137900000D01*
D14*
X108875000Y-136375000D02*
G75*
G03X108875000Y-136375000I-200000J0D01*
G01*
D15*
X109275000Y-135975000D02*
X109275000Y-131775000D01*
X109275000Y-131775000D02*
X112475000Y-131775000D01*
X112475000Y-131775000D02*
X112475000Y-135975000D01*
X112475000Y-135975000D02*
X109275000Y-135975000D01*
D14*
X108875000Y-130275000D02*
G75*
G03X108875000Y-130275000I-200000J0D01*
G01*
D15*
X109275000Y-129875000D02*
X109275000Y-125675000D01*
X109275000Y-125675000D02*
X112475000Y-125675000D01*
X112475000Y-125675000D02*
X112475000Y-129875000D01*
X112475000Y-129875000D02*
X109275000Y-129875000D01*
X66400000Y-53700000D02*
X66400000Y-53000000D01*
X67600000Y-53000000D02*
X67600000Y-53700000D01*
D16*
X67000000Y-60350000D02*
X68000000Y-60350000D01*
X68000000Y-58650000D02*
X67000000Y-58650000D01*
D15*
X68100000Y-62100000D02*
X67400000Y-62100000D01*
X67400000Y-60900000D02*
X68100000Y-60900000D01*
X68100000Y-63600000D02*
X67400000Y-63600000D01*
X67400000Y-62400000D02*
X68100000Y-62400000D01*
X145600000Y-82050000D02*
X143730000Y-82050000D01*
X145600000Y-80200000D02*
X145600000Y-82050000D01*
X146150000Y-80200000D02*
X145600000Y-80200000D01*
X146150000Y-64600000D02*
X146150000Y-80200000D01*
X145600000Y-64600000D02*
X146150000Y-64600000D01*
X145600000Y-62750000D02*
X145600000Y-64600000D01*
X143730000Y-62750000D02*
X145600000Y-62750000D01*
X143730000Y-82050000D02*
X143730000Y-62750000D01*
X149550000Y-84000000D02*
X142850000Y-84000000D01*
X149550000Y-60800000D02*
X149550000Y-84000000D01*
X142850000Y-60800000D02*
X149550000Y-60800000D01*
X142850000Y-84000000D02*
X142850000Y-60800000D01*
X132005000Y-147935000D02*
X131005000Y-147935000D01*
X132005000Y-141235000D02*
X132005000Y-147935000D01*
X131005000Y-141235000D02*
X132005000Y-141235000D01*
X122915000Y-141235000D02*
X123915000Y-141235000D01*
X122915000Y-147935000D02*
X123915000Y-147935000D01*
X122915000Y-141235000D02*
X122915000Y-147935000D01*
X121505000Y-147935000D02*
X120505000Y-147935000D01*
X121505000Y-141235000D02*
X121505000Y-147935000D01*
X120505000Y-141235000D02*
X121505000Y-141235000D01*
X112415000Y-141235000D02*
X113415000Y-141235000D01*
X112415000Y-147935000D02*
X113415000Y-147935000D01*
X112415000Y-141235000D02*
X112415000Y-147935000D01*
D17*
X83775000Y-64435000D02*
G75*
G03X83775000Y-64435000I-300000J0D01*
G01*
D15*
X76889000Y-63675000D02*
X76889000Y-58595000D01*
X76889000Y-58595000D02*
X81461000Y-58595000D01*
X81461000Y-58595000D02*
X81461000Y-63675000D01*
X81461000Y-63675000D02*
X76889000Y-63675000D01*
D17*
X96500000Y-51295000D02*
G75*
G03X96500000Y-51295000I-300000J0D01*
G01*
D15*
X102786000Y-52055000D02*
X102786000Y-57135000D01*
X102786000Y-57135000D02*
X98214000Y-57135000D01*
X98214000Y-57135000D02*
X98214000Y-52055000D01*
X98214000Y-52055000D02*
X102786000Y-52055000D01*
D17*
X96500000Y-57700000D02*
G75*
G03X96500000Y-57700000I-300000J0D01*
G01*
D15*
X102786000Y-58460000D02*
X102786000Y-63540000D01*
X102786000Y-63540000D02*
X98214000Y-63540000D01*
X98214000Y-63540000D02*
X98214000Y-58460000D01*
X98214000Y-58460000D02*
X102786000Y-58460000D01*
D16*
X112225000Y-69725000D02*
X112225000Y-70675000D01*
X122575000Y-69725000D02*
X122575000Y-70775000D01*
X122575000Y-80075000D02*
X122575000Y-79025000D01*
X112225000Y-80075000D02*
X112225000Y-79025000D01*
X112225000Y-69725000D02*
X113275000Y-69725000D01*
X112225000Y-80075000D02*
X113275000Y-80075000D01*
X122575000Y-80075000D02*
X121525000Y-80075000D01*
X122575000Y-69725000D02*
X121525000Y-69725000D01*
X112225000Y-70675000D02*
X110950000Y-70675000D01*
D15*
X67900000Y-57350000D02*
X67900000Y-56650000D01*
X69100000Y-56650000D02*
X69100000Y-57350000D01*
X118700000Y-58950000D02*
X118700000Y-59650000D01*
X117500000Y-59650000D02*
X117500000Y-58950000D01*
D16*
X84250000Y-56350000D02*
X89750000Y-56350000D01*
X84250000Y-61650000D02*
X89750000Y-61650000D01*
X84250000Y-61650000D02*
X84250000Y-56350000D01*
X89750000Y-61650000D02*
X89750000Y-56350000D01*
D11*
X115950000Y-108900000D02*
G75*
G03X115950000Y-108900000I-100000J0D01*
G01*
D15*
X114250000Y-106900000D02*
X113050000Y-106900000D01*
X113050000Y-108900000D02*
X114250000Y-108900000D01*
D11*
X111550000Y-104250000D02*
G75*
G03X111550000Y-104250000I-100000J0D01*
G01*
D15*
X113050000Y-106250000D02*
X114250000Y-106250000D01*
X114250000Y-104250000D02*
X113050000Y-104250000D01*
D11*
X110250000Y-68950000D02*
G75*
G03X110250000Y-68950000I-100000J0D01*
G01*
D15*
X108550000Y-66950000D02*
X107350000Y-66950000D01*
X107350000Y-68950000D02*
X108550000Y-68950000D01*
D11*
X136900000Y-75400000D02*
G75*
G03X136900000Y-75400000I-100000J0D01*
G01*
D15*
X138400000Y-77400000D02*
X139600000Y-77400000D01*
X139600000Y-75400000D02*
X138400000Y-75400000D01*
D11*
X136900000Y-79500000D02*
G75*
G03X136900000Y-79500000I-100000J0D01*
G01*
D15*
X138400000Y-81500000D02*
X139600000Y-81500000D01*
X139600000Y-79500000D02*
X138400000Y-79500000D01*
D17*
X120944000Y-55952000D02*
G75*
G03X120944000Y-55952000I-254000J0D01*
G01*
D15*
X122175000Y-56375000D02*
X122175000Y-56600000D01*
X126825000Y-56375000D02*
X126825000Y-56600000D01*
X126825000Y-61625000D02*
X126825000Y-61400000D01*
X122175000Y-61625000D02*
X122175000Y-61400000D01*
X122175000Y-56375000D02*
X126825000Y-56375000D01*
X122175000Y-61625000D02*
X126825000Y-61625000D01*
D17*
X131330843Y-125100000D02*
G75*
G03X131330843Y-125100000I-282843J0D01*
G01*
D11*
X125500000Y-128500000D02*
X125500000Y-131500000D01*
X125500000Y-131500000D02*
X130500000Y-131500000D01*
X130500000Y-128500000D02*
X125500000Y-128500000D01*
X130500000Y-131500000D02*
X130500000Y-128500000D01*
D17*
X131330843Y-112100000D02*
G75*
G03X131330843Y-112100000I-282843J0D01*
G01*
D11*
X125500000Y-115500000D02*
X125500000Y-118500000D01*
X125500000Y-118500000D02*
X130500000Y-118500000D01*
X130500000Y-115500000D02*
X125500000Y-115500000D01*
X130500000Y-118500000D02*
X130500000Y-115500000D01*
D15*
X122800000Y-50900000D02*
X126000000Y-50900000D01*
X126000000Y-50900000D02*
X126000000Y-53500000D01*
X126000000Y-53500000D02*
X122800000Y-53500000D01*
X122800000Y-53500000D02*
X122800000Y-50900000D01*
X135400000Y-58400000D02*
X136100000Y-58400000D01*
X136100000Y-59600000D02*
X135400000Y-59600000D01*
X113900000Y-65100000D02*
X113900000Y-64400000D01*
X115100000Y-64400000D02*
X115100000Y-65100000D01*
X129400000Y-76400000D02*
X130100000Y-76400000D01*
X130100000Y-77600000D02*
X129400000Y-77600000D01*
X124400000Y-72350000D02*
X124400000Y-71650000D01*
X125600000Y-71650000D02*
X125600000Y-72350000D01*
X125900000Y-72350000D02*
X125900000Y-71650000D01*
X127100000Y-71650000D02*
X127100000Y-72350000D01*
X113400000Y-109400000D02*
X114100000Y-109400000D01*
X114100000Y-110600000D02*
X113400000Y-110600000D01*
D18*
X120400000Y-97700000D02*
X119400000Y-96700000D01*
X122400000Y-99700000D02*
X121400000Y-98700000D01*
X119400000Y-99700000D02*
X122400000Y-96700000D01*
X121900000Y-98200000D02*
X120900000Y-99200000D01*
X120900000Y-97200000D02*
X119900000Y-98200000D01*
X120900000Y-97200000D02*
X121400000Y-96700000D01*
X121400000Y-96700000D02*
X121400000Y-95700000D01*
X121400000Y-95700000D02*
X122400000Y-95700000D01*
X122400000Y-95700000D02*
X122400000Y-96700000D01*
X122400000Y-96700000D02*
X123400000Y-96700000D01*
X123400000Y-96700000D02*
X123400000Y-97700000D01*
X123400000Y-97700000D02*
X122400000Y-97700000D01*
X122400000Y-97700000D02*
X121900000Y-98200000D01*
X121900000Y-98200000D02*
X122400000Y-98700000D01*
X122400000Y-98700000D02*
X123400000Y-98700000D01*
X123400000Y-98700000D02*
X123400000Y-99700000D01*
X123400000Y-99700000D02*
X122400000Y-99700000D01*
X122400000Y-99700000D02*
X122400000Y-100700000D01*
X122400000Y-100700000D02*
X121400000Y-100700000D01*
X121400000Y-100700000D02*
X121400000Y-99700000D01*
X121400000Y-99700000D02*
X120900000Y-99200000D01*
X120900000Y-99200000D02*
X120400000Y-99700000D01*
X120400000Y-99700000D02*
X120400000Y-100700000D01*
X120400000Y-100700000D02*
X119400000Y-100700000D01*
X119400000Y-100700000D02*
X119400000Y-99700000D01*
X119400000Y-99700000D02*
X118400000Y-99700000D01*
X118400000Y-99700000D02*
X118400000Y-98700000D01*
X118400000Y-98700000D02*
X119400000Y-98700000D01*
X119400000Y-98700000D02*
X119900000Y-98200000D01*
X119900000Y-98200000D02*
X119400000Y-97700000D01*
X119400000Y-97700000D02*
X118400000Y-97700000D01*
X118400000Y-97700000D02*
X118400000Y-96700000D01*
X118400000Y-96700000D02*
X119400000Y-96700000D01*
X119400000Y-96700000D02*
X119400000Y-95700000D01*
X119400000Y-95700000D02*
X120400000Y-95700000D01*
X120400000Y-95700000D02*
X120400000Y-96700000D01*
X120400000Y-96700000D02*
X120900000Y-97200000D01*
D16*
X142350000Y-52040000D02*
X143030000Y-52040000D01*
X143030000Y-52040000D02*
X143030000Y-51080000D01*
X143030000Y-51080000D02*
X144240000Y-51080000D01*
X143030000Y-58360000D02*
X143030000Y-59320000D01*
X143030000Y-59320000D02*
X144240000Y-59320000D01*
X146270000Y-52360000D02*
X146270000Y-52830000D01*
X146270000Y-52830000D02*
X147740000Y-52830000D01*
X147740000Y-52830000D02*
X147740000Y-57570000D01*
X147740000Y-57570000D02*
X146270000Y-57570000D01*
X146270000Y-57570000D02*
X146270000Y-58040000D01*
D15*
X140100000Y-58100000D02*
X139400000Y-58100000D01*
X139400000Y-56900000D02*
X140100000Y-56900000D01*
X140100000Y-59600000D02*
X139400000Y-59600000D01*
X139400000Y-58400000D02*
X140100000Y-58400000D01*
X140100000Y-61100000D02*
X139400000Y-61100000D01*
X139400000Y-59900000D02*
X140100000Y-59900000D01*
D16*
X115540000Y-125150000D02*
X115540000Y-124470000D01*
X115540000Y-124470000D02*
X114580000Y-124470000D01*
X114580000Y-124470000D02*
X114580000Y-123260000D01*
X118860000Y-124470000D02*
X119820000Y-124470000D01*
X119820000Y-124470000D02*
X119820000Y-123260000D01*
X115860000Y-121230000D02*
X118540000Y-121230000D01*
D15*
X104383334Y-121316667D02*
X104383334Y-120616667D01*
X104550000Y-120616667D01*
X104650000Y-120650000D01*
X104716667Y-120716667D01*
X104750000Y-120783333D01*
X104783334Y-120916667D01*
X104783334Y-121016667D01*
X104750000Y-121150000D01*
X104716667Y-121216667D01*
X104650000Y-121283333D01*
X104550000Y-121316667D01*
X104383334Y-121316667D01*
X105316667Y-120950000D02*
X105416667Y-120983333D01*
X105450000Y-121016667D01*
X105483334Y-121083333D01*
X105483334Y-121183333D01*
X105450000Y-121250000D01*
X105416667Y-121283333D01*
X105350000Y-121316667D01*
X105083334Y-121316667D01*
X105083334Y-120616667D01*
X105316667Y-120616667D01*
X105383334Y-120650000D01*
X105416667Y-120683333D01*
X105450000Y-120750000D01*
X105450000Y-120816667D01*
X105416667Y-120883333D01*
X105383334Y-120916667D01*
X105316667Y-120950000D01*
X105083334Y-120950000D01*
X106150000Y-121316667D02*
X105750000Y-121316667D01*
X105950000Y-121316667D02*
X105950000Y-120616667D01*
X105883334Y-120716667D01*
X105816667Y-120783333D01*
X105750000Y-120816667D01*
X121741666Y-103883333D02*
X121841666Y-103916667D01*
X122008333Y-103916667D01*
X122075000Y-103883333D01*
X122108333Y-103850000D01*
X122141666Y-103783333D01*
X122141666Y-103716667D01*
X122108333Y-103650000D01*
X122075000Y-103616667D01*
X122008333Y-103583333D01*
X121875000Y-103550000D01*
X121808333Y-103516667D01*
X121775000Y-103483333D01*
X121741666Y-103416667D01*
X121741666Y-103350000D01*
X121775000Y-103283333D01*
X121808333Y-103250000D01*
X121875000Y-103216667D01*
X122041666Y-103216667D01*
X122141666Y-103250000D01*
X122375000Y-103216667D02*
X122541667Y-103916667D01*
X122675000Y-103416667D01*
X122808333Y-103916667D01*
X122975000Y-103216667D01*
X123608333Y-103916667D02*
X123208333Y-103916667D01*
X123408333Y-103916667D02*
X123408333Y-103216667D01*
X123341667Y-103316667D01*
X123275000Y-103383333D01*
X123208333Y-103416667D01*
X134316667Y-96952381D02*
X134316667Y-97666667D01*
X134269047Y-97809524D01*
X134173809Y-97904762D01*
X134030952Y-97952381D01*
X133935714Y-97952381D01*
X135221429Y-96952381D02*
X135030952Y-96952381D01*
X134935714Y-97000000D01*
X134888095Y-97047619D01*
X134792857Y-97190476D01*
X134745238Y-97380952D01*
X134745238Y-97761905D01*
X134792857Y-97857143D01*
X134840476Y-97904762D01*
X134935714Y-97952381D01*
X135126191Y-97952381D01*
X135221429Y-97904762D01*
X135269048Y-97857143D01*
X135316667Y-97761905D01*
X135316667Y-97523810D01*
X135269048Y-97428571D01*
X135221429Y-97380952D01*
X135126191Y-97333333D01*
X134935714Y-97333333D01*
X134840476Y-97380952D01*
X134792857Y-97428571D01*
X134745238Y-97523810D01*
X78633334Y-57750000D02*
X78600000Y-57783333D01*
X78500000Y-57816667D01*
X78433334Y-57816667D01*
X78333334Y-57783333D01*
X78266667Y-57716667D01*
X78233334Y-57650000D01*
X78200000Y-57516667D01*
X78200000Y-57416667D01*
X78233334Y-57283333D01*
X78266667Y-57216667D01*
X78333334Y-57150000D01*
X78433334Y-57116667D01*
X78500000Y-57116667D01*
X78600000Y-57150000D01*
X78633334Y-57183333D01*
X79300000Y-57816667D02*
X78900000Y-57816667D01*
X79100000Y-57816667D02*
X79100000Y-57116667D01*
X79033334Y-57216667D01*
X78966667Y-57283333D01*
X78900000Y-57316667D01*
X80883334Y-54250000D02*
X80850000Y-54283333D01*
X80750000Y-54316667D01*
X80683334Y-54316667D01*
X80583334Y-54283333D01*
X80516667Y-54216667D01*
X80483334Y-54150000D01*
X80450000Y-54016667D01*
X80450000Y-53916667D01*
X80483334Y-53783333D01*
X80516667Y-53716667D01*
X80583334Y-53650000D01*
X80683334Y-53616667D01*
X80750000Y-53616667D01*
X80850000Y-53650000D01*
X80883334Y-53683333D01*
X81150000Y-53683333D02*
X81183334Y-53650000D01*
X81250000Y-53616667D01*
X81416667Y-53616667D01*
X81483334Y-53650000D01*
X81516667Y-53683333D01*
X81550000Y-53750000D01*
X81550000Y-53816667D01*
X81516667Y-53916667D01*
X81116667Y-54316667D01*
X81550000Y-54316667D01*
X70633334Y-63750000D02*
X70600000Y-63783333D01*
X70500000Y-63816667D01*
X70433334Y-63816667D01*
X70333334Y-63783333D01*
X70266667Y-63716667D01*
X70233334Y-63650000D01*
X70200000Y-63516667D01*
X70200000Y-63416667D01*
X70233334Y-63283333D01*
X70266667Y-63216667D01*
X70333334Y-63150000D01*
X70433334Y-63116667D01*
X70500000Y-63116667D01*
X70600000Y-63150000D01*
X70633334Y-63183333D01*
X70866667Y-63116667D02*
X71300000Y-63116667D01*
X71066667Y-63383333D01*
X71166667Y-63383333D01*
X71233334Y-63416667D01*
X71266667Y-63450000D01*
X71300000Y-63516667D01*
X71300000Y-63683333D01*
X71266667Y-63750000D01*
X71233334Y-63783333D01*
X71166667Y-63816667D01*
X70966667Y-63816667D01*
X70900000Y-63783333D01*
X70866667Y-63750000D01*
X70383334Y-60750000D02*
X70350000Y-60783333D01*
X70250000Y-60816667D01*
X70183334Y-60816667D01*
X70083334Y-60783333D01*
X70016667Y-60716667D01*
X69983334Y-60650000D01*
X69950000Y-60516667D01*
X69950000Y-60416667D01*
X69983334Y-60283333D01*
X70016667Y-60216667D01*
X70083334Y-60150000D01*
X70183334Y-60116667D01*
X70250000Y-60116667D01*
X70350000Y-60150000D01*
X70383334Y-60183333D01*
X71016667Y-60116667D02*
X70683334Y-60116667D01*
X70650000Y-60450000D01*
X70683334Y-60416667D01*
X70750000Y-60383333D01*
X70916667Y-60383333D01*
X70983334Y-60416667D01*
X71016667Y-60450000D01*
X71050000Y-60516667D01*
X71050000Y-60683333D01*
X71016667Y-60750000D01*
X70983334Y-60783333D01*
X70916667Y-60816667D01*
X70750000Y-60816667D01*
X70683334Y-60783333D01*
X70650000Y-60750000D01*
X93383334Y-52250000D02*
X93350000Y-52283333D01*
X93250000Y-52316667D01*
X93183334Y-52316667D01*
X93083334Y-52283333D01*
X93016667Y-52216667D01*
X92983334Y-52150000D01*
X92950000Y-52016667D01*
X92950000Y-51916667D01*
X92983334Y-51783333D01*
X93016667Y-51716667D01*
X93083334Y-51650000D01*
X93183334Y-51616667D01*
X93250000Y-51616667D01*
X93350000Y-51650000D01*
X93383334Y-51683333D01*
X93983334Y-51616667D02*
X93850000Y-51616667D01*
X93783334Y-51650000D01*
X93750000Y-51683333D01*
X93683334Y-51783333D01*
X93650000Y-51916667D01*
X93650000Y-52183333D01*
X93683334Y-52250000D01*
X93716667Y-52283333D01*
X93783334Y-52316667D01*
X93916667Y-52316667D01*
X93983334Y-52283333D01*
X94016667Y-52250000D01*
X94050000Y-52183333D01*
X94050000Y-52016667D01*
X94016667Y-51950000D01*
X93983334Y-51916667D01*
X93916667Y-51883333D01*
X93783334Y-51883333D01*
X93716667Y-51916667D01*
X93683334Y-51950000D01*
X93650000Y-52016667D01*
X93383334Y-57750000D02*
X93350000Y-57783333D01*
X93250000Y-57816667D01*
X93183334Y-57816667D01*
X93083334Y-57783333D01*
X93016667Y-57716667D01*
X92983334Y-57650000D01*
X92950000Y-57516667D01*
X92950000Y-57416667D01*
X92983334Y-57283333D01*
X93016667Y-57216667D01*
X93083334Y-57150000D01*
X93183334Y-57116667D01*
X93250000Y-57116667D01*
X93350000Y-57150000D01*
X93383334Y-57183333D01*
X93616667Y-57116667D02*
X94083334Y-57116667D01*
X93783334Y-57816667D01*
X120957143Y-107866666D02*
X121004762Y-107914285D01*
X121052381Y-108057142D01*
X121052381Y-108152380D01*
X121004762Y-108295238D01*
X120909524Y-108390476D01*
X120814286Y-108438095D01*
X120623810Y-108485714D01*
X120480952Y-108485714D01*
X120290476Y-108438095D01*
X120195238Y-108390476D01*
X120100000Y-108295238D01*
X120052381Y-108152380D01*
X120052381Y-108057142D01*
X120100000Y-107914285D01*
X120147619Y-107866666D01*
X121052381Y-107390476D02*
X121052381Y-107200000D01*
X121004762Y-107104761D01*
X120957143Y-107057142D01*
X120814286Y-106961904D01*
X120623810Y-106914285D01*
X120242857Y-106914285D01*
X120147619Y-106961904D01*
X120100000Y-107009523D01*
X120052381Y-107104761D01*
X120052381Y-107295238D01*
X120100000Y-107390476D01*
X120147619Y-107438095D01*
X120242857Y-107485714D01*
X120480952Y-107485714D01*
X120576190Y-107438095D01*
X120623810Y-107390476D01*
X120671429Y-107295238D01*
X120671429Y-107104761D01*
X120623810Y-107009523D01*
X120576190Y-106961904D01*
X120480952Y-106914285D01*
X85050000Y-64500000D02*
X85016666Y-64533333D01*
X84916666Y-64566667D01*
X84850000Y-64566667D01*
X84750000Y-64533333D01*
X84683333Y-64466667D01*
X84650000Y-64400000D01*
X84616666Y-64266667D01*
X84616666Y-64166667D01*
X84650000Y-64033333D01*
X84683333Y-63966667D01*
X84750000Y-63900000D01*
X84850000Y-63866667D01*
X84916666Y-63866667D01*
X85016666Y-63900000D01*
X85050000Y-63933333D01*
X85716666Y-64566667D02*
X85316666Y-64566667D01*
X85516666Y-64566667D02*
X85516666Y-63866667D01*
X85450000Y-63966667D01*
X85383333Y-64033333D01*
X85316666Y-64066667D01*
X86150000Y-63866667D02*
X86216667Y-63866667D01*
X86283333Y-63900000D01*
X86316667Y-63933333D01*
X86350000Y-64000000D01*
X86383333Y-64133333D01*
X86383333Y-64300000D01*
X86350000Y-64433333D01*
X86316667Y-64500000D01*
X86283333Y-64533333D01*
X86216667Y-64566667D01*
X86150000Y-64566667D01*
X86083333Y-64533333D01*
X86050000Y-64500000D01*
X86016667Y-64433333D01*
X85983333Y-64300000D01*
X85983333Y-64133333D01*
X86016667Y-64000000D01*
X86050000Y-63933333D01*
X86083333Y-63900000D01*
X86150000Y-63866667D01*
X116300000Y-104500000D02*
X116266666Y-104533333D01*
X116166666Y-104566667D01*
X116100000Y-104566667D01*
X116000000Y-104533333D01*
X115933333Y-104466667D01*
X115900000Y-104400000D01*
X115866666Y-104266667D01*
X115866666Y-104166667D01*
X115900000Y-104033333D01*
X115933333Y-103966667D01*
X116000000Y-103900000D01*
X116100000Y-103866667D01*
X116166666Y-103866667D01*
X116266666Y-103900000D01*
X116300000Y-103933333D01*
X116966666Y-104566667D02*
X116566666Y-104566667D01*
X116766666Y-104566667D02*
X116766666Y-103866667D01*
X116700000Y-103966667D01*
X116633333Y-104033333D01*
X116566666Y-104066667D01*
X117633333Y-104566667D02*
X117233333Y-104566667D01*
X117433333Y-104566667D02*
X117433333Y-103866667D01*
X117366667Y-103966667D01*
X117300000Y-104033333D01*
X117233333Y-104066667D01*
X86800000Y-55250000D02*
X86766666Y-55283333D01*
X86666666Y-55316667D01*
X86600000Y-55316667D01*
X86500000Y-55283333D01*
X86433333Y-55216667D01*
X86400000Y-55150000D01*
X86366666Y-55016667D01*
X86366666Y-54916667D01*
X86400000Y-54783333D01*
X86433333Y-54716667D01*
X86500000Y-54650000D01*
X86600000Y-54616667D01*
X86666666Y-54616667D01*
X86766666Y-54650000D01*
X86800000Y-54683333D01*
X87466666Y-55316667D02*
X87066666Y-55316667D01*
X87266666Y-55316667D02*
X87266666Y-54616667D01*
X87200000Y-54716667D01*
X87133333Y-54783333D01*
X87066666Y-54816667D01*
X87700000Y-54616667D02*
X88133333Y-54616667D01*
X87900000Y-54883333D01*
X88000000Y-54883333D01*
X88066667Y-54916667D01*
X88100000Y-54950000D01*
X88133333Y-55016667D01*
X88133333Y-55183333D01*
X88100000Y-55250000D01*
X88066667Y-55283333D01*
X88000000Y-55316667D01*
X87800000Y-55316667D01*
X87733333Y-55283333D01*
X87700000Y-55250000D01*
X86800000Y-53250000D02*
X86766666Y-53283333D01*
X86666666Y-53316667D01*
X86600000Y-53316667D01*
X86500000Y-53283333D01*
X86433333Y-53216667D01*
X86400000Y-53150000D01*
X86366666Y-53016667D01*
X86366666Y-52916667D01*
X86400000Y-52783333D01*
X86433333Y-52716667D01*
X86500000Y-52650000D01*
X86600000Y-52616667D01*
X86666666Y-52616667D01*
X86766666Y-52650000D01*
X86800000Y-52683333D01*
X87466666Y-53316667D02*
X87066666Y-53316667D01*
X87266666Y-53316667D02*
X87266666Y-52616667D01*
X87200000Y-52716667D01*
X87133333Y-52783333D01*
X87066666Y-52816667D01*
X88066667Y-52616667D02*
X87933333Y-52616667D01*
X87866667Y-52650000D01*
X87833333Y-52683333D01*
X87766667Y-52783333D01*
X87733333Y-52916667D01*
X87733333Y-53183333D01*
X87766667Y-53250000D01*
X87800000Y-53283333D01*
X87866667Y-53316667D01*
X88000000Y-53316667D01*
X88066667Y-53283333D01*
X88100000Y-53250000D01*
X88133333Y-53183333D01*
X88133333Y-53016667D01*
X88100000Y-52950000D01*
X88066667Y-52916667D01*
X88000000Y-52883333D01*
X87866667Y-52883333D01*
X87800000Y-52916667D01*
X87766667Y-52950000D01*
X87733333Y-53016667D01*
X108800000Y-51500000D02*
X108766666Y-51533333D01*
X108666666Y-51566667D01*
X108600000Y-51566667D01*
X108500000Y-51533333D01*
X108433333Y-51466667D01*
X108400000Y-51400000D01*
X108366666Y-51266667D01*
X108366666Y-51166667D01*
X108400000Y-51033333D01*
X108433333Y-50966667D01*
X108500000Y-50900000D01*
X108600000Y-50866667D01*
X108666666Y-50866667D01*
X108766666Y-50900000D01*
X108800000Y-50933333D01*
X109466666Y-51566667D02*
X109066666Y-51566667D01*
X109266666Y-51566667D02*
X109266666Y-50866667D01*
X109200000Y-50966667D01*
X109133333Y-51033333D01*
X109066666Y-51066667D01*
X109700000Y-50866667D02*
X110166667Y-50866667D01*
X109866667Y-51566667D01*
X107550000Y-57750000D02*
X107516666Y-57783333D01*
X107416666Y-57816667D01*
X107350000Y-57816667D01*
X107250000Y-57783333D01*
X107183333Y-57716667D01*
X107150000Y-57650000D01*
X107116666Y-57516667D01*
X107116666Y-57416667D01*
X107150000Y-57283333D01*
X107183333Y-57216667D01*
X107250000Y-57150000D01*
X107350000Y-57116667D01*
X107416666Y-57116667D01*
X107516666Y-57150000D01*
X107550000Y-57183333D01*
X108216666Y-57816667D02*
X107816666Y-57816667D01*
X108016666Y-57816667D02*
X108016666Y-57116667D01*
X107950000Y-57216667D01*
X107883333Y-57283333D01*
X107816666Y-57316667D01*
X108616667Y-57416667D02*
X108550000Y-57383333D01*
X108516667Y-57350000D01*
X108483333Y-57283333D01*
X108483333Y-57250000D01*
X108516667Y-57183333D01*
X108550000Y-57150000D01*
X108616667Y-57116667D01*
X108750000Y-57116667D01*
X108816667Y-57150000D01*
X108850000Y-57183333D01*
X108883333Y-57250000D01*
X108883333Y-57283333D01*
X108850000Y-57350000D01*
X108816667Y-57383333D01*
X108750000Y-57416667D01*
X108616667Y-57416667D01*
X108550000Y-57450000D01*
X108516667Y-57483333D01*
X108483333Y-57550000D01*
X108483333Y-57683333D01*
X108516667Y-57750000D01*
X108550000Y-57783333D01*
X108616667Y-57816667D01*
X108750000Y-57816667D01*
X108816667Y-57783333D01*
X108850000Y-57750000D01*
X108883333Y-57683333D01*
X108883333Y-57550000D01*
X108850000Y-57483333D01*
X108816667Y-57450000D01*
X108750000Y-57416667D01*
X115800000Y-103250000D02*
X115766666Y-103283333D01*
X115666666Y-103316667D01*
X115600000Y-103316667D01*
X115500000Y-103283333D01*
X115433333Y-103216667D01*
X115400000Y-103150000D01*
X115366666Y-103016667D01*
X115366666Y-102916667D01*
X115400000Y-102783333D01*
X115433333Y-102716667D01*
X115500000Y-102650000D01*
X115600000Y-102616667D01*
X115666666Y-102616667D01*
X115766666Y-102650000D01*
X115800000Y-102683333D01*
X116466666Y-103316667D02*
X116066666Y-103316667D01*
X116266666Y-103316667D02*
X116266666Y-102616667D01*
X116200000Y-102716667D01*
X116133333Y-102783333D01*
X116066666Y-102816667D01*
X116800000Y-103316667D02*
X116933333Y-103316667D01*
X117000000Y-103283333D01*
X117033333Y-103250000D01*
X117100000Y-103150000D01*
X117133333Y-103016667D01*
X117133333Y-102750000D01*
X117100000Y-102683333D01*
X117066667Y-102650000D01*
X117000000Y-102616667D01*
X116866667Y-102616667D01*
X116800000Y-102650000D01*
X116766667Y-102683333D01*
X116733333Y-102750000D01*
X116733333Y-102916667D01*
X116766667Y-102983333D01*
X116800000Y-103016667D01*
X116866667Y-103050000D01*
X117000000Y-103050000D01*
X117066667Y-103016667D01*
X117100000Y-102983333D01*
X117133333Y-102916667D01*
X115050000Y-51500000D02*
X115016666Y-51533333D01*
X114916666Y-51566667D01*
X114850000Y-51566667D01*
X114750000Y-51533333D01*
X114683333Y-51466667D01*
X114650000Y-51400000D01*
X114616666Y-51266667D01*
X114616666Y-51166667D01*
X114650000Y-51033333D01*
X114683333Y-50966667D01*
X114750000Y-50900000D01*
X114850000Y-50866667D01*
X114916666Y-50866667D01*
X115016666Y-50900000D01*
X115050000Y-50933333D01*
X115316666Y-50933333D02*
X115350000Y-50900000D01*
X115416666Y-50866667D01*
X115583333Y-50866667D01*
X115650000Y-50900000D01*
X115683333Y-50933333D01*
X115716666Y-51000000D01*
X115716666Y-51066667D01*
X115683333Y-51166667D01*
X115283333Y-51566667D01*
X115716666Y-51566667D01*
X116150000Y-50866667D02*
X116216667Y-50866667D01*
X116283333Y-50900000D01*
X116316667Y-50933333D01*
X116350000Y-51000000D01*
X116383333Y-51133333D01*
X116383333Y-51300000D01*
X116350000Y-51433333D01*
X116316667Y-51500000D01*
X116283333Y-51533333D01*
X116216667Y-51566667D01*
X116150000Y-51566667D01*
X116083333Y-51533333D01*
X116050000Y-51500000D01*
X116016667Y-51433333D01*
X115983333Y-51300000D01*
X115983333Y-51133333D01*
X116016667Y-51000000D01*
X116050000Y-50933333D01*
X116083333Y-50900000D01*
X116150000Y-50866667D01*
X119050000Y-66500000D02*
X119016666Y-66533333D01*
X118916666Y-66566667D01*
X118850000Y-66566667D01*
X118750000Y-66533333D01*
X118683333Y-66466667D01*
X118650000Y-66400000D01*
X118616666Y-66266667D01*
X118616666Y-66166667D01*
X118650000Y-66033333D01*
X118683333Y-65966667D01*
X118750000Y-65900000D01*
X118850000Y-65866667D01*
X118916666Y-65866667D01*
X119016666Y-65900000D01*
X119050000Y-65933333D01*
X119316666Y-65933333D02*
X119350000Y-65900000D01*
X119416666Y-65866667D01*
X119583333Y-65866667D01*
X119650000Y-65900000D01*
X119683333Y-65933333D01*
X119716666Y-66000000D01*
X119716666Y-66066667D01*
X119683333Y-66166667D01*
X119283333Y-66566667D01*
X119716666Y-66566667D01*
X120383333Y-66566667D02*
X119983333Y-66566667D01*
X120183333Y-66566667D02*
X120183333Y-65866667D01*
X120116667Y-65966667D01*
X120050000Y-66033333D01*
X119983333Y-66066667D01*
X127550000Y-63750000D02*
X127516666Y-63783333D01*
X127416666Y-63816667D01*
X127350000Y-63816667D01*
X127250000Y-63783333D01*
X127183333Y-63716667D01*
X127150000Y-63650000D01*
X127116666Y-63516667D01*
X127116666Y-63416667D01*
X127150000Y-63283333D01*
X127183333Y-63216667D01*
X127250000Y-63150000D01*
X127350000Y-63116667D01*
X127416666Y-63116667D01*
X127516666Y-63150000D01*
X127550000Y-63183333D01*
X127816666Y-63183333D02*
X127850000Y-63150000D01*
X127916666Y-63116667D01*
X128083333Y-63116667D01*
X128150000Y-63150000D01*
X128183333Y-63183333D01*
X128216666Y-63250000D01*
X128216666Y-63316667D01*
X128183333Y-63416667D01*
X127783333Y-63816667D01*
X128216666Y-63816667D01*
X128483333Y-63183333D02*
X128516667Y-63150000D01*
X128583333Y-63116667D01*
X128750000Y-63116667D01*
X128816667Y-63150000D01*
X128850000Y-63183333D01*
X128883333Y-63250000D01*
X128883333Y-63316667D01*
X128850000Y-63416667D01*
X128450000Y-63816667D01*
X128883333Y-63816667D01*
X111800000Y-65750000D02*
X111766666Y-65783333D01*
X111666666Y-65816667D01*
X111600000Y-65816667D01*
X111500000Y-65783333D01*
X111433333Y-65716667D01*
X111400000Y-65650000D01*
X111366666Y-65516667D01*
X111366666Y-65416667D01*
X111400000Y-65283333D01*
X111433333Y-65216667D01*
X111500000Y-65150000D01*
X111600000Y-65116667D01*
X111666666Y-65116667D01*
X111766666Y-65150000D01*
X111800000Y-65183333D01*
X112066666Y-65183333D02*
X112100000Y-65150000D01*
X112166666Y-65116667D01*
X112333333Y-65116667D01*
X112400000Y-65150000D01*
X112433333Y-65183333D01*
X112466666Y-65250000D01*
X112466666Y-65316667D01*
X112433333Y-65416667D01*
X112033333Y-65816667D01*
X112466666Y-65816667D01*
X112700000Y-65116667D02*
X113133333Y-65116667D01*
X112900000Y-65383333D01*
X113000000Y-65383333D01*
X113066667Y-65416667D01*
X113100000Y-65450000D01*
X113133333Y-65516667D01*
X113133333Y-65683333D01*
X113100000Y-65750000D01*
X113066667Y-65783333D01*
X113000000Y-65816667D01*
X112800000Y-65816667D01*
X112733333Y-65783333D01*
X112700000Y-65750000D01*
X123050000Y-64750000D02*
X123016666Y-64783333D01*
X122916666Y-64816667D01*
X122850000Y-64816667D01*
X122750000Y-64783333D01*
X122683333Y-64716667D01*
X122650000Y-64650000D01*
X122616666Y-64516667D01*
X122616666Y-64416667D01*
X122650000Y-64283333D01*
X122683333Y-64216667D01*
X122750000Y-64150000D01*
X122850000Y-64116667D01*
X122916666Y-64116667D01*
X123016666Y-64150000D01*
X123050000Y-64183333D01*
X123316666Y-64183333D02*
X123350000Y-64150000D01*
X123416666Y-64116667D01*
X123583333Y-64116667D01*
X123650000Y-64150000D01*
X123683333Y-64183333D01*
X123716666Y-64250000D01*
X123716666Y-64316667D01*
X123683333Y-64416667D01*
X123283333Y-64816667D01*
X123716666Y-64816667D01*
X124316667Y-64350000D02*
X124316667Y-64816667D01*
X124150000Y-64083333D02*
X123983333Y-64583333D01*
X124416667Y-64583333D01*
X123050000Y-66000000D02*
X123016666Y-66033333D01*
X122916666Y-66066667D01*
X122850000Y-66066667D01*
X122750000Y-66033333D01*
X122683333Y-65966667D01*
X122650000Y-65900000D01*
X122616666Y-65766667D01*
X122616666Y-65666667D01*
X122650000Y-65533333D01*
X122683333Y-65466667D01*
X122750000Y-65400000D01*
X122850000Y-65366667D01*
X122916666Y-65366667D01*
X123016666Y-65400000D01*
X123050000Y-65433333D01*
X123316666Y-65433333D02*
X123350000Y-65400000D01*
X123416666Y-65366667D01*
X123583333Y-65366667D01*
X123650000Y-65400000D01*
X123683333Y-65433333D01*
X123716666Y-65500000D01*
X123716666Y-65566667D01*
X123683333Y-65666667D01*
X123283333Y-66066667D01*
X123716666Y-66066667D01*
X124350000Y-65366667D02*
X124016667Y-65366667D01*
X123983333Y-65700000D01*
X124016667Y-65666667D01*
X124083333Y-65633333D01*
X124250000Y-65633333D01*
X124316667Y-65666667D01*
X124350000Y-65700000D01*
X124383333Y-65766667D01*
X124383333Y-65933333D01*
X124350000Y-66000000D01*
X124316667Y-66033333D01*
X124250000Y-66066667D01*
X124083333Y-66066667D01*
X124016667Y-66033333D01*
X123983333Y-66000000D01*
X110050000Y-64250000D02*
X110016666Y-64283333D01*
X109916666Y-64316667D01*
X109850000Y-64316667D01*
X109750000Y-64283333D01*
X109683333Y-64216667D01*
X109650000Y-64150000D01*
X109616666Y-64016667D01*
X109616666Y-63916667D01*
X109650000Y-63783333D01*
X109683333Y-63716667D01*
X109750000Y-63650000D01*
X109850000Y-63616667D01*
X109916666Y-63616667D01*
X110016666Y-63650000D01*
X110050000Y-63683333D01*
X110316666Y-63683333D02*
X110350000Y-63650000D01*
X110416666Y-63616667D01*
X110583333Y-63616667D01*
X110650000Y-63650000D01*
X110683333Y-63683333D01*
X110716666Y-63750000D01*
X110716666Y-63816667D01*
X110683333Y-63916667D01*
X110283333Y-64316667D01*
X110716666Y-64316667D01*
X111316667Y-63616667D02*
X111183333Y-63616667D01*
X111116667Y-63650000D01*
X111083333Y-63683333D01*
X111016667Y-63783333D01*
X110983333Y-63916667D01*
X110983333Y-64183333D01*
X111016667Y-64250000D01*
X111050000Y-64283333D01*
X111116667Y-64316667D01*
X111250000Y-64316667D01*
X111316667Y-64283333D01*
X111350000Y-64250000D01*
X111383333Y-64183333D01*
X111383333Y-64016667D01*
X111350000Y-63950000D01*
X111316667Y-63916667D01*
X111250000Y-63883333D01*
X111116667Y-63883333D01*
X111050000Y-63916667D01*
X111016667Y-63950000D01*
X110983333Y-64016667D01*
X108300000Y-59250000D02*
X108266666Y-59283333D01*
X108166666Y-59316667D01*
X108100000Y-59316667D01*
X108000000Y-59283333D01*
X107933333Y-59216667D01*
X107900000Y-59150000D01*
X107866666Y-59016667D01*
X107866666Y-58916667D01*
X107900000Y-58783333D01*
X107933333Y-58716667D01*
X108000000Y-58650000D01*
X108100000Y-58616667D01*
X108166666Y-58616667D01*
X108266666Y-58650000D01*
X108300000Y-58683333D01*
X108566666Y-58683333D02*
X108600000Y-58650000D01*
X108666666Y-58616667D01*
X108833333Y-58616667D01*
X108900000Y-58650000D01*
X108933333Y-58683333D01*
X108966666Y-58750000D01*
X108966666Y-58816667D01*
X108933333Y-58916667D01*
X108533333Y-59316667D01*
X108966666Y-59316667D01*
X109200000Y-58616667D02*
X109666667Y-58616667D01*
X109366667Y-59316667D01*
X107300000Y-82500000D02*
X107266666Y-82533333D01*
X107166666Y-82566667D01*
X107100000Y-82566667D01*
X107000000Y-82533333D01*
X106933333Y-82466667D01*
X106900000Y-82400000D01*
X106866666Y-82266667D01*
X106866666Y-82166667D01*
X106900000Y-82033333D01*
X106933333Y-81966667D01*
X107000000Y-81900000D01*
X107100000Y-81866667D01*
X107166666Y-81866667D01*
X107266666Y-81900000D01*
X107300000Y-81933333D01*
X107566666Y-81933333D02*
X107600000Y-81900000D01*
X107666666Y-81866667D01*
X107833333Y-81866667D01*
X107900000Y-81900000D01*
X107933333Y-81933333D01*
X107966666Y-82000000D01*
X107966666Y-82066667D01*
X107933333Y-82166667D01*
X107533333Y-82566667D01*
X107966666Y-82566667D01*
X108366667Y-82166667D02*
X108300000Y-82133333D01*
X108266667Y-82100000D01*
X108233333Y-82033333D01*
X108233333Y-82000000D01*
X108266667Y-81933333D01*
X108300000Y-81900000D01*
X108366667Y-81866667D01*
X108500000Y-81866667D01*
X108566667Y-81900000D01*
X108600000Y-81933333D01*
X108633333Y-82000000D01*
X108633333Y-82033333D01*
X108600000Y-82100000D01*
X108566667Y-82133333D01*
X108500000Y-82166667D01*
X108366667Y-82166667D01*
X108300000Y-82200000D01*
X108266667Y-82233333D01*
X108233333Y-82300000D01*
X108233333Y-82433333D01*
X108266667Y-82500000D01*
X108300000Y-82533333D01*
X108366667Y-82566667D01*
X108500000Y-82566667D01*
X108566667Y-82533333D01*
X108600000Y-82500000D01*
X108633333Y-82433333D01*
X108633333Y-82300000D01*
X108600000Y-82233333D01*
X108566667Y-82200000D01*
X108500000Y-82166667D01*
X115800000Y-56250000D02*
X115766666Y-56283333D01*
X115666666Y-56316667D01*
X115600000Y-56316667D01*
X115500000Y-56283333D01*
X115433333Y-56216667D01*
X115400000Y-56150000D01*
X115366666Y-56016667D01*
X115366666Y-55916667D01*
X115400000Y-55783333D01*
X115433333Y-55716667D01*
X115500000Y-55650000D01*
X115600000Y-55616667D01*
X115666666Y-55616667D01*
X115766666Y-55650000D01*
X115800000Y-55683333D01*
X116066666Y-55683333D02*
X116100000Y-55650000D01*
X116166666Y-55616667D01*
X116333333Y-55616667D01*
X116400000Y-55650000D01*
X116433333Y-55683333D01*
X116466666Y-55750000D01*
X116466666Y-55816667D01*
X116433333Y-55916667D01*
X116033333Y-56316667D01*
X116466666Y-56316667D01*
X116800000Y-56316667D02*
X116933333Y-56316667D01*
X117000000Y-56283333D01*
X117033333Y-56250000D01*
X117100000Y-56150000D01*
X117133333Y-56016667D01*
X117133333Y-55750000D01*
X117100000Y-55683333D01*
X117066667Y-55650000D01*
X117000000Y-55616667D01*
X116866667Y-55616667D01*
X116800000Y-55650000D01*
X116766667Y-55683333D01*
X116733333Y-55750000D01*
X116733333Y-55916667D01*
X116766667Y-55983333D01*
X116800000Y-56016667D01*
X116866667Y-56050000D01*
X117000000Y-56050000D01*
X117066667Y-56016667D01*
X117100000Y-55983333D01*
X117133333Y-55916667D01*
X126300000Y-80250000D02*
X126266666Y-80283333D01*
X126166666Y-80316667D01*
X126100000Y-80316667D01*
X126000000Y-80283333D01*
X125933333Y-80216667D01*
X125900000Y-80150000D01*
X125866666Y-80016667D01*
X125866666Y-79916667D01*
X125900000Y-79783333D01*
X125933333Y-79716667D01*
X126000000Y-79650000D01*
X126100000Y-79616667D01*
X126166666Y-79616667D01*
X126266666Y-79650000D01*
X126300000Y-79683333D01*
X126533333Y-79616667D02*
X126966666Y-79616667D01*
X126733333Y-79883333D01*
X126833333Y-79883333D01*
X126900000Y-79916667D01*
X126933333Y-79950000D01*
X126966666Y-80016667D01*
X126966666Y-80183333D01*
X126933333Y-80250000D01*
X126900000Y-80283333D01*
X126833333Y-80316667D01*
X126633333Y-80316667D01*
X126566666Y-80283333D01*
X126533333Y-80250000D01*
X127400000Y-79616667D02*
X127466667Y-79616667D01*
X127533333Y-79650000D01*
X127566667Y-79683333D01*
X127600000Y-79750000D01*
X127633333Y-79883333D01*
X127633333Y-80050000D01*
X127600000Y-80183333D01*
X127566667Y-80250000D01*
X127533333Y-80283333D01*
X127466667Y-80316667D01*
X127400000Y-80316667D01*
X127333333Y-80283333D01*
X127300000Y-80250000D01*
X127266667Y-80183333D01*
X127233333Y-80050000D01*
X127233333Y-79883333D01*
X127266667Y-79750000D01*
X127300000Y-79683333D01*
X127333333Y-79650000D01*
X127400000Y-79616667D01*
X126050000Y-68500000D02*
X126016666Y-68533333D01*
X125916666Y-68566667D01*
X125850000Y-68566667D01*
X125750000Y-68533333D01*
X125683333Y-68466667D01*
X125650000Y-68400000D01*
X125616666Y-68266667D01*
X125616666Y-68166667D01*
X125650000Y-68033333D01*
X125683333Y-67966667D01*
X125750000Y-67900000D01*
X125850000Y-67866667D01*
X125916666Y-67866667D01*
X126016666Y-67900000D01*
X126050000Y-67933333D01*
X126283333Y-67866667D02*
X126716666Y-67866667D01*
X126483333Y-68133333D01*
X126583333Y-68133333D01*
X126650000Y-68166667D01*
X126683333Y-68200000D01*
X126716666Y-68266667D01*
X126716666Y-68433333D01*
X126683333Y-68500000D01*
X126650000Y-68533333D01*
X126583333Y-68566667D01*
X126383333Y-68566667D01*
X126316666Y-68533333D01*
X126283333Y-68500000D01*
X127383333Y-68566667D02*
X126983333Y-68566667D01*
X127183333Y-68566667D02*
X127183333Y-67866667D01*
X127116667Y-67966667D01*
X127050000Y-68033333D01*
X126983333Y-68066667D01*
X121550000Y-66750000D02*
X121516666Y-66783333D01*
X121416666Y-66816667D01*
X121350000Y-66816667D01*
X121250000Y-66783333D01*
X121183333Y-66716667D01*
X121150000Y-66650000D01*
X121116666Y-66516667D01*
X121116666Y-66416667D01*
X121150000Y-66283333D01*
X121183333Y-66216667D01*
X121250000Y-66150000D01*
X121350000Y-66116667D01*
X121416666Y-66116667D01*
X121516666Y-66150000D01*
X121550000Y-66183333D01*
X121783333Y-66116667D02*
X122216666Y-66116667D01*
X121983333Y-66383333D01*
X122083333Y-66383333D01*
X122150000Y-66416667D01*
X122183333Y-66450000D01*
X122216666Y-66516667D01*
X122216666Y-66683333D01*
X122183333Y-66750000D01*
X122150000Y-66783333D01*
X122083333Y-66816667D01*
X121883333Y-66816667D01*
X121816666Y-66783333D01*
X121783333Y-66750000D01*
X122483333Y-66183333D02*
X122516667Y-66150000D01*
X122583333Y-66116667D01*
X122750000Y-66116667D01*
X122816667Y-66150000D01*
X122850000Y-66183333D01*
X122883333Y-66250000D01*
X122883333Y-66316667D01*
X122850000Y-66416667D01*
X122450000Y-66816667D01*
X122883333Y-66816667D01*
X107050000Y-73750000D02*
X107016666Y-73783333D01*
X106916666Y-73816667D01*
X106850000Y-73816667D01*
X106750000Y-73783333D01*
X106683333Y-73716667D01*
X106650000Y-73650000D01*
X106616666Y-73516667D01*
X106616666Y-73416667D01*
X106650000Y-73283333D01*
X106683333Y-73216667D01*
X106750000Y-73150000D01*
X106850000Y-73116667D01*
X106916666Y-73116667D01*
X107016666Y-73150000D01*
X107050000Y-73183333D01*
X107283333Y-73116667D02*
X107716666Y-73116667D01*
X107483333Y-73383333D01*
X107583333Y-73383333D01*
X107650000Y-73416667D01*
X107683333Y-73450000D01*
X107716666Y-73516667D01*
X107716666Y-73683333D01*
X107683333Y-73750000D01*
X107650000Y-73783333D01*
X107583333Y-73816667D01*
X107383333Y-73816667D01*
X107316666Y-73783333D01*
X107283333Y-73750000D01*
X107950000Y-73116667D02*
X108383333Y-73116667D01*
X108150000Y-73383333D01*
X108250000Y-73383333D01*
X108316667Y-73416667D01*
X108350000Y-73450000D01*
X108383333Y-73516667D01*
X108383333Y-73683333D01*
X108350000Y-73750000D01*
X108316667Y-73783333D01*
X108250000Y-73816667D01*
X108050000Y-73816667D01*
X107983333Y-73783333D01*
X107950000Y-73750000D01*
X115550000Y-63000000D02*
X115516666Y-63033333D01*
X115416666Y-63066667D01*
X115350000Y-63066667D01*
X115250000Y-63033333D01*
X115183333Y-62966667D01*
X115150000Y-62900000D01*
X115116666Y-62766667D01*
X115116666Y-62666667D01*
X115150000Y-62533333D01*
X115183333Y-62466667D01*
X115250000Y-62400000D01*
X115350000Y-62366667D01*
X115416666Y-62366667D01*
X115516666Y-62400000D01*
X115550000Y-62433333D01*
X115783333Y-62366667D02*
X116216666Y-62366667D01*
X115983333Y-62633333D01*
X116083333Y-62633333D01*
X116150000Y-62666667D01*
X116183333Y-62700000D01*
X116216666Y-62766667D01*
X116216666Y-62933333D01*
X116183333Y-63000000D01*
X116150000Y-63033333D01*
X116083333Y-63066667D01*
X115883333Y-63066667D01*
X115816666Y-63033333D01*
X115783333Y-63000000D01*
X116816667Y-62600000D02*
X116816667Y-63066667D01*
X116650000Y-62333333D02*
X116483333Y-62833333D01*
X116916667Y-62833333D01*
X107300000Y-75500000D02*
X107266666Y-75533333D01*
X107166666Y-75566667D01*
X107100000Y-75566667D01*
X107000000Y-75533333D01*
X106933333Y-75466667D01*
X106900000Y-75400000D01*
X106866666Y-75266667D01*
X106866666Y-75166667D01*
X106900000Y-75033333D01*
X106933333Y-74966667D01*
X107000000Y-74900000D01*
X107100000Y-74866667D01*
X107166666Y-74866667D01*
X107266666Y-74900000D01*
X107300000Y-74933333D01*
X107533333Y-74866667D02*
X107966666Y-74866667D01*
X107733333Y-75133333D01*
X107833333Y-75133333D01*
X107900000Y-75166667D01*
X107933333Y-75200000D01*
X107966666Y-75266667D01*
X107966666Y-75433333D01*
X107933333Y-75500000D01*
X107900000Y-75533333D01*
X107833333Y-75566667D01*
X107633333Y-75566667D01*
X107566666Y-75533333D01*
X107533333Y-75500000D01*
X108600000Y-74866667D02*
X108266667Y-74866667D01*
X108233333Y-75200000D01*
X108266667Y-75166667D01*
X108333333Y-75133333D01*
X108500000Y-75133333D01*
X108566667Y-75166667D01*
X108600000Y-75200000D01*
X108633333Y-75266667D01*
X108633333Y-75433333D01*
X108600000Y-75500000D01*
X108566667Y-75533333D01*
X108500000Y-75566667D01*
X108333333Y-75566667D01*
X108266667Y-75533333D01*
X108233333Y-75500000D01*
X133550000Y-66250000D02*
X133516666Y-66283333D01*
X133416666Y-66316667D01*
X133350000Y-66316667D01*
X133250000Y-66283333D01*
X133183333Y-66216667D01*
X133150000Y-66150000D01*
X133116666Y-66016667D01*
X133116666Y-65916667D01*
X133150000Y-65783333D01*
X133183333Y-65716667D01*
X133250000Y-65650000D01*
X133350000Y-65616667D01*
X133416666Y-65616667D01*
X133516666Y-65650000D01*
X133550000Y-65683333D01*
X133783333Y-65616667D02*
X134216666Y-65616667D01*
X133983333Y-65883333D01*
X134083333Y-65883333D01*
X134150000Y-65916667D01*
X134183333Y-65950000D01*
X134216666Y-66016667D01*
X134216666Y-66183333D01*
X134183333Y-66250000D01*
X134150000Y-66283333D01*
X134083333Y-66316667D01*
X133883333Y-66316667D01*
X133816666Y-66283333D01*
X133783333Y-66250000D01*
X134816667Y-65616667D02*
X134683333Y-65616667D01*
X134616667Y-65650000D01*
X134583333Y-65683333D01*
X134516667Y-65783333D01*
X134483333Y-65916667D01*
X134483333Y-66183333D01*
X134516667Y-66250000D01*
X134550000Y-66283333D01*
X134616667Y-66316667D01*
X134750000Y-66316667D01*
X134816667Y-66283333D01*
X134850000Y-66250000D01*
X134883333Y-66183333D01*
X134883333Y-66016667D01*
X134850000Y-65950000D01*
X134816667Y-65916667D01*
X134750000Y-65883333D01*
X134616667Y-65883333D01*
X134550000Y-65916667D01*
X134516667Y-65950000D01*
X134483333Y-66016667D01*
X108800000Y-83500000D02*
X108766666Y-83533333D01*
X108666666Y-83566667D01*
X108600000Y-83566667D01*
X108500000Y-83533333D01*
X108433333Y-83466667D01*
X108400000Y-83400000D01*
X108366666Y-83266667D01*
X108366666Y-83166667D01*
X108400000Y-83033333D01*
X108433333Y-82966667D01*
X108500000Y-82900000D01*
X108600000Y-82866667D01*
X108666666Y-82866667D01*
X108766666Y-82900000D01*
X108800000Y-82933333D01*
X109033333Y-82866667D02*
X109466666Y-82866667D01*
X109233333Y-83133333D01*
X109333333Y-83133333D01*
X109400000Y-83166667D01*
X109433333Y-83200000D01*
X109466666Y-83266667D01*
X109466666Y-83433333D01*
X109433333Y-83500000D01*
X109400000Y-83533333D01*
X109333333Y-83566667D01*
X109133333Y-83566667D01*
X109066666Y-83533333D01*
X109033333Y-83500000D01*
X109700000Y-82866667D02*
X110166667Y-82866667D01*
X109866667Y-83566667D01*
X136150000Y-63000000D02*
X136116666Y-63033333D01*
X136016666Y-63066667D01*
X135950000Y-63066667D01*
X135850000Y-63033333D01*
X135783333Y-62966667D01*
X135750000Y-62900000D01*
X135716666Y-62766667D01*
X135716666Y-62666667D01*
X135750000Y-62533333D01*
X135783333Y-62466667D01*
X135850000Y-62400000D01*
X135950000Y-62366667D01*
X136016666Y-62366667D01*
X136116666Y-62400000D01*
X136150000Y-62433333D01*
X136383333Y-62366667D02*
X136816666Y-62366667D01*
X136583333Y-62633333D01*
X136683333Y-62633333D01*
X136750000Y-62666667D01*
X136783333Y-62700000D01*
X136816666Y-62766667D01*
X136816666Y-62933333D01*
X136783333Y-63000000D01*
X136750000Y-63033333D01*
X136683333Y-63066667D01*
X136483333Y-63066667D01*
X136416666Y-63033333D01*
X136383333Y-63000000D01*
X137216667Y-62666667D02*
X137150000Y-62633333D01*
X137116667Y-62600000D01*
X137083333Y-62533333D01*
X137083333Y-62500000D01*
X137116667Y-62433333D01*
X137150000Y-62400000D01*
X137216667Y-62366667D01*
X137350000Y-62366667D01*
X137416667Y-62400000D01*
X137450000Y-62433333D01*
X137483333Y-62500000D01*
X137483333Y-62533333D01*
X137450000Y-62600000D01*
X137416667Y-62633333D01*
X137350000Y-62666667D01*
X137216667Y-62666667D01*
X137150000Y-62700000D01*
X137116667Y-62733333D01*
X137083333Y-62800000D01*
X137083333Y-62933333D01*
X137116667Y-63000000D01*
X137150000Y-63033333D01*
X137216667Y-63066667D01*
X137350000Y-63066667D01*
X137416667Y-63033333D01*
X137450000Y-63000000D01*
X137483333Y-62933333D01*
X137483333Y-62800000D01*
X137450000Y-62733333D01*
X137416667Y-62700000D01*
X137350000Y-62666667D01*
X133550000Y-69500000D02*
X133516666Y-69533333D01*
X133416666Y-69566667D01*
X133350000Y-69566667D01*
X133250000Y-69533333D01*
X133183333Y-69466667D01*
X133150000Y-69400000D01*
X133116666Y-69266667D01*
X133116666Y-69166667D01*
X133150000Y-69033333D01*
X133183333Y-68966667D01*
X133250000Y-68900000D01*
X133350000Y-68866667D01*
X133416666Y-68866667D01*
X133516666Y-68900000D01*
X133550000Y-68933333D01*
X133783333Y-68866667D02*
X134216666Y-68866667D01*
X133983333Y-69133333D01*
X134083333Y-69133333D01*
X134150000Y-69166667D01*
X134183333Y-69200000D01*
X134216666Y-69266667D01*
X134216666Y-69433333D01*
X134183333Y-69500000D01*
X134150000Y-69533333D01*
X134083333Y-69566667D01*
X133883333Y-69566667D01*
X133816666Y-69533333D01*
X133783333Y-69500000D01*
X134550000Y-69566667D02*
X134683333Y-69566667D01*
X134750000Y-69533333D01*
X134783333Y-69500000D01*
X134850000Y-69400000D01*
X134883333Y-69266667D01*
X134883333Y-69000000D01*
X134850000Y-68933333D01*
X134816667Y-68900000D01*
X134750000Y-68866667D01*
X134616667Y-68866667D01*
X134550000Y-68900000D01*
X134516667Y-68933333D01*
X134483333Y-69000000D01*
X134483333Y-69166667D01*
X134516667Y-69233333D01*
X134550000Y-69266667D01*
X134616667Y-69300000D01*
X134750000Y-69300000D01*
X134816667Y-69266667D01*
X134850000Y-69233333D01*
X134883333Y-69166667D01*
X121550000Y-80850000D02*
X121516666Y-80883333D01*
X121416666Y-80916667D01*
X121350000Y-80916667D01*
X121250000Y-80883333D01*
X121183333Y-80816667D01*
X121150000Y-80750000D01*
X121116666Y-80616667D01*
X121116666Y-80516667D01*
X121150000Y-80383333D01*
X121183333Y-80316667D01*
X121250000Y-80250000D01*
X121350000Y-80216667D01*
X121416666Y-80216667D01*
X121516666Y-80250000D01*
X121550000Y-80283333D01*
X122150000Y-80450000D02*
X122150000Y-80916667D01*
X121983333Y-80183333D02*
X121816666Y-80683333D01*
X122250000Y-80683333D01*
X122650000Y-80216667D02*
X122716667Y-80216667D01*
X122783333Y-80250000D01*
X122816667Y-80283333D01*
X122850000Y-80350000D01*
X122883333Y-80483333D01*
X122883333Y-80650000D01*
X122850000Y-80783333D01*
X122816667Y-80850000D01*
X122783333Y-80883333D01*
X122716667Y-80916667D01*
X122650000Y-80916667D01*
X122583333Y-80883333D01*
X122550000Y-80850000D01*
X122516667Y-80783333D01*
X122483333Y-80650000D01*
X122483333Y-80483333D01*
X122516667Y-80350000D01*
X122550000Y-80283333D01*
X122583333Y-80250000D01*
X122650000Y-80216667D01*
X138800000Y-66750000D02*
X138766666Y-66783333D01*
X138666666Y-66816667D01*
X138600000Y-66816667D01*
X138500000Y-66783333D01*
X138433333Y-66716667D01*
X138400000Y-66650000D01*
X138366666Y-66516667D01*
X138366666Y-66416667D01*
X138400000Y-66283333D01*
X138433333Y-66216667D01*
X138500000Y-66150000D01*
X138600000Y-66116667D01*
X138666666Y-66116667D01*
X138766666Y-66150000D01*
X138800000Y-66183333D01*
X139400000Y-66350000D02*
X139400000Y-66816667D01*
X139233333Y-66083333D02*
X139066666Y-66583333D01*
X139500000Y-66583333D01*
X140133333Y-66816667D02*
X139733333Y-66816667D01*
X139933333Y-66816667D02*
X139933333Y-66116667D01*
X139866667Y-66216667D01*
X139800000Y-66283333D01*
X139733333Y-66316667D01*
X138800000Y-70000000D02*
X138766666Y-70033333D01*
X138666666Y-70066667D01*
X138600000Y-70066667D01*
X138500000Y-70033333D01*
X138433333Y-69966667D01*
X138400000Y-69900000D01*
X138366666Y-69766667D01*
X138366666Y-69666667D01*
X138400000Y-69533333D01*
X138433333Y-69466667D01*
X138500000Y-69400000D01*
X138600000Y-69366667D01*
X138666666Y-69366667D01*
X138766666Y-69400000D01*
X138800000Y-69433333D01*
X139400000Y-69600000D02*
X139400000Y-70066667D01*
X139233333Y-69333333D02*
X139066666Y-69833333D01*
X139500000Y-69833333D01*
X139733333Y-69433333D02*
X139766667Y-69400000D01*
X139833333Y-69366667D01*
X140000000Y-69366667D01*
X140066667Y-69400000D01*
X140100000Y-69433333D01*
X140133333Y-69500000D01*
X140133333Y-69566667D01*
X140100000Y-69666667D01*
X139700000Y-70066667D01*
X140133333Y-70066667D01*
X138800000Y-72500000D02*
X138766666Y-72533333D01*
X138666666Y-72566667D01*
X138600000Y-72566667D01*
X138500000Y-72533333D01*
X138433333Y-72466667D01*
X138400000Y-72400000D01*
X138366666Y-72266667D01*
X138366666Y-72166667D01*
X138400000Y-72033333D01*
X138433333Y-71966667D01*
X138500000Y-71900000D01*
X138600000Y-71866667D01*
X138666666Y-71866667D01*
X138766666Y-71900000D01*
X138800000Y-71933333D01*
X139400000Y-72100000D02*
X139400000Y-72566667D01*
X139233333Y-71833333D02*
X139066666Y-72333333D01*
X139500000Y-72333333D01*
X139700000Y-71866667D02*
X140133333Y-71866667D01*
X139900000Y-72133333D01*
X140000000Y-72133333D01*
X140066667Y-72166667D01*
X140100000Y-72200000D01*
X140133333Y-72266667D01*
X140133333Y-72433333D01*
X140100000Y-72500000D01*
X140066667Y-72533333D01*
X140000000Y-72566667D01*
X139800000Y-72566667D01*
X139733333Y-72533333D01*
X139700000Y-72500000D01*
X120300000Y-51500000D02*
X120266666Y-51533333D01*
X120166666Y-51566667D01*
X120100000Y-51566667D01*
X120000000Y-51533333D01*
X119933333Y-51466667D01*
X119900000Y-51400000D01*
X119866666Y-51266667D01*
X119866666Y-51166667D01*
X119900000Y-51033333D01*
X119933333Y-50966667D01*
X120000000Y-50900000D01*
X120100000Y-50866667D01*
X120166666Y-50866667D01*
X120266666Y-50900000D01*
X120300000Y-50933333D01*
X120900000Y-51100000D02*
X120900000Y-51566667D01*
X120733333Y-50833333D02*
X120566666Y-51333333D01*
X121000000Y-51333333D01*
X121566667Y-51100000D02*
X121566667Y-51566667D01*
X121400000Y-50833333D02*
X121233333Y-51333333D01*
X121666667Y-51333333D01*
X104800000Y-66000000D02*
X104766666Y-66033333D01*
X104666666Y-66066667D01*
X104600000Y-66066667D01*
X104500000Y-66033333D01*
X104433333Y-65966667D01*
X104400000Y-65900000D01*
X104366666Y-65766667D01*
X104366666Y-65666667D01*
X104400000Y-65533333D01*
X104433333Y-65466667D01*
X104500000Y-65400000D01*
X104600000Y-65366667D01*
X104666666Y-65366667D01*
X104766666Y-65400000D01*
X104800000Y-65433333D01*
X105400000Y-65600000D02*
X105400000Y-66066667D01*
X105233333Y-65333333D02*
X105066666Y-65833333D01*
X105500000Y-65833333D01*
X106100000Y-65366667D02*
X105766667Y-65366667D01*
X105733333Y-65700000D01*
X105766667Y-65666667D01*
X105833333Y-65633333D01*
X106000000Y-65633333D01*
X106066667Y-65666667D01*
X106100000Y-65700000D01*
X106133333Y-65766667D01*
X106133333Y-65933333D01*
X106100000Y-66000000D01*
X106066667Y-66033333D01*
X106000000Y-66066667D01*
X105833333Y-66066667D01*
X105766667Y-66033333D01*
X105733333Y-66000000D01*
X130300000Y-53250000D02*
X130266666Y-53283333D01*
X130166666Y-53316667D01*
X130100000Y-53316667D01*
X130000000Y-53283333D01*
X129933333Y-53216667D01*
X129900000Y-53150000D01*
X129866666Y-53016667D01*
X129866666Y-52916667D01*
X129900000Y-52783333D01*
X129933333Y-52716667D01*
X130000000Y-52650000D01*
X130100000Y-52616667D01*
X130166666Y-52616667D01*
X130266666Y-52650000D01*
X130300000Y-52683333D01*
X130900000Y-52850000D02*
X130900000Y-53316667D01*
X130733333Y-52583333D02*
X130566666Y-53083333D01*
X131000000Y-53083333D01*
X131566667Y-52616667D02*
X131433333Y-52616667D01*
X131366667Y-52650000D01*
X131333333Y-52683333D01*
X131266667Y-52783333D01*
X131233333Y-52916667D01*
X131233333Y-53183333D01*
X131266667Y-53250000D01*
X131300000Y-53283333D01*
X131366667Y-53316667D01*
X131500000Y-53316667D01*
X131566667Y-53283333D01*
X131600000Y-53250000D01*
X131633333Y-53183333D01*
X131633333Y-53016667D01*
X131600000Y-52950000D01*
X131566667Y-52916667D01*
X131500000Y-52883333D01*
X131366667Y-52883333D01*
X131300000Y-52916667D01*
X131266667Y-52950000D01*
X131233333Y-53016667D01*
X135800000Y-78750000D02*
X135766666Y-78783333D01*
X135666666Y-78816667D01*
X135600000Y-78816667D01*
X135500000Y-78783333D01*
X135433333Y-78716667D01*
X135400000Y-78650000D01*
X135366666Y-78516667D01*
X135366666Y-78416667D01*
X135400000Y-78283333D01*
X135433333Y-78216667D01*
X135500000Y-78150000D01*
X135600000Y-78116667D01*
X135666666Y-78116667D01*
X135766666Y-78150000D01*
X135800000Y-78183333D01*
X136400000Y-78350000D02*
X136400000Y-78816667D01*
X136233333Y-78083333D02*
X136066666Y-78583333D01*
X136500000Y-78583333D01*
X136700000Y-78116667D02*
X137166667Y-78116667D01*
X136866667Y-78816667D01*
X138850000Y-73500000D02*
X138816666Y-73533333D01*
X138716666Y-73566667D01*
X138650000Y-73566667D01*
X138550000Y-73533333D01*
X138483333Y-73466667D01*
X138450000Y-73400000D01*
X138416666Y-73266667D01*
X138416666Y-73166667D01*
X138450000Y-73033333D01*
X138483333Y-72966667D01*
X138550000Y-72900000D01*
X138650000Y-72866667D01*
X138716666Y-72866667D01*
X138816666Y-72900000D01*
X138850000Y-72933333D01*
X139450000Y-73100000D02*
X139450000Y-73566667D01*
X139283333Y-72833333D02*
X139116666Y-73333333D01*
X139550000Y-73333333D01*
X139916667Y-73166667D02*
X139850000Y-73133333D01*
X139816667Y-73100000D01*
X139783333Y-73033333D01*
X139783333Y-73000000D01*
X139816667Y-72933333D01*
X139850000Y-72900000D01*
X139916667Y-72866667D01*
X140050000Y-72866667D01*
X140116667Y-72900000D01*
X140150000Y-72933333D01*
X140183333Y-73000000D01*
X140183333Y-73033333D01*
X140150000Y-73100000D01*
X140116667Y-73133333D01*
X140050000Y-73166667D01*
X139916667Y-73166667D01*
X139850000Y-73200000D01*
X139816667Y-73233333D01*
X139783333Y-73300000D01*
X139783333Y-73433333D01*
X139816667Y-73500000D01*
X139850000Y-73533333D01*
X139916667Y-73566667D01*
X140050000Y-73566667D01*
X140116667Y-73533333D01*
X140150000Y-73500000D01*
X140183333Y-73433333D01*
X140183333Y-73300000D01*
X140150000Y-73233333D01*
X140116667Y-73200000D01*
X140050000Y-73166667D01*
X119300000Y-61750000D02*
X119266666Y-61783333D01*
X119166666Y-61816667D01*
X119100000Y-61816667D01*
X119000000Y-61783333D01*
X118933333Y-61716667D01*
X118900000Y-61650000D01*
X118866666Y-61516667D01*
X118866666Y-61416667D01*
X118900000Y-61283333D01*
X118933333Y-61216667D01*
X119000000Y-61150000D01*
X119100000Y-61116667D01*
X119166666Y-61116667D01*
X119266666Y-61150000D01*
X119300000Y-61183333D01*
X119900000Y-61350000D02*
X119900000Y-61816667D01*
X119733333Y-61083333D02*
X119566666Y-61583333D01*
X120000000Y-61583333D01*
X120300000Y-61816667D02*
X120433333Y-61816667D01*
X120500000Y-61783333D01*
X120533333Y-61750000D01*
X120600000Y-61650000D01*
X120633333Y-61516667D01*
X120633333Y-61250000D01*
X120600000Y-61183333D01*
X120566667Y-61150000D01*
X120500000Y-61116667D01*
X120366667Y-61116667D01*
X120300000Y-61150000D01*
X120266667Y-61183333D01*
X120233333Y-61250000D01*
X120233333Y-61416667D01*
X120266667Y-61483333D01*
X120300000Y-61516667D01*
X120366667Y-61550000D01*
X120500000Y-61550000D01*
X120566667Y-61516667D01*
X120600000Y-61483333D01*
X120633333Y-61416667D01*
X122050000Y-64000000D02*
X122016666Y-64033333D01*
X121916666Y-64066667D01*
X121850000Y-64066667D01*
X121750000Y-64033333D01*
X121683333Y-63966667D01*
X121650000Y-63900000D01*
X121616666Y-63766667D01*
X121616666Y-63666667D01*
X121650000Y-63533333D01*
X121683333Y-63466667D01*
X121750000Y-63400000D01*
X121850000Y-63366667D01*
X121916666Y-63366667D01*
X122016666Y-63400000D01*
X122050000Y-63433333D01*
X122683333Y-63366667D02*
X122350000Y-63366667D01*
X122316666Y-63700000D01*
X122350000Y-63666667D01*
X122416666Y-63633333D01*
X122583333Y-63633333D01*
X122650000Y-63666667D01*
X122683333Y-63700000D01*
X122716666Y-63766667D01*
X122716666Y-63933333D01*
X122683333Y-64000000D01*
X122650000Y-64033333D01*
X122583333Y-64066667D01*
X122416666Y-64066667D01*
X122350000Y-64033333D01*
X122316666Y-64000000D01*
X123150000Y-63366667D02*
X123216667Y-63366667D01*
X123283333Y-63400000D01*
X123316667Y-63433333D01*
X123350000Y-63500000D01*
X123383333Y-63633333D01*
X123383333Y-63800000D01*
X123350000Y-63933333D01*
X123316667Y-64000000D01*
X123283333Y-64033333D01*
X123216667Y-64066667D01*
X123150000Y-64066667D01*
X123083333Y-64033333D01*
X123050000Y-64000000D01*
X123016667Y-63933333D01*
X122983333Y-63800000D01*
X122983333Y-63633333D01*
X123016667Y-63500000D01*
X123050000Y-63433333D01*
X123083333Y-63400000D01*
X123150000Y-63366667D01*
X117550000Y-62250000D02*
X117516666Y-62283333D01*
X117416666Y-62316667D01*
X117350000Y-62316667D01*
X117250000Y-62283333D01*
X117183333Y-62216667D01*
X117150000Y-62150000D01*
X117116666Y-62016667D01*
X117116666Y-61916667D01*
X117150000Y-61783333D01*
X117183333Y-61716667D01*
X117250000Y-61650000D01*
X117350000Y-61616667D01*
X117416666Y-61616667D01*
X117516666Y-61650000D01*
X117550000Y-61683333D01*
X118183333Y-61616667D02*
X117850000Y-61616667D01*
X117816666Y-61950000D01*
X117850000Y-61916667D01*
X117916666Y-61883333D01*
X118083333Y-61883333D01*
X118150000Y-61916667D01*
X118183333Y-61950000D01*
X118216666Y-62016667D01*
X118216666Y-62183333D01*
X118183333Y-62250000D01*
X118150000Y-62283333D01*
X118083333Y-62316667D01*
X117916666Y-62316667D01*
X117850000Y-62283333D01*
X117816666Y-62250000D01*
X118883333Y-62316667D02*
X118483333Y-62316667D01*
X118683333Y-62316667D02*
X118683333Y-61616667D01*
X118616667Y-61716667D01*
X118550000Y-61783333D01*
X118483333Y-61816667D01*
X113800000Y-56250000D02*
X113766666Y-56283333D01*
X113666666Y-56316667D01*
X113600000Y-56316667D01*
X113500000Y-56283333D01*
X113433333Y-56216667D01*
X113400000Y-56150000D01*
X113366666Y-56016667D01*
X113366666Y-55916667D01*
X113400000Y-55783333D01*
X113433333Y-55716667D01*
X113500000Y-55650000D01*
X113600000Y-55616667D01*
X113666666Y-55616667D01*
X113766666Y-55650000D01*
X113800000Y-55683333D01*
X114433333Y-55616667D02*
X114100000Y-55616667D01*
X114066666Y-55950000D01*
X114100000Y-55916667D01*
X114166666Y-55883333D01*
X114333333Y-55883333D01*
X114400000Y-55916667D01*
X114433333Y-55950000D01*
X114466666Y-56016667D01*
X114466666Y-56183333D01*
X114433333Y-56250000D01*
X114400000Y-56283333D01*
X114333333Y-56316667D01*
X114166666Y-56316667D01*
X114100000Y-56283333D01*
X114066666Y-56250000D01*
X114733333Y-55683333D02*
X114766667Y-55650000D01*
X114833333Y-55616667D01*
X115000000Y-55616667D01*
X115066667Y-55650000D01*
X115100000Y-55683333D01*
X115133333Y-55750000D01*
X115133333Y-55816667D01*
X115100000Y-55916667D01*
X114700000Y-56316667D01*
X115133333Y-56316667D01*
X133800000Y-62000000D02*
X133766666Y-62033333D01*
X133666666Y-62066667D01*
X133600000Y-62066667D01*
X133500000Y-62033333D01*
X133433333Y-61966667D01*
X133400000Y-61900000D01*
X133366666Y-61766667D01*
X133366666Y-61666667D01*
X133400000Y-61533333D01*
X133433333Y-61466667D01*
X133500000Y-61400000D01*
X133600000Y-61366667D01*
X133666666Y-61366667D01*
X133766666Y-61400000D01*
X133800000Y-61433333D01*
X134433333Y-61366667D02*
X134100000Y-61366667D01*
X134066666Y-61700000D01*
X134100000Y-61666667D01*
X134166666Y-61633333D01*
X134333333Y-61633333D01*
X134400000Y-61666667D01*
X134433333Y-61700000D01*
X134466666Y-61766667D01*
X134466666Y-61933333D01*
X134433333Y-62000000D01*
X134400000Y-62033333D01*
X134333333Y-62066667D01*
X134166666Y-62066667D01*
X134100000Y-62033333D01*
X134066666Y-62000000D01*
X134700000Y-61366667D02*
X135133333Y-61366667D01*
X134900000Y-61633333D01*
X135000000Y-61633333D01*
X135066667Y-61666667D01*
X135100000Y-61700000D01*
X135133333Y-61766667D01*
X135133333Y-61933333D01*
X135100000Y-62000000D01*
X135066667Y-62033333D01*
X135000000Y-62066667D01*
X134800000Y-62066667D01*
X134733333Y-62033333D01*
X134700000Y-62000000D01*
X133300000Y-132250000D02*
X133266666Y-132283333D01*
X133166666Y-132316667D01*
X133100000Y-132316667D01*
X133000000Y-132283333D01*
X132933333Y-132216667D01*
X132900000Y-132150000D01*
X132866666Y-132016667D01*
X132866666Y-131916667D01*
X132900000Y-131783333D01*
X132933333Y-131716667D01*
X133000000Y-131650000D01*
X133100000Y-131616667D01*
X133166666Y-131616667D01*
X133266666Y-131650000D01*
X133300000Y-131683333D01*
X133933333Y-131616667D02*
X133600000Y-131616667D01*
X133566666Y-131950000D01*
X133600000Y-131916667D01*
X133666666Y-131883333D01*
X133833333Y-131883333D01*
X133900000Y-131916667D01*
X133933333Y-131950000D01*
X133966666Y-132016667D01*
X133966666Y-132183333D01*
X133933333Y-132250000D01*
X133900000Y-132283333D01*
X133833333Y-132316667D01*
X133666666Y-132316667D01*
X133600000Y-132283333D01*
X133566666Y-132250000D01*
X134566667Y-131850000D02*
X134566667Y-132316667D01*
X134400000Y-131583333D02*
X134233333Y-132083333D01*
X134666667Y-132083333D01*
X133300000Y-119250000D02*
X133266666Y-119283333D01*
X133166666Y-119316667D01*
X133100000Y-119316667D01*
X133000000Y-119283333D01*
X132933333Y-119216667D01*
X132900000Y-119150000D01*
X132866666Y-119016667D01*
X132866666Y-118916667D01*
X132900000Y-118783333D01*
X132933333Y-118716667D01*
X133000000Y-118650000D01*
X133100000Y-118616667D01*
X133166666Y-118616667D01*
X133266666Y-118650000D01*
X133300000Y-118683333D01*
X133933333Y-118616667D02*
X133600000Y-118616667D01*
X133566666Y-118950000D01*
X133600000Y-118916667D01*
X133666666Y-118883333D01*
X133833333Y-118883333D01*
X133900000Y-118916667D01*
X133933333Y-118950000D01*
X133966666Y-119016667D01*
X133966666Y-119183333D01*
X133933333Y-119250000D01*
X133900000Y-119283333D01*
X133833333Y-119316667D01*
X133666666Y-119316667D01*
X133600000Y-119283333D01*
X133566666Y-119250000D01*
X134600000Y-118616667D02*
X134266667Y-118616667D01*
X134233333Y-118950000D01*
X134266667Y-118916667D01*
X134333333Y-118883333D01*
X134500000Y-118883333D01*
X134566667Y-118916667D01*
X134600000Y-118950000D01*
X134633333Y-119016667D01*
X134633333Y-119183333D01*
X134600000Y-119250000D01*
X134566667Y-119283333D01*
X134500000Y-119316667D01*
X134333333Y-119316667D01*
X134266667Y-119283333D01*
X134233333Y-119250000D01*
X51150001Y-51750000D02*
X51116667Y-51783333D01*
X51016667Y-51816667D01*
X50950001Y-51816667D01*
X50850001Y-51783333D01*
X50783334Y-51716667D01*
X50750001Y-51650000D01*
X50716667Y-51516667D01*
X50716667Y-51416667D01*
X50750001Y-51283333D01*
X50783334Y-51216667D01*
X50850001Y-51150000D01*
X50950001Y-51116667D01*
X51016667Y-51116667D01*
X51116667Y-51150000D01*
X51150001Y-51183333D01*
X51583334Y-51116667D02*
X51716667Y-51116667D01*
X51783334Y-51150000D01*
X51850001Y-51216667D01*
X51883334Y-51350000D01*
X51883334Y-51583333D01*
X51850001Y-51716667D01*
X51783334Y-51783333D01*
X51716667Y-51816667D01*
X51583334Y-51816667D01*
X51516667Y-51783333D01*
X51450001Y-51716667D01*
X51416667Y-51583333D01*
X51416667Y-51350000D01*
X51450001Y-51216667D01*
X51516667Y-51150000D01*
X51583334Y-51116667D01*
X52183334Y-51816667D02*
X52183334Y-51116667D01*
X52583334Y-51816667D01*
X52583334Y-51116667D01*
X53283333Y-51816667D02*
X52883333Y-51816667D01*
X53083333Y-51816667D02*
X53083333Y-51116667D01*
X53016667Y-51216667D01*
X52950000Y-51283333D01*
X52883333Y-51316667D01*
X113983334Y-112566667D02*
X113983334Y-111866667D01*
X114150000Y-111866667D01*
X114250000Y-111900000D01*
X114316667Y-111966667D01*
X114350000Y-112033333D01*
X114383334Y-112166667D01*
X114383334Y-112266667D01*
X114350000Y-112400000D01*
X114316667Y-112466667D01*
X114250000Y-112533333D01*
X114150000Y-112566667D01*
X113983334Y-112566667D01*
X115050000Y-112566667D02*
X114650000Y-112566667D01*
X114850000Y-112566667D02*
X114850000Y-111866667D01*
X114783334Y-111966667D01*
X114716667Y-112033333D01*
X114650000Y-112066667D01*
X138766667Y-133116667D02*
X138766667Y-133616667D01*
X138733333Y-133716667D01*
X138666667Y-133783333D01*
X138566667Y-133816667D01*
X138500000Y-133816667D01*
X139466666Y-133816667D02*
X139066666Y-133816667D01*
X139266666Y-133816667D02*
X139266666Y-133116667D01*
X139200000Y-133216667D01*
X139133333Y-133283333D01*
X139066666Y-133316667D01*
X144496667Y-105352667D02*
X144496667Y-105852667D01*
X144463333Y-105952667D01*
X144396667Y-106019333D01*
X144296667Y-106052667D01*
X144230000Y-106052667D01*
X144796666Y-105419333D02*
X144830000Y-105386000D01*
X144896666Y-105352667D01*
X145063333Y-105352667D01*
X145130000Y-105386000D01*
X145163333Y-105419333D01*
X145196666Y-105486000D01*
X145196666Y-105552667D01*
X145163333Y-105652667D01*
X144763333Y-106052667D01*
X145196666Y-106052667D01*
X70633334Y-62316667D02*
X70400000Y-61983333D01*
X70233334Y-62316667D02*
X70233334Y-61616667D01*
X70500000Y-61616667D01*
X70566667Y-61650000D01*
X70600000Y-61683333D01*
X70633334Y-61750000D01*
X70633334Y-61850000D01*
X70600000Y-61916667D01*
X70566667Y-61950000D01*
X70500000Y-61983333D01*
X70233334Y-61983333D01*
X71300000Y-62316667D02*
X70900000Y-62316667D01*
X71100000Y-62316667D02*
X71100000Y-61616667D01*
X71033334Y-61716667D01*
X70966667Y-61783333D01*
X70900000Y-61816667D01*
X71883334Y-56316667D02*
X71650000Y-55983333D01*
X71483334Y-56316667D02*
X71483334Y-55616667D01*
X71750000Y-55616667D01*
X71816667Y-55650000D01*
X71850000Y-55683333D01*
X71883334Y-55750000D01*
X71883334Y-55850000D01*
X71850000Y-55916667D01*
X71816667Y-55950000D01*
X71750000Y-55983333D01*
X71483334Y-55983333D01*
X72150000Y-55683333D02*
X72183334Y-55650000D01*
X72250000Y-55616667D01*
X72416667Y-55616667D01*
X72483334Y-55650000D01*
X72516667Y-55683333D01*
X72550000Y-55750000D01*
X72550000Y-55816667D01*
X72516667Y-55916667D01*
X72116667Y-56316667D01*
X72550000Y-56316667D01*
X119633334Y-103066667D02*
X119400000Y-102733333D01*
X119233334Y-103066667D02*
X119233334Y-102366667D01*
X119500000Y-102366667D01*
X119566667Y-102400000D01*
X119600000Y-102433333D01*
X119633334Y-102500000D01*
X119633334Y-102600000D01*
X119600000Y-102666667D01*
X119566667Y-102700000D01*
X119500000Y-102733333D01*
X119233334Y-102733333D01*
X119866667Y-102366667D02*
X120300000Y-102366667D01*
X120066667Y-102633333D01*
X120166667Y-102633333D01*
X120233334Y-102666667D01*
X120266667Y-102700000D01*
X120300000Y-102766667D01*
X120300000Y-102933333D01*
X120266667Y-103000000D01*
X120233334Y-103033333D01*
X120166667Y-103066667D01*
X119966667Y-103066667D01*
X119900000Y-103033333D01*
X119866667Y-103000000D01*
X91883334Y-56316667D02*
X91650000Y-55983333D01*
X91483334Y-56316667D02*
X91483334Y-55616667D01*
X91750000Y-55616667D01*
X91816667Y-55650000D01*
X91850000Y-55683333D01*
X91883334Y-55750000D01*
X91883334Y-55850000D01*
X91850000Y-55916667D01*
X91816667Y-55950000D01*
X91750000Y-55983333D01*
X91483334Y-55983333D01*
X92483334Y-55850000D02*
X92483334Y-56316667D01*
X92316667Y-55583333D02*
X92150000Y-56083333D01*
X92583334Y-56083333D01*
X91883334Y-62816667D02*
X91650000Y-62483333D01*
X91483334Y-62816667D02*
X91483334Y-62116667D01*
X91750000Y-62116667D01*
X91816667Y-62150000D01*
X91850000Y-62183333D01*
X91883334Y-62250000D01*
X91883334Y-62350000D01*
X91850000Y-62416667D01*
X91816667Y-62450000D01*
X91750000Y-62483333D01*
X91483334Y-62483333D01*
X92516667Y-62116667D02*
X92183334Y-62116667D01*
X92150000Y-62450000D01*
X92183334Y-62416667D01*
X92250000Y-62383333D01*
X92416667Y-62383333D01*
X92483334Y-62416667D01*
X92516667Y-62450000D01*
X92550000Y-62516667D01*
X92550000Y-62683333D01*
X92516667Y-62750000D01*
X92483334Y-62783333D01*
X92416667Y-62816667D01*
X92250000Y-62816667D01*
X92183334Y-62783333D01*
X92150000Y-62750000D01*
X73383334Y-56316667D02*
X73150000Y-55983333D01*
X72983334Y-56316667D02*
X72983334Y-55616667D01*
X73250000Y-55616667D01*
X73316667Y-55650000D01*
X73350000Y-55683333D01*
X73383334Y-55750000D01*
X73383334Y-55850000D01*
X73350000Y-55916667D01*
X73316667Y-55950000D01*
X73250000Y-55983333D01*
X72983334Y-55983333D01*
X73983334Y-55616667D02*
X73850000Y-55616667D01*
X73783334Y-55650000D01*
X73750000Y-55683333D01*
X73683334Y-55783333D01*
X73650000Y-55916667D01*
X73650000Y-56183333D01*
X73683334Y-56250000D01*
X73716667Y-56283333D01*
X73783334Y-56316667D01*
X73916667Y-56316667D01*
X73983334Y-56283333D01*
X74016667Y-56250000D01*
X74050000Y-56183333D01*
X74050000Y-56016667D01*
X74016667Y-55950000D01*
X73983334Y-55916667D01*
X73916667Y-55883333D01*
X73783334Y-55883333D01*
X73716667Y-55916667D01*
X73683334Y-55950000D01*
X73650000Y-56016667D01*
X76633334Y-56566667D02*
X76400000Y-56233333D01*
X76233334Y-56566667D02*
X76233334Y-55866667D01*
X76500000Y-55866667D01*
X76566667Y-55900000D01*
X76600000Y-55933333D01*
X76633334Y-56000000D01*
X76633334Y-56100000D01*
X76600000Y-56166667D01*
X76566667Y-56200000D01*
X76500000Y-56233333D01*
X76233334Y-56233333D01*
X76866667Y-55866667D02*
X77333334Y-55866667D01*
X77033334Y-56566667D01*
X135633334Y-56566667D02*
X135400000Y-56233333D01*
X135233334Y-56566667D02*
X135233334Y-55866667D01*
X135500000Y-55866667D01*
X135566667Y-55900000D01*
X135600000Y-55933333D01*
X135633334Y-56000000D01*
X135633334Y-56100000D01*
X135600000Y-56166667D01*
X135566667Y-56200000D01*
X135500000Y-56233333D01*
X135233334Y-56233333D01*
X136033334Y-56166667D02*
X135966667Y-56133333D01*
X135933334Y-56100000D01*
X135900000Y-56033333D01*
X135900000Y-56000000D01*
X135933334Y-55933333D01*
X135966667Y-55900000D01*
X136033334Y-55866667D01*
X136166667Y-55866667D01*
X136233334Y-55900000D01*
X136266667Y-55933333D01*
X136300000Y-56000000D01*
X136300000Y-56033333D01*
X136266667Y-56100000D01*
X136233334Y-56133333D01*
X136166667Y-56166667D01*
X136033334Y-56166667D01*
X135966667Y-56200000D01*
X135933334Y-56233333D01*
X135900000Y-56300000D01*
X135900000Y-56433333D01*
X135933334Y-56500000D01*
X135966667Y-56533333D01*
X136033334Y-56566667D01*
X136166667Y-56566667D01*
X136233334Y-56533333D01*
X136266667Y-56500000D01*
X136300000Y-56433333D01*
X136300000Y-56300000D01*
X136266667Y-56233333D01*
X136233334Y-56200000D01*
X136166667Y-56166667D01*
X108883334Y-54816667D02*
X108650000Y-54483333D01*
X108483334Y-54816667D02*
X108483334Y-54116667D01*
X108750000Y-54116667D01*
X108816667Y-54150000D01*
X108850000Y-54183333D01*
X108883334Y-54250000D01*
X108883334Y-54350000D01*
X108850000Y-54416667D01*
X108816667Y-54450000D01*
X108750000Y-54483333D01*
X108483334Y-54483333D01*
X109216667Y-54816667D02*
X109350000Y-54816667D01*
X109416667Y-54783333D01*
X109450000Y-54750000D01*
X109516667Y-54650000D01*
X109550000Y-54516667D01*
X109550000Y-54250000D01*
X109516667Y-54183333D01*
X109483334Y-54150000D01*
X109416667Y-54116667D01*
X109283334Y-54116667D01*
X109216667Y-54150000D01*
X109183334Y-54183333D01*
X109150000Y-54250000D01*
X109150000Y-54416667D01*
X109183334Y-54483333D01*
X109216667Y-54516667D01*
X109283334Y-54550000D01*
X109416667Y-54550000D01*
X109483334Y-54516667D01*
X109516667Y-54483333D01*
X109550000Y-54416667D01*
X108800000Y-55816667D02*
X108566666Y-55483333D01*
X108400000Y-55816667D02*
X108400000Y-55116667D01*
X108666666Y-55116667D01*
X108733333Y-55150000D01*
X108766666Y-55183333D01*
X108800000Y-55250000D01*
X108800000Y-55350000D01*
X108766666Y-55416667D01*
X108733333Y-55450000D01*
X108666666Y-55483333D01*
X108400000Y-55483333D01*
X109466666Y-55816667D02*
X109066666Y-55816667D01*
X109266666Y-55816667D02*
X109266666Y-55116667D01*
X109200000Y-55216667D01*
X109133333Y-55283333D01*
X109066666Y-55316667D01*
X109900000Y-55116667D02*
X109966667Y-55116667D01*
X110033333Y-55150000D01*
X110066667Y-55183333D01*
X110100000Y-55250000D01*
X110133333Y-55383333D01*
X110133333Y-55550000D01*
X110100000Y-55683333D01*
X110066667Y-55750000D01*
X110033333Y-55783333D01*
X109966667Y-55816667D01*
X109900000Y-55816667D01*
X109833333Y-55783333D01*
X109800000Y-55750000D01*
X109766667Y-55683333D01*
X109733333Y-55550000D01*
X109733333Y-55383333D01*
X109766667Y-55250000D01*
X109800000Y-55183333D01*
X109833333Y-55150000D01*
X109900000Y-55116667D01*
X108550000Y-61316667D02*
X108316666Y-60983333D01*
X108150000Y-61316667D02*
X108150000Y-60616667D01*
X108416666Y-60616667D01*
X108483333Y-60650000D01*
X108516666Y-60683333D01*
X108550000Y-60750000D01*
X108550000Y-60850000D01*
X108516666Y-60916667D01*
X108483333Y-60950000D01*
X108416666Y-60983333D01*
X108150000Y-60983333D01*
X109216666Y-61316667D02*
X108816666Y-61316667D01*
X109016666Y-61316667D02*
X109016666Y-60616667D01*
X108950000Y-60716667D01*
X108883333Y-60783333D01*
X108816666Y-60816667D01*
X109883333Y-61316667D02*
X109483333Y-61316667D01*
X109683333Y-61316667D02*
X109683333Y-60616667D01*
X109616667Y-60716667D01*
X109550000Y-60783333D01*
X109483333Y-60816667D01*
X106300000Y-64066667D02*
X106066666Y-63733333D01*
X105900000Y-64066667D02*
X105900000Y-63366667D01*
X106166666Y-63366667D01*
X106233333Y-63400000D01*
X106266666Y-63433333D01*
X106300000Y-63500000D01*
X106300000Y-63600000D01*
X106266666Y-63666667D01*
X106233333Y-63700000D01*
X106166666Y-63733333D01*
X105900000Y-63733333D01*
X106966666Y-64066667D02*
X106566666Y-64066667D01*
X106766666Y-64066667D02*
X106766666Y-63366667D01*
X106700000Y-63466667D01*
X106633333Y-63533333D01*
X106566666Y-63566667D01*
X107233333Y-63433333D02*
X107266667Y-63400000D01*
X107333333Y-63366667D01*
X107500000Y-63366667D01*
X107566667Y-63400000D01*
X107600000Y-63433333D01*
X107633333Y-63500000D01*
X107633333Y-63566667D01*
X107600000Y-63666667D01*
X107200000Y-64066667D01*
X107633333Y-64066667D01*
X91300000Y-54816667D02*
X91066666Y-54483333D01*
X90900000Y-54816667D02*
X90900000Y-54116667D01*
X91166666Y-54116667D01*
X91233333Y-54150000D01*
X91266666Y-54183333D01*
X91300000Y-54250000D01*
X91300000Y-54350000D01*
X91266666Y-54416667D01*
X91233333Y-54450000D01*
X91166666Y-54483333D01*
X90900000Y-54483333D01*
X91966666Y-54816667D02*
X91566666Y-54816667D01*
X91766666Y-54816667D02*
X91766666Y-54116667D01*
X91700000Y-54216667D01*
X91633333Y-54283333D01*
X91566666Y-54316667D01*
X92200000Y-54116667D02*
X92633333Y-54116667D01*
X92400000Y-54383333D01*
X92500000Y-54383333D01*
X92566667Y-54416667D01*
X92600000Y-54450000D01*
X92633333Y-54516667D01*
X92633333Y-54683333D01*
X92600000Y-54750000D01*
X92566667Y-54783333D01*
X92500000Y-54816667D01*
X92300000Y-54816667D01*
X92233333Y-54783333D01*
X92200000Y-54750000D01*
X91300000Y-61316667D02*
X91066666Y-60983333D01*
X90900000Y-61316667D02*
X90900000Y-60616667D01*
X91166666Y-60616667D01*
X91233333Y-60650000D01*
X91266666Y-60683333D01*
X91300000Y-60750000D01*
X91300000Y-60850000D01*
X91266666Y-60916667D01*
X91233333Y-60950000D01*
X91166666Y-60983333D01*
X90900000Y-60983333D01*
X91966666Y-61316667D02*
X91566666Y-61316667D01*
X91766666Y-61316667D02*
X91766666Y-60616667D01*
X91700000Y-60716667D01*
X91633333Y-60783333D01*
X91566666Y-60816667D01*
X92566667Y-60850000D02*
X92566667Y-61316667D01*
X92400000Y-60583333D02*
X92233333Y-61083333D01*
X92666667Y-61083333D01*
X105950000Y-105016667D02*
X105716666Y-104683333D01*
X105550000Y-105016667D02*
X105550000Y-104316667D01*
X105816666Y-104316667D01*
X105883333Y-104350000D01*
X105916666Y-104383333D01*
X105950000Y-104450000D01*
X105950000Y-104550000D01*
X105916666Y-104616667D01*
X105883333Y-104650000D01*
X105816666Y-104683333D01*
X105550000Y-104683333D01*
X106616666Y-105016667D02*
X106216666Y-105016667D01*
X106416666Y-105016667D02*
X106416666Y-104316667D01*
X106350000Y-104416667D01*
X106283333Y-104483333D01*
X106216666Y-104516667D01*
X107250000Y-104316667D02*
X106916667Y-104316667D01*
X106883333Y-104650000D01*
X106916667Y-104616667D01*
X106983333Y-104583333D01*
X107150000Y-104583333D01*
X107216667Y-104616667D01*
X107250000Y-104650000D01*
X107283333Y-104716667D01*
X107283333Y-104883333D01*
X107250000Y-104950000D01*
X107216667Y-104983333D01*
X107150000Y-105016667D01*
X106983333Y-105016667D01*
X106916667Y-104983333D01*
X106883333Y-104950000D01*
X105900000Y-102566667D02*
X105666666Y-102233333D01*
X105500000Y-102566667D02*
X105500000Y-101866667D01*
X105766666Y-101866667D01*
X105833333Y-101900000D01*
X105866666Y-101933333D01*
X105900000Y-102000000D01*
X105900000Y-102100000D01*
X105866666Y-102166667D01*
X105833333Y-102200000D01*
X105766666Y-102233333D01*
X105500000Y-102233333D01*
X106566666Y-102566667D02*
X106166666Y-102566667D01*
X106366666Y-102566667D02*
X106366666Y-101866667D01*
X106300000Y-101966667D01*
X106233333Y-102033333D01*
X106166666Y-102066667D01*
X107166667Y-101866667D02*
X107033333Y-101866667D01*
X106966667Y-101900000D01*
X106933333Y-101933333D01*
X106866667Y-102033333D01*
X106833333Y-102166667D01*
X106833333Y-102433333D01*
X106866667Y-102500000D01*
X106900000Y-102533333D01*
X106966667Y-102566667D01*
X107100000Y-102566667D01*
X107166667Y-102533333D01*
X107200000Y-102500000D01*
X107233333Y-102433333D01*
X107233333Y-102266667D01*
X107200000Y-102200000D01*
X107166667Y-102166667D01*
X107100000Y-102133333D01*
X106966667Y-102133333D01*
X106900000Y-102166667D01*
X106866667Y-102200000D01*
X106833333Y-102266667D01*
X110550000Y-111566667D02*
X110316666Y-111233333D01*
X110150000Y-111566667D02*
X110150000Y-110866667D01*
X110416666Y-110866667D01*
X110483333Y-110900000D01*
X110516666Y-110933333D01*
X110550000Y-111000000D01*
X110550000Y-111100000D01*
X110516666Y-111166667D01*
X110483333Y-111200000D01*
X110416666Y-111233333D01*
X110150000Y-111233333D01*
X111216666Y-111566667D02*
X110816666Y-111566667D01*
X111016666Y-111566667D02*
X111016666Y-110866667D01*
X110950000Y-110966667D01*
X110883333Y-111033333D01*
X110816666Y-111066667D01*
X111450000Y-110866667D02*
X111916667Y-110866667D01*
X111616667Y-111566667D01*
X112050000Y-118316667D02*
X111816666Y-117983333D01*
X111650000Y-118316667D02*
X111650000Y-117616667D01*
X111916666Y-117616667D01*
X111983333Y-117650000D01*
X112016666Y-117683333D01*
X112050000Y-117750000D01*
X112050000Y-117850000D01*
X112016666Y-117916667D01*
X111983333Y-117950000D01*
X111916666Y-117983333D01*
X111650000Y-117983333D01*
X112716666Y-118316667D02*
X112316666Y-118316667D01*
X112516666Y-118316667D02*
X112516666Y-117616667D01*
X112450000Y-117716667D01*
X112383333Y-117783333D01*
X112316666Y-117816667D01*
X113116667Y-117916667D02*
X113050000Y-117883333D01*
X113016667Y-117850000D01*
X112983333Y-117783333D01*
X112983333Y-117750000D01*
X113016667Y-117683333D01*
X113050000Y-117650000D01*
X113116667Y-117616667D01*
X113250000Y-117616667D01*
X113316667Y-117650000D01*
X113350000Y-117683333D01*
X113383333Y-117750000D01*
X113383333Y-117783333D01*
X113350000Y-117850000D01*
X113316667Y-117883333D01*
X113250000Y-117916667D01*
X113116667Y-117916667D01*
X113050000Y-117950000D01*
X113016667Y-117983333D01*
X112983333Y-118050000D01*
X112983333Y-118183333D01*
X113016667Y-118250000D01*
X113050000Y-118283333D01*
X113116667Y-118316667D01*
X113250000Y-118316667D01*
X113316667Y-118283333D01*
X113350000Y-118250000D01*
X113383333Y-118183333D01*
X113383333Y-118050000D01*
X113350000Y-117983333D01*
X113316667Y-117950000D01*
X113250000Y-117916667D01*
X108300000Y-111566667D02*
X108066666Y-111233333D01*
X107900000Y-111566667D02*
X107900000Y-110866667D01*
X108166666Y-110866667D01*
X108233333Y-110900000D01*
X108266666Y-110933333D01*
X108300000Y-111000000D01*
X108300000Y-111100000D01*
X108266666Y-111166667D01*
X108233333Y-111200000D01*
X108166666Y-111233333D01*
X107900000Y-111233333D01*
X108966666Y-111566667D02*
X108566666Y-111566667D01*
X108766666Y-111566667D02*
X108766666Y-110866667D01*
X108700000Y-110966667D01*
X108633333Y-111033333D01*
X108566666Y-111066667D01*
X109300000Y-111566667D02*
X109433333Y-111566667D01*
X109500000Y-111533333D01*
X109533333Y-111500000D01*
X109600000Y-111400000D01*
X109633333Y-111266667D01*
X109633333Y-111000000D01*
X109600000Y-110933333D01*
X109566667Y-110900000D01*
X109500000Y-110866667D01*
X109366667Y-110866667D01*
X109300000Y-110900000D01*
X109266667Y-110933333D01*
X109233333Y-111000000D01*
X109233333Y-111166667D01*
X109266667Y-111233333D01*
X109300000Y-111266667D01*
X109366667Y-111300000D01*
X109500000Y-111300000D01*
X109566667Y-111266667D01*
X109600000Y-111233333D01*
X109633333Y-111166667D01*
X109050000Y-119816667D02*
X108816666Y-119483333D01*
X108650000Y-119816667D02*
X108650000Y-119116667D01*
X108916666Y-119116667D01*
X108983333Y-119150000D01*
X109016666Y-119183333D01*
X109050000Y-119250000D01*
X109050000Y-119350000D01*
X109016666Y-119416667D01*
X108983333Y-119450000D01*
X108916666Y-119483333D01*
X108650000Y-119483333D01*
X109316666Y-119183333D02*
X109350000Y-119150000D01*
X109416666Y-119116667D01*
X109583333Y-119116667D01*
X109650000Y-119150000D01*
X109683333Y-119183333D01*
X109716666Y-119250000D01*
X109716666Y-119316667D01*
X109683333Y-119416667D01*
X109283333Y-119816667D01*
X109716666Y-119816667D01*
X110150000Y-119116667D02*
X110216667Y-119116667D01*
X110283333Y-119150000D01*
X110316667Y-119183333D01*
X110350000Y-119250000D01*
X110383333Y-119383333D01*
X110383333Y-119550000D01*
X110350000Y-119683333D01*
X110316667Y-119750000D01*
X110283333Y-119783333D01*
X110216667Y-119816667D01*
X110150000Y-119816667D01*
X110083333Y-119783333D01*
X110050000Y-119750000D01*
X110016667Y-119683333D01*
X109983333Y-119550000D01*
X109983333Y-119383333D01*
X110016667Y-119250000D01*
X110050000Y-119183333D01*
X110083333Y-119150000D01*
X110150000Y-119116667D01*
X105150000Y-113566667D02*
X104916666Y-113233333D01*
X104750000Y-113566667D02*
X104750000Y-112866667D01*
X105016666Y-112866667D01*
X105083333Y-112900000D01*
X105116666Y-112933333D01*
X105150000Y-113000000D01*
X105150000Y-113100000D01*
X105116666Y-113166667D01*
X105083333Y-113200000D01*
X105016666Y-113233333D01*
X104750000Y-113233333D01*
X105416666Y-112933333D02*
X105450000Y-112900000D01*
X105516666Y-112866667D01*
X105683333Y-112866667D01*
X105750000Y-112900000D01*
X105783333Y-112933333D01*
X105816666Y-113000000D01*
X105816666Y-113066667D01*
X105783333Y-113166667D01*
X105383333Y-113566667D01*
X105816666Y-113566667D01*
X106483333Y-113566667D02*
X106083333Y-113566667D01*
X106283333Y-113566667D02*
X106283333Y-112866667D01*
X106216667Y-112966667D01*
X106150000Y-113033333D01*
X106083333Y-113066667D01*
X105150000Y-117066667D02*
X104916666Y-116733333D01*
X104750000Y-117066667D02*
X104750000Y-116366667D01*
X105016666Y-116366667D01*
X105083333Y-116400000D01*
X105116666Y-116433333D01*
X105150000Y-116500000D01*
X105150000Y-116600000D01*
X105116666Y-116666667D01*
X105083333Y-116700000D01*
X105016666Y-116733333D01*
X104750000Y-116733333D01*
X105416666Y-116433333D02*
X105450000Y-116400000D01*
X105516666Y-116366667D01*
X105683333Y-116366667D01*
X105750000Y-116400000D01*
X105783333Y-116433333D01*
X105816666Y-116500000D01*
X105816666Y-116566667D01*
X105783333Y-116666667D01*
X105383333Y-117066667D01*
X105816666Y-117066667D01*
X106083333Y-116433333D02*
X106116667Y-116400000D01*
X106183333Y-116366667D01*
X106350000Y-116366667D01*
X106416667Y-116400000D01*
X106450000Y-116433333D01*
X106483333Y-116500000D01*
X106483333Y-116566667D01*
X106450000Y-116666667D01*
X106050000Y-117066667D01*
X106483333Y-117066667D01*
X112550000Y-53566667D02*
X112316666Y-53233333D01*
X112150000Y-53566667D02*
X112150000Y-52866667D01*
X112416666Y-52866667D01*
X112483333Y-52900000D01*
X112516666Y-52933333D01*
X112550000Y-53000000D01*
X112550000Y-53100000D01*
X112516666Y-53166667D01*
X112483333Y-53200000D01*
X112416666Y-53233333D01*
X112150000Y-53233333D01*
X112816666Y-52933333D02*
X112850000Y-52900000D01*
X112916666Y-52866667D01*
X113083333Y-52866667D01*
X113150000Y-52900000D01*
X113183333Y-52933333D01*
X113216666Y-53000000D01*
X113216666Y-53066667D01*
X113183333Y-53166667D01*
X112783333Y-53566667D01*
X113216666Y-53566667D01*
X113450000Y-52866667D02*
X113883333Y-52866667D01*
X113650000Y-53133333D01*
X113750000Y-53133333D01*
X113816667Y-53166667D01*
X113850000Y-53200000D01*
X113883333Y-53266667D01*
X113883333Y-53433333D01*
X113850000Y-53500000D01*
X113816667Y-53533333D01*
X113750000Y-53566667D01*
X113550000Y-53566667D01*
X113483333Y-53533333D01*
X113450000Y-53500000D01*
X105066667Y-71450000D02*
X104733333Y-71683334D01*
X105066667Y-71850000D02*
X104366667Y-71850000D01*
X104366667Y-71583334D01*
X104400000Y-71516667D01*
X104433333Y-71483334D01*
X104500000Y-71450000D01*
X104600000Y-71450000D01*
X104666667Y-71483334D01*
X104700000Y-71516667D01*
X104733333Y-71583334D01*
X104733333Y-71850000D01*
X104433333Y-71183334D02*
X104400000Y-71150000D01*
X104366667Y-71083334D01*
X104366667Y-70916667D01*
X104400000Y-70850000D01*
X104433333Y-70816667D01*
X104500000Y-70783334D01*
X104566667Y-70783334D01*
X104666667Y-70816667D01*
X105066667Y-71216667D01*
X105066667Y-70783334D01*
X104600000Y-70183333D02*
X105066667Y-70183333D01*
X104333333Y-70350000D02*
X104833333Y-70516667D01*
X104833333Y-70083333D01*
X108800000Y-70816667D02*
X108566666Y-70483333D01*
X108400000Y-70816667D02*
X108400000Y-70116667D01*
X108666666Y-70116667D01*
X108733333Y-70150000D01*
X108766666Y-70183333D01*
X108800000Y-70250000D01*
X108800000Y-70350000D01*
X108766666Y-70416667D01*
X108733333Y-70450000D01*
X108666666Y-70483333D01*
X108400000Y-70483333D01*
X109066666Y-70183333D02*
X109100000Y-70150000D01*
X109166666Y-70116667D01*
X109333333Y-70116667D01*
X109400000Y-70150000D01*
X109433333Y-70183333D01*
X109466666Y-70250000D01*
X109466666Y-70316667D01*
X109433333Y-70416667D01*
X109033333Y-70816667D01*
X109466666Y-70816667D01*
X110100000Y-70116667D02*
X109766667Y-70116667D01*
X109733333Y-70450000D01*
X109766667Y-70416667D01*
X109833333Y-70383333D01*
X110000000Y-70383333D01*
X110066667Y-70416667D01*
X110100000Y-70450000D01*
X110133333Y-70516667D01*
X110133333Y-70683333D01*
X110100000Y-70750000D01*
X110066667Y-70783333D01*
X110000000Y-70816667D01*
X109833333Y-70816667D01*
X109766667Y-70783333D01*
X109733333Y-70750000D01*
X117550000Y-53566667D02*
X117316666Y-53233333D01*
X117150000Y-53566667D02*
X117150000Y-52866667D01*
X117416666Y-52866667D01*
X117483333Y-52900000D01*
X117516666Y-52933333D01*
X117550000Y-53000000D01*
X117550000Y-53100000D01*
X117516666Y-53166667D01*
X117483333Y-53200000D01*
X117416666Y-53233333D01*
X117150000Y-53233333D01*
X117816666Y-52933333D02*
X117850000Y-52900000D01*
X117916666Y-52866667D01*
X118083333Y-52866667D01*
X118150000Y-52900000D01*
X118183333Y-52933333D01*
X118216666Y-53000000D01*
X118216666Y-53066667D01*
X118183333Y-53166667D01*
X117783333Y-53566667D01*
X118216666Y-53566667D01*
X118816667Y-52866667D02*
X118683333Y-52866667D01*
X118616667Y-52900000D01*
X118583333Y-52933333D01*
X118516667Y-53033333D01*
X118483333Y-53166667D01*
X118483333Y-53433333D01*
X118516667Y-53500000D01*
X118550000Y-53533333D01*
X118616667Y-53566667D01*
X118750000Y-53566667D01*
X118816667Y-53533333D01*
X118850000Y-53500000D01*
X118883333Y-53433333D01*
X118883333Y-53266667D01*
X118850000Y-53200000D01*
X118816667Y-53166667D01*
X118750000Y-53133333D01*
X118616667Y-53133333D01*
X118550000Y-53166667D01*
X118516667Y-53200000D01*
X118483333Y-53266667D01*
X112050000Y-62566667D02*
X111816666Y-62233333D01*
X111650000Y-62566667D02*
X111650000Y-61866667D01*
X111916666Y-61866667D01*
X111983333Y-61900000D01*
X112016666Y-61933333D01*
X112050000Y-62000000D01*
X112050000Y-62100000D01*
X112016666Y-62166667D01*
X111983333Y-62200000D01*
X111916666Y-62233333D01*
X111650000Y-62233333D01*
X112316666Y-61933333D02*
X112350000Y-61900000D01*
X112416666Y-61866667D01*
X112583333Y-61866667D01*
X112650000Y-61900000D01*
X112683333Y-61933333D01*
X112716666Y-62000000D01*
X112716666Y-62066667D01*
X112683333Y-62166667D01*
X112283333Y-62566667D01*
X112716666Y-62566667D01*
X112950000Y-61866667D02*
X113416667Y-61866667D01*
X113116667Y-62566667D01*
X115550000Y-61316667D02*
X115316666Y-60983333D01*
X115150000Y-61316667D02*
X115150000Y-60616667D01*
X115416666Y-60616667D01*
X115483333Y-60650000D01*
X115516666Y-60683333D01*
X115550000Y-60750000D01*
X115550000Y-60850000D01*
X115516666Y-60916667D01*
X115483333Y-60950000D01*
X115416666Y-60983333D01*
X115150000Y-60983333D01*
X115816666Y-60683333D02*
X115850000Y-60650000D01*
X115916666Y-60616667D01*
X116083333Y-60616667D01*
X116150000Y-60650000D01*
X116183333Y-60683333D01*
X116216666Y-60750000D01*
X116216666Y-60816667D01*
X116183333Y-60916667D01*
X115783333Y-61316667D01*
X116216666Y-61316667D01*
X116616667Y-60916667D02*
X116550000Y-60883333D01*
X116516667Y-60850000D01*
X116483333Y-60783333D01*
X116483333Y-60750000D01*
X116516667Y-60683333D01*
X116550000Y-60650000D01*
X116616667Y-60616667D01*
X116750000Y-60616667D01*
X116816667Y-60650000D01*
X116850000Y-60683333D01*
X116883333Y-60750000D01*
X116883333Y-60783333D01*
X116850000Y-60850000D01*
X116816667Y-60883333D01*
X116750000Y-60916667D01*
X116616667Y-60916667D01*
X116550000Y-60950000D01*
X116516667Y-60983333D01*
X116483333Y-61050000D01*
X116483333Y-61183333D01*
X116516667Y-61250000D01*
X116550000Y-61283333D01*
X116616667Y-61316667D01*
X116750000Y-61316667D01*
X116816667Y-61283333D01*
X116850000Y-61250000D01*
X116883333Y-61183333D01*
X116883333Y-61050000D01*
X116850000Y-60983333D01*
X116816667Y-60950000D01*
X116750000Y-60916667D01*
X105550000Y-77066667D02*
X105316666Y-76733333D01*
X105150000Y-77066667D02*
X105150000Y-76366667D01*
X105416666Y-76366667D01*
X105483333Y-76400000D01*
X105516666Y-76433333D01*
X105550000Y-76500000D01*
X105550000Y-76600000D01*
X105516666Y-76666667D01*
X105483333Y-76700000D01*
X105416666Y-76733333D01*
X105150000Y-76733333D01*
X105816666Y-76433333D02*
X105850000Y-76400000D01*
X105916666Y-76366667D01*
X106083333Y-76366667D01*
X106150000Y-76400000D01*
X106183333Y-76433333D01*
X106216666Y-76500000D01*
X106216666Y-76566667D01*
X106183333Y-76666667D01*
X105783333Y-77066667D01*
X106216666Y-77066667D01*
X106550000Y-77066667D02*
X106683333Y-77066667D01*
X106750000Y-77033333D01*
X106783333Y-77000000D01*
X106850000Y-76900000D01*
X106883333Y-76766667D01*
X106883333Y-76500000D01*
X106850000Y-76433333D01*
X106816667Y-76400000D01*
X106750000Y-76366667D01*
X106616667Y-76366667D01*
X106550000Y-76400000D01*
X106516667Y-76433333D01*
X106483333Y-76500000D01*
X106483333Y-76666667D01*
X106516667Y-76733333D01*
X106550000Y-76766667D01*
X106616667Y-76800000D01*
X106750000Y-76800000D01*
X106816667Y-76766667D01*
X106850000Y-76733333D01*
X106883333Y-76666667D01*
X125300000Y-84066667D02*
X125066666Y-83733333D01*
X124900000Y-84066667D02*
X124900000Y-83366667D01*
X125166666Y-83366667D01*
X125233333Y-83400000D01*
X125266666Y-83433333D01*
X125300000Y-83500000D01*
X125300000Y-83600000D01*
X125266666Y-83666667D01*
X125233333Y-83700000D01*
X125166666Y-83733333D01*
X124900000Y-83733333D01*
X125533333Y-83366667D02*
X125966666Y-83366667D01*
X125733333Y-83633333D01*
X125833333Y-83633333D01*
X125900000Y-83666667D01*
X125933333Y-83700000D01*
X125966666Y-83766667D01*
X125966666Y-83933333D01*
X125933333Y-84000000D01*
X125900000Y-84033333D01*
X125833333Y-84066667D01*
X125633333Y-84066667D01*
X125566666Y-84033333D01*
X125533333Y-84000000D01*
X126400000Y-83366667D02*
X126466667Y-83366667D01*
X126533333Y-83400000D01*
X126566667Y-83433333D01*
X126600000Y-83500000D01*
X126633333Y-83633333D01*
X126633333Y-83800000D01*
X126600000Y-83933333D01*
X126566667Y-84000000D01*
X126533333Y-84033333D01*
X126466667Y-84066667D01*
X126400000Y-84066667D01*
X126333333Y-84033333D01*
X126300000Y-84000000D01*
X126266667Y-83933333D01*
X126233333Y-83800000D01*
X126233333Y-83633333D01*
X126266667Y-83500000D01*
X126300000Y-83433333D01*
X126333333Y-83400000D01*
X126400000Y-83366667D01*
X105550000Y-81316667D02*
X105316666Y-80983333D01*
X105150000Y-81316667D02*
X105150000Y-80616667D01*
X105416666Y-80616667D01*
X105483333Y-80650000D01*
X105516666Y-80683333D01*
X105550000Y-80750000D01*
X105550000Y-80850000D01*
X105516666Y-80916667D01*
X105483333Y-80950000D01*
X105416666Y-80983333D01*
X105150000Y-80983333D01*
X105783333Y-80616667D02*
X106216666Y-80616667D01*
X105983333Y-80883333D01*
X106083333Y-80883333D01*
X106150000Y-80916667D01*
X106183333Y-80950000D01*
X106216666Y-81016667D01*
X106216666Y-81183333D01*
X106183333Y-81250000D01*
X106150000Y-81283333D01*
X106083333Y-81316667D01*
X105883333Y-81316667D01*
X105816666Y-81283333D01*
X105783333Y-81250000D01*
X106883333Y-81316667D02*
X106483333Y-81316667D01*
X106683333Y-81316667D02*
X106683333Y-80616667D01*
X106616667Y-80716667D01*
X106550000Y-80783333D01*
X106483333Y-80816667D01*
X123800000Y-85316667D02*
X123566666Y-84983333D01*
X123400000Y-85316667D02*
X123400000Y-84616667D01*
X123666666Y-84616667D01*
X123733333Y-84650000D01*
X123766666Y-84683333D01*
X123800000Y-84750000D01*
X123800000Y-84850000D01*
X123766666Y-84916667D01*
X123733333Y-84950000D01*
X123666666Y-84983333D01*
X123400000Y-84983333D01*
X124033333Y-84616667D02*
X124466666Y-84616667D01*
X124233333Y-84883333D01*
X124333333Y-84883333D01*
X124400000Y-84916667D01*
X124433333Y-84950000D01*
X124466666Y-85016667D01*
X124466666Y-85183333D01*
X124433333Y-85250000D01*
X124400000Y-85283333D01*
X124333333Y-85316667D01*
X124133333Y-85316667D01*
X124066666Y-85283333D01*
X124033333Y-85250000D01*
X124733333Y-84683333D02*
X124766667Y-84650000D01*
X124833333Y-84616667D01*
X125000000Y-84616667D01*
X125066667Y-84650000D01*
X125100000Y-84683333D01*
X125133333Y-84750000D01*
X125133333Y-84816667D01*
X125100000Y-84916667D01*
X124700000Y-85316667D01*
X125133333Y-85316667D01*
X124050000Y-93816667D02*
X123816666Y-93483333D01*
X123650000Y-93816667D02*
X123650000Y-93116667D01*
X123916666Y-93116667D01*
X123983333Y-93150000D01*
X124016666Y-93183333D01*
X124050000Y-93250000D01*
X124050000Y-93350000D01*
X124016666Y-93416667D01*
X123983333Y-93450000D01*
X123916666Y-93483333D01*
X123650000Y-93483333D01*
X124283333Y-93116667D02*
X124716666Y-93116667D01*
X124483333Y-93383333D01*
X124583333Y-93383333D01*
X124650000Y-93416667D01*
X124683333Y-93450000D01*
X124716666Y-93516667D01*
X124716666Y-93683333D01*
X124683333Y-93750000D01*
X124650000Y-93783333D01*
X124583333Y-93816667D01*
X124383333Y-93816667D01*
X124316666Y-93783333D01*
X124283333Y-93750000D01*
X124950000Y-93116667D02*
X125383333Y-93116667D01*
X125150000Y-93383333D01*
X125250000Y-93383333D01*
X125316667Y-93416667D01*
X125350000Y-93450000D01*
X125383333Y-93516667D01*
X125383333Y-93683333D01*
X125350000Y-93750000D01*
X125316667Y-93783333D01*
X125250000Y-93816667D01*
X125050000Y-93816667D01*
X124983333Y-93783333D01*
X124950000Y-93750000D01*
X129050000Y-87316667D02*
X128816666Y-86983333D01*
X128650000Y-87316667D02*
X128650000Y-86616667D01*
X128916666Y-86616667D01*
X128983333Y-86650000D01*
X129016666Y-86683333D01*
X129050000Y-86750000D01*
X129050000Y-86850000D01*
X129016666Y-86916667D01*
X128983333Y-86950000D01*
X128916666Y-86983333D01*
X128650000Y-86983333D01*
X129283333Y-86616667D02*
X129716666Y-86616667D01*
X129483333Y-86883333D01*
X129583333Y-86883333D01*
X129650000Y-86916667D01*
X129683333Y-86950000D01*
X129716666Y-87016667D01*
X129716666Y-87183333D01*
X129683333Y-87250000D01*
X129650000Y-87283333D01*
X129583333Y-87316667D01*
X129383333Y-87316667D01*
X129316666Y-87283333D01*
X129283333Y-87250000D01*
X130316667Y-86850000D02*
X130316667Y-87316667D01*
X130150000Y-86583333D02*
X129983333Y-87083333D01*
X130416667Y-87083333D01*
X129050000Y-91066667D02*
X128816666Y-90733333D01*
X128650000Y-91066667D02*
X128650000Y-90366667D01*
X128916666Y-90366667D01*
X128983333Y-90400000D01*
X129016666Y-90433333D01*
X129050000Y-90500000D01*
X129050000Y-90600000D01*
X129016666Y-90666667D01*
X128983333Y-90700000D01*
X128916666Y-90733333D01*
X128650000Y-90733333D01*
X129283333Y-90366667D02*
X129716666Y-90366667D01*
X129483333Y-90633333D01*
X129583333Y-90633333D01*
X129650000Y-90666667D01*
X129683333Y-90700000D01*
X129716666Y-90766667D01*
X129716666Y-90933333D01*
X129683333Y-91000000D01*
X129650000Y-91033333D01*
X129583333Y-91066667D01*
X129383333Y-91066667D01*
X129316666Y-91033333D01*
X129283333Y-91000000D01*
X130350000Y-90366667D02*
X130016667Y-90366667D01*
X129983333Y-90700000D01*
X130016667Y-90666667D01*
X130083333Y-90633333D01*
X130250000Y-90633333D01*
X130316667Y-90666667D01*
X130350000Y-90700000D01*
X130383333Y-90766667D01*
X130383333Y-90933333D01*
X130350000Y-91000000D01*
X130316667Y-91033333D01*
X130250000Y-91066667D01*
X130083333Y-91066667D01*
X130016667Y-91033333D01*
X129983333Y-91000000D01*
X125800000Y-85316667D02*
X125566666Y-84983333D01*
X125400000Y-85316667D02*
X125400000Y-84616667D01*
X125666666Y-84616667D01*
X125733333Y-84650000D01*
X125766666Y-84683333D01*
X125800000Y-84750000D01*
X125800000Y-84850000D01*
X125766666Y-84916667D01*
X125733333Y-84950000D01*
X125666666Y-84983333D01*
X125400000Y-84983333D01*
X126033333Y-84616667D02*
X126466666Y-84616667D01*
X126233333Y-84883333D01*
X126333333Y-84883333D01*
X126400000Y-84916667D01*
X126433333Y-84950000D01*
X126466666Y-85016667D01*
X126466666Y-85183333D01*
X126433333Y-85250000D01*
X126400000Y-85283333D01*
X126333333Y-85316667D01*
X126133333Y-85316667D01*
X126066666Y-85283333D01*
X126033333Y-85250000D01*
X127066667Y-84616667D02*
X126933333Y-84616667D01*
X126866667Y-84650000D01*
X126833333Y-84683333D01*
X126766667Y-84783333D01*
X126733333Y-84916667D01*
X126733333Y-85183333D01*
X126766667Y-85250000D01*
X126800000Y-85283333D01*
X126866667Y-85316667D01*
X127000000Y-85316667D01*
X127066667Y-85283333D01*
X127100000Y-85250000D01*
X127133333Y-85183333D01*
X127133333Y-85016667D01*
X127100000Y-84950000D01*
X127066667Y-84916667D01*
X127000000Y-84883333D01*
X126866667Y-84883333D01*
X126800000Y-84916667D01*
X126766667Y-84950000D01*
X126733333Y-85016667D01*
X126300000Y-93816667D02*
X126066666Y-93483333D01*
X125900000Y-93816667D02*
X125900000Y-93116667D01*
X126166666Y-93116667D01*
X126233333Y-93150000D01*
X126266666Y-93183333D01*
X126300000Y-93250000D01*
X126300000Y-93350000D01*
X126266666Y-93416667D01*
X126233333Y-93450000D01*
X126166666Y-93483333D01*
X125900000Y-93483333D01*
X126533333Y-93116667D02*
X126966666Y-93116667D01*
X126733333Y-93383333D01*
X126833333Y-93383333D01*
X126900000Y-93416667D01*
X126933333Y-93450000D01*
X126966666Y-93516667D01*
X126966666Y-93683333D01*
X126933333Y-93750000D01*
X126900000Y-93783333D01*
X126833333Y-93816667D01*
X126633333Y-93816667D01*
X126566666Y-93783333D01*
X126533333Y-93750000D01*
X127200000Y-93116667D02*
X127666667Y-93116667D01*
X127366667Y-93816667D01*
X121050000Y-87316667D02*
X120816666Y-86983333D01*
X120650000Y-87316667D02*
X120650000Y-86616667D01*
X120916666Y-86616667D01*
X120983333Y-86650000D01*
X121016666Y-86683333D01*
X121050000Y-86750000D01*
X121050000Y-86850000D01*
X121016666Y-86916667D01*
X120983333Y-86950000D01*
X120916666Y-86983333D01*
X120650000Y-86983333D01*
X121283333Y-86616667D02*
X121716666Y-86616667D01*
X121483333Y-86883333D01*
X121583333Y-86883333D01*
X121650000Y-86916667D01*
X121683333Y-86950000D01*
X121716666Y-87016667D01*
X121716666Y-87183333D01*
X121683333Y-87250000D01*
X121650000Y-87283333D01*
X121583333Y-87316667D01*
X121383333Y-87316667D01*
X121316666Y-87283333D01*
X121283333Y-87250000D01*
X122116667Y-86916667D02*
X122050000Y-86883333D01*
X122016667Y-86850000D01*
X121983333Y-86783333D01*
X121983333Y-86750000D01*
X122016667Y-86683333D01*
X122050000Y-86650000D01*
X122116667Y-86616667D01*
X122250000Y-86616667D01*
X122316667Y-86650000D01*
X122350000Y-86683333D01*
X122383333Y-86750000D01*
X122383333Y-86783333D01*
X122350000Y-86850000D01*
X122316667Y-86883333D01*
X122250000Y-86916667D01*
X122116667Y-86916667D01*
X122050000Y-86950000D01*
X122016667Y-86983333D01*
X121983333Y-87050000D01*
X121983333Y-87183333D01*
X122016667Y-87250000D01*
X122050000Y-87283333D01*
X122116667Y-87316667D01*
X122250000Y-87316667D01*
X122316667Y-87283333D01*
X122350000Y-87250000D01*
X122383333Y-87183333D01*
X122383333Y-87050000D01*
X122350000Y-86983333D01*
X122316667Y-86950000D01*
X122250000Y-86916667D01*
X121050000Y-91066667D02*
X120816666Y-90733333D01*
X120650000Y-91066667D02*
X120650000Y-90366667D01*
X120916666Y-90366667D01*
X120983333Y-90400000D01*
X121016666Y-90433333D01*
X121050000Y-90500000D01*
X121050000Y-90600000D01*
X121016666Y-90666667D01*
X120983333Y-90700000D01*
X120916666Y-90733333D01*
X120650000Y-90733333D01*
X121283333Y-90366667D02*
X121716666Y-90366667D01*
X121483333Y-90633333D01*
X121583333Y-90633333D01*
X121650000Y-90666667D01*
X121683333Y-90700000D01*
X121716666Y-90766667D01*
X121716666Y-90933333D01*
X121683333Y-91000000D01*
X121650000Y-91033333D01*
X121583333Y-91066667D01*
X121383333Y-91066667D01*
X121316666Y-91033333D01*
X121283333Y-91000000D01*
X122050000Y-91066667D02*
X122183333Y-91066667D01*
X122250000Y-91033333D01*
X122283333Y-91000000D01*
X122350000Y-90900000D01*
X122383333Y-90766667D01*
X122383333Y-90500000D01*
X122350000Y-90433333D01*
X122316667Y-90400000D01*
X122250000Y-90366667D01*
X122116667Y-90366667D01*
X122050000Y-90400000D01*
X122016667Y-90433333D01*
X121983333Y-90500000D01*
X121983333Y-90666667D01*
X122016667Y-90733333D01*
X122050000Y-90766667D01*
X122116667Y-90800000D01*
X122250000Y-90800000D01*
X122316667Y-90766667D01*
X122350000Y-90733333D01*
X122383333Y-90666667D01*
X118400000Y-56066667D02*
X118166666Y-55733333D01*
X118000000Y-56066667D02*
X118000000Y-55366667D01*
X118266666Y-55366667D01*
X118333333Y-55400000D01*
X118366666Y-55433333D01*
X118400000Y-55500000D01*
X118400000Y-55600000D01*
X118366666Y-55666667D01*
X118333333Y-55700000D01*
X118266666Y-55733333D01*
X118000000Y-55733333D01*
X119000000Y-55600000D02*
X119000000Y-56066667D01*
X118833333Y-55333333D02*
X118666666Y-55833333D01*
X119100000Y-55833333D01*
X119500000Y-55366667D02*
X119566667Y-55366667D01*
X119633333Y-55400000D01*
X119666667Y-55433333D01*
X119700000Y-55500000D01*
X119733333Y-55633333D01*
X119733333Y-55800000D01*
X119700000Y-55933333D01*
X119666667Y-56000000D01*
X119633333Y-56033333D01*
X119566667Y-56066667D01*
X119500000Y-56066667D01*
X119433333Y-56033333D01*
X119400000Y-56000000D01*
X119366667Y-55933333D01*
X119333333Y-55800000D01*
X119333333Y-55633333D01*
X119366667Y-55500000D01*
X119400000Y-55433333D01*
X119433333Y-55400000D01*
X119500000Y-55366667D01*
X109550000Y-65316667D02*
X109316666Y-64983333D01*
X109150000Y-65316667D02*
X109150000Y-64616667D01*
X109416666Y-64616667D01*
X109483333Y-64650000D01*
X109516666Y-64683333D01*
X109550000Y-64750000D01*
X109550000Y-64850000D01*
X109516666Y-64916667D01*
X109483333Y-64950000D01*
X109416666Y-64983333D01*
X109150000Y-64983333D01*
X110150000Y-64850000D02*
X110150000Y-65316667D01*
X109983333Y-64583333D02*
X109816666Y-65083333D01*
X110250000Y-65083333D01*
X110883333Y-65316667D02*
X110483333Y-65316667D01*
X110683333Y-65316667D02*
X110683333Y-64616667D01*
X110616667Y-64716667D01*
X110550000Y-64783333D01*
X110483333Y-64816667D01*
X114050000Y-116566667D02*
X113816666Y-116233333D01*
X113650000Y-116566667D02*
X113650000Y-115866667D01*
X113916666Y-115866667D01*
X113983333Y-115900000D01*
X114016666Y-115933333D01*
X114050000Y-116000000D01*
X114050000Y-116100000D01*
X114016666Y-116166667D01*
X113983333Y-116200000D01*
X113916666Y-116233333D01*
X113650000Y-116233333D01*
X114650000Y-116100000D02*
X114650000Y-116566667D01*
X114483333Y-115833333D02*
X114316666Y-116333333D01*
X114750000Y-116333333D01*
X114983333Y-115933333D02*
X115016667Y-115900000D01*
X115083333Y-115866667D01*
X115250000Y-115866667D01*
X115316667Y-115900000D01*
X115350000Y-115933333D01*
X115383333Y-116000000D01*
X115383333Y-116066667D01*
X115350000Y-116166667D01*
X114950000Y-116566667D01*
X115383333Y-116566667D01*
X126550000Y-55566667D02*
X126316666Y-55233333D01*
X126150000Y-55566667D02*
X126150000Y-54866667D01*
X126416666Y-54866667D01*
X126483333Y-54900000D01*
X126516666Y-54933333D01*
X126550000Y-55000000D01*
X126550000Y-55100000D01*
X126516666Y-55166667D01*
X126483333Y-55200000D01*
X126416666Y-55233333D01*
X126150000Y-55233333D01*
X127150000Y-55100000D02*
X127150000Y-55566667D01*
X126983333Y-54833333D02*
X126816666Y-55333333D01*
X127250000Y-55333333D01*
X127450000Y-54866667D02*
X127883333Y-54866667D01*
X127650000Y-55133333D01*
X127750000Y-55133333D01*
X127816667Y-55166667D01*
X127850000Y-55200000D01*
X127883333Y-55266667D01*
X127883333Y-55433333D01*
X127850000Y-55500000D01*
X127816667Y-55533333D01*
X127750000Y-55566667D01*
X127550000Y-55566667D01*
X127483333Y-55533333D01*
X127450000Y-55500000D01*
X105300000Y-96566667D02*
X105066666Y-96233333D01*
X104900000Y-96566667D02*
X104900000Y-95866667D01*
X105166666Y-95866667D01*
X105233333Y-95900000D01*
X105266666Y-95933333D01*
X105300000Y-96000000D01*
X105300000Y-96100000D01*
X105266666Y-96166667D01*
X105233333Y-96200000D01*
X105166666Y-96233333D01*
X104900000Y-96233333D01*
X105900000Y-96100000D02*
X105900000Y-96566667D01*
X105733333Y-95833333D02*
X105566666Y-96333333D01*
X106000000Y-96333333D01*
X106566667Y-96100000D02*
X106566667Y-96566667D01*
X106400000Y-95833333D02*
X106233333Y-96333333D01*
X106666667Y-96333333D01*
X132300000Y-60366667D02*
X132066666Y-60033333D01*
X131900000Y-60366667D02*
X131900000Y-59666667D01*
X132166666Y-59666667D01*
X132233333Y-59700000D01*
X132266666Y-59733333D01*
X132300000Y-59800000D01*
X132300000Y-59900000D01*
X132266666Y-59966667D01*
X132233333Y-60000000D01*
X132166666Y-60033333D01*
X131900000Y-60033333D01*
X132900000Y-59900000D02*
X132900000Y-60366667D01*
X132733333Y-59633333D02*
X132566666Y-60133333D01*
X133000000Y-60133333D01*
X133600000Y-59666667D02*
X133266667Y-59666667D01*
X133233333Y-60000000D01*
X133266667Y-59966667D01*
X133333333Y-59933333D01*
X133500000Y-59933333D01*
X133566667Y-59966667D01*
X133600000Y-60000000D01*
X133633333Y-60066667D01*
X133633333Y-60233333D01*
X133600000Y-60300000D01*
X133566667Y-60333333D01*
X133500000Y-60366667D01*
X133333333Y-60366667D01*
X133266667Y-60333333D01*
X133233333Y-60300000D01*
X124050000Y-137316667D02*
X123816666Y-136983333D01*
X123650000Y-137316667D02*
X123650000Y-136616667D01*
X123916666Y-136616667D01*
X123983333Y-136650000D01*
X124016666Y-136683333D01*
X124050000Y-136750000D01*
X124050000Y-136850000D01*
X124016666Y-136916667D01*
X123983333Y-136950000D01*
X123916666Y-136983333D01*
X123650000Y-136983333D01*
X124650000Y-136850000D02*
X124650000Y-137316667D01*
X124483333Y-136583333D02*
X124316666Y-137083333D01*
X124750000Y-137083333D01*
X125316667Y-136616667D02*
X125183333Y-136616667D01*
X125116667Y-136650000D01*
X125083333Y-136683333D01*
X125016667Y-136783333D01*
X124983333Y-136916667D01*
X124983333Y-137183333D01*
X125016667Y-137250000D01*
X125050000Y-137283333D01*
X125116667Y-137316667D01*
X125250000Y-137316667D01*
X125316667Y-137283333D01*
X125350000Y-137250000D01*
X125383333Y-137183333D01*
X125383333Y-137016667D01*
X125350000Y-136950000D01*
X125316667Y-136916667D01*
X125250000Y-136883333D01*
X125116667Y-136883333D01*
X125050000Y-136916667D01*
X125016667Y-136950000D01*
X124983333Y-137016667D01*
X113550000Y-137316667D02*
X113316666Y-136983333D01*
X113150000Y-137316667D02*
X113150000Y-136616667D01*
X113416666Y-136616667D01*
X113483333Y-136650000D01*
X113516666Y-136683333D01*
X113550000Y-136750000D01*
X113550000Y-136850000D01*
X113516666Y-136916667D01*
X113483333Y-136950000D01*
X113416666Y-136983333D01*
X113150000Y-136983333D01*
X114150000Y-136850000D02*
X114150000Y-137316667D01*
X113983333Y-136583333D02*
X113816666Y-137083333D01*
X114250000Y-137083333D01*
X114450000Y-136616667D02*
X114916667Y-136616667D01*
X114616667Y-137316667D01*
X127050000Y-137316667D02*
X126816666Y-136983333D01*
X126650000Y-137316667D02*
X126650000Y-136616667D01*
X126916666Y-136616667D01*
X126983333Y-136650000D01*
X127016666Y-136683333D01*
X127050000Y-136750000D01*
X127050000Y-136850000D01*
X127016666Y-136916667D01*
X126983333Y-136950000D01*
X126916666Y-136983333D01*
X126650000Y-136983333D01*
X127650000Y-136850000D02*
X127650000Y-137316667D01*
X127483333Y-136583333D02*
X127316666Y-137083333D01*
X127750000Y-137083333D01*
X128116667Y-136916667D02*
X128050000Y-136883333D01*
X128016667Y-136850000D01*
X127983333Y-136783333D01*
X127983333Y-136750000D01*
X128016667Y-136683333D01*
X128050000Y-136650000D01*
X128116667Y-136616667D01*
X128250000Y-136616667D01*
X128316667Y-136650000D01*
X128350000Y-136683333D01*
X128383333Y-136750000D01*
X128383333Y-136783333D01*
X128350000Y-136850000D01*
X128316667Y-136883333D01*
X128250000Y-136916667D01*
X128116667Y-136916667D01*
X128050000Y-136950000D01*
X128016667Y-136983333D01*
X127983333Y-137050000D01*
X127983333Y-137183333D01*
X128016667Y-137250000D01*
X128050000Y-137283333D01*
X128116667Y-137316667D01*
X128250000Y-137316667D01*
X128316667Y-137283333D01*
X128350000Y-137250000D01*
X128383333Y-137183333D01*
X128383333Y-137050000D01*
X128350000Y-136983333D01*
X128316667Y-136950000D01*
X128250000Y-136916667D01*
X116550000Y-137316667D02*
X116316666Y-136983333D01*
X116150000Y-137316667D02*
X116150000Y-136616667D01*
X116416666Y-136616667D01*
X116483333Y-136650000D01*
X116516666Y-136683333D01*
X116550000Y-136750000D01*
X116550000Y-136850000D01*
X116516666Y-136916667D01*
X116483333Y-136950000D01*
X116416666Y-136983333D01*
X116150000Y-136983333D01*
X117150000Y-136850000D02*
X117150000Y-137316667D01*
X116983333Y-136583333D02*
X116816666Y-137083333D01*
X117250000Y-137083333D01*
X117550000Y-137316667D02*
X117683333Y-137316667D01*
X117750000Y-137283333D01*
X117783333Y-137250000D01*
X117850000Y-137150000D01*
X117883333Y-137016667D01*
X117883333Y-136750000D01*
X117850000Y-136683333D01*
X117816667Y-136650000D01*
X117750000Y-136616667D01*
X117616667Y-136616667D01*
X117550000Y-136650000D01*
X117516667Y-136683333D01*
X117483333Y-136750000D01*
X117483333Y-136916667D01*
X117516667Y-136983333D01*
X117550000Y-137016667D01*
X117616667Y-137050000D01*
X117750000Y-137050000D01*
X117816667Y-137016667D01*
X117850000Y-136983333D01*
X117883333Y-136916667D01*
X132050000Y-138816667D02*
X131816666Y-138483333D01*
X131650000Y-138816667D02*
X131650000Y-138116667D01*
X131916666Y-138116667D01*
X131983333Y-138150000D01*
X132016666Y-138183333D01*
X132050000Y-138250000D01*
X132050000Y-138350000D01*
X132016666Y-138416667D01*
X131983333Y-138450000D01*
X131916666Y-138483333D01*
X131650000Y-138483333D01*
X132683333Y-138116667D02*
X132350000Y-138116667D01*
X132316666Y-138450000D01*
X132350000Y-138416667D01*
X132416666Y-138383333D01*
X132583333Y-138383333D01*
X132650000Y-138416667D01*
X132683333Y-138450000D01*
X132716666Y-138516667D01*
X132716666Y-138683333D01*
X132683333Y-138750000D01*
X132650000Y-138783333D01*
X132583333Y-138816667D01*
X132416666Y-138816667D01*
X132350000Y-138783333D01*
X132316666Y-138750000D01*
X133150000Y-138116667D02*
X133216667Y-138116667D01*
X133283333Y-138150000D01*
X133316667Y-138183333D01*
X133350000Y-138250000D01*
X133383333Y-138383333D01*
X133383333Y-138550000D01*
X133350000Y-138683333D01*
X133316667Y-138750000D01*
X133283333Y-138783333D01*
X133216667Y-138816667D01*
X133150000Y-138816667D01*
X133083333Y-138783333D01*
X133050000Y-138750000D01*
X133016667Y-138683333D01*
X132983333Y-138550000D01*
X132983333Y-138383333D01*
X133016667Y-138250000D01*
X133050000Y-138183333D01*
X133083333Y-138150000D01*
X133150000Y-138116667D01*
X119550000Y-137316667D02*
X119316666Y-136983333D01*
X119150000Y-137316667D02*
X119150000Y-136616667D01*
X119416666Y-136616667D01*
X119483333Y-136650000D01*
X119516666Y-136683333D01*
X119550000Y-136750000D01*
X119550000Y-136850000D01*
X119516666Y-136916667D01*
X119483333Y-136950000D01*
X119416666Y-136983333D01*
X119150000Y-136983333D01*
X120183333Y-136616667D02*
X119850000Y-136616667D01*
X119816666Y-136950000D01*
X119850000Y-136916667D01*
X119916666Y-136883333D01*
X120083333Y-136883333D01*
X120150000Y-136916667D01*
X120183333Y-136950000D01*
X120216666Y-137016667D01*
X120216666Y-137183333D01*
X120183333Y-137250000D01*
X120150000Y-137283333D01*
X120083333Y-137316667D01*
X119916666Y-137316667D01*
X119850000Y-137283333D01*
X119816666Y-137250000D01*
X120883333Y-137316667D02*
X120483333Y-137316667D01*
X120683333Y-137316667D02*
X120683333Y-136616667D01*
X120616667Y-136716667D01*
X120550000Y-136783333D01*
X120483333Y-136816667D01*
X113316666Y-134283333D02*
X113416666Y-134316667D01*
X113583333Y-134316667D01*
X113650000Y-134283333D01*
X113683333Y-134250000D01*
X113716666Y-134183333D01*
X113716666Y-134116667D01*
X113683333Y-134050000D01*
X113650000Y-134016667D01*
X113583333Y-133983333D01*
X113450000Y-133950000D01*
X113383333Y-133916667D01*
X113350000Y-133883333D01*
X113316666Y-133816667D01*
X113316666Y-133750000D01*
X113350000Y-133683333D01*
X113383333Y-133650000D01*
X113450000Y-133616667D01*
X113616666Y-133616667D01*
X113716666Y-133650000D01*
X113950000Y-133616667D02*
X114116667Y-134316667D01*
X114250000Y-133816667D01*
X114383333Y-134316667D01*
X114550000Y-133616667D01*
X114783333Y-133683333D02*
X114816667Y-133650000D01*
X114883333Y-133616667D01*
X115050000Y-133616667D01*
X115116667Y-133650000D01*
X115150000Y-133683333D01*
X115183333Y-133750000D01*
X115183333Y-133816667D01*
X115150000Y-133916667D01*
X114750000Y-134316667D01*
X115183333Y-134316667D01*
X113316666Y-129033333D02*
X113416666Y-129066667D01*
X113583333Y-129066667D01*
X113650000Y-129033333D01*
X113683333Y-129000000D01*
X113716666Y-128933333D01*
X113716666Y-128866667D01*
X113683333Y-128800000D01*
X113650000Y-128766667D01*
X113583333Y-128733333D01*
X113450000Y-128700000D01*
X113383333Y-128666667D01*
X113350000Y-128633333D01*
X113316666Y-128566667D01*
X113316666Y-128500000D01*
X113350000Y-128433333D01*
X113383333Y-128400000D01*
X113450000Y-128366667D01*
X113616666Y-128366667D01*
X113716666Y-128400000D01*
X113950000Y-128366667D02*
X114116667Y-129066667D01*
X114250000Y-128566667D01*
X114383333Y-129066667D01*
X114550000Y-128366667D01*
X114750000Y-128366667D02*
X115183333Y-128366667D01*
X114950000Y-128633333D01*
X115050000Y-128633333D01*
X115116667Y-128666667D01*
X115150000Y-128700000D01*
X115183333Y-128766667D01*
X115183333Y-128933333D01*
X115150000Y-129000000D01*
X115116667Y-129033333D01*
X115050000Y-129066667D01*
X114850000Y-129066667D01*
X114783333Y-129033333D01*
X114750000Y-129000000D01*
X68383334Y-53600000D02*
X68350000Y-53633333D01*
X68250000Y-53666667D01*
X68183334Y-53666667D01*
X68083334Y-53633333D01*
X68016667Y-53566667D01*
X67983334Y-53500000D01*
X67950000Y-53366667D01*
X67950000Y-53266667D01*
X67983334Y-53133333D01*
X68016667Y-53066667D01*
X68083334Y-53000000D01*
X68183334Y-52966667D01*
X68250000Y-52966667D01*
X68350000Y-53000000D01*
X68383334Y-53033333D01*
X68983334Y-53200000D02*
X68983334Y-53666667D01*
X68816667Y-52933333D02*
X68650000Y-53433333D01*
X69083334Y-53433333D01*
X69800000Y-59750000D02*
X69766666Y-59783333D01*
X69666666Y-59816667D01*
X69600000Y-59816667D01*
X69500000Y-59783333D01*
X69433333Y-59716667D01*
X69400000Y-59650000D01*
X69366666Y-59516667D01*
X69366666Y-59416667D01*
X69400000Y-59283333D01*
X69433333Y-59216667D01*
X69500000Y-59150000D01*
X69600000Y-59116667D01*
X69666666Y-59116667D01*
X69766666Y-59150000D01*
X69800000Y-59183333D01*
X70466666Y-59816667D02*
X70066666Y-59816667D01*
X70266666Y-59816667D02*
X70266666Y-59116667D01*
X70200000Y-59216667D01*
X70133333Y-59283333D01*
X70066666Y-59316667D01*
X70733333Y-59183333D02*
X70766667Y-59150000D01*
X70833333Y-59116667D01*
X71000000Y-59116667D01*
X71066667Y-59150000D01*
X71100000Y-59183333D01*
X71133333Y-59250000D01*
X71133333Y-59316667D01*
X71100000Y-59416667D01*
X70700000Y-59816667D01*
X71133333Y-59816667D01*
X64300000Y-62000000D02*
X64266666Y-62033333D01*
X64166666Y-62066667D01*
X64100000Y-62066667D01*
X64000000Y-62033333D01*
X63933333Y-61966667D01*
X63900000Y-61900000D01*
X63866666Y-61766667D01*
X63866666Y-61666667D01*
X63900000Y-61533333D01*
X63933333Y-61466667D01*
X64000000Y-61400000D01*
X64100000Y-61366667D01*
X64166666Y-61366667D01*
X64266666Y-61400000D01*
X64300000Y-61433333D01*
X64966666Y-62066667D02*
X64566666Y-62066667D01*
X64766666Y-62066667D02*
X64766666Y-61366667D01*
X64700000Y-61466667D01*
X64633333Y-61533333D01*
X64566666Y-61566667D01*
X65566667Y-61600000D02*
X65566667Y-62066667D01*
X65400000Y-61333333D02*
X65233333Y-61833333D01*
X65666667Y-61833333D01*
X64300000Y-63250000D02*
X64266666Y-63283333D01*
X64166666Y-63316667D01*
X64100000Y-63316667D01*
X64000000Y-63283333D01*
X63933333Y-63216667D01*
X63900000Y-63150000D01*
X63866666Y-63016667D01*
X63866666Y-62916667D01*
X63900000Y-62783333D01*
X63933333Y-62716667D01*
X64000000Y-62650000D01*
X64100000Y-62616667D01*
X64166666Y-62616667D01*
X64266666Y-62650000D01*
X64300000Y-62683333D01*
X64966666Y-63316667D02*
X64566666Y-63316667D01*
X64766666Y-63316667D02*
X64766666Y-62616667D01*
X64700000Y-62716667D01*
X64633333Y-62783333D01*
X64566666Y-62816667D01*
X65600000Y-62616667D02*
X65266667Y-62616667D01*
X65233333Y-62950000D01*
X65266667Y-62916667D01*
X65333333Y-62883333D01*
X65500000Y-62883333D01*
X65566667Y-62916667D01*
X65600000Y-62950000D01*
X65633333Y-63016667D01*
X65633333Y-63183333D01*
X65600000Y-63250000D01*
X65566667Y-63283333D01*
X65500000Y-63316667D01*
X65333333Y-63316667D01*
X65266667Y-63283333D01*
X65233333Y-63250000D01*
X141766667Y-61116667D02*
X141766667Y-61616667D01*
X141733333Y-61716667D01*
X141666667Y-61783333D01*
X141566667Y-61816667D01*
X141500000Y-61816667D01*
X142033333Y-61116667D02*
X142466666Y-61116667D01*
X142233333Y-61383333D01*
X142333333Y-61383333D01*
X142400000Y-61416667D01*
X142433333Y-61450000D01*
X142466666Y-61516667D01*
X142466666Y-61683333D01*
X142433333Y-61750000D01*
X142400000Y-61783333D01*
X142333333Y-61816667D01*
X142133333Y-61816667D01*
X142066666Y-61783333D01*
X142033333Y-61750000D01*
X133016667Y-144616667D02*
X133016667Y-145116667D01*
X132983333Y-145216667D01*
X132916667Y-145283333D01*
X132816667Y-145316667D01*
X132750000Y-145316667D01*
X133650000Y-144850000D02*
X133650000Y-145316667D01*
X133483333Y-144583333D02*
X133316666Y-145083333D01*
X133750000Y-145083333D01*
X110766667Y-144366667D02*
X110766667Y-144866667D01*
X110733333Y-144966667D01*
X110666667Y-145033333D01*
X110566667Y-145066667D01*
X110500000Y-145066667D01*
X111433333Y-144366667D02*
X111100000Y-144366667D01*
X111066666Y-144700000D01*
X111100000Y-144666667D01*
X111166666Y-144633333D01*
X111333333Y-144633333D01*
X111400000Y-144666667D01*
X111433333Y-144700000D01*
X111466666Y-144766667D01*
X111466666Y-144933333D01*
X111433333Y-145000000D01*
X111400000Y-145033333D01*
X111333333Y-145066667D01*
X111166666Y-145066667D01*
X111100000Y-145033333D01*
X111066666Y-145000000D01*
X79716667Y-63866667D02*
X79716667Y-64433333D01*
X79750000Y-64500000D01*
X79783333Y-64533333D01*
X79850000Y-64566667D01*
X79983333Y-64566667D01*
X80050000Y-64533333D01*
X80083333Y-64500000D01*
X80116667Y-64433333D01*
X80116667Y-63866667D01*
X80816666Y-64566667D02*
X80416666Y-64566667D01*
X80616666Y-64566667D02*
X80616666Y-63866667D01*
X80550000Y-63966667D01*
X80483333Y-64033333D01*
X80416666Y-64066667D01*
X101216667Y-57366667D02*
X101216667Y-57933333D01*
X101250000Y-58000000D01*
X101283333Y-58033333D01*
X101350000Y-58066667D01*
X101483333Y-58066667D01*
X101550000Y-58033333D01*
X101583333Y-58000000D01*
X101616667Y-57933333D01*
X101616667Y-57366667D01*
X102250000Y-57600000D02*
X102250000Y-58066667D01*
X102083333Y-57333333D02*
X101916666Y-57833333D01*
X102350000Y-57833333D01*
X101216667Y-63866667D02*
X101216667Y-64433333D01*
X101250000Y-64500000D01*
X101283333Y-64533333D01*
X101350000Y-64566667D01*
X101483333Y-64566667D01*
X101550000Y-64533333D01*
X101583333Y-64500000D01*
X101616667Y-64433333D01*
X101616667Y-63866667D01*
X102283333Y-63866667D02*
X101950000Y-63866667D01*
X101916666Y-64200000D01*
X101950000Y-64166667D01*
X102016666Y-64133333D01*
X102183333Y-64133333D01*
X102250000Y-64166667D01*
X102283333Y-64200000D01*
X102316666Y-64266667D01*
X102316666Y-64433333D01*
X102283333Y-64500000D01*
X102250000Y-64533333D01*
X102183333Y-64566667D01*
X102016666Y-64566667D01*
X101950000Y-64533333D01*
X101916666Y-64500000D01*
X110966667Y-69116667D02*
X110966667Y-69683333D01*
X111000000Y-69750000D01*
X111033333Y-69783333D01*
X111100000Y-69816667D01*
X111233333Y-69816667D01*
X111300000Y-69783333D01*
X111333333Y-69750000D01*
X111366667Y-69683333D01*
X111366667Y-69116667D01*
X111633333Y-69116667D02*
X112100000Y-69116667D01*
X111800000Y-69816667D01*
X69766667Y-55950000D02*
X69533334Y-55950000D01*
X69533334Y-56316667D02*
X69533334Y-55616667D01*
X69866667Y-55616667D01*
X70500000Y-56316667D02*
X70100000Y-56316667D01*
X70300000Y-56316667D02*
X70300000Y-55616667D01*
X70233334Y-55716667D01*
X70166667Y-55783333D01*
X70100000Y-55816667D01*
X117416667Y-60950000D02*
X117183334Y-60950000D01*
X117183334Y-61316667D02*
X117183334Y-60616667D01*
X117516667Y-60616667D01*
X118016667Y-60950000D02*
X118116667Y-60983333D01*
X118150000Y-61016667D01*
X118183334Y-61083333D01*
X118183334Y-61183333D01*
X118150000Y-61250000D01*
X118116667Y-61283333D01*
X118050000Y-61316667D01*
X117783334Y-61316667D01*
X117783334Y-60616667D01*
X118016667Y-60616667D01*
X118083334Y-60650000D01*
X118116667Y-60683333D01*
X118150000Y-60750000D01*
X118150000Y-60816667D01*
X118116667Y-60883333D01*
X118083334Y-60916667D01*
X118016667Y-60950000D01*
X117783334Y-60950000D01*
X118850000Y-61316667D02*
X118450000Y-61316667D01*
X118650000Y-61316667D02*
X118650000Y-60616667D01*
X118583334Y-60716667D01*
X118516667Y-60783333D01*
X118450000Y-60816667D01*
X90633333Y-58066667D02*
X90300000Y-58066667D01*
X90300000Y-57366667D01*
X91233333Y-58066667D02*
X90833333Y-58066667D01*
X91033333Y-58066667D02*
X91033333Y-57366667D01*
X90966667Y-57466667D01*
X90900000Y-57533333D01*
X90833333Y-57566667D01*
X110466667Y-108366667D02*
X110466667Y-108933333D01*
X110500000Y-109000000D01*
X110533333Y-109033333D01*
X110600000Y-109066667D01*
X110733333Y-109066667D01*
X110800000Y-109033333D01*
X110833333Y-109000000D01*
X110866667Y-108933333D01*
X110866667Y-108366667D01*
X111166666Y-108433333D02*
X111200000Y-108400000D01*
X111266666Y-108366667D01*
X111433333Y-108366667D01*
X111500000Y-108400000D01*
X111533333Y-108433333D01*
X111566666Y-108500000D01*
X111566666Y-108566667D01*
X111533333Y-108666667D01*
X111133333Y-109066667D01*
X111566666Y-109066667D01*
X110716667Y-105616667D02*
X110716667Y-106183333D01*
X110750000Y-106250000D01*
X110783333Y-106283333D01*
X110850000Y-106316667D01*
X110983333Y-106316667D01*
X111050000Y-106283333D01*
X111083333Y-106250000D01*
X111116667Y-106183333D01*
X111116667Y-105616667D01*
X111750000Y-105616667D02*
X111616666Y-105616667D01*
X111550000Y-105650000D01*
X111516666Y-105683333D01*
X111450000Y-105783333D01*
X111416666Y-105916667D01*
X111416666Y-106183333D01*
X111450000Y-106250000D01*
X111483333Y-106283333D01*
X111550000Y-106316667D01*
X111683333Y-106316667D01*
X111750000Y-106283333D01*
X111783333Y-106250000D01*
X111816666Y-106183333D01*
X111816666Y-106016667D01*
X111783333Y-105950000D01*
X111750000Y-105916667D01*
X111683333Y-105883333D01*
X111550000Y-105883333D01*
X111483333Y-105916667D01*
X111450000Y-105950000D01*
X111416666Y-106016667D01*
X109966667Y-66366667D02*
X109966667Y-66933333D01*
X110000000Y-67000000D01*
X110033333Y-67033333D01*
X110100000Y-67066667D01*
X110233333Y-67066667D01*
X110300000Y-67033333D01*
X110333333Y-67000000D01*
X110366667Y-66933333D01*
X110366667Y-66366667D01*
X110800000Y-66666667D02*
X110733333Y-66633333D01*
X110700000Y-66600000D01*
X110666666Y-66533333D01*
X110666666Y-66500000D01*
X110700000Y-66433333D01*
X110733333Y-66400000D01*
X110800000Y-66366667D01*
X110933333Y-66366667D01*
X111000000Y-66400000D01*
X111033333Y-66433333D01*
X111066666Y-66500000D01*
X111066666Y-66533333D01*
X111033333Y-66600000D01*
X111000000Y-66633333D01*
X110933333Y-66666667D01*
X110800000Y-66666667D01*
X110733333Y-66700000D01*
X110700000Y-66733333D01*
X110666666Y-66800000D01*
X110666666Y-66933333D01*
X110700000Y-67000000D01*
X110733333Y-67033333D01*
X110800000Y-67066667D01*
X110933333Y-67066667D01*
X111000000Y-67033333D01*
X111033333Y-67000000D01*
X111066666Y-66933333D01*
X111066666Y-66800000D01*
X111033333Y-66733333D01*
X111000000Y-66700000D01*
X110933333Y-66666667D01*
X140966667Y-76116667D02*
X140966667Y-76683333D01*
X141000000Y-76750000D01*
X141033333Y-76783333D01*
X141100000Y-76816667D01*
X141233333Y-76816667D01*
X141300000Y-76783333D01*
X141333333Y-76750000D01*
X141366667Y-76683333D01*
X141366667Y-76116667D01*
X141733333Y-76816667D02*
X141866666Y-76816667D01*
X141933333Y-76783333D01*
X141966666Y-76750000D01*
X142033333Y-76650000D01*
X142066666Y-76516667D01*
X142066666Y-76250000D01*
X142033333Y-76183333D01*
X142000000Y-76150000D01*
X141933333Y-76116667D01*
X141800000Y-76116667D01*
X141733333Y-76150000D01*
X141700000Y-76183333D01*
X141666666Y-76250000D01*
X141666666Y-76416667D01*
X141700000Y-76483333D01*
X141733333Y-76516667D01*
X141800000Y-76550000D01*
X141933333Y-76550000D01*
X142000000Y-76516667D01*
X142033333Y-76483333D01*
X142066666Y-76416667D01*
X138133334Y-82266667D02*
X138133334Y-82833333D01*
X138166667Y-82900000D01*
X138200000Y-82933333D01*
X138266667Y-82966667D01*
X138400000Y-82966667D01*
X138466667Y-82933333D01*
X138500000Y-82900000D01*
X138533334Y-82833333D01*
X138533334Y-82266667D01*
X139233333Y-82966667D02*
X138833333Y-82966667D01*
X139033333Y-82966667D02*
X139033333Y-82266667D01*
X138966667Y-82366667D01*
X138900000Y-82433333D01*
X138833333Y-82466667D01*
X139666667Y-82266667D02*
X139733334Y-82266667D01*
X139800000Y-82300000D01*
X139833334Y-82333333D01*
X139866667Y-82400000D01*
X139900000Y-82533333D01*
X139900000Y-82700000D01*
X139866667Y-82833333D01*
X139833334Y-82900000D01*
X139800000Y-82933333D01*
X139733334Y-82966667D01*
X139666667Y-82966667D01*
X139600000Y-82933333D01*
X139566667Y-82900000D01*
X139533334Y-82833333D01*
X139500000Y-82700000D01*
X139500000Y-82533333D01*
X139533334Y-82400000D01*
X139566667Y-82333333D01*
X139600000Y-82300000D01*
X139666667Y-82266667D01*
X127133334Y-61616667D02*
X127133334Y-62183333D01*
X127166667Y-62250000D01*
X127200000Y-62283333D01*
X127266667Y-62316667D01*
X127400000Y-62316667D01*
X127466667Y-62283333D01*
X127500000Y-62250000D01*
X127533334Y-62183333D01*
X127533334Y-61616667D01*
X128233333Y-62316667D02*
X127833333Y-62316667D01*
X128033333Y-62316667D02*
X128033333Y-61616667D01*
X127966667Y-61716667D01*
X127900000Y-61783333D01*
X127833333Y-61816667D01*
X128900000Y-62316667D02*
X128500000Y-62316667D01*
X128700000Y-62316667D02*
X128700000Y-61616667D01*
X128633334Y-61716667D01*
X128566667Y-61783333D01*
X128500000Y-61816667D01*
X123383334Y-129866667D02*
X123383334Y-130433333D01*
X123416667Y-130500000D01*
X123450000Y-130533333D01*
X123516667Y-130566667D01*
X123650000Y-130566667D01*
X123716667Y-130533333D01*
X123750000Y-130500000D01*
X123783334Y-130433333D01*
X123783334Y-129866667D01*
X124483333Y-130566667D02*
X124083333Y-130566667D01*
X124283333Y-130566667D02*
X124283333Y-129866667D01*
X124216667Y-129966667D01*
X124150000Y-130033333D01*
X124083333Y-130066667D01*
X124750000Y-129933333D02*
X124783334Y-129900000D01*
X124850000Y-129866667D01*
X125016667Y-129866667D01*
X125083334Y-129900000D01*
X125116667Y-129933333D01*
X125150000Y-130000000D01*
X125150000Y-130066667D01*
X125116667Y-130166667D01*
X124716667Y-130566667D01*
X125150000Y-130566667D01*
X123383334Y-116616667D02*
X123383334Y-117183333D01*
X123416667Y-117250000D01*
X123450000Y-117283333D01*
X123516667Y-117316667D01*
X123650000Y-117316667D01*
X123716667Y-117283333D01*
X123750000Y-117250000D01*
X123783334Y-117183333D01*
X123783334Y-116616667D01*
X124483333Y-117316667D02*
X124083333Y-117316667D01*
X124283333Y-117316667D02*
X124283333Y-116616667D01*
X124216667Y-116716667D01*
X124150000Y-116783333D01*
X124083333Y-116816667D01*
X124716667Y-116616667D02*
X125150000Y-116616667D01*
X124916667Y-116883333D01*
X125016667Y-116883333D01*
X125083334Y-116916667D01*
X125116667Y-116950000D01*
X125150000Y-117016667D01*
X125150000Y-117183333D01*
X125116667Y-117250000D01*
X125083334Y-117283333D01*
X125016667Y-117316667D01*
X124816667Y-117316667D01*
X124750000Y-117283333D01*
X124716667Y-117250000D01*
X126683333Y-50366667D02*
X127150000Y-51066667D01*
X127150000Y-50366667D02*
X126683333Y-51066667D01*
X127783333Y-51066667D02*
X127383333Y-51066667D01*
X127583333Y-51066667D02*
X127583333Y-50366667D01*
X127516667Y-50466667D01*
X127450000Y-50533333D01*
X127383333Y-50566667D01*
X135300000Y-60566667D02*
X135066666Y-60233333D01*
X134900000Y-60566667D02*
X134900000Y-59866667D01*
X135166666Y-59866667D01*
X135233333Y-59900000D01*
X135266666Y-59933333D01*
X135300000Y-60000000D01*
X135300000Y-60100000D01*
X135266666Y-60166667D01*
X135233333Y-60200000D01*
X135166666Y-60233333D01*
X134900000Y-60233333D01*
X135933333Y-59866667D02*
X135600000Y-59866667D01*
X135566666Y-60200000D01*
X135600000Y-60166667D01*
X135666666Y-60133333D01*
X135833333Y-60133333D01*
X135900000Y-60166667D01*
X135933333Y-60200000D01*
X135966666Y-60266667D01*
X135966666Y-60433333D01*
X135933333Y-60500000D01*
X135900000Y-60533333D01*
X135833333Y-60566667D01*
X135666666Y-60566667D01*
X135600000Y-60533333D01*
X135566666Y-60500000D01*
X136233333Y-59933333D02*
X136266667Y-59900000D01*
X136333333Y-59866667D01*
X136500000Y-59866667D01*
X136566667Y-59900000D01*
X136600000Y-59933333D01*
X136633333Y-60000000D01*
X136633333Y-60066667D01*
X136600000Y-60166667D01*
X136200000Y-60566667D01*
X136633333Y-60566667D01*
X112633334Y-64750000D02*
X112600000Y-64783333D01*
X112500000Y-64816667D01*
X112433334Y-64816667D01*
X112333334Y-64783333D01*
X112266667Y-64716667D01*
X112233334Y-64650000D01*
X112200000Y-64516667D01*
X112200000Y-64416667D01*
X112233334Y-64283333D01*
X112266667Y-64216667D01*
X112333334Y-64150000D01*
X112433334Y-64116667D01*
X112500000Y-64116667D01*
X112600000Y-64150000D01*
X112633334Y-64183333D01*
X113033334Y-64416667D02*
X112966667Y-64383333D01*
X112933334Y-64350000D01*
X112900000Y-64283333D01*
X112900000Y-64250000D01*
X112933334Y-64183333D01*
X112966667Y-64150000D01*
X113033334Y-64116667D01*
X113166667Y-64116667D01*
X113233334Y-64150000D01*
X113266667Y-64183333D01*
X113300000Y-64250000D01*
X113300000Y-64283333D01*
X113266667Y-64350000D01*
X113233334Y-64383333D01*
X113166667Y-64416667D01*
X113033334Y-64416667D01*
X112966667Y-64450000D01*
X112933334Y-64483333D01*
X112900000Y-64550000D01*
X112900000Y-64683333D01*
X112933334Y-64750000D01*
X112966667Y-64783333D01*
X113033334Y-64816667D01*
X113166667Y-64816667D01*
X113233334Y-64783333D01*
X113266667Y-64750000D01*
X113300000Y-64683333D01*
X113300000Y-64550000D01*
X113266667Y-64483333D01*
X113233334Y-64450000D01*
X113166667Y-64416667D01*
X130550000Y-76250000D02*
X130516666Y-76283333D01*
X130416666Y-76316667D01*
X130350000Y-76316667D01*
X130250000Y-76283333D01*
X130183333Y-76216667D01*
X130150000Y-76150000D01*
X130116666Y-76016667D01*
X130116666Y-75916667D01*
X130150000Y-75783333D01*
X130183333Y-75716667D01*
X130250000Y-75650000D01*
X130350000Y-75616667D01*
X130416666Y-75616667D01*
X130516666Y-75650000D01*
X130550000Y-75683333D01*
X131183333Y-75616667D02*
X130850000Y-75616667D01*
X130816666Y-75950000D01*
X130850000Y-75916667D01*
X130916666Y-75883333D01*
X131083333Y-75883333D01*
X131150000Y-75916667D01*
X131183333Y-75950000D01*
X131216666Y-76016667D01*
X131216666Y-76183333D01*
X131183333Y-76250000D01*
X131150000Y-76283333D01*
X131083333Y-76316667D01*
X130916666Y-76316667D01*
X130850000Y-76283333D01*
X130816666Y-76250000D01*
X131816667Y-75616667D02*
X131683333Y-75616667D01*
X131616667Y-75650000D01*
X131583333Y-75683333D01*
X131516667Y-75783333D01*
X131483333Y-75916667D01*
X131483333Y-76183333D01*
X131516667Y-76250000D01*
X131550000Y-76283333D01*
X131616667Y-76316667D01*
X131750000Y-76316667D01*
X131816667Y-76283333D01*
X131850000Y-76250000D01*
X131883333Y-76183333D01*
X131883333Y-76016667D01*
X131850000Y-75950000D01*
X131816667Y-75916667D01*
X131750000Y-75883333D01*
X131616667Y-75883333D01*
X131550000Y-75916667D01*
X131516667Y-75950000D01*
X131483333Y-76016667D01*
X126550000Y-70000000D02*
X126516666Y-70033333D01*
X126416666Y-70066667D01*
X126350000Y-70066667D01*
X126250000Y-70033333D01*
X126183333Y-69966667D01*
X126150000Y-69900000D01*
X126116666Y-69766667D01*
X126116666Y-69666667D01*
X126150000Y-69533333D01*
X126183333Y-69466667D01*
X126250000Y-69400000D01*
X126350000Y-69366667D01*
X126416666Y-69366667D01*
X126516666Y-69400000D01*
X126550000Y-69433333D01*
X127183333Y-69366667D02*
X126850000Y-69366667D01*
X126816666Y-69700000D01*
X126850000Y-69666667D01*
X126916666Y-69633333D01*
X127083333Y-69633333D01*
X127150000Y-69666667D01*
X127183333Y-69700000D01*
X127216666Y-69766667D01*
X127216666Y-69933333D01*
X127183333Y-70000000D01*
X127150000Y-70033333D01*
X127083333Y-70066667D01*
X126916666Y-70066667D01*
X126850000Y-70033333D01*
X126816666Y-70000000D01*
X127450000Y-69366667D02*
X127916667Y-69366667D01*
X127616667Y-70066667D01*
X128000000Y-71950000D02*
X128033333Y-71983334D01*
X128066667Y-72083334D01*
X128066667Y-72150000D01*
X128033333Y-72250000D01*
X127966667Y-72316667D01*
X127900000Y-72350000D01*
X127766667Y-72383334D01*
X127666667Y-72383334D01*
X127533333Y-72350000D01*
X127466667Y-72316667D01*
X127400000Y-72250000D01*
X127366667Y-72150000D01*
X127366667Y-72083334D01*
X127400000Y-71983334D01*
X127433333Y-71950000D01*
X127366667Y-71316667D02*
X127366667Y-71650000D01*
X127700000Y-71683334D01*
X127666667Y-71650000D01*
X127633333Y-71583334D01*
X127633333Y-71416667D01*
X127666667Y-71350000D01*
X127700000Y-71316667D01*
X127766667Y-71283334D01*
X127933333Y-71283334D01*
X128000000Y-71316667D01*
X128033333Y-71350000D01*
X128066667Y-71416667D01*
X128066667Y-71583334D01*
X128033333Y-71650000D01*
X128000000Y-71683334D01*
X127666667Y-70883333D02*
X127633333Y-70950000D01*
X127600000Y-70983333D01*
X127533333Y-71016667D01*
X127500000Y-71016667D01*
X127433333Y-70983333D01*
X127400000Y-70950000D01*
X127366667Y-70883333D01*
X127366667Y-70750000D01*
X127400000Y-70683333D01*
X127433333Y-70650000D01*
X127500000Y-70616667D01*
X127533333Y-70616667D01*
X127600000Y-70650000D01*
X127633333Y-70683333D01*
X127666667Y-70750000D01*
X127666667Y-70883333D01*
X127700000Y-70950000D01*
X127733333Y-70983333D01*
X127800000Y-71016667D01*
X127933333Y-71016667D01*
X128000000Y-70983333D01*
X128033333Y-70950000D01*
X128066667Y-70883333D01*
X128066667Y-70750000D01*
X128033333Y-70683333D01*
X128000000Y-70650000D01*
X127933333Y-70616667D01*
X127800000Y-70616667D01*
X127733333Y-70650000D01*
X127700000Y-70683333D01*
X127666667Y-70750000D01*
X115800000Y-110750000D02*
X115766666Y-110783333D01*
X115666666Y-110816667D01*
X115600000Y-110816667D01*
X115500000Y-110783333D01*
X115433333Y-110716667D01*
X115400000Y-110650000D01*
X115366666Y-110516667D01*
X115366666Y-110416667D01*
X115400000Y-110283333D01*
X115433333Y-110216667D01*
X115500000Y-110150000D01*
X115600000Y-110116667D01*
X115666666Y-110116667D01*
X115766666Y-110150000D01*
X115800000Y-110183333D01*
X116433333Y-110116667D02*
X116100000Y-110116667D01*
X116066666Y-110450000D01*
X116100000Y-110416667D01*
X116166666Y-110383333D01*
X116333333Y-110383333D01*
X116400000Y-110416667D01*
X116433333Y-110450000D01*
X116466666Y-110516667D01*
X116466666Y-110683333D01*
X116433333Y-110750000D01*
X116400000Y-110783333D01*
X116333333Y-110816667D01*
X116166666Y-110816667D01*
X116100000Y-110783333D01*
X116066666Y-110750000D01*
X116800000Y-110816667D02*
X116933333Y-110816667D01*
X117000000Y-110783333D01*
X117033333Y-110750000D01*
X117100000Y-110650000D01*
X117133333Y-110516667D01*
X117133333Y-110250000D01*
X117100000Y-110183333D01*
X117066667Y-110150000D01*
X117000000Y-110116667D01*
X116866667Y-110116667D01*
X116800000Y-110150000D01*
X116766667Y-110183333D01*
X116733333Y-110250000D01*
X116733333Y-110416667D01*
X116766667Y-110483333D01*
X116800000Y-110516667D01*
X116866667Y-110550000D01*
X117000000Y-110550000D01*
X117066667Y-110516667D01*
X117100000Y-110483333D01*
X117133333Y-110416667D01*
X140516667Y-51366667D02*
X140516667Y-51866667D01*
X140483333Y-51966667D01*
X140416667Y-52033333D01*
X140316667Y-52066667D01*
X140250000Y-52066667D01*
X140783333Y-51366667D02*
X141250000Y-51366667D01*
X140950000Y-52066667D01*
X139300000Y-56566667D02*
X139066666Y-56233333D01*
X138900000Y-56566667D02*
X138900000Y-55866667D01*
X139166666Y-55866667D01*
X139233333Y-55900000D01*
X139266666Y-55933333D01*
X139300000Y-56000000D01*
X139300000Y-56100000D01*
X139266666Y-56166667D01*
X139233333Y-56200000D01*
X139166666Y-56233333D01*
X138900000Y-56233333D01*
X139933333Y-55866667D02*
X139600000Y-55866667D01*
X139566666Y-56200000D01*
X139600000Y-56166667D01*
X139666666Y-56133333D01*
X139833333Y-56133333D01*
X139900000Y-56166667D01*
X139933333Y-56200000D01*
X139966666Y-56266667D01*
X139966666Y-56433333D01*
X139933333Y-56500000D01*
X139900000Y-56533333D01*
X139833333Y-56566667D01*
X139666666Y-56566667D01*
X139600000Y-56533333D01*
X139566666Y-56500000D01*
X140200000Y-55866667D02*
X140633333Y-55866667D01*
X140400000Y-56133333D01*
X140500000Y-56133333D01*
X140566667Y-56166667D01*
X140600000Y-56200000D01*
X140633333Y-56266667D01*
X140633333Y-56433333D01*
X140600000Y-56500000D01*
X140566667Y-56533333D01*
X140500000Y-56566667D01*
X140300000Y-56566667D01*
X140233333Y-56533333D01*
X140200000Y-56500000D01*
X141800000Y-60316667D02*
X141566666Y-59983333D01*
X141400000Y-60316667D02*
X141400000Y-59616667D01*
X141666666Y-59616667D01*
X141733333Y-59650000D01*
X141766666Y-59683333D01*
X141800000Y-59750000D01*
X141800000Y-59850000D01*
X141766666Y-59916667D01*
X141733333Y-59950000D01*
X141666666Y-59983333D01*
X141400000Y-59983333D01*
X142433333Y-59616667D02*
X142100000Y-59616667D01*
X142066666Y-59950000D01*
X142100000Y-59916667D01*
X142166666Y-59883333D01*
X142333333Y-59883333D01*
X142400000Y-59916667D01*
X142433333Y-59950000D01*
X142466666Y-60016667D01*
X142466666Y-60183333D01*
X142433333Y-60250000D01*
X142400000Y-60283333D01*
X142333333Y-60316667D01*
X142166666Y-60316667D01*
X142100000Y-60283333D01*
X142066666Y-60250000D01*
X143066667Y-59850000D02*
X143066667Y-60316667D01*
X142900000Y-59583333D02*
X142733333Y-60083333D01*
X143166667Y-60083333D01*
X139300000Y-62066667D02*
X139066666Y-61733333D01*
X138900000Y-62066667D02*
X138900000Y-61366667D01*
X139166666Y-61366667D01*
X139233333Y-61400000D01*
X139266666Y-61433333D01*
X139300000Y-61500000D01*
X139300000Y-61600000D01*
X139266666Y-61666667D01*
X139233333Y-61700000D01*
X139166666Y-61733333D01*
X138900000Y-61733333D01*
X139933333Y-61366667D02*
X139600000Y-61366667D01*
X139566666Y-61700000D01*
X139600000Y-61666667D01*
X139666666Y-61633333D01*
X139833333Y-61633333D01*
X139900000Y-61666667D01*
X139933333Y-61700000D01*
X139966666Y-61766667D01*
X139966666Y-61933333D01*
X139933333Y-62000000D01*
X139900000Y-62033333D01*
X139833333Y-62066667D01*
X139666666Y-62066667D01*
X139600000Y-62033333D01*
X139566666Y-62000000D01*
X140600000Y-61366667D02*
X140266667Y-61366667D01*
X140233333Y-61700000D01*
X140266667Y-61666667D01*
X140333333Y-61633333D01*
X140500000Y-61633333D01*
X140566667Y-61666667D01*
X140600000Y-61700000D01*
X140633333Y-61766667D01*
X140633333Y-61933333D01*
X140600000Y-62000000D01*
X140566667Y-62033333D01*
X140500000Y-62066667D01*
X140333333Y-62066667D01*
X140266667Y-62033333D01*
X140233333Y-62000000D01*
X112552381Y-123533333D02*
X113266667Y-123533333D01*
X113409524Y-123580953D01*
X113504762Y-123676191D01*
X113552381Y-123819048D01*
X113552381Y-123914286D01*
X112980952Y-122914286D02*
X112933333Y-123009524D01*
X112885714Y-123057143D01*
X112790476Y-123104762D01*
X112742857Y-123104762D01*
X112647619Y-123057143D01*
X112600000Y-123009524D01*
X112552381Y-122914286D01*
X112552381Y-122723809D01*
X112600000Y-122628571D01*
X112647619Y-122580952D01*
X112742857Y-122533333D01*
X112790476Y-122533333D01*
X112885714Y-122580952D01*
X112933333Y-122628571D01*
X112980952Y-122723809D01*
X112980952Y-122914286D01*
X113028571Y-123009524D01*
X113076190Y-123057143D01*
X113171429Y-123104762D01*
X113361905Y-123104762D01*
X113457143Y-123057143D01*
X113504762Y-123009524D01*
X113552381Y-122914286D01*
X113552381Y-122723809D01*
X113504762Y-122628571D01*
X113457143Y-122580952D01*
X113361905Y-122533333D01*
X113171429Y-122533333D01*
X113076190Y-122580952D01*
X113028571Y-122628571D01*
X112980952Y-122723809D01*
M02*
