G04 #@! TF.FileFunction,Copper,L1,Top,Signal*
%FSLAX46Y46*%
G04 Gerber Fmt 4.6, Leading zero omitted, Abs format (unit mm)*
G04 Created by KiCad (PCBNEW 4.0.7) date 05/19/19 12:52:09*
%MOMM*%
%LPD*%
G01*
G04 APERTURE LIST*
%ADD10C,0.100000*%
%ADD11R,1.727200X1.727200*%
%ADD12O,1.727200X1.727200*%
%ADD13R,2.000000X0.500000*%
%ADD14C,2.500000*%
%ADD15R,1.050000X0.650000*%
%ADD16C,1.500000*%
%ADD17C,3.000000*%
%ADD18R,1.000000X1.250000*%
%ADD19R,0.800000X0.750000*%
%ADD20R,0.750000X0.800000*%
%ADD21R,1.250000X1.000000*%
%ADD22C,4.500000*%
%ADD23R,0.650000X1.050000*%
%ADD24R,0.900000X0.250000*%
%ADD25R,0.900000X0.550000*%
%ADD26R,1.900000X1.400000*%
%ADD27R,1.130000X2.440000*%
%ADD28R,1.143000X0.508000*%
%ADD29R,2.613000X3.502000*%
%ADD30R,1.500000X0.300000*%
%ADD31R,0.300000X1.500000*%
%ADD32R,8.000000X8.000000*%
%ADD33C,0.300000*%
%ADD34R,4.700000X1.250000*%
%ADD35R,0.900000X0.400000*%
%ADD36R,1.600000X0.350000*%
%ADD37R,0.350000X1.600000*%
%ADD38R,1.400000X1.000000*%
%ADD39R,1.550000X0.600000*%
%ADD40R,1.800000X1.200000*%
%ADD41R,0.600000X1.550000*%
%ADD42R,1.200000X1.800000*%
%ADD43C,0.400000*%
%ADD44C,0.152400*%
%ADD45C,0.508000*%
%ADD46C,0.254000*%
%ADD47C,0.200000*%
G04 APERTURE END LIST*
D10*
D11*
X99100000Y-140000000D03*
D12*
X101100000Y-140000000D03*
X99100000Y-138000000D03*
X101100000Y-138000000D03*
X99100000Y-136000000D03*
X101100000Y-136000000D03*
X99100000Y-134000000D03*
X101100000Y-134000000D03*
X99100000Y-132000000D03*
X101100000Y-132000000D03*
X99100000Y-130000000D03*
X101100000Y-130000000D03*
X99100000Y-128000000D03*
X101100000Y-128000000D03*
X99100000Y-126000000D03*
X101100000Y-126000000D03*
X99100000Y-124000000D03*
X101100000Y-124000000D03*
X99100000Y-122000000D03*
X101100000Y-122000000D03*
X99100000Y-120000000D03*
X101100000Y-120000000D03*
X99100000Y-118000000D03*
X101100000Y-118000000D03*
X99100000Y-116000000D03*
X101100000Y-116000000D03*
X99100000Y-114000000D03*
X101100000Y-114000000D03*
X99100000Y-112000000D03*
X101100000Y-112000000D03*
X99100000Y-110000000D03*
X101100000Y-110000000D03*
X99100000Y-108000000D03*
X101100000Y-108000000D03*
X99100000Y-106000000D03*
X101100000Y-106000000D03*
X99100000Y-104000000D03*
X101100000Y-104000000D03*
X99100000Y-102000000D03*
X101100000Y-102000000D03*
D13*
X63350000Y-128850000D03*
X67750000Y-128850000D03*
X63350000Y-128050000D03*
X67750000Y-128050000D03*
X63350000Y-127250000D03*
X67750000Y-127250000D03*
X63350000Y-126450000D03*
X67750000Y-126450000D03*
X63350000Y-125650000D03*
X67750000Y-125650000D03*
X63350000Y-124850000D03*
X67750000Y-124850000D03*
X63350000Y-124050000D03*
X67750000Y-124050000D03*
X63350000Y-123250000D03*
X67750000Y-123250000D03*
X63350000Y-122450000D03*
X67750000Y-122450000D03*
X63350000Y-121650000D03*
X67750000Y-121650000D03*
X63350000Y-120850000D03*
X67750000Y-120850000D03*
X63350000Y-120050000D03*
X67750000Y-120050000D03*
X63350000Y-119250000D03*
X67750000Y-119250000D03*
X63350000Y-118450000D03*
X67750000Y-118450000D03*
X63350000Y-117650000D03*
X67750000Y-117650000D03*
X63350000Y-116850000D03*
X67750000Y-116850000D03*
X63350000Y-116050000D03*
X67750000Y-116050000D03*
X63350000Y-115250000D03*
X67750000Y-115250000D03*
X63350000Y-114450000D03*
X67750000Y-114450000D03*
X63350000Y-113650000D03*
X67750000Y-113650000D03*
X63350000Y-112850000D03*
X67750000Y-112850000D03*
X63350000Y-112050000D03*
X67750000Y-112050000D03*
X63350000Y-111250000D03*
X67750000Y-111250000D03*
X63350000Y-110450000D03*
X67750000Y-110450000D03*
X63350000Y-109650000D03*
X67750000Y-109650000D03*
X63350000Y-108850000D03*
X67750000Y-108850000D03*
X63350000Y-108050000D03*
X67750000Y-108050000D03*
X63350000Y-107250000D03*
X67750000Y-107250000D03*
X63350000Y-106450000D03*
X67750000Y-106450000D03*
X63350000Y-105650000D03*
X67750000Y-105650000D03*
D14*
X100100000Y-146000000D03*
X68600000Y-146000000D03*
X68600000Y-69000000D03*
X100100000Y-69000000D03*
D15*
X124750000Y-107850000D03*
X120600000Y-107850000D03*
X124750000Y-105700000D03*
X120600000Y-105700000D03*
D16*
X137000000Y-90890000D03*
X137000000Y-93430000D03*
X137000000Y-95460000D03*
X137000000Y-98000000D03*
D17*
X139670000Y-87840000D03*
X139670000Y-101560000D03*
D18*
X80000000Y-57500000D03*
X82000000Y-57500000D03*
X80000000Y-55500000D03*
X82000000Y-55500000D03*
D19*
X73500000Y-63500000D03*
X72000000Y-63500000D03*
X73500000Y-60500000D03*
X72000000Y-60500000D03*
D20*
X95000000Y-52750000D03*
X95000000Y-51250000D03*
X95000000Y-59000000D03*
X95000000Y-57500000D03*
X118700000Y-106950000D03*
X118700000Y-108450000D03*
D19*
X86000000Y-63000000D03*
X84500000Y-63000000D03*
D20*
X116500000Y-105500000D03*
X116500000Y-107000000D03*
D18*
X85500000Y-55000000D03*
X83500000Y-55000000D03*
X85500000Y-53000000D03*
X83500000Y-53000000D03*
X105500000Y-52000000D03*
X107500000Y-52000000D03*
D21*
X106000000Y-59500000D03*
X106000000Y-57500000D03*
D19*
X114500000Y-103000000D03*
X113000000Y-103000000D03*
D21*
X115500000Y-54500000D03*
X115500000Y-52500000D03*
D19*
X118750000Y-65000000D03*
X120250000Y-65000000D03*
X126500000Y-63500000D03*
X125000000Y-63500000D03*
X113750000Y-67000000D03*
X112250000Y-67000000D03*
X126500000Y-65000000D03*
X125000000Y-65000000D03*
X126500000Y-66500000D03*
X125000000Y-66500000D03*
D20*
X110500000Y-61000000D03*
X110500000Y-62500000D03*
X110500000Y-59500000D03*
X110500000Y-58000000D03*
X109500000Y-81500000D03*
X109500000Y-80000000D03*
D21*
X115500000Y-59500000D03*
X115500000Y-57500000D03*
D20*
X125000000Y-79250000D03*
X125000000Y-80750000D03*
X125000000Y-69750000D03*
X125000000Y-68250000D03*
D19*
X121750000Y-67500000D03*
X123250000Y-67500000D03*
D20*
X109500000Y-72500000D03*
X109500000Y-74000000D03*
X116500000Y-65500000D03*
X116500000Y-64000000D03*
X109500000Y-77500000D03*
X109500000Y-76000000D03*
D19*
X137350000Y-65650000D03*
X135850000Y-65650000D03*
X112500000Y-82500000D03*
X111000000Y-82500000D03*
X137350000Y-64150000D03*
X135850000Y-64150000D03*
X137350000Y-68650000D03*
X135850000Y-68650000D03*
X121250000Y-82500000D03*
X122750000Y-82500000D03*
X137350000Y-67150000D03*
X135850000Y-67150000D03*
X137350000Y-70150000D03*
X135850000Y-70150000D03*
X137350000Y-71650000D03*
X135850000Y-71650000D03*
D20*
X121400000Y-53950000D03*
X121400000Y-52450000D03*
X105100000Y-68450000D03*
X105100000Y-66950000D03*
D19*
X127350000Y-53050000D03*
X128850000Y-53050000D03*
X140050000Y-78450000D03*
X138550000Y-78450000D03*
X140050000Y-74350000D03*
X138550000Y-74350000D03*
D20*
X119600000Y-58550000D03*
X119600000Y-60050000D03*
D19*
X121250000Y-62600000D03*
X122750000Y-62600000D03*
X119850000Y-63000000D03*
X118350000Y-63000000D03*
D21*
X112400000Y-56000000D03*
X112400000Y-58000000D03*
D19*
X131000000Y-62500000D03*
X132500000Y-62500000D03*
D20*
X132000000Y-132750000D03*
X132000000Y-131250000D03*
X132000000Y-119750000D03*
X132000000Y-118250000D03*
D22*
X63700140Y-56500000D03*
X57700660Y-56500000D03*
X60700400Y-61199000D03*
D19*
X113750000Y-113500000D03*
X115250000Y-113500000D03*
D11*
X143460000Y-134000000D03*
D12*
X146000000Y-134000000D03*
X143460000Y-136540000D03*
X146000000Y-136540000D03*
X143460000Y-139080000D03*
X146000000Y-139080000D03*
X143460000Y-141620000D03*
X146000000Y-141620000D03*
X143460000Y-144160000D03*
X146000000Y-144160000D03*
D11*
X143460000Y-112340000D03*
D12*
X146000000Y-112340000D03*
X143460000Y-114880000D03*
X146000000Y-114880000D03*
X143460000Y-117420000D03*
X146000000Y-117420000D03*
X143460000Y-119960000D03*
X146000000Y-119960000D03*
X143460000Y-122500000D03*
X146000000Y-122500000D03*
D19*
X73500000Y-62000000D03*
X72000000Y-62000000D03*
D20*
X72000000Y-57500000D03*
X72000000Y-59000000D03*
X118700000Y-105550000D03*
X118700000Y-104050000D03*
D19*
X95000000Y-56000000D03*
X93500000Y-56000000D03*
X95000000Y-62500000D03*
X93500000Y-62500000D03*
D20*
X73500000Y-57500000D03*
X73500000Y-59000000D03*
D19*
X77500000Y-57500000D03*
X76000000Y-57500000D03*
X135000000Y-57500000D03*
X136500000Y-57500000D03*
X107500000Y-54500000D03*
X106000000Y-54500000D03*
X107500000Y-56000000D03*
X106000000Y-56000000D03*
X107500000Y-61000000D03*
X106000000Y-61000000D03*
X107500000Y-62500000D03*
X106000000Y-62500000D03*
X93500000Y-54500000D03*
X95000000Y-54500000D03*
X93500000Y-61000000D03*
X95000000Y-61000000D03*
X108250000Y-104600000D03*
X109750000Y-104600000D03*
D20*
X108250000Y-103050000D03*
X108250000Y-101550000D03*
X110500000Y-114000000D03*
X110500000Y-112500000D03*
X110500000Y-117500000D03*
X110500000Y-116000000D03*
X109000000Y-114000000D03*
X109000000Y-112500000D03*
X109000000Y-117500000D03*
X109000000Y-116000000D03*
X107500000Y-114000000D03*
X107500000Y-112500000D03*
X107500000Y-117500000D03*
X107500000Y-116000000D03*
D19*
X113750000Y-54500000D03*
X112250000Y-54500000D03*
D20*
X105950000Y-70350000D03*
X105950000Y-71850000D03*
X107450000Y-71850000D03*
X107450000Y-70350000D03*
D19*
X117250000Y-54500000D03*
X118750000Y-54500000D03*
X113750000Y-61000000D03*
X112250000Y-61000000D03*
X113750000Y-59500000D03*
X112250000Y-59500000D03*
X105250000Y-78000000D03*
X106750000Y-78000000D03*
X126500000Y-82500000D03*
X125000000Y-82500000D03*
X105250000Y-79500000D03*
X106750000Y-79500000D03*
D20*
X124750000Y-87750000D03*
X124750000Y-86250000D03*
X124750000Y-91500000D03*
X124750000Y-90000000D03*
X127750000Y-87750000D03*
X127750000Y-86250000D03*
X127750000Y-91500000D03*
X127750000Y-90000000D03*
X126250000Y-87750000D03*
X126250000Y-86250000D03*
X126250000Y-91500000D03*
X126250000Y-90000000D03*
X123250000Y-87750000D03*
X123250000Y-86250000D03*
X123250000Y-91500000D03*
X123250000Y-90000000D03*
D19*
X119600000Y-57050000D03*
X118100000Y-57050000D03*
X106850000Y-65600000D03*
X108350000Y-65600000D03*
X115250000Y-115000000D03*
X113750000Y-115000000D03*
X125250000Y-55250000D03*
X123750000Y-55250000D03*
X105500000Y-97500000D03*
X107000000Y-97500000D03*
D20*
X131100000Y-60800000D03*
X131100000Y-59300000D03*
D19*
X124500000Y-138500000D03*
X123000000Y-138500000D03*
X114000000Y-138500000D03*
X112500000Y-138500000D03*
X127500000Y-138500000D03*
X126000000Y-138500000D03*
X117000000Y-138500000D03*
X115500000Y-138500000D03*
X130500000Y-138500000D03*
X129000000Y-138500000D03*
X120000000Y-138500000D03*
X118500000Y-138500000D03*
D23*
X109800000Y-135950000D03*
X109800000Y-131800000D03*
X111950000Y-135950000D03*
X111950000Y-131800000D03*
X109800000Y-129850000D03*
X109800000Y-125700000D03*
X111950000Y-129850000D03*
X111950000Y-125700000D03*
D20*
X67000000Y-54100000D03*
X67000000Y-52600000D03*
D18*
X68500000Y-59500000D03*
X66500000Y-59500000D03*
D19*
X68500000Y-61500000D03*
X67000000Y-61500000D03*
X68500000Y-63000000D03*
X67000000Y-63000000D03*
D24*
X144280000Y-65150000D03*
X144280000Y-65650000D03*
X144280000Y-66150000D03*
X144280000Y-66650000D03*
X144280000Y-67150000D03*
X144280000Y-67650000D03*
X144280000Y-68150000D03*
X144280000Y-68650000D03*
X144280000Y-69150000D03*
X144280000Y-69650000D03*
X144280000Y-70150000D03*
X144280000Y-70650000D03*
X144280000Y-71150000D03*
X144280000Y-71650000D03*
X144280000Y-72150000D03*
X144280000Y-72650000D03*
X144280000Y-73150000D03*
X144280000Y-73650000D03*
X144280000Y-74150000D03*
X144280000Y-74650000D03*
X144280000Y-75153000D03*
X144280000Y-75650000D03*
X144280000Y-76150000D03*
X144280000Y-76650000D03*
X144280000Y-77150000D03*
X144280000Y-77650000D03*
X144280000Y-78150000D03*
X144280000Y-78650000D03*
X144280000Y-79150000D03*
X144280000Y-79650000D03*
D25*
X144280000Y-64250000D03*
X144280000Y-80550000D03*
D26*
X147100000Y-62050000D03*
X147100000Y-82750000D03*
D27*
X124920000Y-147670000D03*
X124920000Y-141500000D03*
X127460000Y-147670000D03*
X127460000Y-141500000D03*
X130000000Y-147670000D03*
X130000000Y-141500000D03*
X114420000Y-147670000D03*
X114420000Y-141500000D03*
X116960000Y-147670000D03*
X116960000Y-141500000D03*
X119500000Y-147670000D03*
X119500000Y-141500000D03*
D28*
X76000000Y-63040000D03*
X76000000Y-61770000D03*
X76000000Y-60500000D03*
X76000000Y-59230000D03*
X82350000Y-59230000D03*
X82350000Y-60500000D03*
X82350000Y-61770000D03*
X82350000Y-63040000D03*
X103675000Y-52690000D03*
X103675000Y-53960000D03*
X103675000Y-55230000D03*
X103675000Y-56500000D03*
X97325000Y-56500000D03*
X97325000Y-55230000D03*
X97325000Y-53960000D03*
X97325000Y-52690000D03*
D29*
X100500000Y-54595000D03*
D28*
X103675000Y-59095000D03*
X103675000Y-60365000D03*
X103675000Y-61635000D03*
X103675000Y-62905000D03*
X97325000Y-62905000D03*
X97325000Y-61635000D03*
X97325000Y-60365000D03*
X97325000Y-59095000D03*
D29*
X100500000Y-61000000D03*
D30*
X111700000Y-71150000D03*
X111700000Y-71650000D03*
X111700000Y-72150000D03*
X111700000Y-72650000D03*
X111700000Y-73150000D03*
X111700000Y-73650000D03*
X111700000Y-74150000D03*
X111700000Y-74650000D03*
X111700000Y-75150000D03*
X111700000Y-75650000D03*
X111700000Y-76150000D03*
X111700000Y-76650000D03*
X111700000Y-77150000D03*
X111700000Y-77650000D03*
X111700000Y-78150000D03*
X111700000Y-78650000D03*
D31*
X113650000Y-80600000D03*
X114150000Y-80600000D03*
X114650000Y-80600000D03*
X115150000Y-80600000D03*
X115650000Y-80600000D03*
X116150000Y-80600000D03*
X116650000Y-80600000D03*
X117150000Y-80600000D03*
X117650000Y-80600000D03*
X118150000Y-80600000D03*
X118650000Y-80600000D03*
X119150000Y-80600000D03*
X119650000Y-80600000D03*
X120150000Y-80600000D03*
X120650000Y-80600000D03*
X121150000Y-80600000D03*
D30*
X123100000Y-78650000D03*
X123100000Y-78150000D03*
X123100000Y-77650000D03*
X123100000Y-77150000D03*
X123100000Y-76650000D03*
X123100000Y-76150000D03*
X123100000Y-75650000D03*
X123100000Y-75150000D03*
X123100000Y-74650000D03*
X123100000Y-74150000D03*
X123100000Y-73650000D03*
X123100000Y-73150000D03*
X123100000Y-72650000D03*
X123100000Y-72150000D03*
X123100000Y-71650000D03*
X123100000Y-71150000D03*
D31*
X121150000Y-69200000D03*
X120650000Y-69200000D03*
X120150000Y-69200000D03*
X119650000Y-69200000D03*
X119150000Y-69200000D03*
X118650000Y-69200000D03*
X118150000Y-69200000D03*
X117650000Y-69200000D03*
X117150000Y-69200000D03*
X116650000Y-69200000D03*
X116150000Y-69200000D03*
X115650000Y-69200000D03*
X115150000Y-69200000D03*
X114650000Y-69200000D03*
X114150000Y-69200000D03*
X113650000Y-69200000D03*
D32*
X117400000Y-74900000D03*
D33*
X113900000Y-71400000D03*
X114900000Y-71400000D03*
X115900000Y-71400000D03*
X116900000Y-71400000D03*
X117900000Y-71400000D03*
X118900000Y-71400000D03*
X119900000Y-71400000D03*
X120900000Y-71400000D03*
X120900000Y-72400000D03*
X119900000Y-72400000D03*
X118900000Y-72400000D03*
X117900000Y-72400000D03*
X116900000Y-72400000D03*
X115900000Y-72400000D03*
X114900000Y-72400000D03*
X113900000Y-72400000D03*
X113900000Y-73400000D03*
X113900000Y-74400000D03*
X114900000Y-73400000D03*
X114900000Y-74400000D03*
X115900000Y-74400000D03*
X115900000Y-73400000D03*
X116900000Y-73400000D03*
X116900000Y-74400000D03*
X117900000Y-74400000D03*
X117900000Y-73400000D03*
X118900000Y-73400000D03*
X118900000Y-74400000D03*
X119900000Y-73400000D03*
X119900000Y-74400000D03*
X120900000Y-73400000D03*
X120900000Y-74400000D03*
X113900000Y-78400000D03*
X113900000Y-77400000D03*
X113900000Y-76400000D03*
X113900000Y-75400000D03*
X114900000Y-75400000D03*
X114900000Y-76400000D03*
X114900000Y-77400000D03*
X114900000Y-78400000D03*
X115900000Y-78400000D03*
X115900000Y-77400000D03*
X115900000Y-76400000D03*
X115900000Y-75400000D03*
X116900000Y-75400000D03*
X116900000Y-76400000D03*
X116900000Y-77400000D03*
X116900000Y-78400000D03*
X117900000Y-78400000D03*
X117900000Y-77400000D03*
X117900000Y-76400000D03*
X117900000Y-75400000D03*
X118900000Y-75400000D03*
X118900000Y-76400000D03*
X118900000Y-77400000D03*
X118900000Y-78400000D03*
X119900000Y-78400000D03*
X119900000Y-77400000D03*
X119900000Y-76400000D03*
X119900000Y-75400000D03*
X120900000Y-75400000D03*
X120900000Y-76400000D03*
X120900000Y-77400000D03*
X120900000Y-78400000D03*
D20*
X68500000Y-57750000D03*
X68500000Y-56250000D03*
X118100000Y-58550000D03*
X118100000Y-60050000D03*
D34*
X87000000Y-60625000D03*
X87000000Y-57375000D03*
D35*
X114750000Y-108550000D03*
X114750000Y-107900000D03*
X114750000Y-107250000D03*
X112550000Y-108550000D03*
X112550000Y-107250000D03*
X112550000Y-104600000D03*
X112550000Y-105250000D03*
X112550000Y-105900000D03*
X114750000Y-105250000D03*
X114750000Y-105900000D03*
X114750000Y-104600000D03*
X109050000Y-68600000D03*
X109050000Y-67950000D03*
X109050000Y-67300000D03*
X106850000Y-68600000D03*
X106850000Y-67300000D03*
X137900000Y-75750000D03*
X137900000Y-76400000D03*
X137900000Y-77050000D03*
X140100000Y-75750000D03*
X140100000Y-77050000D03*
X137900000Y-79850000D03*
X137900000Y-80500000D03*
X137900000Y-81150000D03*
X140100000Y-79850000D03*
X140100000Y-81150000D03*
D36*
X121700000Y-57050000D03*
X121700000Y-57700000D03*
X121700000Y-58350000D03*
X121700000Y-59000000D03*
X121700000Y-59650000D03*
X121700000Y-60300000D03*
X121700000Y-60950000D03*
X127300000Y-60950000D03*
X127300000Y-60300000D03*
X127300000Y-59650000D03*
X127300000Y-59000000D03*
X127300000Y-58350000D03*
X127300000Y-57700000D03*
X127300000Y-57050000D03*
D37*
X130275000Y-127200000D03*
X129625000Y-127200000D03*
X128975000Y-127200000D03*
X128325000Y-127200000D03*
X127675000Y-127200000D03*
X127025000Y-127200000D03*
X126375000Y-127200000D03*
X125725000Y-127200000D03*
X130275000Y-132800000D03*
X129625000Y-132800000D03*
X128975000Y-132800000D03*
X128325000Y-132800000D03*
X127675000Y-132800000D03*
X127025000Y-132800000D03*
X126375000Y-132800000D03*
X125725000Y-132800000D03*
X130275000Y-114200000D03*
X129625000Y-114200000D03*
X128975000Y-114200000D03*
X128325000Y-114200000D03*
X127675000Y-114200000D03*
X127025000Y-114200000D03*
X126375000Y-114200000D03*
X125725000Y-114200000D03*
X130275000Y-119800000D03*
X129625000Y-119800000D03*
X128975000Y-119800000D03*
X128325000Y-119800000D03*
X127675000Y-119800000D03*
X127025000Y-119800000D03*
X126375000Y-119800000D03*
X125725000Y-119800000D03*
D38*
X123300000Y-53000000D03*
X125500000Y-53000000D03*
X123300000Y-51400000D03*
X125500000Y-51400000D03*
D19*
X135000000Y-59000000D03*
X136500000Y-59000000D03*
D20*
X114500000Y-65500000D03*
X114500000Y-64000000D03*
D19*
X129000000Y-77000000D03*
X130500000Y-77000000D03*
D20*
X125000000Y-72750000D03*
X125000000Y-71250000D03*
X126500000Y-72750000D03*
X126500000Y-71250000D03*
D19*
X113000000Y-110000000D03*
X114500000Y-110000000D03*
D39*
X142975000Y-52700000D03*
X142975000Y-53700000D03*
X142975000Y-54700000D03*
X142975000Y-55700000D03*
X142975000Y-56700000D03*
X142975000Y-57700000D03*
D40*
X145500000Y-51400000D03*
X145500000Y-59000000D03*
D19*
X140500000Y-57500000D03*
X139000000Y-57500000D03*
X140500000Y-59000000D03*
X139000000Y-59000000D03*
X140500000Y-60500000D03*
X139000000Y-60500000D03*
D41*
X116200000Y-124525000D03*
X117200000Y-124525000D03*
X118200000Y-124525000D03*
D42*
X114900000Y-122000000D03*
X119500000Y-122000000D03*
D43*
X141000000Y-84250000D03*
X141750000Y-84250000D03*
X142500000Y-84250000D03*
X142500000Y-83500000D03*
X141750000Y-83500000D03*
X141000000Y-83500000D03*
X141000000Y-82750000D03*
X141750000Y-82750000D03*
X142500000Y-82750000D03*
X80250000Y-54250000D03*
X79500000Y-54250000D03*
X78750000Y-54250000D03*
X69908000Y-63500000D03*
X70750000Y-63500000D03*
X70750000Y-64500000D03*
X70000000Y-64500000D03*
X69250000Y-64500000D03*
X68500000Y-64500000D03*
X118250000Y-125750000D03*
X141500000Y-54750000D03*
X117500000Y-63000000D03*
X110500000Y-63250000D03*
X66000000Y-63000000D03*
X66000000Y-61500000D03*
X65250000Y-59500000D03*
X144250000Y-82500000D03*
X115500000Y-51500000D03*
X112750000Y-113500000D03*
X105250000Y-66250000D03*
X115500000Y-56500000D03*
X113500000Y-58000000D03*
X109750000Y-58000000D03*
X110500000Y-118500000D03*
X109000000Y-118500000D03*
X107500000Y-118500000D03*
X124750000Y-92500000D03*
X127750000Y-92500000D03*
X126250000Y-92500000D03*
X123250000Y-92500000D03*
X115250000Y-110000000D03*
X112000000Y-103000000D03*
X123750000Y-108000000D03*
X120500000Y-108750000D03*
X119500000Y-108500000D03*
X117500000Y-107000000D03*
X111500000Y-105250000D03*
X108500000Y-52000000D03*
X94000000Y-51250000D03*
X108500000Y-56000000D03*
X104750000Y-57500000D03*
X108500000Y-62500000D03*
X101500000Y-52250000D03*
X99500000Y-52250000D03*
X99500000Y-56750000D03*
X101500000Y-56750000D03*
X100500000Y-56750000D03*
X100500000Y-52250000D03*
X101500000Y-58750000D03*
X99500000Y-58750000D03*
X100500000Y-58750000D03*
X101500000Y-63250000D03*
X99500000Y-63250000D03*
X100500000Y-63250000D03*
X96000000Y-57500000D03*
X72000000Y-64500000D03*
X72000000Y-56500000D03*
X73500000Y-56500000D03*
X82500000Y-53000000D03*
X81250000Y-59250000D03*
X83000000Y-57500000D03*
X82000000Y-54250000D03*
X83500000Y-56250000D03*
X67000000Y-51500000D03*
X109050000Y-66500000D03*
X107450000Y-72750000D03*
X126350000Y-125650000D03*
X126350000Y-112250000D03*
X119600000Y-60900000D03*
X133400000Y-62500000D03*
X123600000Y-61750000D03*
X113050000Y-135950000D03*
X113050000Y-131800000D03*
X113050000Y-129850000D03*
X113050000Y-125700000D03*
X128850000Y-53950000D03*
X120450000Y-52450000D03*
X130000000Y-145500000D03*
X127460000Y-145540000D03*
X124920000Y-145580000D03*
X119500000Y-145500000D03*
X114420000Y-145580000D03*
X116960000Y-145540000D03*
X132000000Y-130000000D03*
X132000000Y-117000000D03*
X137550000Y-74350000D03*
X137550000Y-78450000D03*
X122000000Y-51400000D03*
X125500000Y-54000000D03*
X123050000Y-59650000D03*
X125950000Y-59650000D03*
X136850000Y-77100000D03*
X137900000Y-81900000D03*
X124100000Y-63500000D03*
X124100000Y-65000000D03*
X124100000Y-66500000D03*
X120250000Y-64050000D03*
X116500000Y-63100000D03*
X114500000Y-63100000D03*
X143100000Y-64250000D03*
X143100000Y-75150000D03*
X143100000Y-74650000D03*
X143100000Y-74150000D03*
X143100000Y-65650000D03*
X143100000Y-67150000D03*
X143100000Y-72150000D03*
X143100000Y-68650000D03*
X143100000Y-70150000D03*
X110000000Y-82500000D03*
X108500000Y-80000000D03*
X108500000Y-76000000D03*
X108500000Y-74000000D03*
X112250000Y-66000000D03*
X123250000Y-66500000D03*
X125950000Y-68250000D03*
X127450000Y-71250000D03*
X130500000Y-76000000D03*
X126000000Y-80750000D03*
X122750000Y-83500000D03*
X69500000Y-106450000D03*
X69500000Y-108850000D03*
X69500000Y-111250000D03*
X69500000Y-113650000D03*
X69500000Y-117650000D03*
X69500000Y-120050000D03*
X69500000Y-122450000D03*
X69500000Y-124850000D03*
X69500000Y-127250000D03*
X61500000Y-124050000D03*
X61500000Y-121650000D03*
X61500000Y-119250000D03*
X61500000Y-116850000D03*
X61500000Y-114450000D03*
X61500000Y-112050000D03*
X61500000Y-109650000D03*
X61500000Y-107250000D03*
X141500000Y-52500000D03*
X142997251Y-70766498D03*
X143000000Y-71500000D03*
X109250000Y-65500000D03*
X90250000Y-52250000D03*
X89250000Y-52250000D03*
X88250000Y-52250000D03*
X87250000Y-52250000D03*
X132000000Y-121000000D03*
X133000000Y-132750000D03*
X129000000Y-137500000D03*
X126000000Y-137500000D03*
X123000000Y-137500000D03*
X118500000Y-137500000D03*
X115500000Y-137500000D03*
X112500000Y-137500000D03*
X140950000Y-78450000D03*
X140950000Y-74350000D03*
X138000000Y-60500000D03*
X138086725Y-55413275D03*
X114000000Y-111250000D03*
X140750000Y-120750000D03*
X133500000Y-107000000D03*
X121250000Y-63400000D03*
X110250000Y-56000000D03*
X110750000Y-56000000D03*
X111250000Y-56000000D03*
X113750000Y-98250000D03*
X113750000Y-97500000D03*
X105000000Y-69250000D03*
X127750000Y-85250000D03*
X118750000Y-103000000D03*
X114500000Y-102250000D03*
X105950000Y-72750000D03*
X117500000Y-55500000D03*
X118750000Y-64050000D03*
X113250000Y-65850000D03*
X113750000Y-61750000D03*
X121750000Y-66500000D03*
X115500000Y-65500000D03*
X108600000Y-81500000D03*
X126000000Y-79250000D03*
X116500000Y-60500000D03*
X125750000Y-69750000D03*
X108650000Y-72500000D03*
X108650000Y-77500000D03*
X112500000Y-81600000D03*
X121250000Y-83400000D03*
X129000000Y-76050000D03*
X127450000Y-72750000D03*
X131500000Y-70627400D03*
X133750000Y-70627400D03*
X131500000Y-71372600D03*
X133750000Y-71372600D03*
X111500000Y-141500000D03*
X130250000Y-125500000D03*
X111750000Y-142250000D03*
X127500000Y-135000000D03*
X128500000Y-124000000D03*
X124750000Y-114750000D03*
X93500000Y-110500000D03*
X131250000Y-114250000D03*
X94500000Y-108000000D03*
X121750000Y-115000000D03*
X96500000Y-108000000D03*
X60000000Y-120822600D03*
X84500000Y-88127400D03*
X60000000Y-120077400D03*
X84500000Y-88872600D03*
X93000000Y-105750000D03*
X129750000Y-121750000D03*
X131750000Y-112500000D03*
X91750000Y-105750000D03*
X138000000Y-59000000D03*
X102750000Y-65250000D03*
X103500000Y-78000000D03*
X108250000Y-120000000D03*
X127250000Y-121500000D03*
X90750000Y-105750000D03*
X138000000Y-57500000D03*
X103500000Y-65250000D03*
X103000000Y-79000000D03*
X108250000Y-119250000D03*
X134250000Y-113500000D03*
X89750000Y-105750000D03*
X128250000Y-122000000D03*
X134250000Y-122500000D03*
X113000000Y-98821000D03*
X107250000Y-96000000D03*
X116000000Y-108500000D03*
X98500000Y-79750000D03*
X108069896Y-105930104D03*
X110000000Y-71500000D03*
X110500000Y-115000000D03*
X120650000Y-67600000D03*
X117750000Y-65750000D03*
X109000000Y-115000000D03*
X115500000Y-66500000D03*
X107500000Y-115000000D03*
X129000000Y-91750000D03*
X124750000Y-88750000D03*
X117150000Y-67100000D03*
X127750000Y-88750000D03*
X118650000Y-67850000D03*
X126250000Y-88750000D03*
X117650000Y-67850000D03*
X123250000Y-88750000D03*
X116650000Y-67850000D03*
X112500000Y-115000000D03*
X100500000Y-79500000D03*
X111300000Y-67950000D03*
X114989222Y-67250000D03*
X127500000Y-125000000D03*
X130500000Y-137250000D03*
X120750000Y-56000000D03*
X127500000Y-63500000D03*
X126500000Y-67400000D03*
X124700000Y-74150000D03*
X129250000Y-134500000D03*
X127750000Y-116750000D03*
X95500000Y-108000000D03*
X140500000Y-61500000D03*
D44*
X144280000Y-78150000D02*
X144280000Y-77650000D01*
X141750000Y-84250000D02*
X141000000Y-84250000D01*
X142500000Y-83500000D02*
X142500000Y-84250000D01*
X141000000Y-83500000D02*
X141750000Y-83500000D01*
X141750000Y-82750000D02*
X141000000Y-82750000D01*
X144280000Y-79150000D02*
X143677600Y-79150000D01*
X143677600Y-79150000D02*
X142500000Y-80327600D01*
X142500000Y-80327600D02*
X142500000Y-82750000D01*
D45*
X80000000Y-55500000D02*
X80000000Y-54500000D01*
X80000000Y-54500000D02*
X80250000Y-54250000D01*
X80000000Y-55500000D02*
X80000000Y-54750000D01*
X80000000Y-54750000D02*
X79500000Y-54250000D01*
X80000000Y-55500000D02*
X78750000Y-54250000D01*
X69908000Y-63500000D02*
X70158000Y-63750000D01*
X68500000Y-63000000D02*
X69408000Y-63000000D01*
X69408000Y-63000000D02*
X69908000Y-63500000D01*
X70250000Y-63000000D02*
X70750000Y-63500000D01*
X68500000Y-63000000D02*
X70250000Y-63000000D01*
X70158000Y-63750000D02*
X70158000Y-63908000D01*
X70158000Y-63908000D02*
X70750000Y-64500000D01*
X68500000Y-63000000D02*
X70000000Y-64500000D01*
X69250000Y-63750000D02*
X69250000Y-64500000D01*
X68500000Y-63000000D02*
X69250000Y-63750000D01*
X68500000Y-63000000D02*
X68500000Y-64500000D01*
X118200000Y-124525000D02*
X118200000Y-125700000D01*
X118200000Y-125700000D02*
X118250000Y-125750000D01*
X142975000Y-54700000D02*
X141550000Y-54700000D01*
X141550000Y-54700000D02*
X141500000Y-54750000D01*
X118350000Y-63000000D02*
X117500000Y-63000000D01*
X110500000Y-62500000D02*
X110500000Y-63250000D01*
X67000000Y-63000000D02*
X66000000Y-63000000D01*
X67000000Y-61500000D02*
X66000000Y-61500000D01*
X66500000Y-59500000D02*
X65250000Y-59500000D01*
D46*
X144280000Y-80550000D02*
X144280000Y-82470000D01*
X144280000Y-82470000D02*
X144250000Y-82500000D01*
D45*
X115500000Y-52500000D02*
X115500000Y-51500000D01*
X113750000Y-113500000D02*
X112750000Y-113500000D01*
X105100000Y-66950000D02*
X105100000Y-66400000D01*
X105100000Y-66400000D02*
X105250000Y-66250000D01*
X115500000Y-57500000D02*
X115500000Y-56500000D01*
X112400000Y-58000000D02*
X113500000Y-58000000D01*
X110500000Y-58000000D02*
X109750000Y-58000000D01*
X110500000Y-117500000D02*
X110500000Y-118500000D01*
X109000000Y-117500000D02*
X109000000Y-118500000D01*
X107500000Y-117500000D02*
X107500000Y-118500000D01*
X124750000Y-91500000D02*
X124750000Y-92500000D01*
X127750000Y-91500000D02*
X127750000Y-92500000D01*
X126250000Y-91500000D02*
X126250000Y-92500000D01*
X123250000Y-91500000D02*
X123250000Y-92500000D01*
X114500000Y-110000000D02*
X115250000Y-110000000D01*
X113000000Y-103000000D02*
X112000000Y-103000000D01*
X124750000Y-107850000D02*
X123900000Y-107850000D01*
X123900000Y-107850000D02*
X123750000Y-108000000D01*
X120600000Y-107850000D02*
X120600000Y-108650000D01*
X120600000Y-108650000D02*
X120500000Y-108750000D01*
X118700000Y-108450000D02*
X119450000Y-108450000D01*
X119450000Y-108450000D02*
X119500000Y-108500000D01*
D46*
X114750000Y-107250000D02*
X116250000Y-107250000D01*
X116250000Y-107250000D02*
X116500000Y-107000000D01*
D45*
X116500000Y-107000000D02*
X117500000Y-107000000D01*
D46*
X112550000Y-105250000D02*
X111500000Y-105250000D01*
D45*
X107500000Y-52000000D02*
X108500000Y-52000000D01*
X95000000Y-51250000D02*
X94000000Y-51250000D01*
X107500000Y-56000000D02*
X108500000Y-56000000D01*
X106000000Y-57500000D02*
X104750000Y-57500000D01*
X107500000Y-62500000D02*
X108500000Y-62500000D01*
X103675000Y-62905000D02*
X101845000Y-62905000D01*
X101845000Y-62905000D02*
X101500000Y-63250000D01*
X103675000Y-56500000D02*
X101750000Y-56500000D01*
X101750000Y-56500000D02*
X101500000Y-56750000D01*
X101500000Y-56750000D02*
X101500000Y-55595000D01*
X101500000Y-55595000D02*
X100500000Y-54595000D01*
X99500000Y-56750000D02*
X99500000Y-55595000D01*
X99500000Y-55595000D02*
X100500000Y-54595000D01*
X99500000Y-52250000D02*
X99500000Y-53595000D01*
X99500000Y-53595000D02*
X100500000Y-54595000D01*
X101500000Y-52250000D02*
X101500000Y-53595000D01*
X101500000Y-53595000D02*
X100500000Y-54595000D01*
X100500000Y-52250000D02*
X101500000Y-52250000D01*
X100500000Y-52250000D02*
X99500000Y-52250000D01*
X100500000Y-56750000D02*
X99500000Y-56750000D01*
X100500000Y-56750000D02*
X101500000Y-56750000D01*
X100500000Y-54595000D02*
X100500000Y-56750000D01*
X100500000Y-54595000D02*
X100500000Y-52250000D01*
X101500000Y-63250000D02*
X101500000Y-62000000D01*
X101500000Y-62000000D02*
X100500000Y-61000000D01*
X99500000Y-58750000D02*
X99500000Y-60000000D01*
X99500000Y-60000000D02*
X100500000Y-61000000D01*
X101500000Y-58750000D02*
X101500000Y-60000000D01*
X101500000Y-60000000D02*
X100500000Y-61000000D01*
X100500000Y-58750000D02*
X101500000Y-58750000D01*
X100500000Y-58750000D02*
X99500000Y-58750000D01*
X100500000Y-61000000D02*
X100500000Y-58750000D01*
X100500000Y-63250000D02*
X101500000Y-63250000D01*
X99500000Y-63250000D02*
X99500000Y-62000000D01*
X99500000Y-62000000D02*
X100500000Y-61000000D01*
X100500000Y-63250000D02*
X99500000Y-63250000D01*
X100500000Y-61000000D02*
X100500000Y-63250000D01*
X95000000Y-57500000D02*
X96000000Y-57500000D01*
X72000000Y-63500000D02*
X72000000Y-64500000D01*
X72000000Y-57500000D02*
X72000000Y-56500000D01*
X73500000Y-57500000D02*
X73500000Y-56500000D01*
X83500000Y-53000000D02*
X82500000Y-53000000D01*
X82350000Y-59230000D02*
X81270000Y-59230000D01*
X81270000Y-59230000D02*
X81250000Y-59250000D01*
X82000000Y-57500000D02*
X83000000Y-57500000D01*
X82000000Y-55500000D02*
X82000000Y-54250000D01*
X83500000Y-55000000D02*
X83500000Y-56250000D01*
D47*
X118150000Y-80600000D02*
X118150000Y-78650000D01*
X118150000Y-78650000D02*
X117900000Y-78400000D01*
X116650000Y-80600000D02*
X116650000Y-78650000D01*
X116650000Y-78650000D02*
X116900000Y-78400000D01*
D45*
X67000000Y-52600000D02*
X67000000Y-51500000D01*
D46*
X109050000Y-67300000D02*
X109050000Y-66500000D01*
D45*
X107450000Y-71850000D02*
X107450000Y-72750000D01*
D46*
X126375000Y-127200000D02*
X126375000Y-125675000D01*
X126375000Y-125675000D02*
X126350000Y-125650000D01*
X125725000Y-125975000D02*
X126050000Y-125650000D01*
X126050000Y-125650000D02*
X126350000Y-125650000D01*
X125725000Y-127200000D02*
X125725000Y-125975000D01*
X126375000Y-114200000D02*
X126375000Y-112275000D01*
X126375000Y-112275000D02*
X126350000Y-112250000D01*
X125725000Y-112625000D02*
X126100000Y-112250000D01*
X126100000Y-112250000D02*
X126350000Y-112250000D01*
X125725000Y-114200000D02*
X125725000Y-112625000D01*
D45*
X119600000Y-60050000D02*
X119600000Y-60900000D01*
X132500000Y-62500000D02*
X133400000Y-62500000D01*
X122750000Y-62600000D02*
X123600000Y-61750000D01*
X111950000Y-135950000D02*
X113050000Y-135950000D01*
X111950000Y-131800000D02*
X113050000Y-131800000D01*
X111950000Y-129850000D02*
X113050000Y-129850000D01*
X111950000Y-125700000D02*
X113050000Y-125700000D01*
X128850000Y-53050000D02*
X128850000Y-53950000D01*
X121400000Y-52450000D02*
X120450000Y-52450000D01*
X130000000Y-145942000D02*
X130000000Y-145500000D01*
X130000000Y-147670000D02*
X130000000Y-145942000D01*
X127460000Y-147670000D02*
X127460000Y-145540000D01*
X124920000Y-147670000D02*
X124920000Y-145580000D01*
X119500000Y-147670000D02*
X119500000Y-145500000D01*
X116960000Y-147670000D02*
X116960000Y-145540000D01*
X114420000Y-147670000D02*
X114420000Y-145580000D01*
X132000000Y-131250000D02*
X132000000Y-130000000D01*
X132000000Y-118250000D02*
X132000000Y-117000000D01*
X138550000Y-74350000D02*
X137550000Y-74350000D01*
X138550000Y-78450000D02*
X137550000Y-78450000D01*
X123300000Y-51400000D02*
X122000000Y-51400000D01*
X125500000Y-53000000D02*
X125500000Y-54000000D01*
D46*
X121700000Y-59650000D02*
X123050000Y-59650000D01*
X127300000Y-59650000D02*
X125950000Y-59650000D01*
D47*
X119650000Y-69200000D02*
X119650000Y-68500000D01*
X119650000Y-68500000D02*
X119627009Y-68477009D01*
X119627009Y-68477009D02*
X119627009Y-68143407D01*
D46*
X137900000Y-77100000D02*
X136850000Y-77100000D01*
X137900000Y-81150000D02*
X137900000Y-81900000D01*
D45*
X125000000Y-63500000D02*
X124100000Y-63500000D01*
X125000000Y-65000000D02*
X124100000Y-65000000D01*
X125000000Y-66500000D02*
X124100000Y-66500000D01*
X120250000Y-65000000D02*
X120250000Y-64050000D01*
X116500000Y-64000000D02*
X116500000Y-63100000D01*
X114500000Y-64000000D02*
X114500000Y-63100000D01*
D46*
X144280000Y-74150000D02*
X144280000Y-73650000D01*
X144280000Y-72650000D02*
X144280000Y-72150000D01*
X144280000Y-64250000D02*
X143100000Y-64250000D01*
X144280000Y-75153000D02*
X143103000Y-75153000D01*
X143103000Y-75153000D02*
X143100000Y-75150000D01*
X144280000Y-74650000D02*
X143100000Y-74650000D01*
X144280000Y-74150000D02*
X143100000Y-74150000D01*
X144280000Y-65650000D02*
X143100000Y-65650000D01*
X144280000Y-67150000D02*
X143100000Y-67150000D01*
X144280000Y-72150000D02*
X143100000Y-72150000D01*
X144280000Y-68650000D02*
X143100000Y-68650000D01*
X144280000Y-70150000D02*
X143100000Y-70150000D01*
X119627009Y-66372991D02*
X119627009Y-68143407D01*
X120250000Y-65000000D02*
X120250000Y-65750000D01*
X120250000Y-65750000D02*
X119627009Y-66372991D01*
D45*
X111000000Y-82500000D02*
X110000000Y-82500000D01*
X109500000Y-80000000D02*
X108500000Y-80000000D01*
X109500000Y-76000000D02*
X108500000Y-76000000D01*
X109500000Y-74000000D02*
X108500000Y-74000000D01*
D46*
X112250000Y-67000000D02*
X112250000Y-68750000D01*
X112250000Y-68750000D02*
X112700000Y-69200000D01*
X112700000Y-69200000D02*
X113647999Y-69200000D01*
D45*
X112250000Y-67000000D02*
X112250000Y-66000000D01*
X123250000Y-67500000D02*
X123250000Y-66500000D01*
X125000000Y-68250000D02*
X125950000Y-68250000D01*
X126500000Y-71250000D02*
X127450000Y-71250000D01*
X125000000Y-71250000D02*
X126500000Y-71250000D01*
X130500000Y-77000000D02*
X130500000Y-76000000D01*
X125000000Y-80750000D02*
X126000000Y-80750000D01*
X122750000Y-82500000D02*
X122750000Y-83500000D01*
X67750000Y-106450000D02*
X69500000Y-106450000D01*
X67750000Y-108850000D02*
X69500000Y-108850000D01*
X67750000Y-111250000D02*
X69500000Y-111250000D01*
X67750000Y-113650000D02*
X69500000Y-113650000D01*
X67750000Y-117650000D02*
X69500000Y-117650000D01*
X67750000Y-120050000D02*
X69500000Y-120050000D01*
X67750000Y-122450000D02*
X69500000Y-122450000D01*
X67750000Y-124850000D02*
X69500000Y-124850000D01*
X67750000Y-127250000D02*
X69500000Y-127250000D01*
X63350000Y-124050000D02*
X61500000Y-124050000D01*
X63350000Y-121650000D02*
X61500000Y-121650000D01*
X63350000Y-119250000D02*
X61500000Y-119250000D01*
X63350000Y-116850000D02*
X61500000Y-116850000D01*
X63350000Y-114450000D02*
X61500000Y-114450000D01*
X63350000Y-112050000D02*
X61500000Y-112050000D01*
X63350000Y-109650000D02*
X61500000Y-109650000D01*
X63350000Y-107250000D02*
X61500000Y-107250000D01*
X142975000Y-52700000D02*
X141700000Y-52700000D01*
X141700000Y-52700000D02*
X141500000Y-52500000D01*
D46*
X144280000Y-70650000D02*
X144163502Y-70766498D01*
X144163502Y-70766498D02*
X142997251Y-70766498D01*
X144280000Y-71150000D02*
X143350000Y-71150000D01*
X143350000Y-71150000D02*
X143000000Y-71500000D01*
D45*
X108350000Y-65600000D02*
X109150000Y-65600000D01*
X109150000Y-65600000D02*
X109250000Y-65500000D01*
X89750000Y-53000000D02*
X89750000Y-52750000D01*
X89750000Y-52750000D02*
X90250000Y-52250000D01*
X85500000Y-53000000D02*
X89750000Y-53000000D01*
X88750000Y-53000000D02*
X88750000Y-52750000D01*
X88750000Y-52750000D02*
X89250000Y-52250000D01*
X85500000Y-53000000D02*
X88750000Y-53000000D01*
X85500000Y-53000000D02*
X88500000Y-53000000D01*
X86508000Y-53000000D02*
X87500000Y-53000000D01*
X87500000Y-53000000D02*
X88250000Y-52250000D01*
X85500000Y-53000000D02*
X86508000Y-53000000D01*
X85500000Y-53000000D02*
X86500000Y-53000000D01*
X86500000Y-53000000D02*
X87250000Y-52250000D01*
X78500000Y-52750000D02*
X77500000Y-53750000D01*
X77500000Y-53750000D02*
X77500000Y-57500000D01*
X79213368Y-52750000D02*
X78500000Y-52750000D01*
X85133000Y-51500000D02*
X80463368Y-51500000D01*
X80463368Y-51500000D02*
X79213368Y-52750000D01*
X85500000Y-53000000D02*
X85500000Y-51867000D01*
X85500000Y-51867000D02*
X85133000Y-51500000D01*
X132000000Y-119750000D02*
X132000000Y-121000000D01*
X132000000Y-132750000D02*
X133000000Y-132750000D01*
X129000000Y-138500000D02*
X129000000Y-137500000D01*
X126000000Y-138500000D02*
X126000000Y-137500000D01*
X123000000Y-138500000D02*
X123000000Y-137500000D01*
X118500000Y-138500000D02*
X118500000Y-137500000D01*
X115500000Y-138500000D02*
X115500000Y-137500000D01*
X112500000Y-138500000D02*
X112500000Y-137500000D01*
D46*
X132000000Y-119750000D02*
X130325000Y-119750000D01*
X130325000Y-119750000D02*
X130275000Y-119800000D01*
X132000000Y-132750000D02*
X130325000Y-132750000D01*
X130325000Y-132750000D02*
X130275000Y-132800000D01*
D45*
X140050000Y-78450000D02*
X140950000Y-78450000D01*
X140050000Y-74350000D02*
X140950000Y-74350000D01*
X140100000Y-75750000D02*
X140100000Y-74400000D01*
X140100000Y-74400000D02*
X140050000Y-74350000D01*
X140100000Y-79850000D02*
X140100000Y-78500000D01*
X140100000Y-78500000D02*
X140050000Y-78450000D01*
D46*
X114750000Y-105900000D02*
X116100000Y-105900000D01*
X116100000Y-105900000D02*
X116500000Y-105500000D01*
D45*
X139000000Y-60500000D02*
X138000000Y-60500000D01*
X142975000Y-53700000D02*
X139800000Y-53700000D01*
X139800000Y-53700000D02*
X138086725Y-55413275D01*
X113000000Y-110000000D02*
X113000000Y-110250000D01*
X113000000Y-110250000D02*
X114000000Y-111250000D01*
X140750000Y-120750000D02*
X140750000Y-136370000D01*
X140750000Y-136370000D02*
X143460000Y-139080000D01*
X143460000Y-117420000D02*
X133500000Y-107460000D01*
X133500000Y-107460000D02*
X133500000Y-107000000D01*
X109000000Y-112500000D02*
X110500000Y-112500000D01*
X107500000Y-112500000D02*
X109000000Y-112500000D01*
X126250000Y-86250000D02*
X127750000Y-86250000D01*
X124750000Y-86250000D02*
X126250000Y-86250000D01*
X123250000Y-86250000D02*
X124750000Y-86250000D01*
X121250000Y-62600000D02*
X121250000Y-63400000D01*
X121250000Y-63400000D02*
X120850000Y-63000000D01*
X120850000Y-63000000D02*
X119850000Y-63000000D01*
D46*
X119850000Y-63000000D02*
X119850000Y-62371000D01*
X120500000Y-60750000D02*
X120950000Y-60300000D01*
X119850000Y-62371000D02*
X120500000Y-61721000D01*
X120500000Y-61721000D02*
X120500000Y-60750000D01*
X120950000Y-60300000D02*
X121700000Y-60300000D01*
X121721000Y-61500000D02*
X121700000Y-61479000D01*
X121700000Y-61479000D02*
X121700000Y-60950000D01*
X121250000Y-62600000D02*
X121250000Y-61971000D01*
X121250000Y-61971000D02*
X121721000Y-61500000D01*
D45*
X117250000Y-59750000D02*
X117250000Y-59337202D01*
X117250000Y-59337202D02*
X117192000Y-59279202D01*
X117192000Y-59279202D02*
X117192000Y-57050000D01*
X117550000Y-60050000D02*
X117250000Y-59750000D01*
X118100000Y-60050000D02*
X117550000Y-60050000D01*
X114000000Y-55750000D02*
X115892000Y-55750000D01*
X115892000Y-55750000D02*
X117192000Y-57050000D01*
X117192000Y-57050000D02*
X118100000Y-57050000D01*
X113750000Y-56000000D02*
X114000000Y-55750000D01*
X112400000Y-56000000D02*
X113750000Y-56000000D01*
X110750000Y-56000000D02*
X110250000Y-56000000D01*
X111250000Y-56000000D02*
X110750000Y-56000000D01*
X112400000Y-56000000D02*
X111250000Y-56000000D01*
X107500000Y-98000000D02*
X113500000Y-98000000D01*
X113500000Y-98000000D02*
X113750000Y-98250000D01*
X107750000Y-97750000D02*
X107500000Y-98000000D01*
X107000000Y-97500000D02*
X107500000Y-98000000D01*
X113750000Y-97500000D02*
X113750000Y-98250000D01*
X107000000Y-97500000D02*
X113750000Y-97500000D01*
X109000000Y-101500000D02*
X113750000Y-101500000D01*
X113750000Y-101500000D02*
X114500000Y-102250000D01*
X108250000Y-101550000D02*
X108950000Y-101550000D01*
X108950000Y-101550000D02*
X109000000Y-101500000D01*
X110500000Y-111500000D02*
X112000000Y-110000000D01*
X105100000Y-68450000D02*
X105100000Y-69150000D01*
X105100000Y-69150000D02*
X105000000Y-69250000D01*
X106850000Y-68600000D02*
X105250000Y-68600000D01*
X105250000Y-68600000D02*
X105100000Y-68450000D01*
X110500000Y-112500000D02*
X110500000Y-111500000D01*
X127750000Y-86250000D02*
X127750000Y-85250000D01*
D46*
X112750000Y-109121000D02*
X112667000Y-109121000D01*
X112667000Y-109121000D02*
X112550000Y-109004000D01*
X112550000Y-109004000D02*
X112550000Y-108550000D01*
X113000000Y-110000000D02*
X113000000Y-109371000D01*
X113000000Y-109371000D02*
X112750000Y-109121000D01*
D45*
X113000000Y-110000000D02*
X112000000Y-110000000D01*
X118700000Y-104050000D02*
X118700000Y-103050000D01*
X118700000Y-103050000D02*
X118750000Y-103000000D01*
X114500000Y-103000000D02*
X114500000Y-102250000D01*
D46*
X114750000Y-104600000D02*
X114750000Y-103250000D01*
X114750000Y-103250000D02*
X114500000Y-103000000D01*
X114750000Y-105250000D02*
X114750000Y-104600000D01*
D45*
X105950000Y-71850000D02*
X105950000Y-72750000D01*
X117250000Y-54500000D02*
X117250000Y-55250000D01*
X117250000Y-55250000D02*
X117500000Y-55500000D01*
X118750000Y-65000000D02*
X118750000Y-64050000D01*
X113250000Y-66500000D02*
X113250000Y-65850000D01*
X113750000Y-67000000D02*
X113250000Y-66500000D01*
D46*
X118750000Y-66000000D02*
X119147999Y-66397999D01*
X119147999Y-66397999D02*
X119147999Y-68352001D01*
X119147999Y-68352001D02*
X119147999Y-69200000D01*
X118750000Y-65000000D02*
X118750000Y-66000000D01*
X113750000Y-67000000D02*
X113750000Y-67629000D01*
X113750000Y-67629000D02*
X114181001Y-68060001D01*
X114181001Y-68060001D02*
X114181001Y-69200000D01*
D45*
X113750000Y-61000000D02*
X113750000Y-61750000D01*
X113750000Y-61000000D02*
X114658000Y-61000000D01*
X114658000Y-61000000D02*
X115500000Y-61842000D01*
X115500000Y-61842000D02*
X115500000Y-65217158D01*
X115500000Y-65217158D02*
X115500000Y-65500000D01*
D46*
X114500000Y-65500000D02*
X114500000Y-67750000D01*
X114500000Y-67750000D02*
X114650000Y-67900000D01*
X114650000Y-67900000D02*
X114650000Y-68196000D01*
X114650000Y-68196000D02*
X114650000Y-69200000D01*
X116500000Y-65500000D02*
X116500000Y-66154000D01*
X116150000Y-66504000D02*
X116150000Y-68196000D01*
X116500000Y-66154000D02*
X116150000Y-66504000D01*
X116150000Y-68196000D02*
X116150000Y-69200000D01*
D45*
X121750000Y-67500000D02*
X121750000Y-66500000D01*
X114500000Y-65500000D02*
X115500000Y-65500000D01*
X116500000Y-65500000D02*
X115500000Y-65500000D01*
X109500000Y-81500000D02*
X108600000Y-81500000D01*
X125000000Y-79250000D02*
X126000000Y-79250000D01*
D46*
X109500000Y-81500000D02*
X110500000Y-81500000D01*
X110500000Y-81500000D02*
X111400000Y-80600000D01*
X111400000Y-80600000D02*
X113650000Y-80600000D01*
X121150000Y-69200000D02*
X121150000Y-68100000D01*
X121150000Y-68100000D02*
X121750000Y-67500000D01*
X123100000Y-78650000D02*
X124400000Y-78650000D01*
X124400000Y-78650000D02*
X125000000Y-79250000D01*
D45*
X126500000Y-72750000D02*
X125000000Y-72750000D01*
X115500000Y-59500000D02*
X116500000Y-60500000D01*
X113750000Y-59500000D02*
X115500000Y-59500000D01*
X125000000Y-69750000D02*
X125750000Y-69750000D01*
X109500000Y-72500000D02*
X108650000Y-72500000D01*
X109500000Y-77500000D02*
X108650000Y-77500000D01*
X112500000Y-82500000D02*
X112500000Y-81600000D01*
X121250000Y-82500000D02*
X121250000Y-83400000D01*
X129000000Y-77000000D02*
X129000000Y-76050000D01*
X126500000Y-72750000D02*
X127450000Y-72750000D01*
D46*
X112500000Y-82500000D02*
X113254000Y-82500000D01*
X113254000Y-82500000D02*
X114150000Y-81604000D01*
X114150000Y-81604000D02*
X114150000Y-80600000D01*
X111700000Y-77650000D02*
X109650000Y-77650000D01*
X109650000Y-77650000D02*
X109500000Y-77500000D01*
X111700000Y-72150000D02*
X109850000Y-72150000D01*
X109850000Y-72150000D02*
X109500000Y-72500000D01*
X124050000Y-70071000D02*
X123775000Y-70071000D01*
X123775000Y-70071000D02*
X123100000Y-70746000D01*
X123100000Y-70746000D02*
X123100000Y-71150000D01*
X125000000Y-69750000D02*
X124371000Y-69750000D01*
X124371000Y-69750000D02*
X124050000Y-70071000D01*
X126500000Y-72750000D02*
X126500000Y-73404000D01*
X126500000Y-73404000D02*
X125254000Y-74650000D01*
X124104000Y-74650000D02*
X123100000Y-74650000D01*
X125254000Y-74650000D02*
X124104000Y-74650000D01*
X125000000Y-72750000D02*
X125000000Y-73404000D01*
X125000000Y-73404000D02*
X124754000Y-73650000D01*
X124754000Y-73650000D02*
X124104000Y-73650000D01*
X124104000Y-73650000D02*
X123100000Y-73650000D01*
X123100000Y-77150000D02*
X128850000Y-77150000D01*
X128850000Y-77150000D02*
X129000000Y-77000000D01*
X120650000Y-80600000D02*
X120650000Y-81900000D01*
X120650000Y-81900000D02*
X121250000Y-82500000D01*
D44*
X139496944Y-65148800D02*
X140996944Y-66648800D01*
X140996944Y-66648800D02*
X143603800Y-66648800D01*
X143603800Y-66648800D02*
X143605000Y-66650000D01*
X143605000Y-66650000D02*
X144280000Y-66650000D01*
X138451200Y-65148800D02*
X139496944Y-65148800D01*
X137350000Y-65650000D02*
X137950000Y-65650000D01*
X137950000Y-65650000D02*
X138451200Y-65148800D01*
X128748800Y-64903056D02*
X129403056Y-64248800D01*
X126453056Y-75648800D02*
X128748800Y-73353056D01*
X123100000Y-75650000D02*
X124225000Y-75650000D01*
X129403056Y-64248800D02*
X131500000Y-64248800D01*
X124225000Y-75650000D02*
X124226200Y-75648800D01*
X124226200Y-75648800D02*
X126453056Y-75648800D01*
X128748800Y-73353056D02*
X128748800Y-64903056D01*
X131500000Y-64248800D02*
X132400000Y-65148800D01*
X132400000Y-65148800D02*
X134748800Y-65148800D01*
X134748800Y-65148800D02*
X135250000Y-65650000D01*
X135250000Y-65650000D02*
X135850000Y-65650000D01*
X139703056Y-64651200D02*
X141203056Y-66151200D01*
X141203056Y-66151200D02*
X143603800Y-66151200D01*
X143603800Y-66151200D02*
X143605000Y-66150000D01*
X143605000Y-66150000D02*
X144280000Y-66150000D01*
X138451200Y-64651200D02*
X139703056Y-64651200D01*
X137350000Y-64150000D02*
X137950000Y-64150000D01*
X137950000Y-64150000D02*
X138451200Y-64651200D01*
X135250000Y-64150000D02*
X135850000Y-64150000D01*
X126246944Y-75151200D02*
X128251200Y-73146944D01*
X123100000Y-75150000D02*
X124225000Y-75150000D01*
X128251200Y-64696944D02*
X129196944Y-63751200D01*
X124225000Y-75150000D02*
X124226200Y-75151200D01*
X124226200Y-75151200D02*
X126246944Y-75151200D01*
X128251200Y-73146944D02*
X128251200Y-64696944D01*
X129196944Y-63751200D02*
X131706112Y-63751200D01*
X131706112Y-63751200D02*
X132606112Y-64651200D01*
X132606112Y-64651200D02*
X134748800Y-64651200D01*
X134748800Y-64651200D02*
X135250000Y-64150000D01*
X142353056Y-68498800D02*
X142703056Y-68148800D01*
X142703056Y-68148800D02*
X143603800Y-68148800D01*
X141396944Y-68498800D02*
X142353056Y-68498800D01*
X137350000Y-68650000D02*
X137950000Y-68650000D01*
X137950000Y-68650000D02*
X138451200Y-68148800D01*
X138451200Y-68148800D02*
X139203056Y-68148800D01*
X139203056Y-68148800D02*
X139603056Y-67748800D01*
X139603056Y-67748800D02*
X140646944Y-67748800D01*
X140646944Y-67748800D02*
X141396944Y-68498800D01*
X143603800Y-68148800D02*
X143605000Y-68150000D01*
X143605000Y-68150000D02*
X144280000Y-68150000D01*
X127453056Y-76648800D02*
X128853056Y-75248800D01*
X123100000Y-76650000D02*
X124225000Y-76650000D01*
X130103056Y-75248800D02*
X130998800Y-74353056D01*
X124225000Y-76650000D02*
X124226200Y-76648800D01*
X135250000Y-68650000D02*
X135850000Y-68650000D01*
X124226200Y-76648800D02*
X127453056Y-76648800D01*
X128853056Y-75248800D02*
X130103056Y-75248800D01*
X130998800Y-74353056D02*
X130998800Y-72146944D01*
X129998800Y-67353056D02*
X130603056Y-66748800D01*
X134748800Y-68148800D02*
X135250000Y-68650000D01*
X130998800Y-72146944D02*
X129998800Y-71146944D01*
X129998800Y-71146944D02*
X129998800Y-67353056D01*
X130603056Y-66748800D02*
X132646944Y-66748800D01*
X132646944Y-66748800D02*
X134046944Y-68148800D01*
X134046944Y-68148800D02*
X134748800Y-68148800D01*
X142146944Y-68001200D02*
X142496944Y-67651200D01*
X142496944Y-67651200D02*
X143603800Y-67651200D01*
X141603056Y-68001200D02*
X142146944Y-68001200D01*
X140853056Y-67251200D02*
X141603056Y-68001200D01*
X139396944Y-67251200D02*
X140853056Y-67251200D01*
X137350000Y-67150000D02*
X137950000Y-67150000D01*
X138451200Y-67651200D02*
X138996944Y-67651200D01*
X137950000Y-67150000D02*
X138451200Y-67651200D01*
X138996944Y-67651200D02*
X139396944Y-67251200D01*
X143605000Y-67650000D02*
X144280000Y-67650000D01*
X143603800Y-67651200D02*
X143605000Y-67650000D01*
X130501200Y-74146944D02*
X130501200Y-72353056D01*
X132853056Y-66251200D02*
X134253056Y-67651200D01*
X123100000Y-76150000D02*
X124225000Y-76150000D01*
X124225000Y-76150000D02*
X124226200Y-76151200D01*
X129501200Y-71353056D02*
X129501200Y-67146944D01*
X130396944Y-66251200D02*
X132853056Y-66251200D01*
X124226200Y-76151200D02*
X127246944Y-76151200D01*
X127246944Y-76151200D02*
X128646944Y-74751200D01*
X128646944Y-74751200D02*
X129896944Y-74751200D01*
X129896944Y-74751200D02*
X130501200Y-74146944D01*
X130501200Y-72353056D02*
X129501200Y-71353056D01*
X129501200Y-67146944D02*
X130396944Y-66251200D01*
X134253056Y-67651200D02*
X134748800Y-67651200D01*
X134748800Y-67651200D02*
X135250000Y-67150000D01*
X135250000Y-67150000D02*
X135850000Y-67150000D01*
X139996944Y-70651200D02*
X141496944Y-69151200D01*
X143605000Y-69150000D02*
X144280000Y-69150000D01*
X141496944Y-69151200D02*
X143603800Y-69151200D01*
X143603800Y-69151200D02*
X143605000Y-69150000D01*
X138451200Y-70651200D02*
X139996944Y-70651200D01*
X137350000Y-70150000D02*
X137950000Y-70150000D01*
X137950000Y-70150000D02*
X138451200Y-70651200D01*
X132748800Y-77853056D02*
X132748800Y-71396944D01*
X132748800Y-71396944D02*
X132103057Y-70751201D01*
X131603056Y-78998800D02*
X132748800Y-77853056D01*
X124226200Y-78148800D02*
X127046944Y-78148800D01*
X123100000Y-78150000D02*
X124225000Y-78150000D01*
X124225000Y-78150000D02*
X124226200Y-78148800D01*
X127046944Y-78148800D02*
X127896944Y-78998800D01*
X127896944Y-78998800D02*
X131603056Y-78998800D01*
X132103057Y-70751201D02*
X131623801Y-70751201D01*
X131623801Y-70751201D02*
X131500000Y-70627400D01*
X133750000Y-70627400D02*
X133873801Y-70751201D01*
X133873801Y-70751201D02*
X134648799Y-70751201D01*
X134648799Y-70751201D02*
X135250000Y-70150000D01*
X135850000Y-70150000D02*
X135250000Y-70150000D01*
X140203056Y-71148800D02*
X141703056Y-69648800D01*
X141703056Y-69648800D02*
X143603800Y-69648800D01*
X143603800Y-69648800D02*
X143605000Y-69650000D01*
X143605000Y-69650000D02*
X144280000Y-69650000D01*
X138451200Y-71148800D02*
X140203056Y-71148800D01*
X137350000Y-71650000D02*
X137950000Y-71650000D01*
X137950000Y-71650000D02*
X138451200Y-71148800D01*
X132250000Y-74000000D02*
X132250000Y-73250000D01*
X132000000Y-74250000D02*
X132250000Y-74000000D01*
X132000000Y-74750000D02*
X132000000Y-74250000D01*
X132250000Y-75000000D02*
X132000000Y-74750000D01*
X132250000Y-75750000D02*
X132250000Y-75000000D01*
X132251200Y-77646944D02*
X132251200Y-77251200D01*
X123100000Y-77650000D02*
X124225000Y-77650000D01*
X124225000Y-77650000D02*
X124226200Y-77651200D01*
X132251200Y-72248800D02*
X132251200Y-71603056D01*
X124226200Y-77651200D02*
X127253056Y-77651200D01*
X132251200Y-77251200D02*
X132000000Y-77000000D01*
X127253056Y-77651200D02*
X128103056Y-78501200D01*
X132000000Y-76000000D02*
X132250000Y-75750000D01*
X128103056Y-78501200D02*
X128498800Y-78501200D01*
X128498800Y-78501200D02*
X128750000Y-78250000D01*
X129500000Y-78500000D02*
X130000000Y-78500000D01*
X128750000Y-78250000D02*
X129250000Y-78250000D01*
X129250000Y-78250000D02*
X129500000Y-78500000D01*
X130000000Y-78500000D02*
X130250000Y-78250000D01*
X130250000Y-78250000D02*
X130750000Y-78250000D01*
X130750000Y-78250000D02*
X131001200Y-78501200D01*
X131396944Y-78501200D02*
X132251200Y-77646944D01*
X131001200Y-78501200D02*
X131396944Y-78501200D01*
X131750000Y-76000000D02*
X132000000Y-76000000D01*
X132000000Y-77000000D02*
X131750000Y-77000000D01*
X131750000Y-77000000D02*
X131500000Y-76750000D01*
X131500000Y-76750000D02*
X131500000Y-76250000D01*
X131500000Y-76250000D02*
X131750000Y-76000000D01*
X131623801Y-71248799D02*
X131500000Y-71372600D01*
X132250000Y-73250000D02*
X132000000Y-73000000D01*
X132000000Y-73000000D02*
X132000000Y-72500000D01*
X132000000Y-72500000D02*
X132251200Y-72248800D01*
X132251200Y-71603056D02*
X131896943Y-71248799D01*
X131896943Y-71248799D02*
X131623801Y-71248799D01*
X133750000Y-71372600D02*
X133873801Y-71248799D01*
X133873801Y-71248799D02*
X134848799Y-71248799D01*
X134848799Y-71248799D02*
X135250000Y-71650000D01*
X135850000Y-71650000D02*
X135250000Y-71650000D01*
D47*
X123500000Y-63500000D02*
X120150000Y-66850000D01*
X120150000Y-66850000D02*
X120150000Y-69200000D01*
X123500000Y-63000000D02*
X123500000Y-63500000D01*
X124000000Y-62500000D02*
X123500000Y-63000000D01*
X131000000Y-62500000D02*
X124000000Y-62500000D01*
X131100000Y-60800000D02*
X131100000Y-62400000D01*
X131100000Y-62400000D02*
X131000000Y-62500000D01*
X115250000Y-113500000D02*
X115250000Y-115000000D01*
X108000000Y-141500000D02*
X111500000Y-141500000D01*
X130250000Y-125500000D02*
X130250000Y-127175000D01*
X130250000Y-127175000D02*
X130275000Y-127200000D01*
X97000000Y-141500000D02*
X108000000Y-141500000D01*
X96250000Y-140750000D02*
X97000000Y-141500000D01*
X96250000Y-137628686D02*
X96250000Y-140750000D01*
X99100000Y-136000000D02*
X97878686Y-136000000D01*
X97878686Y-136000000D02*
X96250000Y-137628686D01*
X107500000Y-142250000D02*
X111750000Y-142250000D01*
X127500000Y-134250000D02*
X127675000Y-134075000D01*
X127675000Y-134075000D02*
X127675000Y-132800000D01*
X127500000Y-135000000D02*
X127500000Y-134250000D01*
X96500000Y-142250000D02*
X107500000Y-142250000D01*
X96102410Y-141852410D02*
X96500000Y-142250000D01*
X95250000Y-141000000D02*
X96102410Y-141852410D01*
X95250000Y-136000000D02*
X95250000Y-141000000D01*
X97250000Y-134000000D02*
X95250000Y-136000000D01*
X97878686Y-134000000D02*
X97250000Y-134000000D01*
X99100000Y-134000000D02*
X97878686Y-134000000D01*
X128500000Y-125000000D02*
X127675000Y-125825000D01*
X127675000Y-125825000D02*
X127675000Y-127200000D01*
X128500000Y-124000000D02*
X128500000Y-125000000D01*
X124750000Y-114750000D02*
X125000000Y-115000000D01*
X125000000Y-115250000D02*
X125250000Y-115500000D01*
X125000000Y-115000000D02*
X125000000Y-115250000D01*
X125250000Y-115500000D02*
X125750000Y-115500000D01*
X125750000Y-115500000D02*
X127675000Y-117425000D01*
X127675000Y-117425000D02*
X127675000Y-119800000D01*
X96000000Y-125250000D02*
X93500000Y-122750000D01*
X93500000Y-122750000D02*
X93500000Y-110500000D01*
X97128686Y-125250000D02*
X96000000Y-125250000D01*
X99100000Y-126000000D02*
X97878686Y-126000000D01*
X97878686Y-126000000D02*
X97128686Y-125250000D01*
X131250000Y-114250000D02*
X130325000Y-114250000D01*
X130325000Y-114250000D02*
X130275000Y-114200000D01*
X97000000Y-124000000D02*
X94500000Y-121500000D01*
X94500000Y-121500000D02*
X94500000Y-108000000D01*
X97878686Y-124000000D02*
X97000000Y-124000000D01*
X99100000Y-124000000D02*
X97878686Y-124000000D01*
X121750000Y-115000000D02*
X125025001Y-111724999D01*
X125025001Y-111724999D02*
X126974999Y-111724999D01*
X126974999Y-111724999D02*
X127675000Y-112425000D01*
X127675000Y-112425000D02*
X127675000Y-114200000D01*
X97250000Y-119371314D02*
X97250000Y-108750000D01*
X97250000Y-108750000D02*
X96500000Y-108000000D01*
X99100000Y-120000000D02*
X97878686Y-120000000D01*
X97878686Y-120000000D02*
X97250000Y-119371314D01*
D45*
X99100000Y-104000000D02*
X97500000Y-104000000D01*
X97500000Y-104000000D02*
X96500000Y-103000000D01*
X96500000Y-103000000D02*
X96500000Y-101000000D01*
X98000000Y-99500000D02*
X135500000Y-99500000D01*
X96500000Y-101000000D02*
X98000000Y-99500000D01*
X135500000Y-99500000D02*
X137000000Y-98000000D01*
D44*
X117150000Y-80600000D02*
X117150000Y-81725000D01*
X107750000Y-88000000D02*
X107498799Y-88251201D01*
X117150000Y-81725000D02*
X117151200Y-81726200D01*
X117151200Y-81726200D02*
X117151200Y-85496944D01*
X117151200Y-85496944D02*
X114896943Y-87751201D01*
X114896943Y-87751201D02*
X110999999Y-87751201D01*
X110999999Y-87751201D02*
X110499999Y-88251201D01*
X84623801Y-88251201D02*
X84500000Y-88127400D01*
X110499999Y-88251201D02*
X110001201Y-88251201D01*
X110001201Y-88251201D02*
X109750000Y-88000000D01*
X109750000Y-88000000D02*
X109250000Y-88000000D01*
X109250000Y-88000000D02*
X109000000Y-88250000D01*
X107498799Y-88251201D02*
X84623801Y-88251201D01*
X109000000Y-88250000D02*
X108500000Y-88250000D01*
X108500000Y-88250000D02*
X108250000Y-88000000D01*
X108250000Y-88000000D02*
X107750000Y-88000000D01*
X63350000Y-120850000D02*
X61850000Y-120850000D01*
X61850000Y-120850000D02*
X61698800Y-120698800D01*
X61698800Y-120698800D02*
X60123801Y-120698799D01*
X60123801Y-120698799D02*
X60000000Y-120822600D01*
X63350000Y-120050000D02*
X61850000Y-120050000D01*
X61850000Y-120050000D02*
X61698800Y-120201200D01*
X61698800Y-120201200D02*
X60123801Y-120201201D01*
X60123801Y-120201201D02*
X60000000Y-120077400D01*
X84500000Y-88872600D02*
X84623801Y-88748799D01*
X117650000Y-81725000D02*
X117650000Y-80600000D01*
X115103057Y-88248799D02*
X117648800Y-85703056D01*
X84623801Y-88748799D02*
X110706109Y-88748799D01*
X110706109Y-88748799D02*
X111206109Y-88248799D01*
X111206109Y-88248799D02*
X115103057Y-88248799D01*
X117648800Y-85703056D02*
X117648800Y-81726200D01*
X117648800Y-81726200D02*
X117650000Y-81725000D01*
X114650000Y-80600000D02*
X114650000Y-81725000D01*
X110250000Y-84000000D02*
X109750000Y-84000000D01*
X114650000Y-81725000D02*
X114651200Y-81726200D01*
X114651200Y-81726200D02*
X114651200Y-81996944D01*
X114651200Y-81996944D02*
X112324072Y-84324072D01*
X112324072Y-84324072D02*
X112074072Y-84324072D01*
X109425928Y-84324072D02*
X66824072Y-84324072D01*
X112074072Y-84324072D02*
X111750000Y-84000000D01*
X111250000Y-84000000D02*
X111000000Y-84250000D01*
X111750000Y-84000000D02*
X111250000Y-84000000D01*
X61698800Y-118298800D02*
X61850000Y-118450000D01*
X111000000Y-84250000D02*
X110500000Y-84250000D01*
X110500000Y-84250000D02*
X110250000Y-84000000D01*
X109750000Y-84000000D02*
X109425928Y-84324072D01*
X54251200Y-114103056D02*
X58446944Y-118298800D01*
X66824072Y-84324072D02*
X54251200Y-96896944D01*
X54251200Y-96896944D02*
X54251200Y-114103056D01*
X61850000Y-118450000D02*
X63350000Y-118450000D01*
X58446944Y-118298800D02*
X61698800Y-118298800D01*
X70750000Y-85250000D02*
X71178329Y-84821671D01*
X71178329Y-84821671D02*
X112530185Y-84821671D01*
X70250000Y-85250000D02*
X70750000Y-85250000D01*
X69750000Y-84750000D02*
X70250000Y-85250000D01*
X69000000Y-84750000D02*
X69750000Y-84750000D01*
X68500000Y-85250000D02*
X69000000Y-84750000D01*
X68000000Y-85250000D02*
X68500000Y-85250000D01*
X67571671Y-84821671D02*
X68000000Y-85250000D01*
X67030185Y-84821671D02*
X67571671Y-84821671D01*
X63350000Y-117650000D02*
X61850000Y-117650000D01*
X55000000Y-109500000D02*
X54748800Y-109248800D01*
X55000000Y-112500000D02*
X54750000Y-112250000D01*
X61850000Y-117650000D02*
X61698800Y-117801200D01*
X55000000Y-111500000D02*
X55000000Y-111000000D01*
X61698800Y-117801200D02*
X58653056Y-117801200D01*
X58653056Y-117801200D02*
X54748800Y-113896944D01*
X54750000Y-110750000D02*
X54750000Y-110250000D01*
X54748800Y-113896944D02*
X54748800Y-113251200D01*
X54748800Y-113251200D02*
X55000000Y-113000000D01*
X55000000Y-111000000D02*
X54750000Y-110750000D01*
X55000000Y-113000000D02*
X55000000Y-112500000D01*
X54750000Y-111750000D02*
X55000000Y-111500000D01*
X54750000Y-112250000D02*
X54750000Y-111750000D01*
X54750000Y-110250000D02*
X55000000Y-110000000D01*
X54748800Y-109248800D02*
X54748800Y-97103056D01*
X55000000Y-110000000D02*
X55000000Y-109500000D01*
X54748800Y-97103056D02*
X67030185Y-84821671D01*
X115148800Y-81726200D02*
X115148800Y-82203056D01*
X115150000Y-80600000D02*
X115150000Y-81725000D01*
X115150000Y-81725000D02*
X115148800Y-81726200D01*
X115148800Y-82203056D02*
X112530185Y-84821671D01*
D47*
X67750000Y-116850000D02*
X85150000Y-116850000D01*
X85150000Y-116850000D02*
X93000000Y-109000000D01*
X93000000Y-109000000D02*
X93000000Y-105750000D01*
X129750000Y-121750000D02*
X129750000Y-119925000D01*
X129750000Y-119925000D02*
X129625000Y-119800000D01*
D44*
X115650000Y-80600000D02*
X115650000Y-81725000D01*
X115650000Y-81725000D02*
X115651200Y-81726200D01*
X74251200Y-88896944D02*
X73396944Y-89751200D01*
X110000000Y-86000000D02*
X109748800Y-86251200D01*
X115651200Y-81726200D02*
X115651200Y-83496944D01*
X111500000Y-86000000D02*
X111250000Y-86250000D01*
X115651200Y-83496944D02*
X112896944Y-86251200D01*
X112896944Y-86251200D02*
X112251200Y-86251200D01*
X110500000Y-86000000D02*
X110000000Y-86000000D01*
X112251200Y-86251200D02*
X112000000Y-86000000D01*
X55751200Y-112603056D02*
X59046944Y-115898800D01*
X112000000Y-86000000D02*
X111500000Y-86000000D01*
X111250000Y-86250000D02*
X110750000Y-86250000D01*
X110750000Y-86250000D02*
X110500000Y-86000000D01*
X82396944Y-86251200D02*
X81396944Y-87251200D01*
X59046944Y-115898800D02*
X61698800Y-115898800D01*
X109748800Y-86251200D02*
X82396944Y-86251200D01*
X67896944Y-86251200D02*
X55751200Y-98396944D01*
X81396944Y-87251200D02*
X74896944Y-87251200D01*
X74251200Y-87896944D02*
X74251200Y-88896944D01*
X74896944Y-87251200D02*
X74251200Y-87896944D01*
X73396944Y-89751200D02*
X72103056Y-89751200D01*
X72103056Y-89751200D02*
X71291888Y-88940032D01*
X71291888Y-88940032D02*
X71291888Y-87336976D01*
X71291888Y-87336976D02*
X70206112Y-86251200D01*
X70206112Y-86251200D02*
X67896944Y-86251200D01*
X61850000Y-116050000D02*
X63350000Y-116050000D01*
X55751200Y-98396944D02*
X55751200Y-112603056D01*
X61698800Y-115898800D02*
X61850000Y-116050000D01*
D47*
X130250000Y-112500000D02*
X129625000Y-113125000D01*
X129625000Y-114200000D02*
X129625000Y-113125000D01*
X84450000Y-116050000D02*
X91750000Y-108750000D01*
X91750000Y-108750000D02*
X91750000Y-105750000D01*
X84450000Y-116050000D02*
X67750000Y-116050000D01*
X131750000Y-112500000D02*
X130250000Y-112500000D01*
D44*
X56250000Y-109250000D02*
X56250000Y-108750000D01*
X63350000Y-115250000D02*
X61850000Y-115250000D01*
X61850000Y-115250000D02*
X61698800Y-115401200D01*
X82998800Y-86748800D02*
X83250000Y-87000000D01*
X56250000Y-110250000D02*
X56500000Y-110000000D01*
X56248800Y-112396944D02*
X56248800Y-111751200D01*
X81603056Y-87748800D02*
X82603056Y-86748800D01*
X61698800Y-115401200D02*
X59253056Y-115401200D01*
X82603056Y-86748800D02*
X82998800Y-86748800D01*
X59253056Y-115401200D02*
X56248800Y-112396944D01*
X56248800Y-111751200D02*
X56500000Y-111500000D01*
X83750000Y-87000000D02*
X84000000Y-86750000D01*
X56500000Y-111500000D02*
X56500000Y-111000000D01*
X56500000Y-110000000D02*
X56500000Y-109500000D01*
X56500000Y-111000000D02*
X56250000Y-110750000D01*
X56250000Y-110750000D02*
X56250000Y-110250000D01*
X56500000Y-109500000D02*
X56250000Y-109250000D01*
X70794288Y-89146144D02*
X71896944Y-90248800D01*
X56250000Y-108750000D02*
X56500000Y-108500000D01*
X71896944Y-90248800D02*
X73603056Y-90248800D01*
X56500000Y-108500000D02*
X56500000Y-108000000D01*
X56500000Y-108000000D02*
X56248800Y-107748800D01*
X56248800Y-107748800D02*
X56248800Y-98603056D01*
X84000000Y-86750000D02*
X84500000Y-86750000D01*
X56248800Y-98603056D02*
X68103056Y-86748800D01*
X68103056Y-86748800D02*
X70000000Y-86748800D01*
X70000000Y-86748800D02*
X70794288Y-87543088D01*
X74748800Y-89103056D02*
X74748800Y-88103056D01*
X70794288Y-87543088D02*
X70794288Y-89146144D01*
X73603056Y-90248800D02*
X74748800Y-89103056D01*
X74748800Y-88103056D02*
X75103056Y-87748800D01*
X75103056Y-87748800D02*
X81603056Y-87748800D01*
X83250000Y-87000000D02*
X83750000Y-87000000D01*
X84500000Y-86750000D02*
X84750000Y-87000000D01*
X84750000Y-87000000D02*
X85250000Y-87000000D01*
X85250000Y-87000000D02*
X85500000Y-86750000D01*
X85500000Y-86750000D02*
X86000000Y-86750000D01*
X86000000Y-86750000D02*
X86250000Y-87000000D01*
X86250000Y-87000000D02*
X86750000Y-87000000D01*
X112830410Y-86748800D02*
X113103056Y-86748800D01*
X86750000Y-87000000D02*
X87000000Y-86750000D01*
X87000000Y-86750000D02*
X112829210Y-86750000D01*
X112829210Y-86750000D02*
X112830410Y-86748800D01*
X113103056Y-86748800D02*
X116148800Y-83703056D01*
X116148800Y-83703056D02*
X116148800Y-81726200D01*
X116148800Y-81726200D02*
X116150000Y-81725000D01*
X116150000Y-81725000D02*
X116150000Y-80600000D01*
D47*
X139000000Y-59000000D02*
X138000000Y-59000000D01*
D44*
X138000000Y-59000000D02*
X136500000Y-59000000D01*
D47*
X103500000Y-78000000D02*
X105250000Y-78000000D01*
X119300000Y-115950000D02*
X115250000Y-120000000D01*
X115250000Y-120000000D02*
X108250000Y-120000000D01*
X120500000Y-115950000D02*
X119300000Y-115950000D01*
X127250000Y-121500000D02*
X127025000Y-121275000D01*
X127025000Y-121275000D02*
X127025000Y-119800000D01*
X83750000Y-115250000D02*
X90750000Y-108250000D01*
X90750000Y-108250000D02*
X90750000Y-105750000D01*
X67750000Y-115250000D02*
X83750000Y-115250000D01*
X125200000Y-115950000D02*
X127025000Y-117775000D01*
X127025000Y-117775000D02*
X127025000Y-119800000D01*
X120500000Y-115950000D02*
X125200000Y-115950000D01*
X139000000Y-57500000D02*
X138000000Y-57500000D01*
D44*
X138000000Y-57500000D02*
X136500000Y-57500000D01*
D47*
X103000000Y-79000000D02*
X103500000Y-79500000D01*
X103500000Y-79500000D02*
X105250000Y-79500000D01*
X122750000Y-110500000D02*
X114000000Y-119250000D01*
X114000000Y-119250000D02*
X108250000Y-119250000D01*
X127000000Y-110500000D02*
X122750000Y-110500000D01*
X128325000Y-111825000D02*
X127000000Y-110500000D01*
X128325000Y-112175000D02*
X128325000Y-111825000D01*
X131000000Y-115500000D02*
X128625000Y-115500000D01*
X128625000Y-115500000D02*
X128325000Y-115200000D01*
X128325000Y-115200000D02*
X128325000Y-114200000D01*
X133000000Y-113500000D02*
X131000000Y-115500000D01*
X134250000Y-113500000D02*
X133000000Y-113500000D01*
X83050000Y-114450000D02*
X89750000Y-107750000D01*
X89750000Y-107750000D02*
X89750000Y-105750000D01*
X67750000Y-114450000D02*
X83050000Y-114450000D01*
X128325000Y-114200000D02*
X128325000Y-112175000D01*
D44*
X112500000Y-90000000D02*
X112248800Y-90251200D01*
X70248800Y-91874615D02*
X69052514Y-90678329D01*
X77396944Y-90251200D02*
X75396944Y-92251200D01*
X118650000Y-80600000D02*
X118650000Y-81725000D01*
X114000000Y-90000000D02*
X113750000Y-90250000D01*
X118650000Y-81725000D02*
X118651200Y-81726200D01*
X70603056Y-93251200D02*
X70248800Y-92896944D01*
X113000000Y-90000000D02*
X112500000Y-90000000D01*
X113750000Y-90250000D02*
X113250000Y-90250000D01*
X118651200Y-81726200D02*
X118651200Y-86996944D01*
X114751200Y-90251200D02*
X114500000Y-90000000D01*
X118651200Y-86996944D02*
X115396944Y-90251200D01*
X115396944Y-90251200D02*
X114751200Y-90251200D01*
X114500000Y-90000000D02*
X114000000Y-90000000D01*
X64896944Y-96751200D02*
X60396944Y-96751200D01*
X59646944Y-113498800D02*
X61698800Y-113498800D01*
X113250000Y-90250000D02*
X113000000Y-90000000D01*
X61698800Y-113498800D02*
X61850000Y-113650000D01*
X61850000Y-113650000D02*
X63350000Y-113650000D01*
X75396944Y-92251200D02*
X72896944Y-92251200D01*
X112248800Y-90251200D02*
X77396944Y-90251200D01*
X72896944Y-92251200D02*
X71896944Y-93251200D01*
X71896944Y-93251200D02*
X70603056Y-93251200D01*
X70248800Y-92896944D02*
X70248800Y-91874615D01*
X69052514Y-90678329D02*
X66969815Y-90678329D01*
X65751200Y-91896944D02*
X65751200Y-95896944D01*
X66969815Y-90678329D02*
X65751200Y-91896944D01*
X65751200Y-95896944D02*
X64896944Y-96751200D01*
X60396944Y-96751200D02*
X57251200Y-99896944D01*
X57251200Y-99896944D02*
X57251200Y-111103056D01*
X57251200Y-111103056D02*
X59646944Y-113498800D01*
X63350000Y-112850000D02*
X61850000Y-112850000D01*
X57750000Y-107750000D02*
X57750000Y-107250000D01*
X61850000Y-112850000D02*
X61698800Y-113001200D01*
X58000000Y-106500000D02*
X57748800Y-106248800D01*
X61698800Y-113001200D02*
X59853056Y-113001200D01*
X57748800Y-110251200D02*
X58000000Y-110000000D01*
X59853056Y-113001200D02*
X57748800Y-110896944D01*
X58000000Y-108500000D02*
X58000000Y-108000000D01*
X119150000Y-81725000D02*
X119150000Y-80600000D01*
X58000000Y-107000000D02*
X58000000Y-106500000D01*
X57748800Y-110896944D02*
X57748800Y-110251200D01*
X58000000Y-110000000D02*
X58000000Y-109500000D01*
X58000000Y-109500000D02*
X57750000Y-109250000D01*
X67175928Y-91175928D02*
X68846401Y-91175928D01*
X57750000Y-109250000D02*
X57750000Y-108750000D01*
X66248800Y-92103056D02*
X67175928Y-91175928D01*
X57750000Y-108750000D02*
X58000000Y-108500000D01*
X68846401Y-91175928D02*
X69751200Y-92080727D01*
X82000000Y-91000000D02*
X82251200Y-90748800D01*
X57748800Y-106248800D02*
X57748800Y-100103056D01*
X58000000Y-108000000D02*
X57750000Y-107750000D01*
X60603056Y-97248800D02*
X65103056Y-97248800D01*
X77603056Y-90748800D02*
X78248800Y-90748800D01*
X72103056Y-93748800D02*
X73103056Y-92748800D01*
X57750000Y-107250000D02*
X58000000Y-107000000D01*
X57748800Y-100103056D02*
X60603056Y-97248800D01*
X65103056Y-97248800D02*
X66248800Y-96103056D01*
X70396944Y-93748800D02*
X72103056Y-93748800D01*
X66248800Y-96103056D02*
X66248800Y-92103056D01*
X79750000Y-90750000D02*
X80000000Y-91000000D01*
X69751200Y-92080727D02*
X69751200Y-93103056D01*
X69751200Y-93103056D02*
X70396944Y-93748800D01*
X73103056Y-92748800D02*
X75603056Y-92748800D01*
X75603056Y-92748800D02*
X77603056Y-90748800D01*
X78248800Y-90748800D02*
X78500000Y-91000000D01*
X115603056Y-90748800D02*
X119148800Y-87203056D01*
X78500000Y-91000000D02*
X79000000Y-91000000D01*
X79000000Y-91000000D02*
X79250000Y-90750000D01*
X79250000Y-90750000D02*
X79750000Y-90750000D01*
X80000000Y-91000000D02*
X80500000Y-91000000D01*
X80500000Y-91000000D02*
X80750000Y-90750000D01*
X80750000Y-90750000D02*
X81250000Y-90750000D01*
X81250000Y-90750000D02*
X81500000Y-91000000D01*
X81500000Y-91000000D02*
X82000000Y-91000000D01*
X82251200Y-90748800D02*
X115603056Y-90748800D01*
X119148800Y-87203056D02*
X119148800Y-81726200D01*
X119148800Y-81726200D02*
X119150000Y-81725000D01*
X75896944Y-98751200D02*
X74103056Y-98751200D01*
X119651200Y-88496944D02*
X116396944Y-91751200D01*
X115000000Y-91750000D02*
X114500000Y-91750000D01*
X80603056Y-95251200D02*
X78396944Y-95251200D01*
X119650000Y-80600000D02*
X119650000Y-81725000D01*
X115250000Y-91500000D02*
X115000000Y-91750000D01*
X78396944Y-95251200D02*
X76751200Y-96896944D01*
X119650000Y-81725000D02*
X119651200Y-81726200D01*
X61698800Y-111098800D02*
X61850000Y-111250000D01*
X119651200Y-81726200D02*
X119651200Y-88496944D01*
X116396944Y-91751200D02*
X116001200Y-91751200D01*
X76751200Y-97896944D02*
X75896944Y-98751200D01*
X116001200Y-91751200D02*
X115750000Y-91500000D01*
X82603056Y-98751200D02*
X82248800Y-98396944D01*
X76751200Y-96896944D02*
X76751200Y-97896944D01*
X115750000Y-91500000D02*
X115250000Y-91500000D01*
X114250000Y-91500000D02*
X113750000Y-91500000D01*
X114500000Y-91750000D02*
X114250000Y-91500000D01*
X113750000Y-91500000D02*
X113498800Y-91751200D01*
X113498800Y-91751200D02*
X96646944Y-91751200D01*
X58751200Y-109603056D02*
X60246944Y-111098800D01*
X96646944Y-91751200D02*
X89646944Y-98751200D01*
X73248800Y-96396944D02*
X72103056Y-95251200D01*
X89646944Y-98751200D02*
X82603056Y-98751200D01*
X82248800Y-98396944D02*
X82248800Y-96896944D01*
X82248800Y-96896944D02*
X80603056Y-95251200D01*
X73248800Y-97896944D02*
X73248800Y-96396944D01*
X74103056Y-98751200D02*
X73248800Y-97896944D01*
X72103056Y-95251200D02*
X69896944Y-95251200D01*
X69896944Y-95251200D02*
X68751200Y-96396944D01*
X68751200Y-96396944D02*
X68751200Y-97896944D01*
X68751200Y-97896944D02*
X67896944Y-98751200D01*
X67896944Y-98751200D02*
X61293888Y-98751200D01*
X61293888Y-98751200D02*
X58751200Y-101293888D01*
X58751200Y-101293888D02*
X58751200Y-109603056D01*
X60246944Y-111098800D02*
X61698800Y-111098800D01*
X61850000Y-111250000D02*
X63350000Y-111250000D01*
X59500000Y-108250000D02*
X59250000Y-108000000D01*
X59500000Y-106750000D02*
X59250000Y-106500000D01*
X69248800Y-98103056D02*
X69248800Y-96603056D01*
X63350000Y-110450000D02*
X61850000Y-110450000D01*
X76103056Y-99248800D02*
X77248800Y-98103056D01*
X59250000Y-106500000D02*
X59250000Y-106000000D01*
X65250000Y-99500000D02*
X65750000Y-99500000D01*
X61850000Y-110450000D02*
X61698800Y-110601200D01*
X65000000Y-99250000D02*
X65250000Y-99500000D01*
X61698800Y-110601200D02*
X60453056Y-110601200D01*
X60453056Y-110601200D02*
X59248800Y-109396944D01*
X62250000Y-99500000D02*
X62750000Y-99500000D01*
X59248800Y-109396944D02*
X59248800Y-109001200D01*
X63000000Y-99250000D02*
X63500000Y-99250000D01*
X77248800Y-98103056D02*
X77248800Y-97103056D01*
X96853056Y-92248800D02*
X116603056Y-92248800D01*
X59248800Y-109001200D02*
X59500000Y-108750000D01*
X59500000Y-108750000D02*
X59500000Y-108250000D01*
X59500000Y-107250000D02*
X59500000Y-106750000D01*
X66001200Y-99248800D02*
X68103056Y-99248800D01*
X59250000Y-108000000D02*
X59250000Y-107500000D01*
X77248800Y-97103056D02*
X78603056Y-95748800D01*
X59248800Y-104998800D02*
X59248800Y-101500000D01*
X59250000Y-107500000D02*
X59500000Y-107250000D01*
X59500000Y-105250000D02*
X59248800Y-104998800D01*
X59250000Y-106000000D02*
X59500000Y-105750000D01*
X59500000Y-105750000D02*
X59500000Y-105250000D01*
X59248800Y-101500000D02*
X61500000Y-99248800D01*
X69248800Y-96603056D02*
X70103056Y-95748800D01*
X61500000Y-99248800D02*
X61998800Y-99248800D01*
X82396944Y-99248800D02*
X89853056Y-99248800D01*
X61998800Y-99248800D02*
X62250000Y-99500000D01*
X120150000Y-81725000D02*
X120150000Y-80600000D01*
X64250000Y-99500000D02*
X64500000Y-99250000D01*
X62750000Y-99500000D02*
X63000000Y-99250000D01*
X63500000Y-99250000D02*
X63750000Y-99500000D01*
X63750000Y-99500000D02*
X64250000Y-99500000D01*
X65750000Y-99500000D02*
X66001200Y-99248800D01*
X73896944Y-99248800D02*
X76103056Y-99248800D01*
X64500000Y-99250000D02*
X65000000Y-99250000D01*
X68103056Y-99248800D02*
X69248800Y-98103056D01*
X89853056Y-99248800D02*
X96853056Y-92248800D01*
X70103056Y-95748800D02*
X71896944Y-95748800D01*
X71896944Y-95748800D02*
X72751200Y-96603056D01*
X72751200Y-96603056D02*
X72751200Y-98103056D01*
X81751200Y-98603056D02*
X82396944Y-99248800D01*
X72751200Y-98103056D02*
X73896944Y-99248800D01*
X78603056Y-95748800D02*
X80396944Y-95748800D01*
X80396944Y-95748800D02*
X81751200Y-97103056D01*
X81751200Y-97103056D02*
X81751200Y-98603056D01*
X116603056Y-92248800D02*
X120148800Y-88703056D01*
X120148800Y-88703056D02*
X120148800Y-81726200D01*
X120148800Y-81726200D02*
X120150000Y-81725000D01*
D47*
X146000000Y-141620000D02*
X148000000Y-143620000D01*
X148000000Y-143620000D02*
X148000000Y-145500000D01*
X129250000Y-135750000D02*
X128325000Y-134825000D01*
X148000000Y-145500000D02*
X146250000Y-147250000D01*
X134750000Y-141500000D02*
X134750000Y-138250000D01*
X132250000Y-135750000D02*
X129250000Y-135750000D01*
X146250000Y-147250000D02*
X140500000Y-147250000D01*
X128325000Y-134825000D02*
X128325000Y-132800000D01*
X140500000Y-147250000D02*
X134750000Y-141500000D01*
X134750000Y-138250000D02*
X132250000Y-135750000D01*
X146000000Y-144160000D02*
X146000000Y-145750000D01*
X146000000Y-145750000D02*
X145500000Y-146250000D01*
X145500000Y-146250000D02*
X141750000Y-146250000D01*
X141750000Y-146250000D02*
X137750000Y-142250000D01*
X129750000Y-124500000D02*
X128975000Y-125275000D01*
X137750000Y-142250000D02*
X137750000Y-129000000D01*
X128975000Y-125275000D02*
X128975000Y-127200000D01*
X137750000Y-129000000D02*
X133250000Y-124500000D01*
X133250000Y-124500000D02*
X129750000Y-124500000D01*
X128250000Y-122000000D02*
X128250000Y-119875000D01*
X128250000Y-119875000D02*
X128325000Y-119800000D01*
X137653599Y-119096401D02*
X134250000Y-122500000D01*
X143460000Y-119960000D02*
X142596401Y-119096401D01*
X142596401Y-119096401D02*
X137653599Y-119096401D01*
X128975000Y-114200000D02*
X128975000Y-113025000D01*
X128975000Y-113025000D02*
X129500000Y-112500000D01*
X129500000Y-112500000D02*
X129500000Y-111500000D01*
X144750000Y-104250000D02*
X147750000Y-107250000D01*
X129500000Y-111500000D02*
X132750000Y-108250000D01*
X132750000Y-108250000D02*
X132750000Y-106000000D01*
X132750000Y-106000000D02*
X134500000Y-104250000D01*
X134500000Y-104250000D02*
X144750000Y-104250000D01*
X147750000Y-107250000D02*
X147750000Y-119431314D01*
X147750000Y-119431314D02*
X147221314Y-119960000D01*
X147221314Y-119960000D02*
X146000000Y-119960000D01*
X97325000Y-56500000D02*
X95500000Y-56500000D01*
X95500000Y-56500000D02*
X95000000Y-56000000D01*
X97325000Y-62905000D02*
X95405000Y-62905000D01*
X95405000Y-62905000D02*
X95000000Y-62500000D01*
X105225000Y-55250000D02*
X105205000Y-55230000D01*
X105205000Y-55230000D02*
X103675000Y-55230000D01*
X106000000Y-54500000D02*
X105975000Y-54500000D01*
X105975000Y-54500000D02*
X105225000Y-55250000D01*
X106000000Y-54500000D02*
X106000000Y-56000000D01*
X106000000Y-61000000D02*
X106000000Y-62500000D01*
X106000000Y-61000000D02*
X103856000Y-61000000D01*
X103856000Y-61000000D02*
X103675000Y-61181000D01*
X103675000Y-61181000D02*
X103675000Y-61635000D01*
D46*
X98500000Y-79750000D02*
X95250000Y-76500000D01*
X95250000Y-76500000D02*
X95250000Y-65250000D01*
X95250000Y-65250000D02*
X96000000Y-64500000D01*
X96000000Y-64500000D02*
X98000000Y-64500000D01*
X98000000Y-64500000D02*
X98500000Y-64000000D01*
X98500000Y-64000000D02*
X98500000Y-57750000D01*
D47*
X113897853Y-98920990D02*
X113099990Y-98920990D01*
X113099990Y-98920990D02*
X113000000Y-98821000D01*
X114500000Y-97000000D02*
X114500000Y-98318843D01*
X114500000Y-98318843D02*
X113897853Y-98920990D01*
X113500000Y-96000000D02*
X114500000Y-97000000D01*
X107250000Y-96000000D02*
X113500000Y-96000000D01*
D46*
X116000000Y-108500000D02*
X114800000Y-108500000D01*
X114800000Y-108500000D02*
X114750000Y-108550000D01*
D47*
X98230000Y-55230000D02*
X98500000Y-55500000D01*
X98500000Y-55500000D02*
X98500000Y-57750000D01*
X97325000Y-55230000D02*
X98230000Y-55230000D01*
X95730000Y-55230000D02*
X95000000Y-54500000D01*
X97325000Y-55230000D02*
X95730000Y-55230000D01*
X95635000Y-61635000D02*
X95000000Y-61000000D01*
X97325000Y-61635000D02*
X95635000Y-61635000D01*
X108069896Y-105930104D02*
X108069896Y-104780104D01*
X108069896Y-104780104D02*
X108250000Y-104600000D01*
X111700000Y-71650000D02*
X110150000Y-71650000D01*
X110150000Y-71650000D02*
X110000000Y-71500000D01*
X108250000Y-104600000D02*
X108250000Y-103050000D01*
X109750000Y-104600000D02*
X112550000Y-104600000D01*
X110500000Y-116000000D02*
X110500000Y-115000000D01*
X110500000Y-114000000D02*
X110500000Y-115000000D01*
X120650000Y-69200000D02*
X120650000Y-67600000D01*
X117750000Y-65750000D02*
X117750000Y-66700000D01*
X117750000Y-66700000D02*
X118150000Y-67100000D01*
X109000000Y-114000000D02*
X109000000Y-115000000D01*
X109000000Y-116000000D02*
X109000000Y-115000000D01*
X118150000Y-69200000D02*
X118150000Y-67100000D01*
X115500000Y-66500000D02*
X115500000Y-67262395D01*
X115500000Y-67262395D02*
X115650000Y-67412395D01*
X115650000Y-67412395D02*
X115650000Y-68250000D01*
X115650000Y-68250000D02*
X115650000Y-69200000D01*
X115641621Y-69191621D02*
X115650000Y-69200000D01*
X107500000Y-114000000D02*
X107500000Y-115000000D01*
X107500000Y-116000000D02*
X107500000Y-115000000D01*
X107450000Y-70350000D02*
X105950000Y-70350000D01*
X110550000Y-71150000D02*
X109750000Y-70350000D01*
X109750000Y-70350000D02*
X107450000Y-70350000D01*
X111700000Y-71150000D02*
X110550000Y-71150000D01*
X110000000Y-78500000D02*
X107850000Y-78500000D01*
X107850000Y-78500000D02*
X107350000Y-78000000D01*
X107350000Y-78000000D02*
X106750000Y-78000000D01*
X110350000Y-78150000D02*
X110000000Y-78500000D01*
X111700000Y-78150000D02*
X110350000Y-78150000D01*
X126500000Y-82500000D02*
X130500000Y-82500000D01*
X130500000Y-82500000D02*
X134450000Y-78550000D01*
X134450000Y-78550000D02*
X134450000Y-75050000D01*
X134450000Y-75050000D02*
X136350000Y-73150000D01*
X136350000Y-73150000D02*
X142350000Y-73150000D01*
D46*
X144280000Y-73150000D02*
X142350000Y-73150000D01*
D47*
X106750000Y-79500000D02*
X108000000Y-79500000D01*
X108000000Y-79500000D02*
X108500000Y-79000000D01*
X108500000Y-79000000D02*
X110400000Y-79000000D01*
X110400000Y-79000000D02*
X110750000Y-78650000D01*
X110750000Y-78650000D02*
X111700000Y-78650000D01*
X131500000Y-88500000D02*
X131500000Y-89250000D01*
X131500000Y-89250000D02*
X129000000Y-91750000D01*
X136750000Y-83250000D02*
X131500000Y-88500000D01*
X136750000Y-80750000D02*
X136750000Y-83250000D01*
X137000000Y-80500000D02*
X136750000Y-80750000D01*
X137900000Y-80500000D02*
X137000000Y-80500000D01*
X124750000Y-90000000D02*
X124750000Y-88750000D01*
X124750000Y-87750000D02*
X124750000Y-88750000D01*
X117150000Y-69200000D02*
X117150000Y-67100000D01*
X137900000Y-80500000D02*
X137900000Y-79850000D01*
X135750000Y-77000000D02*
X136350000Y-76400000D01*
X136350000Y-76400000D02*
X137900000Y-76400000D01*
X135750000Y-82000000D02*
X135750000Y-77000000D01*
X129000000Y-88750000D02*
X135750000Y-82000000D01*
X127750000Y-88750000D02*
X129000000Y-88750000D01*
X127750000Y-90000000D02*
X127750000Y-88750000D01*
X127750000Y-87750000D02*
X127750000Y-88750000D01*
X118650000Y-69200000D02*
X118650000Y-67850000D01*
X137900000Y-76400000D02*
X137900000Y-75750000D01*
X126250000Y-90000000D02*
X126250000Y-88750000D01*
X126250000Y-87750000D02*
X126250000Y-88750000D01*
X117650000Y-69200000D02*
X117650000Y-67850000D01*
X123250000Y-90000000D02*
X123250000Y-88750000D01*
X123250000Y-87750000D02*
X123250000Y-88750000D01*
X116650000Y-69200000D02*
X116650000Y-67850000D01*
X112500000Y-115000000D02*
X113750000Y-115000000D01*
X104000000Y-66000000D02*
X104000000Y-76000000D01*
X104000000Y-76000000D02*
X100500000Y-79500000D01*
X104400000Y-65600000D02*
X104000000Y-66000000D01*
X106850000Y-65600000D02*
X104400000Y-65600000D01*
X106850000Y-67300000D02*
X106850000Y-65600000D01*
X140100000Y-77050000D02*
X140750000Y-77050000D01*
X140750000Y-77050000D02*
X142050000Y-75750000D01*
X142050000Y-75750000D02*
X143530000Y-75750000D01*
X143530000Y-75750000D02*
X143630000Y-75650000D01*
X143630000Y-75650000D02*
X144280000Y-75650000D01*
X140100000Y-77100000D02*
X140350000Y-77100000D01*
X141750000Y-77250000D02*
X142850000Y-76150000D01*
X142850000Y-76150000D02*
X143630000Y-76150000D01*
X141750000Y-78500000D02*
X141750000Y-77250000D01*
X141500000Y-78750000D02*
X141750000Y-78500000D01*
X141500000Y-80000000D02*
X141500000Y-78750000D01*
X140350000Y-81150000D02*
X141500000Y-80000000D01*
X143630000Y-76150000D02*
X144280000Y-76150000D01*
X140100000Y-81150000D02*
X140350000Y-81150000D01*
X110150000Y-67950000D02*
X111300000Y-67950000D01*
X115150000Y-69200000D02*
X115150000Y-67410778D01*
X115150000Y-67410778D02*
X114989222Y-67250000D01*
X109050000Y-67950000D02*
X110150000Y-67950000D01*
D46*
X112550000Y-105900000D02*
X112550000Y-107250000D01*
D47*
X76000000Y-63040000D02*
X73960000Y-63040000D01*
X73960000Y-63040000D02*
X73500000Y-63500000D01*
X73500000Y-60500000D02*
X76000000Y-60500000D01*
D46*
X120600000Y-105700000D02*
X124750000Y-105700000D01*
X118700000Y-105550000D02*
X120450000Y-105550000D01*
X120450000Y-105550000D02*
X120600000Y-105700000D01*
X118700000Y-105550000D02*
X118700000Y-106950000D01*
X114750000Y-107900000D02*
X117775000Y-107900000D01*
X117775000Y-107900000D02*
X118700000Y-106975000D01*
X118700000Y-106975000D02*
X118700000Y-106950000D01*
D45*
X84500000Y-63000000D02*
X82390000Y-63000000D01*
X82390000Y-63000000D02*
X82350000Y-63040000D01*
D47*
X123250000Y-55750000D02*
X122625000Y-55750000D01*
X122625000Y-55750000D02*
X121700000Y-56675000D01*
X121700000Y-56675000D02*
X121700000Y-57050000D01*
X123750000Y-55250000D02*
X123250000Y-55750000D01*
X123250000Y-54750000D02*
X123750000Y-55250000D01*
X122250000Y-54750000D02*
X123250000Y-54750000D01*
X121450000Y-53950000D02*
X122250000Y-54750000D01*
X121400000Y-53950000D02*
X121450000Y-53950000D01*
X121700000Y-54250000D02*
X121400000Y-53950000D01*
X123300000Y-53000000D02*
X122325000Y-53000000D01*
X122325000Y-53000000D02*
X121400000Y-53925000D01*
X121400000Y-53925000D02*
X121400000Y-53950000D01*
X125750000Y-55750000D02*
X126375000Y-55750000D01*
X126375000Y-55750000D02*
X127300000Y-56675000D01*
X127300000Y-56675000D02*
X127300000Y-57050000D01*
X125250000Y-55250000D02*
X125750000Y-55750000D01*
X125750000Y-54750000D02*
X125750000Y-54625000D01*
X127325000Y-53050000D02*
X127350000Y-53050000D01*
X125750000Y-54625000D02*
X127325000Y-53050000D01*
X125250000Y-55250000D02*
X125750000Y-54750000D01*
X127350000Y-57000000D02*
X127300000Y-57050000D01*
X126400000Y-51400000D02*
X127350000Y-52350000D01*
X127350000Y-52350000D02*
X127350000Y-53050000D01*
X125500000Y-51400000D02*
X126400000Y-51400000D01*
D45*
X119600000Y-58550000D02*
X118100000Y-58550000D01*
D46*
X121700000Y-58350000D02*
X119800000Y-58350000D01*
X119800000Y-58350000D02*
X119600000Y-58550000D01*
D47*
X113250000Y-130750000D02*
X111375000Y-130750000D01*
X111375000Y-130750000D02*
X110325000Y-131800000D01*
X110325000Y-131800000D02*
X109800000Y-131800000D01*
X117200000Y-126800000D02*
X113250000Y-130750000D01*
X117200000Y-124525000D02*
X117200000Y-126800000D01*
X109800000Y-135950000D02*
X103150000Y-135950000D01*
X103150000Y-135950000D02*
X101100000Y-138000000D01*
X109800000Y-131800000D02*
X109800000Y-132525000D01*
X109800000Y-132525000D02*
X109800000Y-135950000D01*
X116200000Y-124525000D02*
X110775000Y-124525000D01*
X110775000Y-124525000D02*
X109800000Y-125500000D01*
X109800000Y-125500000D02*
X109800000Y-125700000D01*
X109800000Y-129850000D02*
X107250000Y-129850000D01*
X107250000Y-129850000D02*
X101100000Y-136000000D01*
X109800000Y-125700000D02*
X109800000Y-129850000D01*
X126000000Y-130500000D02*
X126375000Y-130875000D01*
X126375000Y-130875000D02*
X126375000Y-132800000D01*
X125500000Y-130500000D02*
X126000000Y-130500000D01*
X124500000Y-131500000D02*
X125500000Y-130500000D01*
X124500000Y-138500000D02*
X124500000Y-131500000D01*
X124920000Y-141500000D02*
X124920000Y-138920000D01*
X124920000Y-138920000D02*
X124500000Y-138500000D01*
X127500000Y-137000000D02*
X125725000Y-135225000D01*
X125725000Y-135225000D02*
X125725000Y-132800000D01*
X127500000Y-138500000D02*
X127500000Y-137000000D01*
X127460000Y-141500000D02*
X127460000Y-138540000D01*
X127460000Y-138540000D02*
X127500000Y-138500000D01*
X127500000Y-125000000D02*
X127025000Y-125475000D01*
X127025000Y-125475000D02*
X127025000Y-127200000D01*
X130500000Y-138500000D02*
X130500000Y-137250000D01*
X130000000Y-141500000D02*
X130000000Y-139000000D01*
X130000000Y-139000000D02*
X130500000Y-138500000D01*
X114000000Y-138500000D02*
X114000000Y-131000000D01*
X114000000Y-131000000D02*
X118750000Y-126250000D01*
X124500000Y-118500000D02*
X125000000Y-118000000D01*
X118750000Y-126250000D02*
X120500000Y-126250000D01*
X120500000Y-126250000D02*
X124500000Y-122250000D01*
X124500000Y-122250000D02*
X124500000Y-118500000D01*
X125000000Y-118000000D02*
X125575000Y-118000000D01*
X125575000Y-118000000D02*
X126375000Y-118800000D01*
X126375000Y-118800000D02*
X126375000Y-119800000D01*
X114420000Y-141500000D02*
X114420000Y-138920000D01*
X114420000Y-138920000D02*
X114000000Y-138500000D01*
X118500000Y-129000000D02*
X125725000Y-121775000D01*
X125725000Y-121775000D02*
X125725000Y-119800000D01*
X118500000Y-136425000D02*
X118500000Y-129000000D01*
X117000000Y-138500000D02*
X117000000Y-137925000D01*
X117000000Y-137925000D02*
X118500000Y-136425000D01*
X116960000Y-141500000D02*
X116960000Y-138540000D01*
X116960000Y-138540000D02*
X117000000Y-138500000D01*
X127825000Y-116000000D02*
X127025000Y-115200000D01*
X120000000Y-138500000D02*
X120000000Y-129000000D01*
X120000000Y-129000000D02*
X126500000Y-122500000D01*
X126500000Y-122500000D02*
X132000000Y-122500000D01*
X132000000Y-122500000D02*
X133500000Y-121000000D01*
X133500000Y-121000000D02*
X133500000Y-117000000D01*
X133500000Y-117000000D02*
X132500000Y-116000000D01*
X127025000Y-115200000D02*
X127025000Y-114200000D01*
X132500000Y-116000000D02*
X127825000Y-116000000D01*
X119500000Y-141500000D02*
X119500000Y-139000000D01*
X119500000Y-139000000D02*
X120000000Y-138500000D01*
X73500000Y-62000000D02*
X75770000Y-62000000D01*
X75770000Y-62000000D02*
X76000000Y-61770000D01*
X76000000Y-59230000D02*
X73730000Y-59230000D01*
X73730000Y-59230000D02*
X73500000Y-59000000D01*
X76000000Y-57500000D02*
X76000000Y-59230000D01*
X129250000Y-57500000D02*
X129050000Y-57700000D01*
X129050000Y-57700000D02*
X127300000Y-57700000D01*
X135000000Y-57500000D02*
X129250000Y-57500000D01*
D46*
X125000000Y-82500000D02*
X123100000Y-80600000D01*
X123100000Y-80600000D02*
X121150000Y-80600000D01*
D47*
X119600000Y-57050000D02*
X120200000Y-57050000D01*
X120200000Y-57050000D02*
X120850000Y-57700000D01*
X120850000Y-57700000D02*
X121700000Y-57700000D01*
X131100000Y-59300000D02*
X130525000Y-59300000D01*
X130525000Y-59300000D02*
X130225000Y-59000000D01*
X130225000Y-59000000D02*
X128300000Y-59000000D01*
X128300000Y-59000000D02*
X127300000Y-59000000D01*
X127300000Y-58350000D02*
X134325000Y-58350000D01*
X134325000Y-58350000D02*
X134975000Y-59000000D01*
X134975000Y-59000000D02*
X135000000Y-59000000D01*
D44*
X90646944Y-101001200D02*
X97451943Y-94196201D01*
X97451943Y-94196201D02*
X136233799Y-94196201D01*
X61896944Y-101001200D02*
X90646944Y-101001200D01*
X63350000Y-108850000D02*
X61850000Y-108850000D01*
X61850000Y-108850000D02*
X61698800Y-108698800D01*
X61698800Y-108698800D02*
X60846944Y-108698800D01*
X60846944Y-108698800D02*
X60251200Y-108103056D01*
X60251200Y-108103056D02*
X60251200Y-102646944D01*
X60251200Y-102646944D02*
X61896944Y-101001200D01*
X137000000Y-93430000D02*
X136233799Y-94196201D01*
X61053056Y-108201200D02*
X60748800Y-107896944D01*
X63350000Y-108050000D02*
X61850000Y-108050000D01*
X61000000Y-104000000D02*
X60748800Y-103748800D01*
X61850000Y-108050000D02*
X61698800Y-108201200D01*
X62103056Y-101498800D02*
X62748800Y-101498800D01*
X61698800Y-108201200D02*
X61053056Y-108201200D01*
X60748800Y-103748800D02*
X60748800Y-102853056D01*
X60750000Y-104750000D02*
X61000000Y-104500000D01*
X66750000Y-102000000D02*
X67251200Y-101498800D01*
X60748800Y-107896944D02*
X60748800Y-106501200D01*
X60748800Y-102853056D02*
X62103056Y-101498800D01*
X61000000Y-104500000D02*
X61000000Y-104000000D01*
X60748800Y-106501200D02*
X61000000Y-106250000D01*
X61000000Y-106250000D02*
X61000000Y-105750000D01*
X61000000Y-105750000D02*
X60750000Y-105500000D01*
X62748800Y-101498800D02*
X63250000Y-102000000D01*
X63250000Y-102000000D02*
X64000000Y-102000000D01*
X68750000Y-102000000D02*
X69500000Y-102000000D01*
X60750000Y-105500000D02*
X60750000Y-104750000D01*
X64000000Y-102000000D02*
X64500000Y-101500000D01*
X64500000Y-101500000D02*
X65500000Y-101500000D01*
X65500000Y-101500000D02*
X66000000Y-102000000D01*
X66000000Y-102000000D02*
X66750000Y-102000000D01*
X68248800Y-101498800D02*
X68750000Y-102000000D01*
X67251200Y-101498800D02*
X68248800Y-101498800D01*
X69500000Y-102000000D02*
X70001200Y-101498800D01*
X97658057Y-94693799D02*
X136233799Y-94693799D01*
X70001200Y-101498800D02*
X90853056Y-101498800D01*
X90853056Y-101498800D02*
X97658057Y-94693799D01*
X136233799Y-94693799D02*
X137000000Y-95460000D01*
D47*
X72000000Y-59000000D02*
X72000000Y-60500000D01*
D45*
X86000000Y-63000000D02*
X86000000Y-61625000D01*
X86000000Y-61625000D02*
X87000000Y-60625000D01*
X126500000Y-63500000D02*
X126500000Y-65000000D01*
X126500000Y-66500000D02*
X126500000Y-65000000D01*
X118750000Y-54500000D02*
X119250000Y-54500000D01*
X119250000Y-54500000D02*
X120750000Y-56000000D01*
X126500000Y-63500000D02*
X127500000Y-63500000D01*
X126500000Y-66500000D02*
X126500000Y-67400000D01*
D46*
X123100000Y-74150000D02*
X124700000Y-74150000D01*
D45*
X99100000Y-106000000D02*
X97000000Y-106000000D01*
X94900000Y-100450000D02*
X97850000Y-97500000D01*
X97000000Y-106000000D02*
X94900000Y-103900000D01*
X94900000Y-103900000D02*
X94900000Y-100450000D01*
X97850000Y-97500000D02*
X105500000Y-97500000D01*
D47*
X129250000Y-134500000D02*
X128975000Y-134225000D01*
X128975000Y-134225000D02*
X128975000Y-132800000D01*
X129000000Y-118000000D02*
X128975000Y-118025000D01*
X128975000Y-118025000D02*
X128975000Y-119800000D01*
X127750000Y-116750000D02*
X129000000Y-118000000D01*
X97000000Y-122000000D02*
X95500000Y-120500000D01*
X95500000Y-120500000D02*
X95500000Y-108000000D01*
X99100000Y-122000000D02*
X97000000Y-122000000D01*
X140500000Y-60500000D02*
X140500000Y-61500000D01*
X142975000Y-59025000D02*
X141500000Y-60500000D01*
X141500000Y-60500000D02*
X140500000Y-60500000D01*
X142975000Y-57700000D02*
X142975000Y-59025000D01*
X140500000Y-56925000D02*
X141725000Y-55700000D01*
X141725000Y-55700000D02*
X142975000Y-55700000D01*
X140500000Y-57500000D02*
X140500000Y-56925000D01*
X140500000Y-59000000D02*
X141100000Y-59000000D01*
X141100000Y-59000000D02*
X141500000Y-58600000D01*
X141500000Y-58600000D02*
X141500000Y-57000000D01*
X141500000Y-57000000D02*
X141800000Y-56700000D01*
X141800000Y-56700000D02*
X142975000Y-56700000D01*
D46*
G36*
X69373000Y-56623000D02*
X67302606Y-56623000D01*
X67089803Y-56410197D01*
X67047789Y-56382334D01*
X67000000Y-56373000D01*
X66500000Y-56373000D01*
X66450590Y-56383006D01*
X66410197Y-56410197D01*
X65910197Y-56910197D01*
X65882334Y-56952211D01*
X65873000Y-57000000D01*
X65873000Y-57447394D01*
X64447394Y-58873000D01*
X62552606Y-58873000D01*
X61127000Y-57447394D01*
X61127000Y-55052606D01*
X62552606Y-53627000D01*
X69373000Y-53627000D01*
X69373000Y-56623000D01*
X69373000Y-56623000D01*
G37*
X69373000Y-56623000D02*
X67302606Y-56623000D01*
X67089803Y-56410197D01*
X67047789Y-56382334D01*
X67000000Y-56373000D01*
X66500000Y-56373000D01*
X66450590Y-56383006D01*
X66410197Y-56410197D01*
X65910197Y-56910197D01*
X65882334Y-56952211D01*
X65873000Y-57000000D01*
X65873000Y-57447394D01*
X64447394Y-58873000D01*
X62552606Y-58873000D01*
X61127000Y-57447394D01*
X61127000Y-55052606D01*
X62552606Y-53627000D01*
X69373000Y-53627000D01*
X69373000Y-56623000D01*
G36*
X69123000Y-60000000D02*
X69133006Y-60049410D01*
X69160197Y-60089803D01*
X69410197Y-60339803D01*
X69452211Y-60367666D01*
X69500000Y-60377000D01*
X69947394Y-60377000D01*
X71160197Y-61589803D01*
X71202211Y-61617666D01*
X71250000Y-61627000D01*
X72373000Y-61627000D01*
X72373000Y-62373000D01*
X71250000Y-62373000D01*
X71200590Y-62383006D01*
X71160197Y-62410197D01*
X70910197Y-62660197D01*
X70882334Y-62702211D01*
X70873000Y-62750000D01*
X70873000Y-64873000D01*
X67877000Y-64873000D01*
X67877000Y-57377000D01*
X69123000Y-57377000D01*
X69123000Y-60000000D01*
X69123000Y-60000000D01*
G37*
X69123000Y-60000000D02*
X69133006Y-60049410D01*
X69160197Y-60089803D01*
X69410197Y-60339803D01*
X69452211Y-60367666D01*
X69500000Y-60377000D01*
X69947394Y-60377000D01*
X71160197Y-61589803D01*
X71202211Y-61617666D01*
X71250000Y-61627000D01*
X72373000Y-61627000D01*
X72373000Y-62373000D01*
X71250000Y-62373000D01*
X71200590Y-62383006D01*
X71160197Y-62410197D01*
X70910197Y-62660197D01*
X70882334Y-62702211D01*
X70873000Y-62750000D01*
X70873000Y-64873000D01*
X67877000Y-64873000D01*
X67877000Y-57377000D01*
X69123000Y-57377000D01*
X69123000Y-60000000D01*
G36*
X90373000Y-59802606D02*
X90373000Y-61447394D01*
X89697394Y-62123000D01*
X84802606Y-62123000D01*
X83689803Y-61010197D01*
X83647789Y-60982334D01*
X83600000Y-60973000D01*
X81652606Y-60973000D01*
X81627000Y-60947394D01*
X81627000Y-60052606D01*
X81652606Y-60027000D01*
X83600000Y-60027000D01*
X83649410Y-60016994D01*
X83689803Y-59989803D01*
X84302606Y-59377000D01*
X89947394Y-59377000D01*
X90373000Y-59802606D01*
X90373000Y-59802606D01*
G37*
X90373000Y-59802606D02*
X90373000Y-61447394D01*
X89697394Y-62123000D01*
X84802606Y-62123000D01*
X83689803Y-61010197D01*
X83647789Y-60982334D01*
X83600000Y-60973000D01*
X81652606Y-60973000D01*
X81627000Y-60947394D01*
X81627000Y-60052606D01*
X81652606Y-60027000D01*
X83600000Y-60027000D01*
X83649410Y-60016994D01*
X83689803Y-59989803D01*
X84302606Y-59377000D01*
X89947394Y-59377000D01*
X90373000Y-59802606D01*
G36*
X80623000Y-59209781D02*
X80615000Y-59250000D01*
X80623000Y-59290219D01*
X80623000Y-61000000D01*
X80633006Y-61049410D01*
X80660197Y-61089803D01*
X81160197Y-61589803D01*
X81202211Y-61617666D01*
X81250000Y-61627000D01*
X82947394Y-61627000D01*
X83123000Y-61802606D01*
X83123000Y-61947394D01*
X82947394Y-62123000D01*
X80802606Y-62123000D01*
X78627000Y-59947394D01*
X78627000Y-54127000D01*
X80623000Y-54127000D01*
X80623000Y-59209781D01*
X80623000Y-59209781D01*
G37*
X80623000Y-59209781D02*
X80615000Y-59250000D01*
X80623000Y-59290219D01*
X80623000Y-61000000D01*
X80633006Y-61049410D01*
X80660197Y-61089803D01*
X81160197Y-61589803D01*
X81202211Y-61617666D01*
X81250000Y-61627000D01*
X82947394Y-61627000D01*
X83123000Y-61802606D01*
X83123000Y-61947394D01*
X82947394Y-62123000D01*
X80802606Y-62123000D01*
X78627000Y-59947394D01*
X78627000Y-54127000D01*
X80623000Y-54127000D01*
X80623000Y-59209781D01*
G36*
X98123000Y-52302606D02*
X98123000Y-53947394D01*
X97947394Y-54123000D01*
X96802606Y-54123000D01*
X96339803Y-53660197D01*
X96297789Y-53632334D01*
X96250000Y-53623000D01*
X94250000Y-53623000D01*
X94200590Y-53633006D01*
X94160197Y-53660197D01*
X93910197Y-53910197D01*
X93882334Y-53952211D01*
X93873000Y-54000000D01*
X93873000Y-58250000D01*
X93883006Y-58299410D01*
X93910197Y-58339803D01*
X94160197Y-58589803D01*
X94202211Y-58617666D01*
X94250000Y-58627000D01*
X97947394Y-58627000D01*
X97992000Y-58671606D01*
X97992000Y-60578394D01*
X97947394Y-60623000D01*
X96802606Y-60623000D01*
X96089803Y-59910197D01*
X96047789Y-59882334D01*
X96000000Y-59873000D01*
X94500000Y-59873000D01*
X94450590Y-59883006D01*
X94410197Y-59910197D01*
X94160197Y-60160197D01*
X94132334Y-60202211D01*
X94123000Y-60250000D01*
X94123000Y-62947394D01*
X93947394Y-63123000D01*
X93052606Y-63123000D01*
X92877000Y-62947394D01*
X92877000Y-59500000D01*
X92866994Y-59450590D01*
X92839803Y-59410197D01*
X91877000Y-58447394D01*
X91877000Y-54250000D01*
X91866994Y-54200590D01*
X91839803Y-54160197D01*
X91339803Y-53660197D01*
X91297789Y-53632334D01*
X91250000Y-53623000D01*
X90250000Y-53623000D01*
X90200590Y-53633006D01*
X90160197Y-53660197D01*
X89660197Y-54160197D01*
X89632334Y-54202211D01*
X89623000Y-54250000D01*
X89623000Y-57947394D01*
X89447394Y-58123000D01*
X84552606Y-58123000D01*
X84377000Y-57947394D01*
X84377000Y-56552606D01*
X84839803Y-56089803D01*
X84867666Y-56047789D01*
X84877000Y-56000000D01*
X84877000Y-52302606D01*
X85052606Y-52127000D01*
X97947394Y-52127000D01*
X98123000Y-52302606D01*
X98123000Y-52302606D01*
G37*
X98123000Y-52302606D02*
X98123000Y-53947394D01*
X97947394Y-54123000D01*
X96802606Y-54123000D01*
X96339803Y-53660197D01*
X96297789Y-53632334D01*
X96250000Y-53623000D01*
X94250000Y-53623000D01*
X94200590Y-53633006D01*
X94160197Y-53660197D01*
X93910197Y-53910197D01*
X93882334Y-53952211D01*
X93873000Y-54000000D01*
X93873000Y-58250000D01*
X93883006Y-58299410D01*
X93910197Y-58339803D01*
X94160197Y-58589803D01*
X94202211Y-58617666D01*
X94250000Y-58627000D01*
X97947394Y-58627000D01*
X97992000Y-58671606D01*
X97992000Y-60578394D01*
X97947394Y-60623000D01*
X96802606Y-60623000D01*
X96089803Y-59910197D01*
X96047789Y-59882334D01*
X96000000Y-59873000D01*
X94500000Y-59873000D01*
X94450590Y-59883006D01*
X94410197Y-59910197D01*
X94160197Y-60160197D01*
X94132334Y-60202211D01*
X94123000Y-60250000D01*
X94123000Y-62947394D01*
X93947394Y-63123000D01*
X93052606Y-63123000D01*
X92877000Y-62947394D01*
X92877000Y-59500000D01*
X92866994Y-59450590D01*
X92839803Y-59410197D01*
X91877000Y-58447394D01*
X91877000Y-54250000D01*
X91866994Y-54200590D01*
X91839803Y-54160197D01*
X91339803Y-53660197D01*
X91297789Y-53632334D01*
X91250000Y-53623000D01*
X90250000Y-53623000D01*
X90200590Y-53633006D01*
X90160197Y-53660197D01*
X89660197Y-54160197D01*
X89632334Y-54202211D01*
X89623000Y-54250000D01*
X89623000Y-57947394D01*
X89447394Y-58123000D01*
X84552606Y-58123000D01*
X84377000Y-57947394D01*
X84377000Y-56552606D01*
X84839803Y-56089803D01*
X84867666Y-56047789D01*
X84877000Y-56000000D01*
X84877000Y-52302606D01*
X85052606Y-52127000D01*
X97947394Y-52127000D01*
X98123000Y-52302606D01*
G36*
X109660197Y-59089803D02*
X109702211Y-59117666D01*
X109750000Y-59127000D01*
X112697394Y-59127000D01*
X112723000Y-59152606D01*
X112723000Y-61347394D01*
X112697394Y-61373000D01*
X110000000Y-61373000D01*
X109950590Y-61383006D01*
X109910197Y-61410197D01*
X109697394Y-61623000D01*
X107302606Y-61623000D01*
X107127000Y-61447394D01*
X107127000Y-60500000D01*
X107116994Y-60450590D01*
X107089803Y-60410197D01*
X106589803Y-59910197D01*
X106547789Y-59882334D01*
X106500000Y-59873000D01*
X105250000Y-59873000D01*
X105200590Y-59883006D01*
X105160197Y-59910197D01*
X104551394Y-60519000D01*
X103856000Y-60519000D01*
X103671929Y-60555614D01*
X103609426Y-60597378D01*
X103571079Y-60623000D01*
X102877000Y-60623000D01*
X102877000Y-58627000D01*
X109197394Y-58627000D01*
X109660197Y-59089803D01*
X109660197Y-59089803D01*
G37*
X109660197Y-59089803D02*
X109702211Y-59117666D01*
X109750000Y-59127000D01*
X112697394Y-59127000D01*
X112723000Y-59152606D01*
X112723000Y-61347394D01*
X112697394Y-61373000D01*
X110000000Y-61373000D01*
X109950590Y-61383006D01*
X109910197Y-61410197D01*
X109697394Y-61623000D01*
X107302606Y-61623000D01*
X107127000Y-61447394D01*
X107127000Y-60500000D01*
X107116994Y-60450590D01*
X107089803Y-60410197D01*
X106589803Y-59910197D01*
X106547789Y-59882334D01*
X106500000Y-59873000D01*
X105250000Y-59873000D01*
X105200590Y-59883006D01*
X105160197Y-59910197D01*
X104551394Y-60519000D01*
X103856000Y-60519000D01*
X103671929Y-60555614D01*
X103609426Y-60597378D01*
X103571079Y-60623000D01*
X102877000Y-60623000D01*
X102877000Y-58627000D01*
X109197394Y-58627000D01*
X109660197Y-59089803D01*
G36*
X106373000Y-51302606D02*
X106373000Y-52750000D01*
X106383006Y-52799410D01*
X106410197Y-52839803D01*
X106660197Y-53089803D01*
X106702211Y-53117666D01*
X106750000Y-53127000D01*
X112697394Y-53127000D01*
X112873000Y-53302606D01*
X112873000Y-55000000D01*
X112883006Y-55049410D01*
X112910197Y-55089803D01*
X113123000Y-55302606D01*
X113123000Y-56373000D01*
X110052606Y-56373000D01*
X108839803Y-55160197D01*
X108797789Y-55132334D01*
X108750000Y-55123000D01*
X107302606Y-55123000D01*
X107127000Y-54947394D01*
X107127000Y-54000000D01*
X107116994Y-53950590D01*
X107089803Y-53910197D01*
X106839803Y-53660197D01*
X106797789Y-53632334D01*
X106750000Y-53623000D01*
X105500000Y-53623000D01*
X105450590Y-53633006D01*
X105410197Y-53660197D01*
X104697394Y-54373000D01*
X102802606Y-54373000D01*
X102627000Y-54197394D01*
X102627000Y-51302606D01*
X102802606Y-51127000D01*
X106197394Y-51127000D01*
X106373000Y-51302606D01*
X106373000Y-51302606D01*
G37*
X106373000Y-51302606D02*
X106373000Y-52750000D01*
X106383006Y-52799410D01*
X106410197Y-52839803D01*
X106660197Y-53089803D01*
X106702211Y-53117666D01*
X106750000Y-53127000D01*
X112697394Y-53127000D01*
X112873000Y-53302606D01*
X112873000Y-55000000D01*
X112883006Y-55049410D01*
X112910197Y-55089803D01*
X113123000Y-55302606D01*
X113123000Y-56373000D01*
X110052606Y-56373000D01*
X108839803Y-55160197D01*
X108797789Y-55132334D01*
X108750000Y-55123000D01*
X107302606Y-55123000D01*
X107127000Y-54947394D01*
X107127000Y-54000000D01*
X107116994Y-53950590D01*
X107089803Y-53910197D01*
X106839803Y-53660197D01*
X106797789Y-53632334D01*
X106750000Y-53623000D01*
X105500000Y-53623000D01*
X105450590Y-53633006D01*
X105410197Y-53660197D01*
X104697394Y-54373000D01*
X102802606Y-54373000D01*
X102627000Y-54197394D01*
X102627000Y-51302606D01*
X102802606Y-51127000D01*
X106197394Y-51127000D01*
X106373000Y-51302606D01*
G36*
X117623000Y-54052606D02*
X117623000Y-55697394D01*
X117447394Y-55873000D01*
X117302606Y-55873000D01*
X116339803Y-54910197D01*
X116297789Y-54882334D01*
X116250000Y-54873000D01*
X113552606Y-54873000D01*
X113427000Y-54747394D01*
X113427000Y-53752606D01*
X113552606Y-53627000D01*
X117197394Y-53627000D01*
X117623000Y-54052606D01*
X117623000Y-54052606D01*
G37*
X117623000Y-54052606D02*
X117623000Y-55697394D01*
X117447394Y-55873000D01*
X117302606Y-55873000D01*
X116339803Y-54910197D01*
X116297789Y-54882334D01*
X116250000Y-54873000D01*
X113552606Y-54873000D01*
X113427000Y-54747394D01*
X113427000Y-53752606D01*
X113552606Y-53627000D01*
X117197394Y-53627000D01*
X117623000Y-54052606D01*
G36*
X143678866Y-77632859D02*
X143830000Y-77663464D01*
X144623000Y-77663464D01*
X144623000Y-79123000D01*
X143750000Y-79123000D01*
X143700590Y-79133006D01*
X143660197Y-79160197D01*
X143600403Y-79219991D01*
X143559135Y-79246546D01*
X143527395Y-79292999D01*
X143410197Y-79410197D01*
X143382334Y-79452211D01*
X143373000Y-79500000D01*
X143373000Y-84697394D01*
X142947394Y-85123000D01*
X140552606Y-85123000D01*
X140127000Y-84697394D01*
X140127000Y-82302606D01*
X140552606Y-81877000D01*
X140750000Y-81877000D01*
X140799410Y-81866994D01*
X140839803Y-81839803D01*
X141089803Y-81589803D01*
X141117666Y-81547789D01*
X141127000Y-81500000D01*
X141127000Y-81053236D01*
X141840119Y-80340118D01*
X141841390Y-80338216D01*
X142089803Y-80089803D01*
X142117666Y-80047789D01*
X142127000Y-80000000D01*
X142127000Y-79052606D01*
X142339803Y-78839803D01*
X142367666Y-78797789D01*
X142377000Y-78750000D01*
X142377000Y-77802606D01*
X142552606Y-77627000D01*
X143670291Y-77627000D01*
X143678866Y-77632859D01*
X143678866Y-77632859D01*
G37*
X143678866Y-77632859D02*
X143830000Y-77663464D01*
X144623000Y-77663464D01*
X144623000Y-79123000D01*
X143750000Y-79123000D01*
X143700590Y-79133006D01*
X143660197Y-79160197D01*
X143600403Y-79219991D01*
X143559135Y-79246546D01*
X143527395Y-79292999D01*
X143410197Y-79410197D01*
X143382334Y-79452211D01*
X143373000Y-79500000D01*
X143373000Y-84697394D01*
X142947394Y-85123000D01*
X140552606Y-85123000D01*
X140127000Y-84697394D01*
X140127000Y-82302606D01*
X140552606Y-81877000D01*
X140750000Y-81877000D01*
X140799410Y-81866994D01*
X140839803Y-81839803D01*
X141089803Y-81589803D01*
X141117666Y-81547789D01*
X141127000Y-81500000D01*
X141127000Y-81053236D01*
X141840119Y-80340118D01*
X141841390Y-80338216D01*
X142089803Y-80089803D01*
X142117666Y-80047789D01*
X142127000Y-80000000D01*
X142127000Y-79052606D01*
X142339803Y-78839803D01*
X142367666Y-78797789D01*
X142377000Y-78750000D01*
X142377000Y-77802606D01*
X142552606Y-77627000D01*
X143670291Y-77627000D01*
X143678866Y-77632859D01*
G36*
X149373000Y-83373000D02*
X146127000Y-83373000D01*
X146127000Y-82000000D01*
X146116994Y-81950590D01*
X146088553Y-81908965D01*
X146046159Y-81881685D01*
X146000000Y-81873000D01*
X145877000Y-81873000D01*
X145877000Y-80750000D01*
X145866994Y-80700590D01*
X145838553Y-80658965D01*
X145796159Y-80631685D01*
X145750000Y-80623000D01*
X143977000Y-80623000D01*
X143977000Y-80377000D01*
X146250000Y-80377000D01*
X146299410Y-80366994D01*
X146341035Y-80338553D01*
X146368315Y-80296159D01*
X146377000Y-80250000D01*
X146377000Y-64500000D01*
X146366994Y-64450590D01*
X146338553Y-64408965D01*
X146296159Y-64381685D01*
X146250000Y-64373000D01*
X143877000Y-64373000D01*
X143877000Y-64127000D01*
X145750000Y-64127000D01*
X145799410Y-64116994D01*
X145841035Y-64088553D01*
X145868315Y-64046159D01*
X145877000Y-64000000D01*
X145877000Y-62877000D01*
X146000000Y-62877000D01*
X146049410Y-62866994D01*
X146091035Y-62838553D01*
X146118315Y-62796159D01*
X146127000Y-62750000D01*
X146127000Y-61377000D01*
X149373000Y-61377000D01*
X149373000Y-83373000D01*
X149373000Y-83373000D01*
G37*
X149373000Y-83373000D02*
X146127000Y-83373000D01*
X146127000Y-82000000D01*
X146116994Y-81950590D01*
X146088553Y-81908965D01*
X146046159Y-81881685D01*
X146000000Y-81873000D01*
X145877000Y-81873000D01*
X145877000Y-80750000D01*
X145866994Y-80700590D01*
X145838553Y-80658965D01*
X145796159Y-80631685D01*
X145750000Y-80623000D01*
X143977000Y-80623000D01*
X143977000Y-80377000D01*
X146250000Y-80377000D01*
X146299410Y-80366994D01*
X146341035Y-80338553D01*
X146368315Y-80296159D01*
X146377000Y-80250000D01*
X146377000Y-64500000D01*
X146366994Y-64450590D01*
X146338553Y-64408965D01*
X146296159Y-64381685D01*
X146250000Y-64373000D01*
X143877000Y-64373000D01*
X143877000Y-64127000D01*
X145750000Y-64127000D01*
X145799410Y-64116994D01*
X145841035Y-64088553D01*
X145868315Y-64046159D01*
X145877000Y-64000000D01*
X145877000Y-62877000D01*
X146000000Y-62877000D01*
X146049410Y-62866994D01*
X146091035Y-62838553D01*
X146118315Y-62796159D01*
X146127000Y-62750000D01*
X146127000Y-61377000D01*
X149373000Y-61377000D01*
X149373000Y-83373000D01*
M02*
